<svg width="212" height="41" viewBox="0 0 212 41" fill="none" xmlns="http://www.w3.org/2000/svg">
<mask id="path-1-inside-1_2980_1504" fill="white">
<path fill-rule="evenodd" clip-rule="evenodd" d="M20 40.4492C8.95431 40.4492 0 31.4949 0 20.4492C0 9.40352 8.95431 0.449219 20 0.449219H157C162.643 0.449219 167.74 2.78596 171.376 6.54454C173.111 8.3386 176.655 8.31175 178.376 6.50403C181.928 2.77397 186.943 0.449219 192.5 0.449219C203.27 0.449219 212 9.17967 212 19.9492V20.9492C212 31.7188 203.27 40.4492 192.5 40.4492C186.943 40.4492 181.928 38.1245 178.376 34.3944C176.655 32.5867 173.111 32.5598 171.376 34.3539C167.74 38.1125 162.643 40.4492 157 40.4492H20Z"/>
</mask>
<path d="M178.376 34.3944L177.652 35.084L178.376 34.3944ZM171.376 34.3539L172.094 35.0492L171.376 34.3539ZM171.376 6.54454L172.094 5.84923L171.376 6.54454ZM178.376 6.50403L177.652 5.81442L178.376 6.50403ZM1 20.4492C1 30.9426 9.50659 39.4492 20 39.4492V41.4492C8.40202 41.4492 -1 32.0472 -1 20.4492H1ZM20 1.44922C9.50659 1.44922 1 9.95581 1 20.4492H-1C-1 8.85124 8.40203 -0.550781 20 -0.550781V1.44922ZM157 1.44922H20V-0.550781H157V1.44922ZM170.657 7.23985C167.201 3.66795 162.361 1.44922 157 1.44922V-0.550781C162.925 -0.550781 168.278 1.90397 172.094 5.84923L170.657 7.23985ZM192.5 1.44922C187.228 1.44922 182.472 3.65354 179.101 7.19363L177.652 5.81442C181.385 1.8944 186.658 -0.550781 192.5 -0.550781V1.44922ZM211 19.9492C211 9.73195 202.717 1.44922 192.5 1.44922V-0.550781C203.822 -0.550781 213 8.62738 213 19.9492H211ZM211 20.9492V19.9492H213V20.9492H211ZM192.5 39.4492C202.717 39.4492 211 31.1665 211 20.9492H213C213 32.2711 203.822 41.4492 192.5 41.4492V39.4492ZM179.101 33.7048C182.472 37.2449 187.228 39.4492 192.5 39.4492V41.4492C186.658 41.4492 181.385 39.004 177.652 35.084L179.101 33.7048ZM157 39.4492C162.361 39.4492 167.201 37.2305 170.657 33.6586L172.094 35.0492C168.278 38.9945 162.925 41.4492 157 41.4492V39.4492ZM20 39.4492H157V41.4492H20V39.4492ZM177.652 35.084C177.021 34.4212 175.99 34.0306 174.875 34.0235C173.76 34.0163 172.729 34.3937 172.094 35.0492L170.657 33.6586C171.758 32.5201 173.367 32.0138 174.888 32.0235C176.409 32.0332 178.01 32.5599 179.101 33.7048L177.652 35.084ZM172.094 5.84923C172.729 6.50476 173.76 6.8821 174.875 6.87497C175.99 6.86785 177.021 6.47723 177.652 5.81442L179.101 7.19363C178.01 8.33854 176.409 8.86521 174.888 8.87493C173.367 8.88465 171.758 8.37838 170.657 7.23985L172.094 5.84923Z" fill="#BBBBBB" mask="url(#path-1-inside-1_2980_1504)"/>
</svg>
