<svg width="24" height="24" viewBox="0 0 24 24" fill="none" xmlns="http://www.w3.org/2000/svg">
<path d="M17.8205 14.5563V19.8317C17.8205 20.2824 17.5807 20.6994 17.1905 20.9245L12.6296 23.5625C12.2394 23.7876 11.7593 23.7876 11.3696 23.5625L6.80822 20.9245C6.41855 20.6994 6.17871 20.2824 6.17871 19.8317V14.5563C6.17871 14.1111 6.41251 13.6991 6.79414 13.472C6.79866 13.4689 6.80369 13.4659 6.80822 13.4634L11.3696 10.8259C11.7593 10.6003 12.2394 10.6003 12.6296 10.8259L17.1905 13.4634C17.195 13.4659 17.1995 13.4689 17.2041 13.4715C17.5862 13.6986 17.8205 14.1106 17.8205 14.5563Z" fill="#0C5AF5"/>
<path d="M11.6418 3.89989V9.17462C11.6418 9.62585 11.4015 10.0423 11.0118 10.2674L6.41392 12.926C6.03081 13.1309 5.56875 13.1239 5.19117 12.9053L0.629977 10.2674C0.240326 10.0423 0 9.62585 0 9.17462V3.89989C0 3.44867 0.240326 3.03219 0.629977 2.80657L5.19117 0.16921C5.58082 -0.0564034 6.06097 -0.0564034 6.45062 0.16921L11.0118 2.80657C11.4015 3.03219 11.6418 3.44867 11.6418 3.89989Z" fill="#0C5AF5"/>
<path d="M23.9999 3.89989V9.17462C23.9999 9.62585 23.7577 10.0423 23.3651 10.2674L18.7688 12.9053C18.3883 13.1239 17.9227 13.1309 17.5361 12.926L12.9034 10.2674C12.5107 10.0423 12.2686 9.62585 12.2686 9.17462V3.89989C12.2686 3.44867 12.5107 3.03219 12.9034 2.80657L17.4991 0.16921C17.8923 -0.0564034 18.3762 -0.0564034 18.7688 0.16921L23.3651 2.80657C23.7577 3.03219 23.9999 3.44867 23.9999 3.89989Z" fill="#0C5AF5"/>
</svg>
