<svg width="48" height="48" viewBox="0 0 48 48" fill="none" xmlns="http://www.w3.org/2000/svg">
<g clip-path="url(#clip0_2051_1143)">
<path d="M41.872 39.3192C44.6922 39.3192 46.9784 37.033 46.9784 34.2128C46.9784 31.3927 44.6922 29.1064 41.872 29.1064C39.0519 29.1064 36.7656 31.3927 36.7656 34.2128C36.7656 37.033 39.0519 39.3192 41.872 39.3192Z" fill="url(#paint0_linear_2051_1143)"/>
<path d="M5.10638 39.3192C7.92656 39.3192 10.2128 37.033 10.2128 34.2128C10.2128 31.3927 7.92656 29.1064 5.10638 29.1064C2.28621 29.1064 0 31.3927 0 34.2128C0 37.033 2.28621 39.3192 5.10638 39.3192Z" fill="url(#paint1_linear_2051_1143)"/>
<path fill-rule="evenodd" clip-rule="evenodd" d="M15.3189 11.488C14.1302 11.0664 13.2764 9.93053 13.2764 8.59923C13.2764 6.91004 14.651 5.5354 16.3402 5.5354C18.0294 5.5354 19.404 6.91004 19.404 8.59923C19.404 9.93053 18.5502 11.0664 17.3615 11.488V20.9362H15.3189V11.488Z" fill="url(#paint2_linear_2051_1143)"/>
<path d="M15.3189 32.1703C16.447 32.1703 17.3615 31.2559 17.3615 30.1278C17.3615 28.9997 16.447 28.0852 15.3189 28.0852C14.1908 28.0852 13.2764 28.9997 13.2764 30.1278C13.2764 31.2559 14.1908 32.1703 15.3189 32.1703Z" fill="url(#paint3_linear_2051_1143)"/>
<path d="M27.5741 37.2766H19.4039C18.2758 37.2766 17.3613 38.1911 17.3613 39.3192C17.3613 40.4473 18.2758 41.3617 19.4039 41.3617H27.5741C28.7022 41.3617 29.6166 40.4473 29.6166 39.3192C29.6166 38.1911 28.7022 37.2766 27.5741 37.2766Z" fill="url(#paint4_linear_2051_1143)"/>
<path d="M31.6597 32.1703C32.7878 32.1703 33.7023 31.2559 33.7023 30.1278C33.7023 28.9997 32.7878 28.0852 31.6597 28.0852C30.5316 28.0852 29.6172 28.9997 29.6172 30.1278C29.6172 31.2559 30.5316 32.1703 31.6597 32.1703Z" fill="url(#paint5_linear_2051_1143)"/>
<g filter="url(#filter0_bi_2051_1143)">
<path d="M5.10645 26.0427C5.10645 23.2229 7.39308 20.9363 10.2128 20.9363H36.766C39.5858 20.9363 41.8724 23.2229 41.8724 26.0427V42.3831C41.8724 45.2028 39.5858 47.4895 36.766 47.4895H10.2128C7.39308 47.4895 5.10645 45.2028 5.10645 42.3831V26.0427Z" fill="#1D1D1D" fill-opacity="0.05"/>
<path d="M5.10645 26.0427C5.10645 23.2229 7.39308 20.9363 10.2128 20.9363H36.766C39.5858 20.9363 41.8724 23.2229 41.8724 26.0427V42.3831C41.8724 45.2028 39.5858 47.4895 36.766 47.4895H10.2128C7.39308 47.4895 5.10645 45.2028 5.10645 42.3831V26.0427Z" fill="url(#paint6_linear_2051_1143)" fill-opacity="0.2"/>
<path d="M5.25645 26.0427C5.25645 23.3058 7.47593 21.0863 10.2128 21.0863H36.766C39.5029 21.0863 41.7224 23.3058 41.7224 26.0427V42.3831C41.7224 45.12 39.5029 47.3395 36.766 47.3395H10.2128C7.47593 47.3395 5.25645 45.12 5.25645 42.3831V26.0427Z" stroke="url(#paint7_linear_2051_1143)" stroke-opacity="0.1" stroke-width="0.3"/>
</g>
<path d="M45.5193 2.40723H28.0117C27.2059 2.40723 26.5527 5.67327 26.5527 9.70207C26.5527 13.7309 27.2059 16.9969 28.0117 16.9969H45.5193C46.3251 16.9969 46.9783 13.7309 46.9783 9.70207C46.9783 5.67327 46.3251 2.40723 45.5193 2.40723Z" fill="url(#paint8_linear_2051_1143)"/>
<g filter="url(#filter1_bi_2051_1143)">
<path d="M44.4258 0.510742H29.1067C27.1326 0.510742 25.5322 2.11108 25.5322 4.08521V20.8546C25.5322 21.2202 25.7273 21.5572 26.0449 21.74C26.2022 21.8309 26.3778 21.8758 26.5535 21.8758C26.7312 21.8758 26.9099 21.8289 27.0682 21.7359L31.9367 18.8937H44.4258C46.4 18.8937 48.0003 17.2934 48.0003 15.3193V4.08521C48.0003 2.11108 46.4 0.510742 44.4258 0.510742Z" fill="#1D1D1D" fill-opacity="0.05"/>
<path d="M44.4258 0.510742H29.1067C27.1326 0.510742 25.5322 2.11108 25.5322 4.08521V20.8546C25.5322 21.2202 25.7273 21.5572 26.0449 21.74C26.2022 21.8309 26.3778 21.8758 26.5535 21.8758C26.7312 21.8758 26.9099 21.8289 27.0682 21.7359L31.9367 18.8937H44.4258C46.4 18.8937 48.0003 17.2934 48.0003 15.3193V4.08521C48.0003 2.11108 46.4 0.510742 44.4258 0.510742Z" fill="url(#paint9_linear_2051_1143)" fill-opacity="0.2"/>
<path d="M26.12 21.6101L26.1197 21.61C25.8485 21.4539 25.6822 21.1664 25.6822 20.8546V4.08521C25.6822 2.19393 27.2154 0.660742 29.1067 0.660742H44.4258C46.3171 0.660742 47.8503 2.19393 47.8503 4.08521V15.3193C47.8503 17.2105 46.3171 18.7437 44.4258 18.7437H31.9367H31.8961L31.861 18.7642L26.9926 21.6064L26.9923 21.6066C26.8574 21.6858 26.705 21.7258 26.5535 21.7258C26.4034 21.7258 26.2538 21.6875 26.12 21.6101Z" stroke="url(#paint10_linear_2051_1143)" stroke-opacity="0.1" stroke-width="0.3"/>
</g>
<g filter="url(#filter2_i_2051_1143)">
<path d="M36.7661 12.7661H30.6385C30.0744 12.7661 29.6172 13.2233 29.6172 13.7874C29.6172 14.3514 30.0744 14.8087 30.6385 14.8087H36.7661C37.3302 14.8087 37.7874 14.3514 37.7874 13.7874C37.7874 13.2233 37.3302 12.7661 36.7661 12.7661Z" fill="white" fill-opacity="0.1"/>
</g>
<g filter="url(#filter3_i_2051_1143)">
<path d="M42.8938 4.5957H30.6385C30.0744 4.5957 29.6172 5.05295 29.6172 5.61698C29.6172 6.18101 30.0744 6.63826 30.6385 6.63826H42.8938C43.4578 6.63826 43.9151 6.18101 43.9151 5.61698C43.9151 5.05295 43.4578 4.5957 42.8938 4.5957Z" fill="white" fill-opacity="0.1"/>
</g>
<g filter="url(#filter4_i_2051_1143)">
<path d="M42.8938 8.68091H30.6385C30.0744 8.68091 29.6172 9.13815 29.6172 9.70218C29.6172 10.2662 30.0744 10.7235 30.6385 10.7235H42.8938C43.4578 10.7235 43.9151 10.2662 43.9151 9.70218C43.9151 9.13815 43.4578 8.68091 42.8938 8.68091Z" fill="white" fill-opacity="0.1"/>
</g>
<g filter="url(#filter5_i_2051_1143)">
<path d="M15.3189 32.1703C16.447 32.1703 17.3615 31.2559 17.3615 30.1278C17.3615 28.9997 16.447 28.0852 15.3189 28.0852C14.1908 28.0852 13.2764 28.9997 13.2764 30.1278C13.2764 31.2559 14.1908 32.1703 15.3189 32.1703Z" fill="white" fill-opacity="0.16"/>
</g>
<g filter="url(#filter6_i_2051_1143)">
<path d="M27.5741 37.2766H19.4039C18.2758 37.2766 17.3613 38.1911 17.3613 39.3192C17.3613 40.4473 18.2758 41.3617 19.4039 41.3617H27.5741C28.7022 41.3617 29.6166 40.4473 29.6166 39.3192C29.6166 38.1911 28.7022 37.2766 27.5741 37.2766Z" fill="white" fill-opacity="0.16"/>
</g>
<g filter="url(#filter7_i_2051_1143)">
<path d="M31.6597 32.1703C32.7878 32.1703 33.7023 31.2559 33.7023 30.1278C33.7023 28.9997 32.7878 28.0852 31.6597 28.0852C30.5316 28.0852 29.6172 28.9997 29.6172 30.1278C29.6172 31.2559 30.5316 32.1703 31.6597 32.1703Z" fill="white" fill-opacity="0.16"/>
</g>
</g>
<defs>
<filter id="filter0_bi_2051_1143" x="-0.893555" y="14.9363" width="48.7656" height="38.5532" filterUnits="userSpaceOnUse" color-interpolation-filters="sRGB">
<feFlood flood-opacity="0" result="BackgroundImageFix"/>
<feGaussianBlur in="BackgroundImageFix" stdDeviation="3"/>
<feComposite in2="SourceAlpha" operator="in" result="effect1_backgroundBlur_2051_1143"/>
<feBlend mode="normal" in="SourceGraphic" in2="effect1_backgroundBlur_2051_1143" result="shape"/>
<feColorMatrix in="SourceAlpha" type="matrix" values="0 0 0 0 0 0 0 0 0 0 0 0 0 0 0 0 0 0 127 0" result="hardAlpha"/>
<feOffset dy="1"/>
<feGaussianBlur stdDeviation="1.5"/>
<feComposite in2="hardAlpha" operator="arithmetic" k2="-1" k3="1"/>
<feColorMatrix type="matrix" values="0 0 0 0 1 0 0 0 0 1 0 0 0 0 1 0 0 0 0.15 0"/>
<feBlend mode="normal" in2="shape" result="effect2_innerShadow_2051_1143"/>
</filter>
<filter id="filter1_bi_2051_1143" x="19.5322" y="-5.48926" width="34.4678" height="33.365" filterUnits="userSpaceOnUse" color-interpolation-filters="sRGB">
<feFlood flood-opacity="0" result="BackgroundImageFix"/>
<feGaussianBlur in="BackgroundImageFix" stdDeviation="3"/>
<feComposite in2="SourceAlpha" operator="in" result="effect1_backgroundBlur_2051_1143"/>
<feBlend mode="normal" in="SourceGraphic" in2="effect1_backgroundBlur_2051_1143" result="shape"/>
<feColorMatrix in="SourceAlpha" type="matrix" values="0 0 0 0 0 0 0 0 0 0 0 0 0 0 0 0 0 0 127 0" result="hardAlpha"/>
<feOffset dy="1"/>
<feGaussianBlur stdDeviation="1.5"/>
<feComposite in2="hardAlpha" operator="arithmetic" k2="-1" k3="1"/>
<feColorMatrix type="matrix" values="0 0 0 0 1 0 0 0 0 1 0 0 0 0 1 0 0 0 0.15 0"/>
<feBlend mode="normal" in2="shape" result="effect2_innerShadow_2051_1143"/>
</filter>
<filter id="filter2_i_2051_1143" x="29.6172" y="12.7661" width="8.16992" height="4.04248" filterUnits="userSpaceOnUse" color-interpolation-filters="sRGB">
<feFlood flood-opacity="0" result="BackgroundImageFix"/>
<feBlend mode="normal" in="SourceGraphic" in2="BackgroundImageFix" result="shape"/>
<feColorMatrix in="SourceAlpha" type="matrix" values="0 0 0 0 0 0 0 0 0 0 0 0 0 0 0 0 0 0 127 0" result="hardAlpha"/>
<feOffset dy="2"/>
<feGaussianBlur stdDeviation="1"/>
<feComposite in2="hardAlpha" operator="arithmetic" k2="-1" k3="1"/>
<feColorMatrix type="matrix" values="0 0 0 0 1 0 0 0 0 1 0 0 0 0 1 0 0 0 0.1 0"/>
<feBlend mode="normal" in2="shape" result="effect1_innerShadow_2051_1143"/>
</filter>
<filter id="filter3_i_2051_1143" x="29.6172" y="4.5957" width="14.2979" height="4.04248" filterUnits="userSpaceOnUse" color-interpolation-filters="sRGB">
<feFlood flood-opacity="0" result="BackgroundImageFix"/>
<feBlend mode="normal" in="SourceGraphic" in2="BackgroundImageFix" result="shape"/>
<feColorMatrix in="SourceAlpha" type="matrix" values="0 0 0 0 0 0 0 0 0 0 0 0 0 0 0 0 0 0 127 0" result="hardAlpha"/>
<feOffset dy="2"/>
<feGaussianBlur stdDeviation="1"/>
<feComposite in2="hardAlpha" operator="arithmetic" k2="-1" k3="1"/>
<feColorMatrix type="matrix" values="0 0 0 0 1 0 0 0 0 1 0 0 0 0 1 0 0 0 0.1 0"/>
<feBlend mode="normal" in2="shape" result="effect1_innerShadow_2051_1143"/>
</filter>
<filter id="filter4_i_2051_1143" x="29.6172" y="8.68091" width="14.2979" height="4.04248" filterUnits="userSpaceOnUse" color-interpolation-filters="sRGB">
<feFlood flood-opacity="0" result="BackgroundImageFix"/>
<feBlend mode="normal" in="SourceGraphic" in2="BackgroundImageFix" result="shape"/>
<feColorMatrix in="SourceAlpha" type="matrix" values="0 0 0 0 0 0 0 0 0 0 0 0 0 0 0 0 0 0 127 0" result="hardAlpha"/>
<feOffset dy="2"/>
<feGaussianBlur stdDeviation="1"/>
<feComposite in2="hardAlpha" operator="arithmetic" k2="-1" k3="1"/>
<feColorMatrix type="matrix" values="0 0 0 0 1 0 0 0 0 1 0 0 0 0 1 0 0 0 0.1 0"/>
<feBlend mode="normal" in2="shape" result="effect1_innerShadow_2051_1143"/>
</filter>
<filter id="filter5_i_2051_1143" x="13.2764" y="28.0852" width="4.08496" height="6.08521" filterUnits="userSpaceOnUse" color-interpolation-filters="sRGB">
<feFlood flood-opacity="0" result="BackgroundImageFix"/>
<feBlend mode="normal" in="SourceGraphic" in2="BackgroundImageFix" result="shape"/>
<feColorMatrix in="SourceAlpha" type="matrix" values="0 0 0 0 0 0 0 0 0 0 0 0 0 0 0 0 0 0 127 0" result="hardAlpha"/>
<feOffset dy="2"/>
<feGaussianBlur stdDeviation="1"/>
<feComposite in2="hardAlpha" operator="arithmetic" k2="-1" k3="1"/>
<feColorMatrix type="matrix" values="0 0 0 0 1 0 0 0 0 1 0 0 0 0 1 0 0 0 0.4 0"/>
<feBlend mode="normal" in2="shape" result="effect1_innerShadow_2051_1143"/>
</filter>
<filter id="filter6_i_2051_1143" x="17.3613" y="37.2766" width="12.2549" height="6.08521" filterUnits="userSpaceOnUse" color-interpolation-filters="sRGB">
<feFlood flood-opacity="0" result="BackgroundImageFix"/>
<feBlend mode="normal" in="SourceGraphic" in2="BackgroundImageFix" result="shape"/>
<feColorMatrix in="SourceAlpha" type="matrix" values="0 0 0 0 0 0 0 0 0 0 0 0 0 0 0 0 0 0 127 0" result="hardAlpha"/>
<feOffset dy="2"/>
<feGaussianBlur stdDeviation="1"/>
<feComposite in2="hardAlpha" operator="arithmetic" k2="-1" k3="1"/>
<feColorMatrix type="matrix" values="0 0 0 0 1 0 0 0 0 1 0 0 0 0 1 0 0 0 0.4 0"/>
<feBlend mode="normal" in2="shape" result="effect1_innerShadow_2051_1143"/>
</filter>
<filter id="filter7_i_2051_1143" x="29.6172" y="28.0852" width="4.08496" height="6.08521" filterUnits="userSpaceOnUse" color-interpolation-filters="sRGB">
<feFlood flood-opacity="0" result="BackgroundImageFix"/>
<feBlend mode="normal" in="SourceGraphic" in2="BackgroundImageFix" result="shape"/>
<feColorMatrix in="SourceAlpha" type="matrix" values="0 0 0 0 0 0 0 0 0 0 0 0 0 0 0 0 0 0 127 0" result="hardAlpha"/>
<feOffset dy="2"/>
<feGaussianBlur stdDeviation="1"/>
<feComposite in2="hardAlpha" operator="arithmetic" k2="-1" k3="1"/>
<feColorMatrix type="matrix" values="0 0 0 0 1 0 0 0 0 1 0 0 0 0 1 0 0 0 0.4 0"/>
<feBlend mode="normal" in2="shape" result="effect1_innerShadow_2051_1143"/>
</filter>
<linearGradient id="paint0_linear_2051_1143" x1="36.7656" y1="29.1064" x2="48.7959" y2="32.1612" gradientUnits="userSpaceOnUse">
<stop stop-color="#75A5FF"/>
<stop offset="0.703125" stop-color="#2339FF"/>
</linearGradient>
<linearGradient id="paint1_linear_2051_1143" x1="0" y1="29.1064" x2="12.0303" y2="32.1612" gradientUnits="userSpaceOnUse">
<stop stop-color="#75A5FF"/>
<stop offset="0.703125" stop-color="#2339FF"/>
</linearGradient>
<linearGradient id="paint2_linear_2051_1143" x1="13.2764" y1="5.5354" x2="20.8823" y2="6.30382" gradientUnits="userSpaceOnUse">
<stop stop-color="#75A5FF"/>
<stop offset="0.703125" stop-color="#2339FF"/>
</linearGradient>
<linearGradient id="paint3_linear_2051_1143" x1="13.2764" y1="28.0852" x2="18.0885" y2="29.3071" gradientUnits="userSpaceOnUse">
<stop stop-color="#75A5FF"/>
<stop offset="0.703125" stop-color="#2339FF"/>
</linearGradient>
<linearGradient id="paint4_linear_2051_1143" x1="17.3613" y1="37.2766" x2="27.0857" y2="44.6842" gradientUnits="userSpaceOnUse">
<stop stop-color="#75A5FF"/>
<stop offset="0.703125" stop-color="#2339FF"/>
</linearGradient>
<linearGradient id="paint5_linear_2051_1143" x1="29.6172" y1="28.0852" x2="34.4293" y2="29.3071" gradientUnits="userSpaceOnUse">
<stop stop-color="#75A5FF"/>
<stop offset="0.703125" stop-color="#2339FF"/>
</linearGradient>
<linearGradient id="paint6_linear_2051_1143" x1="5.10645" y1="20.9363" x2="46.1363" y2="35.3615" gradientUnits="userSpaceOnUse">
<stop stop-color="#87AFFF"/>
<stop offset="0.776042" stop-color="#5C6DFF"/>
</linearGradient>
<linearGradient id="paint7_linear_2051_1143" x1="6.25538" y1="22.1432" x2="41.8724" y2="22.1432" gradientUnits="userSpaceOnUse">
<stop stop-color="#3CDEB6"/>
<stop offset="0.65625" stop-color="#364AFF"/>
</linearGradient>
<linearGradient id="paint8_linear_2051_1143" x1="26.5527" y1="2.40723" x2="49.2912" y2="10.4904" gradientUnits="userSpaceOnUse">
<stop stop-color="#75A5FF"/>
<stop offset="0.703125" stop-color="#2339FF"/>
</linearGradient>
<linearGradient id="paint9_linear_2051_1143" x1="25.5322" y1="0.510742" x2="51.8302" y2="7.53302" gradientUnits="userSpaceOnUse">
<stop stop-color="#87AFFF"/>
<stop offset="0.776042" stop-color="#5C6DFF"/>
</linearGradient>
<linearGradient id="paint10_linear_2051_1143" x1="26.2344" y1="1.48188" x2="48.0003" y2="1.48188" gradientUnits="userSpaceOnUse">
<stop stop-color="#3CDEB6"/>
<stop offset="0.65625" stop-color="#364AFF"/>
</linearGradient>
<clipPath id="clip0_2051_1143">
<rect width="48" height="48" fill="white"/>
</clipPath>
</defs>
</svg>
