<svg width="76" height="76" viewBox="0 0 76 76" fill="none" xmlns="http://www.w3.org/2000/svg">
<g filter="url(#filter0_bi_2980_2027)">
<path d="M25.5833 29.6172C25.4769 29.384 25.3214 29.1885 25.1326 29.0501L14.9169 21.5365C14.7166 21.3893 14.4864 21.3114 14.2516 21.3114C14.0169 21.3114 13.7867 21.3893 13.5863 21.5365L3.37069 29.0501C3.18182 29.1885 3.02639 29.384 2.91993 29.6172L14.2516 37.9531L25.5833 29.6172Z" fill="url(#paint0_linear_2980_2027)"/>
<path d="M2.91993 29.6172C2.8146 29.8452 2.75801 30.103 2.75781 30.3639V44.008C2.75793 44.2713 2.81425 44.5301 2.92135 44.7596C3.02846 44.9892 3.18276 45.1818 3.36947 45.3189L13.5851 52.8326C13.7854 52.9801 14.0156 53.0582 14.2504 53.0585L14.2516 37.9531L2.91993 29.6172Z" fill="url(#paint1_linear_2980_2027)"/>
<path d="M25.5833 29.6172C25.6887 29.8452 25.7428 30.103 25.743 30.3639V44.008C25.7429 44.2713 25.6866 44.5301 25.5795 44.7596C25.4724 44.9892 25.3181 45.1818 25.1314 45.3189L14.9157 52.8326C14.7154 52.9801 14.4852 53.0582 14.2504 53.0585L14.2516 37.9531L25.5833 29.6172Z" fill="url(#paint2_linear_2980_2027)"/>
</g>
<g filter="url(#filter1_bi_2980_2027)">
<path d="M25.5838 29.6172C25.4774 29.384 25.3219 29.1885 25.1331 29.0501L14.9174 21.5365C14.7171 21.3893 14.4869 21.3114 14.2521 21.3114C14.0174 21.3114 13.7872 21.3893 13.5868 21.5365L3.37118 29.0501C3.1823 29.1885 3.02688 29.384 2.92041 29.6172L14.2521 37.9531L25.5838 29.6172Z" fill="url(#paint3_linear_2980_2027)"/>
<path d="M2.92041 29.6172C2.81509 29.8452 2.7585 30.103 2.7583 30.3639V44.008C2.75842 44.2713 2.81474 44.5301 2.92184 44.7596C3.02894 44.9892 3.18325 45.1818 3.36996 45.3189L13.5856 52.8326C13.7859 52.9801 14.0161 53.0582 14.2509 53.0585L14.2521 37.9531L2.92041 29.6172Z" fill="url(#paint4_linear_2980_2027)"/>
<path d="M25.5838 29.6172C25.6892 29.8452 25.7433 30.103 25.7435 30.3639V44.008C25.7434 44.2713 25.6871 44.5301 25.58 44.7596C25.4729 44.9892 25.3186 45.1818 25.1318 45.3189L14.9162 52.8326C14.7159 52.9801 14.4857 53.0582 14.2509 53.0585L14.2521 37.9531L25.5838 29.6172Z" fill="url(#paint5_linear_2980_2027)"/>
</g>
<g filter="url(#filter2_bi_2980_2027)">
<path d="M49.8377 14.0039C49.7318 13.7742 49.5773 13.5815 49.3894 13.4453L39.23 6.04325C39.0307 5.89825 38.8018 5.82153 38.5683 5.82153C38.3349 5.82153 38.1059 5.89825 37.9067 6.04325L27.7472 13.4453C27.5594 13.5815 27.4048 13.7742 27.2989 14.0039L38.5683 22.2159L49.8377 14.0039Z" fill="url(#paint6_linear_2980_2027)"/>
<path d="M27.2989 14.0039C27.1942 14.2285 27.1379 14.4825 27.1377 14.7395V28.1809C27.1378 28.4403 27.1938 28.6952 27.3003 28.9214C27.4069 29.1475 27.5603 29.3372 27.746 29.4724L37.9055 36.8744C38.1047 37.0197 38.3336 37.0967 38.5671 37.0969L38.5683 22.2159L27.2989 14.0039Z" fill="url(#paint7_linear_2980_2027)"/>
<path d="M49.8377 14.0039C49.9425 14.2285 49.9963 14.4825 49.9965 14.7395V28.1809C49.9964 28.4403 49.9404 28.6952 49.8339 28.9214C49.7274 29.1475 49.5739 29.3372 49.3882 29.4724L39.2287 36.8744C39.0296 37.0197 38.8006 37.0967 38.5671 37.0969L38.5683 22.2159L49.8377 14.0039Z" fill="url(#paint8_linear_2980_2027)"/>
</g>
<g filter="url(#filter3_bi_2980_2027)">
<path d="M73.4564 32.0636C73.3505 31.8339 73.1959 31.6412 73.0081 31.505L62.8486 24.1029C62.6493 23.9579 62.4204 23.8812 62.187 23.8812C61.9535 23.8812 61.7246 23.9579 61.5253 24.1029L51.3659 31.505C51.178 31.6412 51.0234 31.8339 50.9176 32.0636L62.187 40.2756L73.4564 32.0636Z" fill="url(#paint9_linear_2980_2027)"/>
<path d="M50.9176 32.0636C50.8128 32.2882 50.7565 32.5422 50.7563 32.7992V46.2406C50.7565 46.4999 50.8125 46.7549 50.919 46.9811C51.0255 47.2072 51.179 47.3969 51.3646 47.532L61.5241 54.9341C61.7233 55.0794 61.9522 55.1564 62.1858 55.1566L62.187 40.2756L50.9176 32.0636Z" fill="url(#paint10_linear_2980_2027)"/>
<path d="M73.4564 32.0636C73.5611 32.2882 73.615 32.5422 73.6152 32.7992V46.2406C73.615 46.4999 73.559 46.7549 73.4525 46.9811C73.346 47.2072 73.1926 47.3969 73.0069 47.532L62.8474 54.9341C62.6482 55.0794 62.4193 55.1564 62.1858 55.1566L62.187 40.2756L73.4564 32.0636Z" fill="url(#paint11_linear_2980_2027)"/>
</g>
<g filter="url(#filter4_bi_2980_2027)">
<path d="M49.8367 52.7708C49.7309 52.541 49.5763 52.3484 49.3885 52.2121L39.229 44.8101C39.0297 44.6651 38.8008 44.5884 38.5673 44.5884C38.3339 44.5884 38.105 44.6651 37.9057 44.8101L27.7462 52.2121C27.5584 52.3484 27.4038 52.541 27.2979 52.7708L38.5673 60.9828L49.8367 52.7708Z" fill="url(#paint12_linear_2980_2027)"/>
<path d="M27.2979 52.7708C27.1932 52.9954 27.1369 53.2493 27.1367 53.5063V66.9477C27.1368 67.2071 27.1928 67.4621 27.2994 67.6882C27.4059 67.9144 27.5593 68.1041 27.745 68.2392L37.9045 75.6412C38.1037 75.7865 38.3326 75.8635 38.5661 75.8638L38.5673 60.9828L27.2979 52.7708Z" fill="url(#paint13_linear_2980_2027)"/>
<path d="M49.8367 52.7708C49.9415 52.9954 49.9953 53.2493 49.9955 53.5063V66.9477C49.9954 67.2071 49.9394 67.4621 49.8329 67.6882C49.7264 67.9144 49.5729 68.1041 49.3872 68.2392L39.2278 75.6412C39.0286 75.7865 38.7996 75.8635 38.5661 75.8638L38.5673 60.9828L49.8367 52.7708Z" fill="url(#paint14_linear_2980_2027)"/>
</g>
<g filter="url(#filter5_bi_2980_2027)">
<path d="M52.0503 10.2986C51.9182 10.0095 51.7255 9.76701 51.4913 9.59548L38.8247 0.279061C38.5762 0.0965565 38.2908 0 37.9997 0C37.7087 0 37.4233 0.0965565 37.1748 0.279061L24.5081 9.59548C24.2739 9.76701 24.0812 10.0095 23.9492 10.2986L37.9997 20.6326L52.0503 10.2986Z" fill="url(#paint15_linear_2980_2027)" fill-opacity="0.2"/>
<path d="M51.1959 9.99885L51.1951 9.99826L38.5286 0.682016L51.1959 9.99885ZM51.1959 9.99885C51.2612 10.0467 51.3235 10.104 51.3811 10.1701L37.9997 20.012L24.6184 10.1701C24.676 10.104 24.7383 10.0467 24.8036 9.99885L24.8044 9.99826M51.1959 9.99885L24.8044 9.99826M24.8044 9.99826L37.4708 0.682016L24.8044 9.99826ZM37.9997 0.5C38.1777 0.5 38.3605 0.558538 38.5284 0.681845L37.4711 0.681845C37.639 0.558538 37.8218 0.5 37.9997 0.5Z" stroke="url(#paint16_linear_2980_2027)" stroke-opacity="0.1"/>
</g>
<g filter="url(#filter6_bi_2980_2027)">
<path d="M23.9495 10.2991C23.8192 10.5812 23.7505 10.8986 23.75 11.2214V28.1392C23.7502 28.4656 23.82 28.7865 23.9528 29.0712C24.0856 29.3558 24.2769 29.5946 24.5084 29.7646L37.1751 39.0811C37.4234 39.2639 37.7089 39.3609 38 39.3612V20.6331L23.9495 10.2991Z" fill="url(#paint17_linear_2980_2027)" fill-opacity="0.2"/>
<path d="M24.25 11.2218C24.25 11.1952 24.2507 11.1686 24.2519 11.1422L37.5 20.886V38.6987C37.4905 38.6921 37.481 38.6854 37.4716 38.6784L37.4714 38.6783L24.8047 29.3619L24.8044 29.3617C24.6467 29.2458 24.5066 29.0756 24.4059 28.8597C24.3052 28.6439 24.2502 28.3955 24.25 28.1392C24.25 28.1391 24.25 28.139 24.25 28.139L24.25 11.2218Z" stroke="url(#paint18_linear_2980_2027)" stroke-opacity="0.1"/>
</g>
<g filter="url(#filter7_bi_2980_2027)">
<path d="M52.0505 10.2991C52.1809 10.5812 52.2495 10.8986 52.25 11.2214V28.1392C52.2499 28.4656 52.18 28.7865 52.0472 29.0712C51.9144 29.3558 51.7231 29.5946 51.4916 29.7646L38.8249 39.0811C38.5766 39.2639 38.2911 39.3609 38 39.3612V20.6331L52.0505 10.2991Z" fill="url(#paint19_linear_2980_2027)" fill-opacity="0.2"/>
<path d="M51.1956 29.3617L51.1953 29.3619L38.5287 38.6783L38.5284 38.6784C38.519 38.6854 38.5095 38.6921 38.5 38.6987V20.886L51.7481 11.1422C51.7493 11.1686 51.75 11.1951 51.75 11.2216C51.75 11.2218 51.75 11.222 51.75 11.2222L51.75 28.139C51.7499 28.3954 51.6949 28.6439 51.5941 28.8597C51.4934 29.0756 51.3533 29.2458 51.1956 29.3617Z" stroke="url(#paint20_linear_2980_2027)" stroke-opacity="0.1"/>
</g>
<g filter="url(#filter8_bi_2980_2027)">
<path d="M75.8003 27.7981C75.6682 27.509 75.4755 27.2665 75.2413 27.095L62.5747 17.7786C62.3262 17.5961 62.0408 17.4995 61.7497 17.4995C61.4587 17.4995 61.1733 17.5961 60.9248 17.7786L48.2581 27.095C48.0239 27.2665 47.8312 27.509 47.6992 27.7981L61.7497 38.1341L75.8003 27.7981Z" fill="url(#paint21_linear_2980_2027)" fill-opacity="0.2"/>
<path d="M74.9459 27.4984L74.9451 27.4978L62.2786 18.1815C62.1106 18.0581 61.9278 17.9995 61.7497 17.9995C61.5718 17.9995 61.389 18.058 61.2211 18.1814L74.9459 27.4984ZM74.9459 27.4984C75.0112 27.5462 75.0735 27.6035 75.1311 27.6697L61.7497 37.5133L48.3683 27.6697C48.426 27.6035 48.4883 27.5462 48.5536 27.4984L48.5544 27.4978L61.2208 18.1815L74.9459 27.4984Z" stroke="url(#paint22_linear_2980_2027)" stroke-opacity="0.1"/>
</g>
<g filter="url(#filter9_bi_2980_2027)">
<path d="M47.6995 27.7998C47.5689 28.0825 47.5002 28.4006 47.5 28.724V45.6418C47.5002 45.9682 47.57 46.2892 47.7028 46.5738C47.8356 46.8584 48.0269 47.0972 48.2584 47.2673L60.9251 56.5837C61.1734 56.7666 61.4589 56.8635 61.75 56.8638V38.1357L47.6995 27.7998Z" fill="url(#paint23_linear_2980_2027)" fill-opacity="0.2"/>
<path d="M48 28.7242C48 28.697 48.0007 28.67 48.0019 28.643L61.25 38.3886V56.2013C61.2405 56.1948 61.231 56.188 61.2216 56.1811L61.2214 56.1809L48.5547 46.8645L48.5544 46.8643C48.3967 46.7485 48.2566 46.5783 48.1559 46.3624C48.0552 46.1466 48.0002 45.8981 48 45.6418C48 45.6417 48 45.6417 48 45.6416L48 28.7242Z" stroke="url(#paint24_linear_2980_2027)" stroke-opacity="0.1"/>
</g>
<g filter="url(#filter10_bi_2980_2027)">
<path d="M75.8005 27.7998C75.9311 28.0825 75.9998 28.4006 76 28.724V45.6418C75.9999 45.9682 75.93 46.2892 75.7972 46.5738C75.6644 46.8584 75.4731 47.0972 75.2416 47.2673L62.5749 56.5837C62.3266 56.7666 62.0411 56.8635 61.75 56.8638V38.1357L75.8005 27.7998Z" fill="url(#paint25_linear_2980_2027)" fill-opacity="0.2"/>
<path d="M74.9453 46.8645L74.9456 46.8643C75.1033 46.7485 75.2434 46.5783 75.3441 46.3624C75.4449 46.1465 75.4999 45.898 75.5 45.6416L75.5 28.7244L75.5 28.724M74.9453 46.8645L75.9605 28.3028C75.9866 28.4405 75.9999 28.5817 76 28.724H75.5M74.9453 46.8645L62.2787 56.1809L62.2784 56.1811C62.269 56.188 62.2595 56.1948 62.25 56.2013V38.3886L75.4981 28.643M74.9453 46.8645L75.4981 28.643M75.5 28.724C75.5 28.6969 75.4994 28.6699 75.4981 28.643M75.5 28.724L75.4981 28.643" stroke="url(#paint26_linear_2980_2027)" stroke-opacity="0.1"/>
</g>
<g filter="url(#filter11_bi_2980_2027)">
<path d="M28.3003 27.7981C28.1682 27.509 27.9755 27.2665 27.7413 27.095L15.0747 17.7786C14.8262 17.5961 14.5408 17.4995 14.2497 17.4995C13.9587 17.4995 13.6733 17.5961 13.4248 17.7786L0.758136 27.095C0.523944 27.2665 0.331227 27.509 0.199219 27.7981L14.2497 38.1341L28.3003 27.7981Z" fill="url(#paint27_linear_2980_2027)" fill-opacity="0.2"/>
<path d="M27.4459 27.4984L27.4451 27.4978L14.7786 18.1815L27.4459 27.4984ZM27.4459 27.4984C27.5112 27.5462 27.5735 27.6035 27.6311 27.6697L14.2497 37.5133L0.86833 27.6697C0.925977 27.6035 0.98826 27.5462 1.05358 27.4984L1.05439 27.4978M27.4459 27.4984L1.05439 27.4978M1.05439 27.4978L13.7208 18.1815L1.05439 27.4978ZM14.2497 17.9995C14.4277 17.9995 14.6105 18.058 14.7784 18.1814H13.7211C13.889 18.058 14.0718 17.9995 14.2497 17.9995Z" stroke="url(#paint28_linear_2980_2027)" stroke-opacity="0.1"/>
</g>
<g filter="url(#filter12_bi_2980_2027)">
<path d="M0.1995 27.7998C0.0689046 28.0825 0.000249054 28.4006 0 28.724L0 45.6418C0.000151013 45.9682 0.0699748 46.2892 0.202777 46.5738C0.33558 46.8584 0.526907 47.0972 0.758418 47.2673L13.4251 56.5837C13.6734 56.7666 13.9589 56.8635 14.25 56.8638V38.1357L0.1995 27.7998Z" fill="url(#paint29_linear_2980_2027)" fill-opacity="0.2"/>
<path d="M0.5 28.7242C0.500024 28.697 0.500664 28.6699 0.501911 28.643L13.75 38.3886V56.2013C13.7405 56.1948 13.731 56.188 13.7216 56.1811L13.7214 56.1809L1.05467 46.8645L1.05444 46.8643C0.896708 46.7485 0.75661 46.5783 0.655883 46.3624C0.555187 46.1466 0.500152 45.8981 0.5 45.6418C0.5 45.6417 0.5 45.6417 0.5 45.6416L0.5 28.7242Z" stroke="url(#paint30_linear_2980_2027)" stroke-opacity="0.1"/>
</g>
<g filter="url(#filter13_bi_2980_2027)">
<path d="M28.3005 27.7998C28.4311 28.0825 28.4998 28.4006 28.5 28.724V45.6418C28.4999 45.9682 28.43 46.2892 28.2972 46.5738C28.1644 46.8584 27.9731 47.0972 27.7416 47.2673L15.0749 56.5837C14.8266 56.7666 14.5411 56.8635 14.25 56.8638V38.1357L28.3005 27.7998Z" fill="url(#paint31_linear_2980_2027)" fill-opacity="0.2"/>
<path d="M27.4453 46.8645L27.4456 46.8643C27.6033 46.7485 27.7434 46.5783 27.8441 46.3624C27.9449 46.1465 27.9999 45.898 28 45.6416L28 28.7244L28 28.724M27.4453 46.8645L28.4605 28.3028C28.4866 28.4405 28.4999 28.5817 28.5 28.724H28M27.4453 46.8645L14.7787 56.1809L14.7784 56.1811C14.769 56.188 14.7595 56.1948 14.75 56.2013V38.3886L27.9981 28.643M27.4453 46.8645L27.9981 28.643M28 28.724C28 28.6969 27.9994 28.6699 27.9981 28.643M28 28.724L27.9981 28.643" stroke="url(#paint32_linear_2980_2027)" stroke-opacity="0.1"/>
</g>
<g filter="url(#filter14_bi_2980_2027)">
<path d="M52.0503 46.8331C51.9182 46.5439 51.7255 46.3014 51.4913 46.1299L38.8247 36.8135C38.5762 36.631 38.2908 36.5344 37.9997 36.5344C37.7087 36.5344 37.4233 36.631 37.1748 36.8135L24.5081 46.1299C24.2739 46.3014 24.0812 46.5439 23.9492 46.8331L37.9997 57.1671L52.0503 46.8331Z" fill="url(#paint33_linear_2980_2027)" fill-opacity="0.2"/>
<path d="M51.1959 46.5333L51.1951 46.5327L38.5286 37.2164L51.1959 46.5333ZM51.1959 46.5333C51.2612 46.5811 51.3235 46.6384 51.3811 46.7045L37.9997 56.5464L24.6184 46.7045C24.676 46.6384 24.7383 46.5811 24.8036 46.5333L24.8044 46.5327M51.1959 46.5333L24.8044 46.5327M24.8044 46.5327L37.4708 37.2164L24.8044 46.5327ZM37.9997 37.0344C38.1777 37.0344 38.3605 37.093 38.5284 37.2163H37.4711C37.639 37.093 37.8218 37.0344 37.9997 37.0344Z" stroke="url(#paint34_linear_2980_2027)" stroke-opacity="0.1"/>
</g>
<g filter="url(#filter15_bi_2980_2027)">
<path d="M23.9495 46.8347C23.8192 47.1169 23.7505 47.4342 23.75 47.757V64.6748C23.7502 65.0013 23.82 65.3222 23.9528 65.6068C24.0856 65.8914 24.2769 66.1302 24.5084 66.3003L37.1751 75.6167C37.4234 75.7996 37.7089 75.8965 38 75.8968V57.1687L23.9495 46.8347Z" fill="url(#paint35_linear_2980_2027)" fill-opacity="0.2"/>
<path d="M24.25 47.7574C24.25 47.7308 24.2507 47.7043 24.2519 47.6778L37.5 57.4216V75.2343C37.4905 75.2278 37.481 75.221 37.4716 75.2141L37.4714 75.2139L24.8047 65.8975L24.8044 65.8973C24.6467 65.7815 24.5066 65.6113 24.4059 65.3954C24.3052 65.1796 24.2502 64.9311 24.25 64.6748C24.25 64.6747 24.25 64.6747 24.25 64.6746L24.25 47.7574Z" stroke="url(#paint36_linear_2980_2027)" stroke-opacity="0.1"/>
</g>
<g filter="url(#filter16_bi_2980_2027)">
<path d="M52.0505 46.9379C52.1809 47.22 52.2495 47.5374 52.25 47.8602V64.778C52.2499 65.1044 52.18 65.4253 52.0472 65.7099C51.9144 65.9946 51.7231 66.2334 51.4916 66.4034L38.8249 75.7199C38.5766 75.9027 38.2911 75.9997 38 76V57.2719L52.0505 46.9379Z" fill="url(#paint37_linear_2980_2027)" fill-opacity="0.2"/>
<path d="M51.1956 66.0005L51.1953 66.0007L38.5287 75.3171L38.5284 75.3172C38.519 75.3242 38.5095 75.3309 38.5 75.3375V57.5248L51.7481 47.781C51.7493 47.8073 51.75 47.8338 51.75 47.8604C51.75 47.8606 51.75 47.8608 51.75 47.861L51.75 64.7777C51.7499 65.0341 51.6949 65.2827 51.5941 65.4985C51.4934 65.7144 51.3533 65.8846 51.1956 66.0005Z" stroke="url(#paint38_linear_2980_2027)" stroke-opacity="0.1"/>
</g>
<defs>
<filter id="filter0_bi_2980_2027" x="-6.92015" y="11.6334" width="42.3413" height="51.103" filterUnits="userSpaceOnUse" color-interpolation-filters="sRGB">
<feFlood flood-opacity="0" result="BackgroundImageFix"/>
<feGaussianBlur in="BackgroundImageFix" stdDeviation="4.83898"/>
<feComposite in2="SourceAlpha" operator="in" result="effect1_backgroundBlur_2980_2027"/>
<feBlend mode="normal" in="SourceGraphic" in2="effect1_backgroundBlur_2980_2027" result="shape"/>
<feColorMatrix in="SourceAlpha" type="matrix" values="0 0 0 0 0 0 0 0 0 0 0 0 0 0 0 0 0 0 127 0" result="hardAlpha"/>
<feOffset dy="1.61299"/>
<feGaussianBlur stdDeviation="3.22599"/>
<feComposite in2="hardAlpha" operator="arithmetic" k2="-1" k3="1"/>
<feColorMatrix type="matrix" values="0 0 0 0 1 0 0 0 0 1 0 0 0 0 1 0 0 0 0.4 0"/>
<feBlend mode="normal" in2="shape" result="effect2_innerShadow_2980_2027"/>
</filter>
<filter id="filter1_bi_2980_2027" x="-6.91966" y="11.6334" width="42.3413" height="51.103" filterUnits="userSpaceOnUse" color-interpolation-filters="sRGB">
<feFlood flood-opacity="0" result="BackgroundImageFix"/>
<feGaussianBlur in="BackgroundImageFix" stdDeviation="4.83898"/>
<feComposite in2="SourceAlpha" operator="in" result="effect1_backgroundBlur_2980_2027"/>
<feBlend mode="normal" in="SourceGraphic" in2="effect1_backgroundBlur_2980_2027" result="shape"/>
<feColorMatrix in="SourceAlpha" type="matrix" values="0 0 0 0 0 0 0 0 0 0 0 0 0 0 0 0 0 0 127 0" result="hardAlpha"/>
<feOffset dy="1.61299"/>
<feGaussianBlur stdDeviation="3.22599"/>
<feComposite in2="hardAlpha" operator="arithmetic" k2="-1" k3="1"/>
<feColorMatrix type="matrix" values="0 0 0 0 1 0 0 0 0 1 0 0 0 0 1 0 0 0 0.4 0"/>
<feBlend mode="normal" in2="shape" result="effect2_innerShadow_2980_2027"/>
</filter>
<filter id="filter2_bi_2980_2027" x="17.4597" y="-3.85642" width="42.2148" height="50.6313" filterUnits="userSpaceOnUse" color-interpolation-filters="sRGB">
<feFlood flood-opacity="0" result="BackgroundImageFix"/>
<feGaussianBlur in="BackgroundImageFix" stdDeviation="4.83898"/>
<feComposite in2="SourceAlpha" operator="in" result="effect1_backgroundBlur_2980_2027"/>
<feBlend mode="normal" in="SourceGraphic" in2="effect1_backgroundBlur_2980_2027" result="shape"/>
<feColorMatrix in="SourceAlpha" type="matrix" values="0 0 0 0 0 0 0 0 0 0 0 0 0 0 0 0 0 0 127 0" result="hardAlpha"/>
<feOffset dy="1.61299"/>
<feGaussianBlur stdDeviation="3.22599"/>
<feComposite in2="hardAlpha" operator="arithmetic" k2="-1" k3="1"/>
<feColorMatrix type="matrix" values="0 0 0 0 1 0 0 0 0 1 0 0 0 0 1 0 0 0 0.4 0"/>
<feBlend mode="normal" in2="shape" result="effect2_innerShadow_2980_2027"/>
</filter>
<filter id="filter3_bi_2980_2027" x="41.0784" y="14.2033" width="42.2148" height="50.6313" filterUnits="userSpaceOnUse" color-interpolation-filters="sRGB">
<feFlood flood-opacity="0" result="BackgroundImageFix"/>
<feGaussianBlur in="BackgroundImageFix" stdDeviation="4.83898"/>
<feComposite in2="SourceAlpha" operator="in" result="effect1_backgroundBlur_2980_2027"/>
<feBlend mode="normal" in="SourceGraphic" in2="effect1_backgroundBlur_2980_2027" result="shape"/>
<feColorMatrix in="SourceAlpha" type="matrix" values="0 0 0 0 0 0 0 0 0 0 0 0 0 0 0 0 0 0 127 0" result="hardAlpha"/>
<feOffset dy="1.61299"/>
<feGaussianBlur stdDeviation="3.22599"/>
<feComposite in2="hardAlpha" operator="arithmetic" k2="-1" k3="1"/>
<feColorMatrix type="matrix" values="0 0 0 0 1 0 0 0 0 1 0 0 0 0 1 0 0 0 0.4 0"/>
<feBlend mode="normal" in2="shape" result="effect2_innerShadow_2980_2027"/>
</filter>
<filter id="filter4_bi_2980_2027" x="17.4588" y="34.9104" width="42.2148" height="50.6313" filterUnits="userSpaceOnUse" color-interpolation-filters="sRGB">
<feFlood flood-opacity="0" result="BackgroundImageFix"/>
<feGaussianBlur in="BackgroundImageFix" stdDeviation="4.83898"/>
<feComposite in2="SourceAlpha" operator="in" result="effect1_backgroundBlur_2980_2027"/>
<feBlend mode="normal" in="SourceGraphic" in2="effect1_backgroundBlur_2980_2027" result="shape"/>
<feColorMatrix in="SourceAlpha" type="matrix" values="0 0 0 0 0 0 0 0 0 0 0 0 0 0 0 0 0 0 127 0" result="hardAlpha"/>
<feOffset dy="1.61299"/>
<feGaussianBlur stdDeviation="3.22599"/>
<feComposite in2="hardAlpha" operator="arithmetic" k2="-1" k3="1"/>
<feColorMatrix type="matrix" values="0 0 0 0 1 0 0 0 0 1 0 0 0 0 1 0 0 0 0.4 0"/>
<feBlend mode="normal" in2="shape" result="effect2_innerShadow_2980_2027"/>
</filter>
<filter id="filter5_bi_2980_2027" x="11.9492" y="-12" width="52.1011" height="44.6327" filterUnits="userSpaceOnUse" color-interpolation-filters="sRGB">
<feFlood flood-opacity="0" result="BackgroundImageFix"/>
<feGaussianBlur in="BackgroundImageFix" stdDeviation="6"/>
<feComposite in2="SourceAlpha" operator="in" result="effect1_backgroundBlur_2980_2027"/>
<feBlend mode="normal" in="SourceGraphic" in2="effect1_backgroundBlur_2980_2027" result="shape"/>
<feColorMatrix in="SourceAlpha" type="matrix" values="0 0 0 0 0 0 0 0 0 0 0 0 0 0 0 0 0 0 127 0" result="hardAlpha"/>
<feOffset dy="2"/>
<feGaussianBlur stdDeviation="4"/>
<feComposite in2="hardAlpha" operator="arithmetic" k2="-1" k3="1"/>
<feColorMatrix type="matrix" values="0 0 0 0 1 0 0 0 0 1 0 0 0 0 1 0 0 0 0.4 0"/>
<feBlend mode="normal" in2="shape" result="effect2_innerShadow_2980_2027"/>
</filter>
<filter id="filter6_bi_2980_2027" x="11.75" y="-1.70093" width="38.25" height="53.0621" filterUnits="userSpaceOnUse" color-interpolation-filters="sRGB">
<feFlood flood-opacity="0" result="BackgroundImageFix"/>
<feGaussianBlur in="BackgroundImageFix" stdDeviation="6"/>
<feComposite in2="SourceAlpha" operator="in" result="effect1_backgroundBlur_2980_2027"/>
<feBlend mode="normal" in="SourceGraphic" in2="effect1_backgroundBlur_2980_2027" result="shape"/>
<feColorMatrix in="SourceAlpha" type="matrix" values="0 0 0 0 0 0 0 0 0 0 0 0 0 0 0 0 0 0 127 0" result="hardAlpha"/>
<feOffset dy="2"/>
<feGaussianBlur stdDeviation="4"/>
<feComposite in2="hardAlpha" operator="arithmetic" k2="-1" k3="1"/>
<feColorMatrix type="matrix" values="0 0 0 0 1 0 0 0 0 1 0 0 0 0 1 0 0 0 0.4 0"/>
<feBlend mode="normal" in2="shape" result="effect2_innerShadow_2980_2027"/>
</filter>
<filter id="filter7_bi_2980_2027" x="26" y="-1.70093" width="38.25" height="53.0621" filterUnits="userSpaceOnUse" color-interpolation-filters="sRGB">
<feFlood flood-opacity="0" result="BackgroundImageFix"/>
<feGaussianBlur in="BackgroundImageFix" stdDeviation="6"/>
<feComposite in2="SourceAlpha" operator="in" result="effect1_backgroundBlur_2980_2027"/>
<feBlend mode="normal" in="SourceGraphic" in2="effect1_backgroundBlur_2980_2027" result="shape"/>
<feColorMatrix in="SourceAlpha" type="matrix" values="0 0 0 0 0 0 0 0 0 0 0 0 0 0 0 0 0 0 127 0" result="hardAlpha"/>
<feOffset dy="2"/>
<feGaussianBlur stdDeviation="4"/>
<feComposite in2="hardAlpha" operator="arithmetic" k2="-1" k3="1"/>
<feColorMatrix type="matrix" values="0 0 0 0 1 0 0 0 0 1 0 0 0 0 1 0 0 0 0.4 0"/>
<feBlend mode="normal" in2="shape" result="effect2_innerShadow_2980_2027"/>
</filter>
<filter id="filter8_bi_2980_2027" x="35.6992" y="5.49951" width="52.1011" height="44.6345" filterUnits="userSpaceOnUse" color-interpolation-filters="sRGB">
<feFlood flood-opacity="0" result="BackgroundImageFix"/>
<feGaussianBlur in="BackgroundImageFix" stdDeviation="6"/>
<feComposite in2="SourceAlpha" operator="in" result="effect1_backgroundBlur_2980_2027"/>
<feBlend mode="normal" in="SourceGraphic" in2="effect1_backgroundBlur_2980_2027" result="shape"/>
<feColorMatrix in="SourceAlpha" type="matrix" values="0 0 0 0 0 0 0 0 0 0 0 0 0 0 0 0 0 0 127 0" result="hardAlpha"/>
<feOffset dy="2"/>
<feGaussianBlur stdDeviation="4"/>
<feComposite in2="hardAlpha" operator="arithmetic" k2="-1" k3="1"/>
<feColorMatrix type="matrix" values="0 0 0 0 1 0 0 0 0 1 0 0 0 0 1 0 0 0 0.4 0"/>
<feBlend mode="normal" in2="shape" result="effect2_innerShadow_2980_2027"/>
</filter>
<filter id="filter9_bi_2980_2027" x="35.5" y="15.7998" width="38.25" height="53.064" filterUnits="userSpaceOnUse" color-interpolation-filters="sRGB">
<feFlood flood-opacity="0" result="BackgroundImageFix"/>
<feGaussianBlur in="BackgroundImageFix" stdDeviation="6"/>
<feComposite in2="SourceAlpha" operator="in" result="effect1_backgroundBlur_2980_2027"/>
<feBlend mode="normal" in="SourceGraphic" in2="effect1_backgroundBlur_2980_2027" result="shape"/>
<feColorMatrix in="SourceAlpha" type="matrix" values="0 0 0 0 0 0 0 0 0 0 0 0 0 0 0 0 0 0 127 0" result="hardAlpha"/>
<feOffset dy="2"/>
<feGaussianBlur stdDeviation="4"/>
<feComposite in2="hardAlpha" operator="arithmetic" k2="-1" k3="1"/>
<feColorMatrix type="matrix" values="0 0 0 0 1 0 0 0 0 1 0 0 0 0 1 0 0 0 0.4 0"/>
<feBlend mode="normal" in2="shape" result="effect2_innerShadow_2980_2027"/>
</filter>
<filter id="filter10_bi_2980_2027" x="49.75" y="15.7998" width="38.25" height="53.064" filterUnits="userSpaceOnUse" color-interpolation-filters="sRGB">
<feFlood flood-opacity="0" result="BackgroundImageFix"/>
<feGaussianBlur in="BackgroundImageFix" stdDeviation="6"/>
<feComposite in2="SourceAlpha" operator="in" result="effect1_backgroundBlur_2980_2027"/>
<feBlend mode="normal" in="SourceGraphic" in2="effect1_backgroundBlur_2980_2027" result="shape"/>
<feColorMatrix in="SourceAlpha" type="matrix" values="0 0 0 0 0 0 0 0 0 0 0 0 0 0 0 0 0 0 127 0" result="hardAlpha"/>
<feOffset dy="2"/>
<feGaussianBlur stdDeviation="4"/>
<feComposite in2="hardAlpha" operator="arithmetic" k2="-1" k3="1"/>
<feColorMatrix type="matrix" values="0 0 0 0 1 0 0 0 0 1 0 0 0 0 1 0 0 0 0.4 0"/>
<feBlend mode="normal" in2="shape" result="effect2_innerShadow_2980_2027"/>
</filter>
<filter id="filter11_bi_2980_2027" x="-11.8008" y="5.49951" width="52.1011" height="44.6345" filterUnits="userSpaceOnUse" color-interpolation-filters="sRGB">
<feFlood flood-opacity="0" result="BackgroundImageFix"/>
<feGaussianBlur in="BackgroundImageFix" stdDeviation="6"/>
<feComposite in2="SourceAlpha" operator="in" result="effect1_backgroundBlur_2980_2027"/>
<feBlend mode="normal" in="SourceGraphic" in2="effect1_backgroundBlur_2980_2027" result="shape"/>
<feColorMatrix in="SourceAlpha" type="matrix" values="0 0 0 0 0 0 0 0 0 0 0 0 0 0 0 0 0 0 127 0" result="hardAlpha"/>
<feOffset dy="2"/>
<feGaussianBlur stdDeviation="4"/>
<feComposite in2="hardAlpha" operator="arithmetic" k2="-1" k3="1"/>
<feColorMatrix type="matrix" values="0 0 0 0 1 0 0 0 0 1 0 0 0 0 1 0 0 0 0.4 0"/>
<feBlend mode="normal" in2="shape" result="effect2_innerShadow_2980_2027"/>
</filter>
<filter id="filter12_bi_2980_2027" x="-12" y="15.7998" width="38.25" height="53.064" filterUnits="userSpaceOnUse" color-interpolation-filters="sRGB">
<feFlood flood-opacity="0" result="BackgroundImageFix"/>
<feGaussianBlur in="BackgroundImageFix" stdDeviation="6"/>
<feComposite in2="SourceAlpha" operator="in" result="effect1_backgroundBlur_2980_2027"/>
<feBlend mode="normal" in="SourceGraphic" in2="effect1_backgroundBlur_2980_2027" result="shape"/>
<feColorMatrix in="SourceAlpha" type="matrix" values="0 0 0 0 0 0 0 0 0 0 0 0 0 0 0 0 0 0 127 0" result="hardAlpha"/>
<feOffset dy="2"/>
<feGaussianBlur stdDeviation="4"/>
<feComposite in2="hardAlpha" operator="arithmetic" k2="-1" k3="1"/>
<feColorMatrix type="matrix" values="0 0 0 0 1 0 0 0 0 1 0 0 0 0 1 0 0 0 0.4 0"/>
<feBlend mode="normal" in2="shape" result="effect2_innerShadow_2980_2027"/>
</filter>
<filter id="filter13_bi_2980_2027" x="2.25" y="15.7998" width="38.25" height="53.064" filterUnits="userSpaceOnUse" color-interpolation-filters="sRGB">
<feFlood flood-opacity="0" result="BackgroundImageFix"/>
<feGaussianBlur in="BackgroundImageFix" stdDeviation="6"/>
<feComposite in2="SourceAlpha" operator="in" result="effect1_backgroundBlur_2980_2027"/>
<feBlend mode="normal" in="SourceGraphic" in2="effect1_backgroundBlur_2980_2027" result="shape"/>
<feColorMatrix in="SourceAlpha" type="matrix" values="0 0 0 0 0 0 0 0 0 0 0 0 0 0 0 0 0 0 127 0" result="hardAlpha"/>
<feOffset dy="2"/>
<feGaussianBlur stdDeviation="4"/>
<feComposite in2="hardAlpha" operator="arithmetic" k2="-1" k3="1"/>
<feColorMatrix type="matrix" values="0 0 0 0 1 0 0 0 0 1 0 0 0 0 1 0 0 0 0.4 0"/>
<feBlend mode="normal" in2="shape" result="effect2_innerShadow_2980_2027"/>
</filter>
<filter id="filter14_bi_2980_2027" x="11.9492" y="24.5344" width="52.1011" height="44.6327" filterUnits="userSpaceOnUse" color-interpolation-filters="sRGB">
<feFlood flood-opacity="0" result="BackgroundImageFix"/>
<feGaussianBlur in="BackgroundImageFix" stdDeviation="6"/>
<feComposite in2="SourceAlpha" operator="in" result="effect1_backgroundBlur_2980_2027"/>
<feBlend mode="normal" in="SourceGraphic" in2="effect1_backgroundBlur_2980_2027" result="shape"/>
<feColorMatrix in="SourceAlpha" type="matrix" values="0 0 0 0 0 0 0 0 0 0 0 0 0 0 0 0 0 0 127 0" result="hardAlpha"/>
<feOffset dy="2"/>
<feGaussianBlur stdDeviation="4"/>
<feComposite in2="hardAlpha" operator="arithmetic" k2="-1" k3="1"/>
<feColorMatrix type="matrix" values="0 0 0 0 1 0 0 0 0 1 0 0 0 0 1 0 0 0 0.4 0"/>
<feBlend mode="normal" in2="shape" result="effect2_innerShadow_2980_2027"/>
</filter>
<filter id="filter15_bi_2980_2027" x="11.75" y="34.8347" width="38.25" height="53.0621" filterUnits="userSpaceOnUse" color-interpolation-filters="sRGB">
<feFlood flood-opacity="0" result="BackgroundImageFix"/>
<feGaussianBlur in="BackgroundImageFix" stdDeviation="6"/>
<feComposite in2="SourceAlpha" operator="in" result="effect1_backgroundBlur_2980_2027"/>
<feBlend mode="normal" in="SourceGraphic" in2="effect1_backgroundBlur_2980_2027" result="shape"/>
<feColorMatrix in="SourceAlpha" type="matrix" values="0 0 0 0 0 0 0 0 0 0 0 0 0 0 0 0 0 0 127 0" result="hardAlpha"/>
<feOffset dy="2"/>
<feGaussianBlur stdDeviation="4"/>
<feComposite in2="hardAlpha" operator="arithmetic" k2="-1" k3="1"/>
<feColorMatrix type="matrix" values="0 0 0 0 1 0 0 0 0 1 0 0 0 0 1 0 0 0 0.4 0"/>
<feBlend mode="normal" in2="shape" result="effect2_innerShadow_2980_2027"/>
</filter>
<filter id="filter16_bi_2980_2027" x="26" y="34.9379" width="38.25" height="53.0621" filterUnits="userSpaceOnUse" color-interpolation-filters="sRGB">
<feFlood flood-opacity="0" result="BackgroundImageFix"/>
<feGaussianBlur in="BackgroundImageFix" stdDeviation="6"/>
<feComposite in2="SourceAlpha" operator="in" result="effect1_backgroundBlur_2980_2027"/>
<feBlend mode="normal" in="SourceGraphic" in2="effect1_backgroundBlur_2980_2027" result="shape"/>
<feColorMatrix in="SourceAlpha" type="matrix" values="0 0 0 0 0 0 0 0 0 0 0 0 0 0 0 0 0 0 127 0" result="hardAlpha"/>
<feOffset dy="2"/>
<feGaussianBlur stdDeviation="4"/>
<feComposite in2="hardAlpha" operator="arithmetic" k2="-1" k3="1"/>
<feColorMatrix type="matrix" values="0 0 0 0 1 0 0 0 0 1 0 0 0 0 1 0 0 0 0.4 0"/>
<feBlend mode="normal" in2="shape" result="effect2_innerShadow_2980_2027"/>
</filter>
<linearGradient id="paint0_linear_2980_2027" x1="2.75781" y1="21.3114" x2="30.6371" y2="26.4367" gradientUnits="userSpaceOnUse">
<stop stop-color="#75A5FF"/>
<stop offset="0.703125" stop-color="#2339FF"/>
</linearGradient>
<linearGradient id="paint1_linear_2980_2027" x1="2.75781" y1="21.3114" x2="30.6371" y2="26.4367" gradientUnits="userSpaceOnUse">
<stop stop-color="#75A5FF"/>
<stop offset="0.703125" stop-color="#2339FF"/>
</linearGradient>
<linearGradient id="paint2_linear_2980_2027" x1="2.75781" y1="21.3114" x2="30.6371" y2="26.4367" gradientUnits="userSpaceOnUse">
<stop stop-color="#75A5FF"/>
<stop offset="0.703125" stop-color="#2339FF"/>
</linearGradient>
<linearGradient id="paint3_linear_2980_2027" x1="2.7583" y1="21.3114" x2="30.6376" y2="26.4367" gradientUnits="userSpaceOnUse">
<stop stop-color="#75A5FF"/>
<stop offset="0.703125" stop-color="#2339FF"/>
</linearGradient>
<linearGradient id="paint4_linear_2980_2027" x1="2.7583" y1="21.3114" x2="30.6376" y2="26.4367" gradientUnits="userSpaceOnUse">
<stop stop-color="#75A5FF"/>
<stop offset="0.703125" stop-color="#2339FF"/>
</linearGradient>
<linearGradient id="paint5_linear_2980_2027" x1="2.7583" y1="21.3114" x2="30.6376" y2="26.4367" gradientUnits="userSpaceOnUse">
<stop stop-color="#75A5FF"/>
<stop offset="0.703125" stop-color="#2339FF"/>
</linearGradient>
<linearGradient id="paint6_linear_2980_2027" x1="27.1377" y1="5.82153" x2="54.8464" y2="10.9639" gradientUnits="userSpaceOnUse">
<stop stop-color="#75A5FF"/>
<stop offset="0.703125" stop-color="#2339FF"/>
</linearGradient>
<linearGradient id="paint7_linear_2980_2027" x1="27.1377" y1="5.82153" x2="54.8464" y2="10.9639" gradientUnits="userSpaceOnUse">
<stop stop-color="#75A5FF"/>
<stop offset="0.703125" stop-color="#2339FF"/>
</linearGradient>
<linearGradient id="paint8_linear_2980_2027" x1="27.1377" y1="5.82153" x2="54.8464" y2="10.9639" gradientUnits="userSpaceOnUse">
<stop stop-color="#75A5FF"/>
<stop offset="0.703125" stop-color="#2339FF"/>
</linearGradient>
<linearGradient id="paint9_linear_2980_2027" x1="50.7563" y1="23.8812" x2="78.4651" y2="29.0236" gradientUnits="userSpaceOnUse">
<stop stop-color="#75A5FF"/>
<stop offset="0.703125" stop-color="#2339FF"/>
</linearGradient>
<linearGradient id="paint10_linear_2980_2027" x1="50.7563" y1="23.8812" x2="78.4651" y2="29.0236" gradientUnits="userSpaceOnUse">
<stop stop-color="#75A5FF"/>
<stop offset="0.703125" stop-color="#2339FF"/>
</linearGradient>
<linearGradient id="paint11_linear_2980_2027" x1="50.7563" y1="23.8812" x2="78.4651" y2="29.0236" gradientUnits="userSpaceOnUse">
<stop stop-color="#75A5FF"/>
<stop offset="0.703125" stop-color="#2339FF"/>
</linearGradient>
<linearGradient id="paint12_linear_2980_2027" x1="27.1367" y1="44.5884" x2="54.8455" y2="49.7307" gradientUnits="userSpaceOnUse">
<stop stop-color="#75A5FF"/>
<stop offset="0.703125" stop-color="#2339FF"/>
</linearGradient>
<linearGradient id="paint13_linear_2980_2027" x1="27.1367" y1="44.5884" x2="54.8455" y2="49.7307" gradientUnits="userSpaceOnUse">
<stop stop-color="#75A5FF"/>
<stop offset="0.703125" stop-color="#2339FF"/>
</linearGradient>
<linearGradient id="paint14_linear_2980_2027" x1="27.1367" y1="44.5884" x2="54.8455" y2="49.7307" gradientUnits="userSpaceOnUse">
<stop stop-color="#75A5FF"/>
<stop offset="0.703125" stop-color="#2339FF"/>
</linearGradient>
<linearGradient id="paint15_linear_2980_2027" x1="23.9492" y1="0" x2="55.4216" y2="10.8841" gradientUnits="userSpaceOnUse">
<stop stop-color="#83E9FF"/>
<stop offset="0.453125" stop-color="#85A0FF"/>
</linearGradient>
<linearGradient id="paint16_linear_2980_2027" x1="24.8274" y1="0.937848" x2="52.0503" y2="0.937848" gradientUnits="userSpaceOnUse">
<stop stop-color="#3CDEB6"/>
<stop offset="0.65625" stop-color="#364AFF"/>
</linearGradient>
<linearGradient id="paint17_linear_2980_2027" x1="23.75" y1="10.2991" x2="41.3456" y2="12.4898" gradientUnits="userSpaceOnUse">
<stop stop-color="#83E9FF"/>
<stop offset="0.453125" stop-color="#85A0FF"/>
</linearGradient>
<linearGradient id="paint18_linear_2980_2027" x1="24.1953" y1="11.6201" x2="38" y2="11.6201" gradientUnits="userSpaceOnUse">
<stop stop-color="#3CDEB6"/>
<stop offset="0.65625" stop-color="#364AFF"/>
</linearGradient>
<linearGradient id="paint19_linear_2980_2027" x1="38" y1="10.2991" x2="55.5956" y2="12.4898" gradientUnits="userSpaceOnUse">
<stop stop-color="#83E9FF"/>
<stop offset="0.453125" stop-color="#85A0FF"/>
</linearGradient>
<linearGradient id="paint20_linear_2980_2027" x1="38.4453" y1="11.6201" x2="52.25" y2="11.6201" gradientUnits="userSpaceOnUse">
<stop stop-color="#3CDEB6"/>
<stop offset="0.65625" stop-color="#364AFF"/>
</linearGradient>
<linearGradient id="paint21_linear_2980_2027" x1="47.6992" y1="17.4995" x2="79.1722" y2="28.3828" gradientUnits="userSpaceOnUse">
<stop stop-color="#83E9FF"/>
<stop offset="0.453125" stop-color="#85A0FF"/>
</linearGradient>
<linearGradient id="paint22_linear_2980_2027" x1="48.5774" y1="18.4374" x2="75.8003" y2="18.4374" gradientUnits="userSpaceOnUse">
<stop stop-color="#3CDEB6"/>
<stop offset="0.65625" stop-color="#364AFF"/>
</linearGradient>
<linearGradient id="paint23_linear_2980_2027" x1="47.5" y1="27.7998" x2="65.0956" y2="29.9904" gradientUnits="userSpaceOnUse">
<stop stop-color="#83E9FF"/>
<stop offset="0.453125" stop-color="#85A0FF"/>
</linearGradient>
<linearGradient id="paint24_linear_2980_2027" x1="47.9453" y1="29.1209" x2="61.75" y2="29.1209" gradientUnits="userSpaceOnUse">
<stop stop-color="#3CDEB6"/>
<stop offset="0.65625" stop-color="#364AFF"/>
</linearGradient>
<linearGradient id="paint25_linear_2980_2027" x1="61.75" y1="27.7998" x2="79.3456" y2="29.9904" gradientUnits="userSpaceOnUse">
<stop stop-color="#83E9FF"/>
<stop offset="0.453125" stop-color="#85A0FF"/>
</linearGradient>
<linearGradient id="paint26_linear_2980_2027" x1="62.1953" y1="29.1209" x2="76" y2="29.1209" gradientUnits="userSpaceOnUse">
<stop stop-color="#3CDEB6"/>
<stop offset="0.65625" stop-color="#364AFF"/>
</linearGradient>
<linearGradient id="paint27_linear_2980_2027" x1="0.199219" y1="17.4995" x2="31.6722" y2="28.3828" gradientUnits="userSpaceOnUse">
<stop stop-color="#83E9FF"/>
<stop offset="0.453125" stop-color="#85A0FF"/>
</linearGradient>
<linearGradient id="paint28_linear_2980_2027" x1="1.07738" y1="18.4374" x2="28.3003" y2="18.4374" gradientUnits="userSpaceOnUse">
<stop stop-color="#3CDEB6"/>
<stop offset="0.65625" stop-color="#364AFF"/>
</linearGradient>
<linearGradient id="paint29_linear_2980_2027" x1="0" y1="27.7998" x2="17.5956" y2="29.9904" gradientUnits="userSpaceOnUse">
<stop stop-color="#83E9FF"/>
<stop offset="0.453125" stop-color="#85A0FF"/>
</linearGradient>
<linearGradient id="paint30_linear_2980_2027" x1="0.445313" y1="29.1209" x2="14.25" y2="29.1209" gradientUnits="userSpaceOnUse">
<stop stop-color="#3CDEB6"/>
<stop offset="0.65625" stop-color="#364AFF"/>
</linearGradient>
<linearGradient id="paint31_linear_2980_2027" x1="14.25" y1="27.7998" x2="31.8456" y2="29.9904" gradientUnits="userSpaceOnUse">
<stop stop-color="#83E9FF"/>
<stop offset="0.453125" stop-color="#85A0FF"/>
</linearGradient>
<linearGradient id="paint32_linear_2980_2027" x1="14.6953" y1="29.1209" x2="28.5" y2="29.1209" gradientUnits="userSpaceOnUse">
<stop stop-color="#3CDEB6"/>
<stop offset="0.65625" stop-color="#364AFF"/>
</linearGradient>
<linearGradient id="paint33_linear_2980_2027" x1="23.9492" y1="36.5344" x2="55.4216" y2="47.4185" gradientUnits="userSpaceOnUse">
<stop stop-color="#83E9FF"/>
<stop offset="0.453125" stop-color="#85A0FF"/>
</linearGradient>
<linearGradient id="paint34_linear_2980_2027" x1="24.8274" y1="37.4723" x2="52.0503" y2="37.4723" gradientUnits="userSpaceOnUse">
<stop stop-color="#3CDEB6"/>
<stop offset="0.65625" stop-color="#364AFF"/>
</linearGradient>
<linearGradient id="paint35_linear_2980_2027" x1="23.75" y1="46.8347" x2="41.3456" y2="49.0254" gradientUnits="userSpaceOnUse">
<stop stop-color="#83E9FF"/>
<stop offset="0.453125" stop-color="#85A0FF"/>
</linearGradient>
<linearGradient id="paint36_linear_2980_2027" x1="24.1953" y1="48.1557" x2="38" y2="48.1557" gradientUnits="userSpaceOnUse">
<stop stop-color="#3CDEB6"/>
<stop offset="0.65625" stop-color="#364AFF"/>
</linearGradient>
<linearGradient id="paint37_linear_2980_2027" x1="38" y1="46.9379" x2="55.5956" y2="49.1286" gradientUnits="userSpaceOnUse">
<stop stop-color="#83E9FF"/>
<stop offset="0.453125" stop-color="#85A0FF"/>
</linearGradient>
<linearGradient id="paint38_linear_2980_2027" x1="38.4453" y1="48.2589" x2="52.25" y2="48.2589" gradientUnits="userSpaceOnUse">
<stop stop-color="#3CDEB6"/>
<stop offset="0.65625" stop-color="#364AFF"/>
</linearGradient>
</defs>
</svg>
