<svg width="24" height="24" viewBox="0 0 24 24" fill="none" xmlns="http://www.w3.org/2000/svg">
<path d="M21 6.5C21 8.433 19.433 10 17.5 10C15.567 10 14 8.433 14 6.5C14 4.567 15.567 3 17.5 3C19.433 3 21 4.567 21 6.5Z" fill="url(#paint0_linear_9187_1772)" stroke="url(#paint1_linear_9187_1772)"/>
<path d="M3 6.5C3 4.85008 3 4.02513 3.51256 3.51256C4.02513 3 4.85008 3 6.5 3C8.14992 3 8.97487 3 9.48744 3.51256C10 4.02513 10 4.85008 10 6.5C10 8.14992 10 8.97487 9.48744 9.48744C8.97487 10 8.14992 10 6.5 10C4.85008 10 4.02513 10 3.51256 9.48744C3 8.97487 3 8.14992 3 6.5Z" fill="url(#paint2_linear_9187_1772)" stroke="url(#paint3_linear_9187_1772)"/>
<path d="M3 17.5C3 15.8501 3 15.0251 3.51256 14.5126C4.02513 14 4.85008 14 6.5 14C8.14992 14 8.97487 14 9.48744 14.5126C10 15.0251 10 15.8501 10 17.5C10 19.1499 10 19.9749 9.48744 20.4874C8.97487 21 8.14992 21 6.5 21C4.85008 21 4.02513 21 3.51256 20.4874C3 19.9749 3 19.1499 3 17.5Z" fill="url(#paint4_linear_9187_1772)" stroke="url(#paint5_linear_9187_1772)"/>
<path d="M14 17.5C14 15.8501 14 15.0251 14.5126 14.5126C15.0251 14 15.8501 14 17.5 14C19.1499 14 19.9749 14 20.4874 14.5126C21 15.0251 21 15.8501 21 17.5C21 19.1499 21 19.9749 20.4874 20.4874C19.9749 21 19.1499 21 17.5 21C15.8501 21 15.0251 21 14.5126 20.4874C14 19.9749 14 19.1499 14 17.5Z" fill="url(#paint6_linear_9187_1772)" stroke="url(#paint7_linear_9187_1772)"/>
<path d="M17.5 10V14M14 17.5H10M10 6.5H14" stroke="url(#paint8_linear_9187_1772)" stroke-linecap="round" stroke-linejoin="round"/>
<defs>
<linearGradient id="paint0_linear_9187_1772" x1="12.25" y1="2.41863" x2="21.9413" y2="8.84837" gradientUnits="userSpaceOnUse">
<stop stop-color="#6169E5" stop-opacity="0.9"/>
<stop offset="1" stop-color="#6169E5" stop-opacity="0.4"/>
</linearGradient>
<linearGradient id="paint1_linear_9187_1772" x1="21.75" y1="3" x2="13.2596" y2="8.18207" gradientUnits="userSpaceOnUse">
<stop stop-color="#C6B0FF"/>
<stop offset="1" stop-color="white" stop-opacity="0.1"/>
</linearGradient>
<linearGradient id="paint2_linear_9187_1772" x1="1.25" y1="2.41863" x2="10.9413" y2="8.84837" gradientUnits="userSpaceOnUse">
<stop stop-color="#6169E5" stop-opacity="0.9"/>
<stop offset="1" stop-color="#6169E5" stop-opacity="0.4"/>
</linearGradient>
<linearGradient id="paint3_linear_9187_1772" x1="10.75" y1="3" x2="2.25964" y2="8.18207" gradientUnits="userSpaceOnUse">
<stop stop-color="#C6B0FF"/>
<stop offset="1" stop-color="white" stop-opacity="0.1"/>
</linearGradient>
<linearGradient id="paint4_linear_9187_1772" x1="1.25" y1="13.4186" x2="10.9413" y2="19.8484" gradientUnits="userSpaceOnUse">
<stop stop-color="#6169E5" stop-opacity="0.9"/>
<stop offset="1" stop-color="#6169E5" stop-opacity="0.4"/>
</linearGradient>
<linearGradient id="paint5_linear_9187_1772" x1="10.75" y1="14" x2="2.25964" y2="19.1821" gradientUnits="userSpaceOnUse">
<stop stop-color="#C6B0FF"/>
<stop offset="1" stop-color="white" stop-opacity="0.1"/>
</linearGradient>
<linearGradient id="paint6_linear_9187_1772" x1="12.25" y1="13.4186" x2="21.9413" y2="19.8484" gradientUnits="userSpaceOnUse">
<stop stop-color="#6169E5" stop-opacity="0.9"/>
<stop offset="1" stop-color="#6169E5" stop-opacity="0.4"/>
</linearGradient>
<linearGradient id="paint7_linear_9187_1772" x1="21.75" y1="14" x2="13.2596" y2="19.1821" gradientUnits="userSpaceOnUse">
<stop stop-color="#C6B0FF"/>
<stop offset="1" stop-color="white" stop-opacity="0.1"/>
</linearGradient>
<linearGradient id="paint8_linear_9187_1772" x1="18.3036" y1="6.5" x2="7.66103" y2="10.9289" gradientUnits="userSpaceOnUse">
<stop stop-color="#C6B0FF"/>
<stop offset="1" stop-color="white" stop-opacity="0.1"/>
</linearGradient>
</defs>
</svg>
