<svg width="40" height="40" viewBox="0 0 40 40" fill="none" xmlns="http://www.w3.org/2000/svg">
<g clip-path="url(#clip0_3621_8031)">
<g filter="url(#filter0_bi_3621_8031)">
<path d="M13.4646 17.1185C13.4086 17.0166 13.3268 16.931 13.2273 16.8705L7.8507 13.5847C7.74524 13.5204 7.62409 13.4863 7.50054 13.4863C7.377 13.4863 7.25584 13.5204 7.15039 13.5847L1.77374 16.8705C1.67433 16.931 1.59253 17.0166 1.53649 17.1185L7.50054 20.7639L13.4646 17.1185Z" fill="url(#paint0_linear_3621_8031)"/>
<path d="M1.53649 17.1185C1.48106 17.2183 1.45128 17.331 1.45117 17.4451V23.4118C1.45124 23.5269 1.48087 23.6401 1.53725 23.7405C1.59362 23.8409 1.67483 23.9251 1.7731 23.9851L7.14975 27.2709C7.25516 27.3354 7.37632 27.3695 7.4999 27.3697L7.50054 20.7639L1.53649 17.1185Z" fill="url(#paint1_linear_3621_8031)"/>
<path d="M13.4646 17.1185C13.52 17.2183 13.5485 17.331 13.5486 17.4451V23.4118C13.5486 23.5269 13.5189 23.6401 13.4626 23.7405C13.4062 23.8409 13.325 23.9251 13.2267 23.9851L7.85006 27.2709C7.74464 27.3354 7.62348 27.3695 7.4999 27.3697L7.50054 20.7639L13.4646 17.1185Z" fill="url(#paint2_linear_3621_8031)"/>
</g>
<g filter="url(#filter1_bi_3621_8031)">
<path d="M13.4651 17.1185C13.409 17.0166 13.3272 16.931 13.2278 16.8705L7.85119 13.5847C7.74573 13.5204 7.62458 13.4863 7.50103 13.4863C7.37749 13.4863 7.25633 13.5204 7.15088 13.5847L1.77423 16.8705C1.67482 16.931 1.59302 17.0166 1.53698 17.1185L7.50103 20.7639L13.4651 17.1185Z" fill="url(#paint3_linear_3621_8031)"/>
<path d="M1.53698 17.1185C1.48155 17.2183 1.45177 17.331 1.45166 17.4451V23.4118C1.45172 23.5269 1.48136 23.6401 1.53773 23.7405C1.5941 23.8409 1.67532 23.9251 1.77359 23.9851L7.15024 27.2709C7.25565 27.3354 7.37681 27.3695 7.50039 27.3697L7.50103 20.7639L1.53698 17.1185Z" fill="url(#paint4_linear_3621_8031)"/>
<path d="M13.4651 17.1185C13.5205 17.2183 13.549 17.331 13.5491 17.4451V23.4118C13.5491 23.5269 13.5194 23.6401 13.463 23.7405C13.4067 23.8409 13.3255 23.9251 13.2272 23.9851L7.85054 27.2709C7.74513 27.3354 7.62397 27.3695 7.50039 27.3697L7.50103 20.7639L13.4651 17.1185Z" fill="url(#paint5_linear_3621_8031)"/>
</g>
<g filter="url(#filter2_bi_3621_8031)">
<path d="M25.9651 9.10243C25.909 9.00044 25.8272 8.91493 25.7278 8.85443L20.3512 5.56864C20.2457 5.50427 20.1246 5.47021 20.001 5.47021C19.8775 5.47021 19.7563 5.50427 19.6509 5.56864L14.2742 8.85443C14.1748 8.91493 14.093 9.00044 14.037 9.10243L20.001 12.7478L25.9651 9.10243Z" fill="url(#paint6_linear_3621_8031)"/>
<path d="M14.037 9.10243C13.9815 9.20214 13.9518 9.31487 13.9517 9.42895V15.3957C13.9517 15.5108 13.9814 15.624 14.0377 15.7244C14.0941 15.8248 14.1753 15.909 14.2736 15.969L19.6502 19.2548C19.7557 19.3193 19.8768 19.3534 20.0004 19.3535L20.001 12.7478L14.037 9.10243Z" fill="url(#paint7_linear_3621_8031)"/>
<path d="M25.9651 9.10243C26.0205 9.20214 26.049 9.31487 26.0491 9.42895V15.3957C26.0491 15.5108 26.0194 15.624 25.963 15.7244C25.9067 15.8248 25.8255 15.909 25.7272 15.969L20.3505 19.2548C20.2451 19.3193 20.124 19.3534 20.0004 19.3535L20.001 12.7478L25.9651 9.10243Z" fill="url(#paint8_linear_3621_8031)"/>
</g>
<g filter="url(#filter3_bi_3621_8031)">
<path d="M38.4651 17.1181C38.409 17.0161 38.3272 16.9306 38.2278 16.8701L32.8512 13.5843C32.7457 13.5199 32.6246 13.4858 32.501 13.4858C32.3775 13.4858 32.2563 13.5199 32.1509 13.5843L26.7742 16.8701C26.6748 16.9306 26.593 17.0161 26.537 17.1181L32.501 20.7634L38.4651 17.1181Z" fill="url(#paint9_linear_3621_8031)"/>
<path d="M26.537 17.1181C26.4815 17.2178 26.4518 17.3305 26.4517 17.4446V23.4113C26.4517 23.5264 26.4814 23.6396 26.5377 23.74C26.5941 23.8404 26.6753 23.9246 26.7736 23.9846L32.1502 27.2704C32.2557 27.3349 32.3768 27.3691 32.5004 27.3692L32.501 20.7634L26.537 17.1181Z" fill="url(#paint10_linear_3621_8031)"/>
<path d="M38.4651 17.1181C38.5205 17.2178 38.549 17.3305 38.5491 17.4446V23.4113C38.5491 23.5264 38.5194 23.6396 38.463 23.74C38.4067 23.8404 38.3255 23.9246 38.2272 23.9846L32.8505 27.2704C32.7451 27.3349 32.624 27.3691 32.5004 27.3692L32.501 20.7634L38.4651 17.1181Z" fill="url(#paint11_linear_3621_8031)"/>
</g>
<g filter="url(#filter4_bi_3621_8031)">
<path d="M25.9651 26.3119C25.909 26.2099 25.8272 26.1244 25.7278 26.0639L20.3512 22.7781C20.2457 22.7137 20.1246 22.6797 20.001 22.6797C19.8775 22.6797 19.7563 22.7137 19.6509 22.7781L14.2742 26.0639C14.1748 26.1244 14.093 26.2099 14.037 26.3119L20.001 29.9573L25.9651 26.3119Z" fill="url(#paint12_linear_3621_8031)"/>
<path d="M14.037 26.3119C13.9815 26.4116 13.9518 26.5243 13.9517 26.6384V32.6051C13.9517 32.7203 13.9814 32.8335 14.0377 32.9338C14.0941 33.0342 14.1753 33.1184 14.2736 33.1784L19.6502 36.4642C19.7557 36.5287 19.8768 36.5629 20.0004 36.563L20.001 29.9573L14.037 26.3119Z" fill="url(#paint13_linear_3621_8031)"/>
<path d="M25.9651 26.3119C26.0205 26.4116 26.049 26.5243 26.0491 26.6384V32.6051C26.0491 32.7203 26.0194 32.8335 25.963 32.9338C25.9067 33.0342 25.8255 33.1184 25.7272 33.1784L20.3505 36.4642C20.2451 36.5287 20.124 36.5629 20.0004 36.563L20.001 29.9573L25.9651 26.3119Z" fill="url(#paint14_linear_3621_8031)"/>
</g>
<g filter="url(#filter5_bi_3621_8031)">
<path d="M27.395 8.67118C27.3255 8.54472 27.2241 8.4387 27.1008 8.36368L20.4341 4.28952C20.3034 4.20971 20.1532 4.16748 20 4.16748C19.8468 4.16748 19.6966 4.20971 19.5658 4.28952L12.8991 8.36368C12.7759 8.4387 12.6745 8.54472 12.605 8.67118L20 13.1904L27.395 8.67118Z" fill="url(#paint15_linear_3621_8031)"/>
<path d="M20 13.0146L12.8184 8.62582C12.8639 8.57345 12.9174 8.52818 12.9771 8.49182L12.9774 8.49168L19.644 4.41755C19.7512 4.35211 19.8744 4.31748 20 4.31748C20.1256 4.31748 20.2488 4.35211 20.356 4.41755L27.0226 8.49168L27.0228 8.49182C27.0826 8.52818 27.1361 8.57345 27.1815 8.62582L20 13.0146Z" stroke="url(#paint16_linear_3621_8031)" stroke-width="0.3"/>
</g>
<g filter="url(#filter6_bi_3621_8031)">
<path d="M12.605 8.6709C12.5364 8.79428 12.5003 8.93306 12.5 9.07423V16.4726C12.5001 16.6153 12.5368 16.7557 12.6067 16.8801C12.6766 17.0046 12.7773 17.109 12.8992 17.1834L19.5658 21.2576C19.6965 21.3375 19.8468 21.3799 20 21.3801V13.1901L12.605 8.6709Z" fill="url(#paint17_linear_3621_8031)"/>
<path d="M12.6758 8.88994C12.6589 8.94972 12.6501 9.01176 12.65 9.07438L12.65 16.4725L12.65 16.4726M12.6758 8.88994L12.65 16.4726M12.6758 8.88994L19.85 13.2742V21.2132C19.7776 21.1969 19.708 21.1687 19.6441 21.1296L19.6441 21.1296L12.9774 17.0554L12.9773 17.0554C12.8774 16.9944 12.7948 16.9087 12.7375 16.8067C12.6802 16.7046 12.6501 16.5896 12.65 16.4726M12.6758 8.88994L12.65 16.4726" stroke="url(#paint18_linear_3621_8031)" stroke-width="0.3"/>
</g>
<g filter="url(#filter7_bi_3621_8031)">
<path d="M27.395 8.6709C27.4636 8.79428 27.4997 8.93306 27.5 9.07423V16.4726C27.4999 16.6153 27.4632 16.7557 27.3933 16.8801C27.3234 17.0046 27.2227 17.109 27.1008 17.1834L20.4342 21.2576C20.3035 21.3375 20.1532 21.3799 20 21.3801V13.1901L27.395 8.6709Z" fill="url(#paint19_linear_3621_8031)"/>
<path d="M27.0227 17.0554L27.0226 17.0554L20.3559 21.1296L20.3559 21.1296C20.292 21.1687 20.2224 21.1969 20.15 21.2132V13.2742L27.3242 8.88994C27.3411 8.94969 27.3499 9.01171 27.35 9.07429C27.35 9.07437 27.35 9.07445 27.35 9.07452L27.35 16.4725C27.3499 16.5895 27.3198 16.7046 27.2625 16.8067C27.2052 16.9087 27.1226 16.9944 27.0227 17.0554Z" stroke="url(#paint20_linear_3621_8031)" stroke-width="0.3"/>
</g>
<g filter="url(#filter8_bi_3621_8031)">
<path d="M39.895 16.324C39.8255 16.1976 39.7241 16.0915 39.6008 16.0165L32.9341 11.9423C32.8034 11.8625 32.6532 11.8203 32.5 11.8203C32.3468 11.8203 32.1966 11.8625 32.0658 11.9423L25.3991 16.0165C25.2759 16.0915 25.1745 16.1976 25.105 16.324L32.5 20.844L39.895 16.324Z" fill="url(#paint21_linear_3621_8031)"/>
<path d="M32.0658 11.9423L25.3991 16.0165M32.0658 11.9423L32.144 12.0704L25.4774 16.1445L25.4771 16.1447C25.4174 16.181 25.3639 16.2263 25.3184 16.2787L32.5 20.6682L39.6816 16.2787C39.6361 16.2263 39.5826 16.181 39.5228 16.1447L39.5226 16.1445L32.856 12.0704C32.7488 12.0049 32.6256 11.9703 32.5 11.9703C32.3744 11.9703 32.2512 12.0049 32.144 12.0703L25.3991 16.0165M32.0658 11.9423C32.1966 11.8625 32.3468 11.8203 32.5 11.8203C32.6532 11.8203 32.8034 11.8625 32.9341 11.9423H32.0658ZM25.3991 16.0165C25.3189 16.0654 25.2479 16.1273 25.189 16.1995L25.3991 16.0165ZM39.895 16.324L39.8552 16.2589C39.8694 16.2799 39.8827 16.3017 39.895 16.324ZM39.895 16.324L32.5 20.844M39.895 16.324L32.5 20.844M32.5 20.844L25.105 16.324M32.5 20.844L25.1448 16.2589M25.1448 16.2589C25.1305 16.2799 25.1173 16.3017 25.105 16.324M25.1448 16.2589L25.105 16.324M25.1448 16.2589L25.105 16.324M39.811 16.1995C39.7521 16.1273 39.6811 16.0654 39.6008 16.0165L39.811 16.1995Z" stroke="url(#paint22_linear_3621_8031)" stroke-width="0.3"/>
</g>
<g filter="url(#filter9_bi_3621_8031)">
<path d="M25.105 16.3247C25.0363 16.4483 25.0001 16.5874 25 16.7289V24.1272C25.0001 24.27 25.0368 24.4103 25.1067 24.5348C25.1766 24.6592 25.2773 24.7637 25.3992 24.838L32.0658 28.9122C32.1965 28.9922 32.3468 29.0346 32.5 29.0347V20.8447L25.105 16.3247Z" fill="url(#paint23_linear_3621_8031)"/>
<path d="M25.1758 16.5438C25.1588 16.6038 25.1501 16.6661 25.15 16.729C25.15 16.729 25.15 16.729 25.15 16.729L25.1758 16.5438ZM25.1758 16.5438L32.35 20.9288V28.8679C32.2776 28.8515 32.208 28.8233 32.1441 28.7843L32.1441 28.7842L25.4774 24.71L25.4773 24.71C25.3774 24.649 25.2948 24.5634 25.2375 24.4613C25.1802 24.3593 25.1501 24.2442 25.15 24.1272L25.1758 16.5438Z" stroke="url(#paint24_linear_3621_8031)" stroke-width="0.3"/>
</g>
<g filter="url(#filter10_bi_3621_8031)">
<path d="M39.895 16.3247C39.9637 16.4483 39.9999 16.5874 40 16.7289V24.1272C39.9999 24.27 39.9632 24.4103 39.8933 24.5348C39.8234 24.6592 39.7227 24.7637 39.6008 24.838L32.9342 28.9122C32.8035 28.9922 32.6532 29.0346 32.5 29.0347V20.8447L39.895 16.3247Z" fill="url(#paint25_linear_3621_8031)"/>
<path d="M39.5227 24.71L39.5226 24.71L32.8559 28.7842L32.8559 28.7843C32.792 28.8234 32.7224 28.8515 32.65 28.8679V20.9288L39.8242 16.5438C39.8412 16.6038 39.8499 16.6661 39.85 16.729V24.1271C39.8499 24.2442 39.8198 24.3593 39.7625 24.4613C39.7052 24.5634 39.6226 24.649 39.5227 24.71Z" stroke="url(#paint26_linear_3621_8031)" stroke-width="0.3"/>
</g>
<g filter="url(#filter11_bi_3621_8031)">
<path d="M14.895 16.324C14.8255 16.1976 14.7241 16.0915 14.6008 16.0165L7.93415 11.9423C7.80339 11.8625 7.65317 11.8203 7.49998 11.8203C7.34679 11.8203 7.19657 11.8625 7.06581 11.9423L0.399147 16.0165C0.275888 16.0915 0.174459 16.1976 0.10498 16.324L7.49998 20.844L14.895 16.324Z" fill="url(#paint27_linear_3621_8031)"/>
<path d="M7.06581 11.9423L0.399147 16.0165C0.3189 16.0654 0.247905 16.1273 0.188956 16.1995L0.318405 16.2787M7.06581 11.9423L7.14396 12.0704M7.06581 11.9423C7.19657 11.8625 7.34679 11.8203 7.49998 11.8203C7.65317 11.8203 7.80339 11.8625 7.93415 11.9423M7.06581 11.9423L7.14403 12.0703L7.14396 12.0704M7.14396 12.0704L0.477366 16.1445L0.477128 16.1447C0.417377 16.181 0.363895 16.2263 0.318405 16.2787M7.14396 12.0704C7.25118 12.0049 7.37437 11.9703 7.49998 11.9703C7.62559 11.9703 7.74878 12.0049 7.856 12.0704M0.318405 16.2787L7.49998 20.6682M0.318405 16.2787C0.287118 16.3147 0.259611 16.3541 0.236446 16.3962L0.10498 16.324M0.10498 16.324C0.117262 16.3017 0.130543 16.2799 0.144765 16.2589L0.10498 16.324ZM0.10498 16.324L7.49998 20.844M7.49998 20.844L14.895 16.324M7.49998 20.844L7.57821 20.716L7.49998 20.6682M7.49998 20.844L7.42175 20.716L7.49998 20.6682M14.895 16.324C14.8827 16.3017 14.8694 16.2799 14.8552 16.2589L14.895 16.324ZM14.895 16.324L14.7635 16.3962C14.7404 16.3541 14.7128 16.3147 14.6816 16.2787M14.6816 16.2787L14.811 16.1995C14.7521 16.1273 14.6811 16.0654 14.6008 16.0165L7.93415 11.9423M14.6816 16.2787C14.6361 16.2263 14.5826 16.181 14.5228 16.1447L14.5226 16.1445L7.856 12.0704M14.6816 16.2787L7.49998 20.6682M7.93415 11.9423L7.85593 12.0703L7.856 12.0704M7.93415 11.9423L7.856 12.0704" stroke="url(#paint28_linear_3621_8031)" stroke-width="0.3"/>
</g>
<g filter="url(#filter12_bi_3621_8031)">
<path d="M0.105 16.3247C0.0362655 16.4483 0.000131081 16.5874 0 16.7289L0 24.1272C7.94804e-05 24.27 0.0368288 24.4103 0.106725 24.5348C0.176621 24.6592 0.277319 24.7637 0.399167 24.838L7.06583 28.9122C7.19654 28.9922 7.34677 29.0346 7.5 29.0347V20.8447L0.105 16.3247Z" fill="url(#paint29_linear_3621_8031)"/>
<path d="M0.175768 16.5438C0.158801 16.6038 0.150064 16.6661 0.15 16.729C0.15 16.729 0.15 16.729 0.15 16.729L0.175768 16.5438ZM0.175768 16.5438L7.35 20.9288V28.8679C7.2776 28.8515 7.20801 28.8233 7.14412 28.7843L7.14405 28.7842L0.477385 24.71L0.477316 24.71C0.377402 24.649 0.294829 24.5634 0.237514 24.4613C0.180213 24.3593 0.150079 24.2442 0.15 24.1272L0.175768 16.5438Z" stroke="url(#paint30_linear_3621_8031)" stroke-width="0.3"/>
</g>
<g filter="url(#filter13_bi_3621_8031)">
<path d="M14.895 16.3247C14.9637 16.4483 14.9999 16.5874 15 16.7289V24.1272C14.9999 24.27 14.9632 24.4103 14.8933 24.5348C14.8234 24.6592 14.7227 24.7637 14.6008 24.838L7.93417 28.9122C7.80346 28.9922 7.65323 29.0346 7.5 29.0347V20.8447L14.895 16.3247Z" fill="url(#paint31_linear_3621_8031)"/>
<path d="M14.5227 24.71L14.5226 24.71L7.85595 28.7842L7.85588 28.7843C7.79199 28.8234 7.7224 28.8515 7.65 28.8679V20.9288L14.8242 16.5438C14.8412 16.6038 14.8499 16.6661 14.85 16.729V24.1271C14.8499 24.2442 14.8198 24.3593 14.7625 24.4613C14.7052 24.5634 14.6226 24.649 14.5227 24.71Z" stroke="url(#paint32_linear_3621_8031)" stroke-width="0.3"/>
</g>
<g filter="url(#filter14_bi_3621_8031)">
<path d="M27.395 24.6477C27.3255 24.5213 27.2241 24.4153 27.1008 24.3402L20.4341 20.2661C20.3034 20.1863 20.1532 20.144 20 20.144C19.8468 20.144 19.6966 20.1863 19.5658 20.2661L12.8991 24.3402C12.7759 24.4153 12.6745 24.5213 12.605 24.6477L20 29.1669L27.395 24.6477Z" fill="url(#paint33_linear_3621_8031)"/>
<path d="M19.5658 20.2661L12.8991 24.3402C12.8189 24.3891 12.7479 24.4511 12.689 24.5233L12.8184 24.6024M19.5658 20.2661L19.644 20.3941M19.5658 20.2661C19.6966 20.1863 19.8468 20.144 20 20.144C20.1532 20.144 20.3034 20.1863 20.4341 20.2661M19.5658 20.2661L19.644 20.3941L19.644 20.3941M19.644 20.3941L12.9774 24.4682L12.9771 24.4684C12.9174 24.5047 12.8639 24.55 12.8184 24.6024M19.644 20.3941C19.7512 20.3287 19.8744 20.294 20 20.294C20.1256 20.294 20.2488 20.3287 20.356 20.3941M12.8184 24.6024L20 28.9911M12.8184 24.6024C12.7871 24.6384 12.7596 24.6778 12.7364 24.72L12.605 24.6477M12.605 24.6477C12.6172 24.6254 12.6305 24.6038 12.6447 24.5828L12.605 24.6477ZM12.605 24.6477L20 29.1669M20 29.1669L27.395 24.6477M20 29.1669L20.0782 29.0389L20 28.9911M20 29.1669L19.9218 29.0389L20 28.9911M27.395 24.6477C27.3827 24.6254 27.3695 24.6038 27.3553 24.5828L27.395 24.6477ZM27.395 24.6477L27.2635 24.72C27.2403 24.6778 27.2128 24.6384 27.1815 24.6024M27.1815 24.6024L27.311 24.5233C27.2521 24.4511 27.1811 24.3891 27.1008 24.3402L20.4341 20.2661M27.1815 24.6024C27.1361 24.55 27.0826 24.5047 27.0228 24.4684L27.0226 24.4682L20.356 20.3941M27.1815 24.6024L20 28.9911M20.4341 20.2661L20.3559 20.3941L20.356 20.3941M20.4341 20.2661L20.356 20.3941" stroke="url(#paint34_linear_3621_8031)" stroke-width="0.3"/>
</g>
<g filter="url(#filter15_bi_3621_8031)">
<path d="M12.605 24.6475C12.5364 24.7708 12.5003 24.9096 12.5 25.0508V32.4491C12.5001 32.5919 12.5368 32.7322 12.6067 32.8567C12.6766 32.9812 12.7773 33.0856 12.8992 33.16L19.5658 37.2341C19.6965 37.3141 19.8468 37.3565 20 37.3566V29.1666L12.605 24.6475Z" fill="url(#paint35_linear_3621_8031)"/>
<path d="M12.6758 24.8665C12.6589 24.9263 12.6501 24.9883 12.65 25.0509L12.65 32.449L12.65 32.4491M12.6758 24.8665L12.65 32.4491M12.6758 24.8665L19.85 29.2508V37.1898C19.7776 37.1734 19.708 37.1453 19.6441 37.1062L19.6441 37.1061L12.9774 33.032L12.9773 33.0319C12.8774 32.9709 12.7948 32.8853 12.7375 32.7832C12.6802 32.6812 12.6501 32.5662 12.65 32.4491M12.6758 24.8665L12.65 32.4491" stroke="url(#paint36_linear_3621_8031)" stroke-width="0.3"/>
</g>
<g filter="url(#filter16_bi_3621_8031)">
<path d="M27.395 24.6475C27.4636 24.7708 27.4997 24.9096 27.5 25.0508V32.4491C27.4999 32.5919 27.4632 32.7322 27.3933 32.8567C27.3234 32.9812 27.2227 33.0856 27.1008 33.16L20.4342 37.2341C20.3035 37.3141 20.1532 37.3565 20 37.3566V29.1666L27.395 24.6475Z" fill="url(#paint37_linear_3621_8031)"/>
<path d="M27.0227 33.0319L27.0226 33.032L20.3559 37.1061L20.3559 37.1062C20.292 37.1453 20.2224 37.1734 20.15 37.1898V29.2508L27.3242 24.8665C27.3411 24.9263 27.3499 24.9883 27.35 25.0509C27.35 25.0509 27.35 25.051 27.35 25.0511L27.35 32.449C27.3499 32.5661 27.3198 32.6812 27.2625 32.7832C27.2052 32.8853 27.1226 32.9709 27.0227 33.0319Z" stroke="url(#paint38_linear_3621_8031)" stroke-width="0.3"/>
</g>
</g>
<defs>
<filter id="filter0_bi_3621_8031" x="-0.968318" y="11.0668" width="16.9366" height="18.7223" filterUnits="userSpaceOnUse" color-interpolation-filters="sRGB">
<feFlood flood-opacity="0" result="BackgroundImageFix"/>
<feGaussianBlur in="BackgroundImageFix" stdDeviation="1.20974"/>
<feComposite in2="SourceAlpha" operator="in" result="effect1_backgroundBlur_3621_8031"/>
<feBlend mode="normal" in="SourceGraphic" in2="effect1_backgroundBlur_3621_8031" result="shape"/>
<feColorMatrix in="SourceAlpha" type="matrix" values="0 0 0 0 0 0 0 0 0 0 0 0 0 0 0 0 0 0 127 0" result="hardAlpha"/>
<feOffset dy="0.403248"/>
<feGaussianBlur stdDeviation="0.806497"/>
<feComposite in2="hardAlpha" operator="arithmetic" k2="-1" k3="1"/>
<feColorMatrix type="matrix" values="0 0 0 0 1 0 0 0 0 1 0 0 0 0 1 0 0 0 0.4 0"/>
<feBlend mode="normal" in2="shape" result="effect2_innerShadow_3621_8031"/>
</filter>
<filter id="filter1_bi_3621_8031" x="-0.967829" y="11.0668" width="16.9366" height="18.7223" filterUnits="userSpaceOnUse" color-interpolation-filters="sRGB">
<feFlood flood-opacity="0" result="BackgroundImageFix"/>
<feGaussianBlur in="BackgroundImageFix" stdDeviation="1.20974"/>
<feComposite in2="SourceAlpha" operator="in" result="effect1_backgroundBlur_3621_8031"/>
<feBlend mode="normal" in="SourceGraphic" in2="effect1_backgroundBlur_3621_8031" result="shape"/>
<feColorMatrix in="SourceAlpha" type="matrix" values="0 0 0 0 0 0 0 0 0 0 0 0 0 0 0 0 0 0 127 0" result="hardAlpha"/>
<feOffset dy="0.403248"/>
<feGaussianBlur stdDeviation="0.806497"/>
<feComposite in2="hardAlpha" operator="arithmetic" k2="-1" k3="1"/>
<feColorMatrix type="matrix" values="0 0 0 0 1 0 0 0 0 1 0 0 0 0 1 0 0 0 0.4 0"/>
<feBlend mode="normal" in2="shape" result="effect2_innerShadow_3621_8031"/>
</filter>
<filter id="filter2_bi_3621_8031" x="11.5322" y="3.05073" width="16.9366" height="18.7223" filterUnits="userSpaceOnUse" color-interpolation-filters="sRGB">
<feFlood flood-opacity="0" result="BackgroundImageFix"/>
<feGaussianBlur in="BackgroundImageFix" stdDeviation="1.20974"/>
<feComposite in2="SourceAlpha" operator="in" result="effect1_backgroundBlur_3621_8031"/>
<feBlend mode="normal" in="SourceGraphic" in2="effect1_backgroundBlur_3621_8031" result="shape"/>
<feColorMatrix in="SourceAlpha" type="matrix" values="0 0 0 0 0 0 0 0 0 0 0 0 0 0 0 0 0 0 127 0" result="hardAlpha"/>
<feOffset dy="0.403248"/>
<feGaussianBlur stdDeviation="0.806497"/>
<feComposite in2="hardAlpha" operator="arithmetic" k2="-1" k3="1"/>
<feColorMatrix type="matrix" values="0 0 0 0 1 0 0 0 0 1 0 0 0 0 1 0 0 0 0.4 0"/>
<feBlend mode="normal" in2="shape" result="effect2_innerShadow_3621_8031"/>
</filter>
<filter id="filter3_bi_3621_8031" x="24.0322" y="11.0664" width="16.9366" height="18.7223" filterUnits="userSpaceOnUse" color-interpolation-filters="sRGB">
<feFlood flood-opacity="0" result="BackgroundImageFix"/>
<feGaussianBlur in="BackgroundImageFix" stdDeviation="1.20974"/>
<feComposite in2="SourceAlpha" operator="in" result="effect1_backgroundBlur_3621_8031"/>
<feBlend mode="normal" in="SourceGraphic" in2="effect1_backgroundBlur_3621_8031" result="shape"/>
<feColorMatrix in="SourceAlpha" type="matrix" values="0 0 0 0 0 0 0 0 0 0 0 0 0 0 0 0 0 0 127 0" result="hardAlpha"/>
<feOffset dy="0.403248"/>
<feGaussianBlur stdDeviation="0.806497"/>
<feComposite in2="hardAlpha" operator="arithmetic" k2="-1" k3="1"/>
<feColorMatrix type="matrix" values="0 0 0 0 1 0 0 0 0 1 0 0 0 0 1 0 0 0 0.4 0"/>
<feBlend mode="normal" in2="shape" result="effect2_innerShadow_3621_8031"/>
</filter>
<filter id="filter4_bi_3621_8031" x="11.5322" y="20.2602" width="16.9366" height="18.7223" filterUnits="userSpaceOnUse" color-interpolation-filters="sRGB">
<feFlood flood-opacity="0" result="BackgroundImageFix"/>
<feGaussianBlur in="BackgroundImageFix" stdDeviation="1.20974"/>
<feComposite in2="SourceAlpha" operator="in" result="effect1_backgroundBlur_3621_8031"/>
<feBlend mode="normal" in="SourceGraphic" in2="effect1_backgroundBlur_3621_8031" result="shape"/>
<feColorMatrix in="SourceAlpha" type="matrix" values="0 0 0 0 0 0 0 0 0 0 0 0 0 0 0 0 0 0 127 0" result="hardAlpha"/>
<feOffset dy="0.403248"/>
<feGaussianBlur stdDeviation="0.806497"/>
<feComposite in2="hardAlpha" operator="arithmetic" k2="-1" k3="1"/>
<feColorMatrix type="matrix" values="0 0 0 0 1 0 0 0 0 1 0 0 0 0 1 0 0 0 0.4 0"/>
<feBlend mode="normal" in2="shape" result="effect2_innerShadow_3621_8031"/>
</filter>
<filter id="filter5_bi_3621_8031" x="6.60498" y="-1.83252" width="26.79" height="21.0229" filterUnits="userSpaceOnUse" color-interpolation-filters="sRGB">
<feFlood flood-opacity="0" result="BackgroundImageFix"/>
<feGaussianBlur in="BackgroundImageFix" stdDeviation="3"/>
<feComposite in2="SourceAlpha" operator="in" result="effect1_backgroundBlur_3621_8031"/>
<feBlend mode="normal" in="SourceGraphic" in2="effect1_backgroundBlur_3621_8031" result="shape"/>
<feColorMatrix in="SourceAlpha" type="matrix" values="0 0 0 0 0 0 0 0 0 0 0 0 0 0 0 0 0 0 127 0" result="hardAlpha"/>
<feOffset dy="2"/>
<feGaussianBlur stdDeviation="1.5"/>
<feComposite in2="hardAlpha" operator="arithmetic" k2="-1" k3="1"/>
<feColorMatrix type="matrix" values="0 0 0 0 1 0 0 0 0 1 0 0 0 0 1 0 0 0 0.15 0"/>
<feBlend mode="normal" in2="shape" result="effect2_innerShadow_3621_8031"/>
</filter>
<filter id="filter6_bi_3621_8031" x="6.5" y="2.6709" width="19.5" height="24.709" filterUnits="userSpaceOnUse" color-interpolation-filters="sRGB">
<feFlood flood-opacity="0" result="BackgroundImageFix"/>
<feGaussianBlur in="BackgroundImageFix" stdDeviation="3"/>
<feComposite in2="SourceAlpha" operator="in" result="effect1_backgroundBlur_3621_8031"/>
<feBlend mode="normal" in="SourceGraphic" in2="effect1_backgroundBlur_3621_8031" result="shape"/>
<feColorMatrix in="SourceAlpha" type="matrix" values="0 0 0 0 0 0 0 0 0 0 0 0 0 0 0 0 0 0 127 0" result="hardAlpha"/>
<feOffset dy="2"/>
<feGaussianBlur stdDeviation="1.5"/>
<feComposite in2="hardAlpha" operator="arithmetic" k2="-1" k3="1"/>
<feColorMatrix type="matrix" values="0 0 0 0 1 0 0 0 0 1 0 0 0 0 1 0 0 0 0.15 0"/>
<feBlend mode="normal" in2="shape" result="effect2_innerShadow_3621_8031"/>
</filter>
<filter id="filter7_bi_3621_8031" x="14" y="2.6709" width="19.5" height="24.709" filterUnits="userSpaceOnUse" color-interpolation-filters="sRGB">
<feFlood flood-opacity="0" result="BackgroundImageFix"/>
<feGaussianBlur in="BackgroundImageFix" stdDeviation="3"/>
<feComposite in2="SourceAlpha" operator="in" result="effect1_backgroundBlur_3621_8031"/>
<feBlend mode="normal" in="SourceGraphic" in2="effect1_backgroundBlur_3621_8031" result="shape"/>
<feColorMatrix in="SourceAlpha" type="matrix" values="0 0 0 0 0 0 0 0 0 0 0 0 0 0 0 0 0 0 127 0" result="hardAlpha"/>
<feOffset dy="2"/>
<feGaussianBlur stdDeviation="1.5"/>
<feComposite in2="hardAlpha" operator="arithmetic" k2="-1" k3="1"/>
<feColorMatrix type="matrix" values="0 0 0 0 1 0 0 0 0 1 0 0 0 0 1 0 0 0 0.15 0"/>
<feBlend mode="normal" in2="shape" result="effect2_innerShadow_3621_8031"/>
</filter>
<filter id="filter8_bi_3621_8031" x="19.105" y="5.82031" width="26.79" height="21.0239" filterUnits="userSpaceOnUse" color-interpolation-filters="sRGB">
<feFlood flood-opacity="0" result="BackgroundImageFix"/>
<feGaussianBlur in="BackgroundImageFix" stdDeviation="3"/>
<feComposite in2="SourceAlpha" operator="in" result="effect1_backgroundBlur_3621_8031"/>
<feBlend mode="normal" in="SourceGraphic" in2="effect1_backgroundBlur_3621_8031" result="shape"/>
<feColorMatrix in="SourceAlpha" type="matrix" values="0 0 0 0 0 0 0 0 0 0 0 0 0 0 0 0 0 0 127 0" result="hardAlpha"/>
<feOffset dy="2"/>
<feGaussianBlur stdDeviation="1.5"/>
<feComposite in2="hardAlpha" operator="arithmetic" k2="-1" k3="1"/>
<feColorMatrix type="matrix" values="0 0 0 0 1 0 0 0 0 1 0 0 0 0 1 0 0 0 0.15 0"/>
<feBlend mode="normal" in2="shape" result="effect2_innerShadow_3621_8031"/>
</filter>
<filter id="filter9_bi_3621_8031" x="19" y="10.3247" width="19.5" height="24.71" filterUnits="userSpaceOnUse" color-interpolation-filters="sRGB">
<feFlood flood-opacity="0" result="BackgroundImageFix"/>
<feGaussianBlur in="BackgroundImageFix" stdDeviation="3"/>
<feComposite in2="SourceAlpha" operator="in" result="effect1_backgroundBlur_3621_8031"/>
<feBlend mode="normal" in="SourceGraphic" in2="effect1_backgroundBlur_3621_8031" result="shape"/>
<feColorMatrix in="SourceAlpha" type="matrix" values="0 0 0 0 0 0 0 0 0 0 0 0 0 0 0 0 0 0 127 0" result="hardAlpha"/>
<feOffset dy="2"/>
<feGaussianBlur stdDeviation="1.5"/>
<feComposite in2="hardAlpha" operator="arithmetic" k2="-1" k3="1"/>
<feColorMatrix type="matrix" values="0 0 0 0 1 0 0 0 0 1 0 0 0 0 1 0 0 0 0.15 0"/>
<feBlend mode="normal" in2="shape" result="effect2_innerShadow_3621_8031"/>
</filter>
<filter id="filter10_bi_3621_8031" x="26.5" y="10.3247" width="19.5" height="24.71" filterUnits="userSpaceOnUse" color-interpolation-filters="sRGB">
<feFlood flood-opacity="0" result="BackgroundImageFix"/>
<feGaussianBlur in="BackgroundImageFix" stdDeviation="3"/>
<feComposite in2="SourceAlpha" operator="in" result="effect1_backgroundBlur_3621_8031"/>
<feBlend mode="normal" in="SourceGraphic" in2="effect1_backgroundBlur_3621_8031" result="shape"/>
<feColorMatrix in="SourceAlpha" type="matrix" values="0 0 0 0 0 0 0 0 0 0 0 0 0 0 0 0 0 0 127 0" result="hardAlpha"/>
<feOffset dy="2"/>
<feGaussianBlur stdDeviation="1.5"/>
<feComposite in2="hardAlpha" operator="arithmetic" k2="-1" k3="1"/>
<feColorMatrix type="matrix" values="0 0 0 0 1 0 0 0 0 1 0 0 0 0 1 0 0 0 0.15 0"/>
<feBlend mode="normal" in2="shape" result="effect2_innerShadow_3621_8031"/>
</filter>
<filter id="filter11_bi_3621_8031" x="-5.89502" y="5.82031" width="26.79" height="21.0239" filterUnits="userSpaceOnUse" color-interpolation-filters="sRGB">
<feFlood flood-opacity="0" result="BackgroundImageFix"/>
<feGaussianBlur in="BackgroundImageFix" stdDeviation="3"/>
<feComposite in2="SourceAlpha" operator="in" result="effect1_backgroundBlur_3621_8031"/>
<feBlend mode="normal" in="SourceGraphic" in2="effect1_backgroundBlur_3621_8031" result="shape"/>
<feColorMatrix in="SourceAlpha" type="matrix" values="0 0 0 0 0 0 0 0 0 0 0 0 0 0 0 0 0 0 127 0" result="hardAlpha"/>
<feOffset dy="2"/>
<feGaussianBlur stdDeviation="1.5"/>
<feComposite in2="hardAlpha" operator="arithmetic" k2="-1" k3="1"/>
<feColorMatrix type="matrix" values="0 0 0 0 1 0 0 0 0 1 0 0 0 0 1 0 0 0 0.15 0"/>
<feBlend mode="normal" in2="shape" result="effect2_innerShadow_3621_8031"/>
</filter>
<filter id="filter12_bi_3621_8031" x="-6" y="10.3247" width="19.5" height="24.71" filterUnits="userSpaceOnUse" color-interpolation-filters="sRGB">
<feFlood flood-opacity="0" result="BackgroundImageFix"/>
<feGaussianBlur in="BackgroundImageFix" stdDeviation="3"/>
<feComposite in2="SourceAlpha" operator="in" result="effect1_backgroundBlur_3621_8031"/>
<feBlend mode="normal" in="SourceGraphic" in2="effect1_backgroundBlur_3621_8031" result="shape"/>
<feColorMatrix in="SourceAlpha" type="matrix" values="0 0 0 0 0 0 0 0 0 0 0 0 0 0 0 0 0 0 127 0" result="hardAlpha"/>
<feOffset dy="2"/>
<feGaussianBlur stdDeviation="1.5"/>
<feComposite in2="hardAlpha" operator="arithmetic" k2="-1" k3="1"/>
<feColorMatrix type="matrix" values="0 0 0 0 1 0 0 0 0 1 0 0 0 0 1 0 0 0 0.15 0"/>
<feBlend mode="normal" in2="shape" result="effect2_innerShadow_3621_8031"/>
</filter>
<filter id="filter13_bi_3621_8031" x="1.5" y="10.3247" width="19.5" height="24.71" filterUnits="userSpaceOnUse" color-interpolation-filters="sRGB">
<feFlood flood-opacity="0" result="BackgroundImageFix"/>
<feGaussianBlur in="BackgroundImageFix" stdDeviation="3"/>
<feComposite in2="SourceAlpha" operator="in" result="effect1_backgroundBlur_3621_8031"/>
<feBlend mode="normal" in="SourceGraphic" in2="effect1_backgroundBlur_3621_8031" result="shape"/>
<feColorMatrix in="SourceAlpha" type="matrix" values="0 0 0 0 0 0 0 0 0 0 0 0 0 0 0 0 0 0 127 0" result="hardAlpha"/>
<feOffset dy="2"/>
<feGaussianBlur stdDeviation="1.5"/>
<feComposite in2="hardAlpha" operator="arithmetic" k2="-1" k3="1"/>
<feColorMatrix type="matrix" values="0 0 0 0 1 0 0 0 0 1 0 0 0 0 1 0 0 0 0.15 0"/>
<feBlend mode="normal" in2="shape" result="effect2_innerShadow_3621_8031"/>
</filter>
<filter id="filter14_bi_3621_8031" x="6.60498" y="14.144" width="26.79" height="21.0229" filterUnits="userSpaceOnUse" color-interpolation-filters="sRGB">
<feFlood flood-opacity="0" result="BackgroundImageFix"/>
<feGaussianBlur in="BackgroundImageFix" stdDeviation="3"/>
<feComposite in2="SourceAlpha" operator="in" result="effect1_backgroundBlur_3621_8031"/>
<feBlend mode="normal" in="SourceGraphic" in2="effect1_backgroundBlur_3621_8031" result="shape"/>
<feColorMatrix in="SourceAlpha" type="matrix" values="0 0 0 0 0 0 0 0 0 0 0 0 0 0 0 0 0 0 127 0" result="hardAlpha"/>
<feOffset dy="2"/>
<feGaussianBlur stdDeviation="1.5"/>
<feComposite in2="hardAlpha" operator="arithmetic" k2="-1" k3="1"/>
<feColorMatrix type="matrix" values="0 0 0 0 1 0 0 0 0 1 0 0 0 0 1 0 0 0 0.15 0"/>
<feBlend mode="normal" in2="shape" result="effect2_innerShadow_3621_8031"/>
</filter>
<filter id="filter15_bi_3621_8031" x="6.5" y="18.6475" width="19.5" height="24.709" filterUnits="userSpaceOnUse" color-interpolation-filters="sRGB">
<feFlood flood-opacity="0" result="BackgroundImageFix"/>
<feGaussianBlur in="BackgroundImageFix" stdDeviation="3"/>
<feComposite in2="SourceAlpha" operator="in" result="effect1_backgroundBlur_3621_8031"/>
<feBlend mode="normal" in="SourceGraphic" in2="effect1_backgroundBlur_3621_8031" result="shape"/>
<feColorMatrix in="SourceAlpha" type="matrix" values="0 0 0 0 0 0 0 0 0 0 0 0 0 0 0 0 0 0 127 0" result="hardAlpha"/>
<feOffset dy="2"/>
<feGaussianBlur stdDeviation="1.5"/>
<feComposite in2="hardAlpha" operator="arithmetic" k2="-1" k3="1"/>
<feColorMatrix type="matrix" values="0 0 0 0 1 0 0 0 0 1 0 0 0 0 1 0 0 0 0.15 0"/>
<feBlend mode="normal" in2="shape" result="effect2_innerShadow_3621_8031"/>
</filter>
<filter id="filter16_bi_3621_8031" x="14" y="18.6475" width="19.5" height="24.709" filterUnits="userSpaceOnUse" color-interpolation-filters="sRGB">
<feFlood flood-opacity="0" result="BackgroundImageFix"/>
<feGaussianBlur in="BackgroundImageFix" stdDeviation="3"/>
<feComposite in2="SourceAlpha" operator="in" result="effect1_backgroundBlur_3621_8031"/>
<feBlend mode="normal" in="SourceGraphic" in2="effect1_backgroundBlur_3621_8031" result="shape"/>
<feColorMatrix in="SourceAlpha" type="matrix" values="0 0 0 0 0 0 0 0 0 0 0 0 0 0 0 0 0 0 127 0" result="hardAlpha"/>
<feOffset dy="2"/>
<feGaussianBlur stdDeviation="1.5"/>
<feComposite in2="hardAlpha" operator="arithmetic" k2="-1" k3="1"/>
<feColorMatrix type="matrix" values="0 0 0 0 1 0 0 0 0 1 0 0 0 0 1 0 0 0 0.15 0"/>
<feBlend mode="normal" in2="shape" result="effect2_innerShadow_3621_8031"/>
</filter>
<linearGradient id="paint0_linear_3621_8031" x1="-1.57319" y1="12.3333" x2="16.5055" y2="22.7848" gradientUnits="userSpaceOnUse">
<stop stop-color="#6169E5" stop-opacity="0.9"/>
<stop offset="1" stop-color="#6169E5" stop-opacity="0.4"/>
</linearGradient>
<linearGradient id="paint1_linear_3621_8031" x1="-1.57319" y1="12.3333" x2="16.5055" y2="22.7848" gradientUnits="userSpaceOnUse">
<stop stop-color="#6169E5" stop-opacity="0.9"/>
<stop offset="1" stop-color="#6169E5" stop-opacity="0.4"/>
</linearGradient>
<linearGradient id="paint2_linear_3621_8031" x1="-1.57319" y1="12.3333" x2="16.5055" y2="22.7848" gradientUnits="userSpaceOnUse">
<stop stop-color="#6169E5" stop-opacity="0.9"/>
<stop offset="1" stop-color="#6169E5" stop-opacity="0.4"/>
</linearGradient>
<linearGradient id="paint3_linear_3621_8031" x1="-1.5727" y1="12.3333" x2="16.506" y2="22.7848" gradientUnits="userSpaceOnUse">
<stop stop-color="#6169E5" stop-opacity="0.9"/>
<stop offset="1" stop-color="#6169E5" stop-opacity="0.4"/>
</linearGradient>
<linearGradient id="paint4_linear_3621_8031" x1="-1.5727" y1="12.3333" x2="16.506" y2="22.7848" gradientUnits="userSpaceOnUse">
<stop stop-color="#6169E5" stop-opacity="0.9"/>
<stop offset="1" stop-color="#6169E5" stop-opacity="0.4"/>
</linearGradient>
<linearGradient id="paint5_linear_3621_8031" x1="-1.5727" y1="12.3333" x2="16.506" y2="22.7848" gradientUnits="userSpaceOnUse">
<stop stop-color="#6169E5" stop-opacity="0.9"/>
<stop offset="1" stop-color="#6169E5" stop-opacity="0.4"/>
</linearGradient>
<linearGradient id="paint6_linear_3621_8031" x1="10.9273" y1="4.31716" x2="29.006" y2="14.7687" gradientUnits="userSpaceOnUse">
<stop stop-color="#6169E5" stop-opacity="0.9"/>
<stop offset="1" stop-color="#6169E5" stop-opacity="0.4"/>
</linearGradient>
<linearGradient id="paint7_linear_3621_8031" x1="10.9273" y1="4.31716" x2="29.006" y2="14.7687" gradientUnits="userSpaceOnUse">
<stop stop-color="#6169E5" stop-opacity="0.9"/>
<stop offset="1" stop-color="#6169E5" stop-opacity="0.4"/>
</linearGradient>
<linearGradient id="paint8_linear_3621_8031" x1="10.9273" y1="4.31716" x2="29.006" y2="14.7687" gradientUnits="userSpaceOnUse">
<stop stop-color="#6169E5" stop-opacity="0.9"/>
<stop offset="1" stop-color="#6169E5" stop-opacity="0.4"/>
</linearGradient>
<linearGradient id="paint9_linear_3621_8031" x1="23.4273" y1="12.3328" x2="41.506" y2="22.7843" gradientUnits="userSpaceOnUse">
<stop stop-color="#6169E5" stop-opacity="0.9"/>
<stop offset="1" stop-color="#6169E5" stop-opacity="0.4"/>
</linearGradient>
<linearGradient id="paint10_linear_3621_8031" x1="23.4273" y1="12.3328" x2="41.506" y2="22.7843" gradientUnits="userSpaceOnUse">
<stop stop-color="#6169E5" stop-opacity="0.9"/>
<stop offset="1" stop-color="#6169E5" stop-opacity="0.4"/>
</linearGradient>
<linearGradient id="paint11_linear_3621_8031" x1="23.4273" y1="12.3328" x2="41.506" y2="22.7843" gradientUnits="userSpaceOnUse">
<stop stop-color="#6169E5" stop-opacity="0.9"/>
<stop offset="1" stop-color="#6169E5" stop-opacity="0.4"/>
</linearGradient>
<linearGradient id="paint12_linear_3621_8031" x1="10.9273" y1="21.5266" x2="29.006" y2="31.9782" gradientUnits="userSpaceOnUse">
<stop stop-color="#6169E5" stop-opacity="0.9"/>
<stop offset="1" stop-color="#6169E5" stop-opacity="0.4"/>
</linearGradient>
<linearGradient id="paint13_linear_3621_8031" x1="10.9273" y1="21.5266" x2="29.006" y2="31.9782" gradientUnits="userSpaceOnUse">
<stop stop-color="#6169E5" stop-opacity="0.9"/>
<stop offset="1" stop-color="#6169E5" stop-opacity="0.4"/>
</linearGradient>
<linearGradient id="paint14_linear_3621_8031" x1="10.9273" y1="21.5266" x2="29.006" y2="31.9782" gradientUnits="userSpaceOnUse">
<stop stop-color="#6169E5" stop-opacity="0.9"/>
<stop offset="1" stop-color="#6169E5" stop-opacity="0.4"/>
</linearGradient>
<linearGradient id="paint15_linear_3621_8031" x1="8.90748" y1="3.4181" x2="22.4181" y2="18.1111" gradientUnits="userSpaceOnUse">
<stop stop-color="#6169E5" stop-opacity="0.9"/>
<stop offset="1" stop-color="#6169E5" stop-opacity="0.4"/>
</linearGradient>
<linearGradient id="paint16_linear_3621_8031" x1="28.9796" y1="4.16748" x2="16.6745" y2="16.4783" gradientUnits="userSpaceOnUse">
<stop stop-color="#C6B0FF"/>
<stop offset="1" stop-color="white" stop-opacity="0.1"/>
</linearGradient>
<linearGradient id="paint17_linear_3621_8031" x1="10.625" y1="7.61536" x2="23.5915" y2="12.692" gradientUnits="userSpaceOnUse">
<stop stop-color="#6169E5" stop-opacity="0.9"/>
<stop offset="1" stop-color="#6169E5" stop-opacity="0.4"/>
</linearGradient>
<linearGradient id="paint18_linear_3621_8031" x1="20.8036" y1="8.6709" x2="9.75174" y2="12.6516" gradientUnits="userSpaceOnUse">
<stop stop-color="#C6B0FF"/>
<stop offset="1" stop-color="white" stop-opacity="0.1"/>
</linearGradient>
<linearGradient id="paint19_linear_3621_8031" x1="18.125" y1="7.61536" x2="31.0915" y2="12.692" gradientUnits="userSpaceOnUse">
<stop stop-color="#6169E5" stop-opacity="0.9"/>
<stop offset="1" stop-color="#6169E5" stop-opacity="0.4"/>
</linearGradient>
<linearGradient id="paint20_linear_3621_8031" x1="28.3036" y1="8.6709" x2="17.2517" y2="12.6516" gradientUnits="userSpaceOnUse">
<stop stop-color="#C6B0FF"/>
<stop offset="1" stop-color="white" stop-opacity="0.1"/>
</linearGradient>
<linearGradient id="paint21_linear_3621_8031" x1="21.4075" y1="11.0709" x2="34.9194" y2="25.764" gradientUnits="userSpaceOnUse">
<stop stop-color="#6169E5" stop-opacity="0.9"/>
<stop offset="1" stop-color="#6169E5" stop-opacity="0.4"/>
</linearGradient>
<linearGradient id="paint22_linear_3621_8031" x1="41.4796" y1="11.8203" x2="29.1734" y2="24.1311" gradientUnits="userSpaceOnUse">
<stop stop-color="#C6B0FF"/>
<stop offset="1" stop-color="white" stop-opacity="0.1"/>
</linearGradient>
<linearGradient id="paint23_linear_3621_8031" x1="23.125" y1="15.2691" x2="36.0917" y2="20.3455" gradientUnits="userSpaceOnUse">
<stop stop-color="#6169E5" stop-opacity="0.9"/>
<stop offset="1" stop-color="#6169E5" stop-opacity="0.4"/>
</linearGradient>
<linearGradient id="paint24_linear_3621_8031" x1="33.3036" y1="16.3247" x2="22.2516" y2="20.3052" gradientUnits="userSpaceOnUse">
<stop stop-color="#C6B0FF"/>
<stop offset="1" stop-color="white" stop-opacity="0.1"/>
</linearGradient>
<linearGradient id="paint25_linear_3621_8031" x1="30.625" y1="15.2691" x2="43.5917" y2="20.3455" gradientUnits="userSpaceOnUse">
<stop stop-color="#6169E5" stop-opacity="0.9"/>
<stop offset="1" stop-color="#6169E5" stop-opacity="0.4"/>
</linearGradient>
<linearGradient id="paint26_linear_3621_8031" x1="40.8036" y1="16.3247" x2="29.7516" y2="20.3052" gradientUnits="userSpaceOnUse">
<stop stop-color="#C6B0FF"/>
<stop offset="1" stop-color="white" stop-opacity="0.1"/>
</linearGradient>
<linearGradient id="paint27_linear_3621_8031" x1="-3.59252" y1="11.0709" x2="9.91942" y2="25.764" gradientUnits="userSpaceOnUse">
<stop stop-color="#6169E5" stop-opacity="0.9"/>
<stop offset="1" stop-color="#6169E5" stop-opacity="0.4"/>
</linearGradient>
<linearGradient id="paint28_linear_3621_8031" x1="16.4796" y1="11.8203" x2="4.17338" y2="24.1311" gradientUnits="userSpaceOnUse">
<stop stop-color="#C6B0FF"/>
<stop offset="1" stop-color="white" stop-opacity="0.1"/>
</linearGradient>
<linearGradient id="paint29_linear_3621_8031" x1="-1.875" y1="15.2691" x2="11.0917" y2="20.3455" gradientUnits="userSpaceOnUse">
<stop stop-color="#6169E5" stop-opacity="0.9"/>
<stop offset="1" stop-color="#6169E5" stop-opacity="0.4"/>
</linearGradient>
<linearGradient id="paint30_linear_3621_8031" x1="8.30357" y1="16.3247" x2="-2.74843" y2="20.3052" gradientUnits="userSpaceOnUse">
<stop stop-color="#C6B0FF"/>
<stop offset="1" stop-color="white" stop-opacity="0.1"/>
</linearGradient>
<linearGradient id="paint31_linear_3621_8031" x1="5.625" y1="15.2691" x2="18.5917" y2="20.3455" gradientUnits="userSpaceOnUse">
<stop stop-color="#6169E5" stop-opacity="0.9"/>
<stop offset="1" stop-color="#6169E5" stop-opacity="0.4"/>
</linearGradient>
<linearGradient id="paint32_linear_3621_8031" x1="15.8036" y1="16.3247" x2="4.75157" y2="20.3052" gradientUnits="userSpaceOnUse">
<stop stop-color="#C6B0FF"/>
<stop offset="1" stop-color="white" stop-opacity="0.1"/>
</linearGradient>
<linearGradient id="paint33_linear_3621_8031" x1="8.90748" y1="19.3947" x2="22.4181" y2="34.0877" gradientUnits="userSpaceOnUse">
<stop stop-color="#6169E5" stop-opacity="0.9"/>
<stop offset="1" stop-color="#6169E5" stop-opacity="0.4"/>
</linearGradient>
<linearGradient id="paint34_linear_3621_8031" x1="28.9796" y1="20.144" x2="16.6745" y2="32.4548" gradientUnits="userSpaceOnUse">
<stop stop-color="#C6B0FF"/>
<stop offset="1" stop-color="white" stop-opacity="0.1"/>
</linearGradient>
<linearGradient id="paint35_linear_3621_8031" x1="10.625" y1="23.5919" x2="23.5915" y2="28.6686" gradientUnits="userSpaceOnUse">
<stop stop-color="#6169E5" stop-opacity="0.9"/>
<stop offset="1" stop-color="#6169E5" stop-opacity="0.4"/>
</linearGradient>
<linearGradient id="paint36_linear_3621_8031" x1="20.8036" y1="24.6475" x2="9.75174" y2="28.6281" gradientUnits="userSpaceOnUse">
<stop stop-color="#C6B0FF"/>
<stop offset="1" stop-color="white" stop-opacity="0.1"/>
</linearGradient>
<linearGradient id="paint37_linear_3621_8031" x1="18.125" y1="23.5919" x2="31.0915" y2="28.6686" gradientUnits="userSpaceOnUse">
<stop stop-color="#6169E5" stop-opacity="0.9"/>
<stop offset="1" stop-color="#6169E5" stop-opacity="0.4"/>
</linearGradient>
<linearGradient id="paint38_linear_3621_8031" x1="28.3036" y1="24.6475" x2="17.2517" y2="28.6281" gradientUnits="userSpaceOnUse">
<stop stop-color="#C6B0FF"/>
<stop offset="1" stop-color="white" stop-opacity="0.1"/>
</linearGradient>
<clipPath id="clip0_3621_8031">
<rect width="40" height="40" fill="white"/>
</clipPath>
</defs>
</svg>
