<svg width="48" height="48" viewBox="0 0 48 48" fill="none" xmlns="http://www.w3.org/2000/svg">
<path d="M35.8566 18.2615L32.9871 18.0528C32.814 17.3549 32.5379 16.6868 32.168 16.0702L34.0462 13.8967C34.1325 13.7969 34.1778 13.6681 34.173 13.5363C34.1681 13.4044 34.1135 13.2793 34.0201 13.1861L32.5447 11.7107C32.4515 11.6176 32.3266 11.5631 32.195 11.5583C32.0634 11.5535 31.9348 11.5986 31.8351 11.6846L29.6637 13.5659C29.0472 13.1949 28.3791 12.9175 27.6811 12.7426L27.4724 9.87208C27.4619 9.74107 27.4023 9.61885 27.3056 9.52986C27.2089 9.44087 27.0821 9.39167 26.9507 9.39209H24.8638C24.7317 9.39175 24.6044 9.44153 24.5075 9.53139C24.4107 9.62125 24.3516 9.7445 24.342 9.87626L24.1333 12.7468C23.4356 12.9203 22.7675 13.1964 22.1508 13.5659L19.9762 11.6877C19.8765 11.6017 19.7479 11.5566 19.6163 11.5614C19.4847 11.5663 19.3598 11.6207 19.2667 11.7138L17.7912 13.1892C17.6978 13.2824 17.6432 13.4075 17.6384 13.5394C17.6335 13.6712 17.6788 13.8 17.7651 13.8998L19.6465 16.0702C19.2751 16.6865 18.9976 17.3547 18.8232 18.0528L15.9537 18.2615C15.8225 18.2717 15.7 18.3312 15.6108 18.428C15.5216 18.5247 15.4723 18.6516 15.4727 18.7832V20.8701C15.4723 21.0024 15.5223 21.1298 15.6123 21.2267C15.7024 21.3236 15.8259 21.3826 15.9579 21.3918L18.8274 21.6005C19.0008 22.2983 19.2768 22.9664 19.6465 23.5831L17.7683 25.7577C17.6823 25.8574 17.6371 25.986 17.642 26.1176C17.6468 26.2492 17.7013 26.3741 17.7944 26.4672L19.2698 27.9427C19.3629 28.0358 19.4878 28.0902 19.6195 28.095C19.7511 28.0999 19.8796 28.0548 19.9793 27.9688L22.1508 26.0874C22.7672 26.4585 23.4354 26.736 24.1333 26.9107L24.342 29.7802C24.3523 29.9114 24.4118 30.0339 24.5085 30.1231C24.6053 30.2123 24.7322 30.2616 24.8638 30.2612H26.9507C27.083 30.2616 27.2104 30.2116 27.3073 30.1215C27.4041 30.0315 27.4632 29.908 27.4724 29.776L27.6811 26.9065C28.3789 26.7331 29.047 26.457 29.6637 26.0874L31.8382 27.9656C31.938 28.0516 32.0665 28.0967 32.1981 28.0919C32.3297 28.0871 32.4546 28.0326 32.5478 27.9395L34.0232 26.4641C34.1163 26.3709 34.1708 26.246 34.1756 26.1144C34.1804 25.9828 34.1353 25.8543 34.0493 25.7545L32.168 23.5831C32.5391 22.9667 32.8165 22.2985 32.9913 21.6005L35.8608 21.3918C35.992 21.3816 36.1144 21.3221 36.2036 21.2254C36.2928 21.1286 36.3422 21.0017 36.3418 20.8701V18.7832C36.3421 18.6509 36.2922 18.5235 36.2021 18.4266C36.112 18.3298 35.9885 18.2707 35.8566 18.2615ZM25.9072 22.957C25.2881 22.957 24.6829 22.7734 24.1681 22.4295C23.6533 22.0855 23.2521 21.5966 23.0151 21.0246C22.7782 20.4526 22.7162 19.8232 22.837 19.216C22.9578 18.6087 23.2559 18.0509 23.6937 17.6132C24.1315 17.1754 24.6893 16.8772 25.2965 16.7564C25.9038 16.6357 26.5332 16.6976 27.1052 16.9346C27.6772 17.1715 28.1661 17.5727 28.51 18.0875C28.854 18.6023 29.0376 19.2075 29.0376 19.8267C29.0376 20.6569 28.7078 21.4531 28.1207 22.0402C27.5337 22.6272 26.7375 22.957 25.9072 22.957Z" fill="url(#paint0_linear_2037_953)"/>
<g filter="url(#filter0_bi_2037_953)">
<path d="M25.144 0.0155889C14.4151 0.418363 6.08313 9.57783 6.08313 20.314V21.6705L2.48634 28.8609C2.36364 29.1061 2.29044 29.373 2.27092 29.6464C2.2514 29.9198 2.28594 30.1944 2.37257 30.4545C2.4592 30.7146 2.59622 30.955 2.7758 31.1621C2.95538 31.3693 3.174 31.539 3.41919 31.6616L6.08313 32.993V38.6089C6.08313 39.9926 6.63281 41.3196 7.61124 42.2981C8.58967 43.2765 9.91671 43.8262 11.3004 43.8262H18.6046V48H39.4738V34.2566C42.4206 31.4947 44.4526 27.8978 45.2973 23.9483C46.142 19.9988 45.7591 15.8855 44.1999 12.1597C42.6407 8.43401 39.9797 5.27401 36.5738 3.10342C33.1678 0.932834 29.1796 -0.144596 25.144 0.0155889Z" fill="#1D1D1D" fill-opacity="0.05"/>
<path d="M25.144 0.0155889C14.4151 0.418363 6.08313 9.57783 6.08313 20.314V21.6705L2.48634 28.8609C2.36364 29.1061 2.29044 29.373 2.27092 29.6464C2.2514 29.9198 2.28594 30.1944 2.37257 30.4545C2.4592 30.7146 2.59622 30.955 2.7758 31.1621C2.95538 31.3693 3.174 31.539 3.41919 31.6616L6.08313 32.993V38.6089C6.08313 39.9926 6.63281 41.3196 7.61124 42.2981C8.58967 43.2765 9.91671 43.8262 11.3004 43.8262H18.6046V48H39.4738V34.2566C42.4206 31.4947 44.4526 27.8978 45.2973 23.9483C46.142 19.9988 45.7591 15.8855 44.1999 12.1597C42.6407 8.43401 39.9797 5.27401 36.5738 3.10342C33.1678 0.932834 29.1796 -0.144596 25.144 0.0155889Z" fill="url(#paint1_linear_2037_953)" fill-opacity="0.2"/>
<path d="M25.1627 0.515238L25.1638 0.515195C29.0976 0.359055 32.9851 1.40928 36.305 3.52508C39.625 5.64087 42.2188 8.72109 43.7387 12.3528C45.2585 15.9844 45.6318 19.9939 44.8084 23.8437C43.9849 27.6935 42.0043 31.1996 39.1318 33.8918L38.9738 34.04V34.2566V47.5H19.1046V43.8262V43.3262H18.6046H11.3004C10.0493 43.3262 8.84946 42.8292 7.96479 41.9445C7.08013 41.0599 6.58313 39.86 6.58313 38.6089V32.993V32.6839L6.30667 32.5458L3.64281 31.2143C3.64278 31.2143 3.64275 31.2143 3.64272 31.2143C3.45632 31.1211 3.2901 30.9921 3.15357 30.8346C3.01701 30.6771 2.91282 30.4942 2.84695 30.2965C2.78108 30.0987 2.75481 29.8899 2.76965 29.682C2.7845 29.4741 2.84016 29.2711 2.93346 29.0847L2.93351 29.0846L6.53031 21.8941L6.58313 21.7885V21.6705V20.314C6.58313 9.83029 14.7186 0.907322 25.1627 0.515238Z" stroke="url(#paint2_linear_2037_953)" stroke-opacity="0.1"/>
</g>
<g filter="url(#filter1_i_2037_953)">
<path d="M35.8566 18.262L32.9871 18.0533C32.814 17.3554 32.5379 16.6872 32.168 16.0707L34.0462 13.8972C34.1325 13.7974 34.1778 13.6686 34.173 13.5368C34.1681 13.4049 34.1135 13.2798 34.0201 13.1866L32.5447 11.7111C32.4515 11.618 32.3266 11.5636 32.195 11.5588C32.0634 11.5539 31.9348 11.5991 31.8351 11.6851L29.6637 13.5664C29.0472 13.1954 28.3791 12.9179 27.6811 12.7431L27.4724 9.87257C27.4619 9.74156 27.4023 9.61934 27.3056 9.53035C27.2089 9.44136 27.0821 9.39216 26.9507 9.39258H24.8638C24.7317 9.39224 24.6044 9.44202 24.5075 9.53188C24.4107 9.62174 24.3516 9.74498 24.342 9.87674L24.1334 12.7473C23.4356 12.9208 22.7675 13.1968 22.1508 13.5664L19.9762 11.6882C19.8765 11.6022 19.7479 11.5571 19.6163 11.5619C19.4847 11.5667 19.3598 11.6212 19.2667 11.7143L17.7912 13.1897C17.6978 13.2829 17.6432 13.408 17.6384 13.5399C17.6335 13.6717 17.6788 13.8005 17.7651 13.9003L19.6465 16.0707C19.2751 16.687 18.9976 17.3552 18.8232 18.0533L15.9537 18.262C15.8225 18.2722 15.7 18.3317 15.6108 18.4284C15.5216 18.5252 15.4723 18.6521 15.4727 18.7837V20.8706C15.4723 21.0029 15.5223 21.1303 15.6123 21.2272C15.7024 21.324 15.8259 21.3831 15.9579 21.3923L18.8274 21.601C19.0008 22.2988 19.2768 22.9669 19.6465 23.5836L17.7683 25.7582C17.6823 25.8579 17.6372 25.9865 17.642 26.1181C17.6468 26.2497 17.7013 26.3746 17.7944 26.4677L19.2698 27.9432C19.3629 28.0363 19.4878 28.0907 19.6195 28.0955C19.7511 28.1004 19.8796 28.0553 19.9793 27.9692L22.1508 26.0879C22.7672 26.459 23.4354 26.7364 24.1334 26.9112L24.342 29.7807C24.3523 29.9119 24.4118 30.0344 24.5085 30.1236C24.6053 30.2128 24.7322 30.2621 24.8638 30.2617H26.9507C27.083 30.262 27.2104 30.2121 27.3073 30.122C27.4041 30.032 27.4632 29.9085 27.4724 29.7765L27.6811 26.907C28.3789 26.7336 29.047 26.4575 29.6637 26.0879L31.8382 27.9661C31.938 28.0521 32.0665 28.0972 32.1981 28.0924C32.3297 28.0876 32.4546 28.0331 32.5478 27.94L34.0232 26.4646C34.1163 26.3714 34.1708 26.2465 34.1756 26.1149C34.1804 25.9833 34.1353 25.8548 34.0493 25.755L32.168 23.5836C32.5391 22.9672 32.8165 22.299 32.9913 21.601L35.8608 21.3923C35.992 21.3821 36.1144 21.3226 36.2036 21.2259C36.2929 21.1291 36.3422 21.0022 36.3418 20.8706V18.7837C36.3421 18.6514 36.2922 18.524 36.2021 18.4271C36.112 18.3303 35.9885 18.2712 35.8566 18.262ZM25.9072 22.9575C25.2881 22.9575 24.6829 22.7739 24.1681 22.43C23.6533 22.086 23.2521 21.5971 23.0151 21.0251C22.7782 20.4531 22.7162 19.8237 22.837 19.2164C22.9578 18.6092 23.2559 18.0514 23.6937 17.6136C24.1315 17.1759 24.6893 16.8777 25.2965 16.7569C25.9038 16.6361 26.5332 16.6981 27.1052 16.9351C27.6772 17.172 28.1661 17.5732 28.51 18.088C28.854 18.6028 29.0376 19.208 29.0376 19.8272C29.0376 20.6574 28.7078 21.4536 28.1207 22.0407C27.5337 22.6277 26.7375 22.9575 25.9072 22.9575Z" fill="white" fill-opacity="0.1"/>
</g>
<defs>
<filter id="filter0_bi_2037_953" x="-9.73438" y="-12" width="67.4697" height="72" filterUnits="userSpaceOnUse" color-interpolation-filters="sRGB">
<feFlood flood-opacity="0" result="BackgroundImageFix"/>
<feGaussianBlur in="BackgroundImageFix" stdDeviation="6"/>
<feComposite in2="SourceAlpha" operator="in" result="effect1_backgroundBlur_2037_953"/>
<feBlend mode="normal" in="SourceGraphic" in2="effect1_backgroundBlur_2037_953" result="shape"/>
<feColorMatrix in="SourceAlpha" type="matrix" values="0 0 0 0 0 0 0 0 0 0 0 0 0 0 0 0 0 0 127 0" result="hardAlpha"/>
<feOffset dy="2"/>
<feGaussianBlur stdDeviation="4"/>
<feComposite in2="hardAlpha" operator="arithmetic" k2="-1" k3="1"/>
<feColorMatrix type="matrix" values="0 0 0 0 1 0 0 0 0 1 0 0 0 0 1 0 0 0 0.15 0"/>
<feBlend mode="normal" in2="shape" result="effect2_innerShadow_2037_953"/>
</filter>
<filter id="filter1_i_2037_953" x="15.4727" y="9.39258" width="20.8691" height="22.8691" filterUnits="userSpaceOnUse" color-interpolation-filters="sRGB">
<feFlood flood-opacity="0" result="BackgroundImageFix"/>
<feBlend mode="normal" in="SourceGraphic" in2="BackgroundImageFix" result="shape"/>
<feColorMatrix in="SourceAlpha" type="matrix" values="0 0 0 0 0 0 0 0 0 0 0 0 0 0 0 0 0 0 127 0" result="hardAlpha"/>
<feOffset dy="2"/>
<feGaussianBlur stdDeviation="1"/>
<feComposite in2="hardAlpha" operator="arithmetic" k2="-1" k3="1"/>
<feColorMatrix type="matrix" values="0 0 0 0 1 0 0 0 0 1 0 0 0 0 1 0 0 0 0.1 0"/>
<feBlend mode="normal" in2="shape" result="effect1_innerShadow_2037_953"/>
</filter>
<linearGradient id="paint0_linear_2037_953" x1="15.4727" y1="9.39209" x2="40.0559" y2="15.6342" gradientUnits="userSpaceOnUse">
<stop stop-color="#75A5FF"/>
<stop offset="0.703125" stop-color="#2339FF"/>
</linearGradient>
<linearGradient id="paint1_linear_2037_953" x1="2.26563" y1="0" x2="54.0356" y2="11.9047" gradientUnits="userSpaceOnUse">
<stop stop-color="#87AFFF"/>
<stop offset="0.776042" stop-color="#5C6DFF"/>
</linearGradient>
<linearGradient id="paint2_linear_2037_953" x1="3.62405" y1="2.18182" x2="45.7354" y2="2.18182" gradientUnits="userSpaceOnUse">
<stop stop-color="#3C72DE"/>
<stop offset="0.65625" stop-color="#364AFF"/>
</linearGradient>
</defs>
</svg>
