<svg width="27" height="21" viewBox="0 0 27 21" fill="none" xmlns="http://www.w3.org/2000/svg">
<path d="M26.5 7.26923C26.5 9.32518 26.0099 11.2343 25.0298 12.9965C23.998 14.8077 22.6825 16.3986 21.0833 17.7692C19.4841 19.1399 17.8075 20.2168 16.0536 21L14.119 18.7238C15.4603 17.6469 16.6468 16.4476 17.6786 15.1259C18.6587 13.8042 19.1488 12.5315 19.1488 11.3077C19.1488 10.5245 18.9683 10.0105 18.6071 9.76574C18.1944 9.56993 17.7302 9.3007 17.2143 8.95805C16.6468 8.56644 16.131 8.02797 15.6667 7.34266C15.2024 6.65734 14.9702 5.82518 14.9702 4.84616C14.9702 3.37762 15.4603 2.2028 16.4405 1.32168C17.4206 0.440561 18.6845 0 20.2321 0C22.0893 0 23.6111 0.636364 24.7976 1.90909C25.9325 3.23077 26.5 5.01748 26.5 7.26923ZM12.881 7.26923C12.881 9.32518 12.3909 11.2343 11.4107 12.9965C10.379 14.8077 9.06349 16.3986 7.46428 17.7692C5.86508 19.1399 4.18849 20.2168 2.43452 21L0.5 18.7238C1.84127 17.6469 3.02778 16.4476 4.05952 15.1259C5.03968 13.8042 5.52976 12.5315 5.52976 11.3077C5.52976 10.5245 5.34921 10.0105 4.9881 9.76574C4.5754 9.56993 4.11111 9.3007 3.59524 8.95805C3.02778 8.56644 2.5119 8.02797 2.04762 7.34266C1.58333 6.65734 1.35119 5.82518 1.35119 4.84616C1.35119 3.37762 1.84127 2.2028 2.82143 1.32168C3.80159 0.440561 5.06548 0 6.6131 0C8.47024 0 9.99206 0.636364 11.1786 1.90909C12.3135 3.23077 12.881 5.01748 12.881 7.26923Z" fill="white"/>
</svg>
