<svg width="48" height="48" viewBox="0 0 48 48" fill="none" xmlns="http://www.w3.org/2000/svg">
<path d="M24 6.68604C12.1035 6.68604 2.45508 8.95828 2.45508 11.7618V36.2946C2.45508 36.5189 2.55377 36.7341 2.72944 36.8927C2.90511 37.0514 3.14338 37.1405 3.39181 37.1405C3.64025 37.1405 3.87851 37.0514 4.05419 36.8927C4.22986 36.7341 4.32855 36.5189 4.32855 36.2946C4.32855 34.5697 11.992 32.0648 24 32.0648C36.008 32.0648 43.6715 34.5697 43.6715 36.2946C43.6715 36.5189 43.7701 36.7341 43.9458 36.8927C44.1215 37.0514 44.3597 37.1405 44.6082 37.1405C44.8566 37.1405 45.0949 37.0514 45.2706 36.8927C45.4462 36.7341 45.5449 36.5189 45.5449 36.2946V11.7618C45.5449 8.95828 35.8965 6.68604 24 6.68604Z" fill="url(#paint0_linear_2051_1258)"/>
<g filter="url(#filter0_bi_2051_1258)">
<path d="M24 3.13037C10.7478 3.13037 0 5.93315 0 9.39124V39.6521C0 39.9289 0.109938 40.1943 0.305628 40.39C0.501318 40.5857 0.766731 40.6956 1.04348 40.6956C1.32023 40.6956 1.58564 40.5857 1.78133 40.39C1.97702 40.1943 2.08696 39.9289 2.08696 39.6521C2.08696 37.5245 10.6237 34.4347 24 34.4347C37.3763 34.4347 45.913 37.5245 45.913 39.6521C45.913 39.9289 46.023 40.1943 46.2187 40.39C46.4144 40.5857 46.6798 40.6956 46.9565 40.6956C47.2333 40.6956 47.4987 40.5857 47.6944 40.39C47.8901 40.1943 48 39.9289 48 39.6521V9.39124C48 5.93315 37.2522 3.13037 24 3.13037Z" fill="#1D1D1D" fill-opacity="0.05"/>
<path d="M24 3.13037C10.7478 3.13037 0 5.93315 0 9.39124V39.6521C0 39.9289 0.109938 40.1943 0.305628 40.39C0.501318 40.5857 0.766731 40.6956 1.04348 40.6956C1.32023 40.6956 1.58564 40.5857 1.78133 40.39C1.97702 40.1943 2.08696 39.9289 2.08696 39.6521C2.08696 37.5245 10.6237 34.4347 24 34.4347C37.3763 34.4347 45.913 37.5245 45.913 39.6521C45.913 39.9289 46.023 40.1943 46.2187 40.39C46.4144 40.5857 46.6798 40.6956 46.9565 40.6956C47.2333 40.6956 47.4987 40.5857 47.6944 40.39C47.8901 40.1943 48 39.9289 48 39.6521V9.39124C48 5.93315 37.2522 3.13037 24 3.13037Z" fill="url(#paint1_linear_2051_1258)" fill-opacity="0.2"/>
<path d="M0.15 9.39124C0.15 8.60938 0.760202 7.82483 1.96515 7.08177C3.16176 6.34386 4.90322 5.67391 7.06829 5.10917C11.3962 3.98027 17.3829 3.28037 24 3.28037C30.6171 3.28037 36.6038 3.98027 40.9317 5.10917C43.0968 5.67391 44.8382 6.34386 46.0349 7.08177C47.2398 7.82483 47.85 8.60938 47.85 9.39124V39.6521C47.85 39.8891 47.7559 40.1163 47.5883 40.2839C47.4207 40.4515 47.1935 40.5456 46.9565 40.5456C46.7196 40.5456 46.4923 40.4515 46.3247 40.2839C46.1572 40.1163 46.063 39.8891 46.063 39.6521C46.063 39.3348 45.9043 39.0194 45.6316 38.7167C45.3579 38.4129 44.958 38.1086 44.4458 37.8097C43.4208 37.2118 41.922 36.6219 40.0121 36.1008C36.1906 35.0583 30.6987 34.2847 24 34.2847C17.3013 34.2847 11.8094 35.0583 7.98787 36.1008C6.07804 36.6219 4.57917 37.2118 3.55423 37.8097C3.04204 38.1086 2.6421 38.4129 2.36845 38.7167C2.0957 39.0194 1.93696 39.3348 1.93696 39.6521C1.93696 39.8891 1.84282 40.1163 1.67526 40.2839C1.5077 40.4515 1.28044 40.5456 1.04348 40.5456C0.806512 40.5456 0.579253 40.4515 0.411694 40.2839C0.244134 40.1163 0.15 39.8891 0.15 39.6521V9.39124Z" stroke="url(#paint2_linear_2051_1258)" stroke-opacity="0.1" stroke-width="0.3"/>
</g>
<g filter="url(#filter1_i_2051_1258)">
<path d="M35.3029 19.2472C35.1192 18.9738 30.7418 12.522 23.9999 12.522C17.258 12.522 12.8806 18.9738 12.6969 19.2472C12.5825 19.4187 12.5215 19.6202 12.5215 19.8263C12.5215 20.0325 12.5825 20.234 12.6969 20.4055C12.8806 20.6788 17.258 27.1307 23.9999 27.1307C30.7418 27.1307 35.1192 20.6788 35.3029 20.4055C35.4173 20.234 35.4783 20.0325 35.4783 19.8263C35.4783 19.6202 35.4173 19.4187 35.3029 19.2472Z" fill="white" fill-opacity="0.1"/>
</g>
<path d="M23.9996 22.9567C25.7285 22.9567 27.13 21.5551 27.13 19.8262C27.13 18.0973 25.7285 16.6958 23.9996 16.6958C22.2707 16.6958 20.8691 18.0973 20.8691 19.8262C20.8691 21.5551 22.2707 22.9567 23.9996 22.9567Z" fill="url(#paint3_linear_2051_1258)"/>
<g filter="url(#filter2_bi_2051_1258)">
<path d="M24.0006 25.0437C26.8821 25.0437 29.218 22.7078 29.218 19.8263C29.218 16.9448 26.8821 14.6089 24.0006 14.6089C21.1191 14.6089 18.7832 16.9448 18.7832 19.8263C18.7832 22.7078 21.1191 25.0437 24.0006 25.0437Z" fill="#1D1D1D" fill-opacity="0.05"/>
<path d="M24.0006 25.0437C26.8821 25.0437 29.218 22.7078 29.218 19.8263C29.218 16.9448 26.8821 14.6089 24.0006 14.6089C21.1191 14.6089 18.7832 16.9448 18.7832 19.8263C18.7832 22.7078 21.1191 25.0437 24.0006 25.0437Z" fill="url(#paint4_linear_2051_1258)" fill-opacity="0.2"/>
</g>
<g filter="url(#filter3_i_2051_1258)">
<path d="M23.9996 22.9567C25.7285 22.9567 27.13 21.5551 27.13 19.8262C27.13 18.0973 25.7285 16.6958 23.9996 16.6958C22.2707 16.6958 20.8691 18.0973 20.8691 19.8262C20.8691 21.5551 22.2707 22.9567 23.9996 22.9567Z" fill="url(#paint5_linear_2051_1258)"/>
</g>
<g filter="url(#filter4_bi_2051_1258)">
<path d="M7.55374 13.9514L7.4567 13.9253C2.86643 12.7847 0 11.1757 0 9.39136V39.5322C0 41.7016 2.36035 43.4839 7.0153 44.8289C7.17071 44.8737 7.3344 44.8818 7.49345 44.8525C7.6525 44.8232 7.80256 44.7573 7.93179 44.66C8.06102 44.5628 8.16587 44.4368 8.23807 44.2921C8.31027 44.1474 8.34785 43.9879 8.34783 43.8261V14.9646C8.34782 14.7312 8.26959 14.5046 8.12565 14.3209C7.9817 14.1372 7.78034 14.0071 7.55374 13.9514Z" fill="#1D1D1D" fill-opacity="0.05"/>
<path d="M7.55374 13.9514L7.4567 13.9253C2.86643 12.7847 0 11.1757 0 9.39136V39.5322C0 41.7016 2.36035 43.4839 7.0153 44.8289C7.17071 44.8737 7.3344 44.8818 7.49345 44.8525C7.6525 44.8232 7.80256 44.7573 7.93179 44.66C8.06102 44.5628 8.16587 44.4368 8.23807 44.2921C8.31027 44.1474 8.34785 43.9879 8.34783 43.8261V14.9646C8.34782 14.7312 8.26959 14.5046 8.12565 14.3209C7.9817 14.1372 7.78034 14.0071 7.55374 13.9514Z" fill="url(#paint6_linear_2051_1258)" fill-opacity="0.2"/>
<path d="M7.5148 14.0962L7.51479 14.0962L7.51789 14.097C7.71191 14.1448 7.88433 14.2562 8.00758 14.4134C8.13084 14.5707 8.19782 14.7648 8.19783 14.9646V43.8261C8.19784 43.9646 8.16567 44.1012 8.10385 44.2251C8.04203 44.3491 7.95225 44.4569 7.8416 44.5402C7.73094 44.6235 7.60245 44.6799 7.46627 44.705C7.33008 44.7301 7.18992 44.7231 7.05685 44.6848C4.73717 44.0145 3.00334 43.239 1.85243 42.37C0.703535 41.5025 0.15 40.5543 0.15 39.5322V10.4251C0.490027 11.0016 1.10599 11.5381 1.93029 12.0287C3.2384 12.8071 5.11805 13.4987 7.41913 14.0705L7.5148 14.0962Z" stroke="url(#paint7_linear_2051_1258)" stroke-opacity="0.1" stroke-width="0.3"/>
</g>
<g filter="url(#filter5_bi_2051_1258)">
<path d="M40.4464 13.9514L40.5435 13.9253C45.1337 12.7847 48.0002 11.1757 48.0002 9.39136V39.5322C48.0002 41.7016 45.6398 43.4839 40.9849 44.8289C40.8295 44.8737 40.6658 44.8818 40.5067 44.8525C40.3477 44.8232 40.1976 44.7573 40.0684 44.66C39.9392 44.5628 39.8343 44.4368 39.7621 44.2921C39.6899 44.1474 39.6523 43.9879 39.6523 43.8261V14.9646C39.6523 14.7312 39.7306 14.5046 39.8745 14.3209C40.0185 14.1372 40.2198 14.0071 40.4464 13.9514Z" fill="#1D1D1D" fill-opacity="0.05"/>
<path d="M40.4464 13.9514L40.5435 13.9253C45.1337 12.7847 48.0002 11.1757 48.0002 9.39136V39.5322C48.0002 41.7016 45.6398 43.4839 40.9849 44.8289C40.8295 44.8737 40.6658 44.8818 40.5067 44.8525C40.3477 44.8232 40.1976 44.7573 40.0684 44.66C39.9392 44.5628 39.8343 44.4368 39.7621 44.2921C39.6899 44.1474 39.6523 43.9879 39.6523 43.8261V14.9646C39.6523 14.7312 39.7306 14.5046 39.8745 14.3209C40.0185 14.1372 40.2198 14.0071 40.4464 13.9514Z" fill="url(#paint8_linear_2051_1258)" fill-opacity="0.2"/>
<path d="M40.4823 14.097L40.4823 14.097L40.4854 14.0962L40.581 14.0705C42.8821 13.4987 44.7618 12.8071 46.0699 12.0287C46.8942 11.5381 47.5101 11.0016 47.8502 10.4251V39.5322C47.8502 40.5543 47.2966 41.5025 46.1477 42.37C44.9968 43.239 43.263 44.0145 40.9433 44.6848C40.8103 44.7231 40.6701 44.7301 40.5339 44.705C40.3977 44.6799 40.2692 44.6235 40.1586 44.5402C40.0479 44.4569 39.9581 44.3491 39.8963 44.2251C39.8345 44.1012 39.8023 43.9646 39.8023 43.8262V14.9646C39.8023 14.7648 39.8693 14.5707 39.9926 14.4134C40.1158 14.2562 40.2883 14.1448 40.4823 14.097Z" stroke="url(#paint9_linear_2051_1258)" stroke-opacity="0.1" stroke-width="0.3"/>
</g>
<g filter="url(#filter6_i_2051_1258)">
<path d="M21.9126 18.7828C22.4889 18.7828 22.9561 18.3156 22.9561 17.7393C22.9561 17.163 22.4889 16.6958 21.9126 16.6958C21.3363 16.6958 20.8691 17.163 20.8691 17.7393C20.8691 18.3156 21.3363 18.7828 21.9126 18.7828Z" fill="white" fill-opacity="0.1"/>
</g>
<defs>
<filter id="filter0_bi_2051_1258" x="-6" y="-2.86963" width="60" height="49.5652" filterUnits="userSpaceOnUse" color-interpolation-filters="sRGB">
<feFlood flood-opacity="0" result="BackgroundImageFix"/>
<feGaussianBlur in="BackgroundImageFix" stdDeviation="3"/>
<feComposite in2="SourceAlpha" operator="in" result="effect1_backgroundBlur_2051_1258"/>
<feBlend mode="normal" in="SourceGraphic" in2="effect1_backgroundBlur_2051_1258" result="shape"/>
<feColorMatrix in="SourceAlpha" type="matrix" values="0 0 0 0 0 0 0 0 0 0 0 0 0 0 0 0 0 0 127 0" result="hardAlpha"/>
<feOffset dy="1"/>
<feGaussianBlur stdDeviation="1.5"/>
<feComposite in2="hardAlpha" operator="arithmetic" k2="-1" k3="1"/>
<feColorMatrix type="matrix" values="0 0 0 0 1 0 0 0 0 1 0 0 0 0 1 0 0 0 0.15 0"/>
<feBlend mode="normal" in2="shape" result="effect2_innerShadow_2051_1258"/>
</filter>
<filter id="filter1_i_2051_1258" x="12.5215" y="12.522" width="22.957" height="16.6086" filterUnits="userSpaceOnUse" color-interpolation-filters="sRGB">
<feFlood flood-opacity="0" result="BackgroundImageFix"/>
<feBlend mode="normal" in="SourceGraphic" in2="BackgroundImageFix" result="shape"/>
<feColorMatrix in="SourceAlpha" type="matrix" values="0 0 0 0 0 0 0 0 0 0 0 0 0 0 0 0 0 0 127 0" result="hardAlpha"/>
<feOffset dy="2"/>
<feGaussianBlur stdDeviation="1"/>
<feComposite in2="hardAlpha" operator="arithmetic" k2="-1" k3="1"/>
<feColorMatrix type="matrix" values="0 0 0 0 1 0 0 0 0 1 0 0 0 0 1 0 0 0 0.1 0"/>
<feBlend mode="normal" in2="shape" result="effect1_innerShadow_2051_1258"/>
</filter>
<filter id="filter2_bi_2051_1258" x="12.7832" y="8.60889" width="22.4346" height="22.4348" filterUnits="userSpaceOnUse" color-interpolation-filters="sRGB">
<feFlood flood-opacity="0" result="BackgroundImageFix"/>
<feGaussianBlur in="BackgroundImageFix" stdDeviation="3"/>
<feComposite in2="SourceAlpha" operator="in" result="effect1_backgroundBlur_2051_1258"/>
<feBlend mode="normal" in="SourceGraphic" in2="effect1_backgroundBlur_2051_1258" result="shape"/>
<feColorMatrix in="SourceAlpha" type="matrix" values="0 0 0 0 0 0 0 0 0 0 0 0 0 0 0 0 0 0 127 0" result="hardAlpha"/>
<feOffset dy="1"/>
<feGaussianBlur stdDeviation="1.5"/>
<feComposite in2="hardAlpha" operator="arithmetic" k2="-1" k3="1"/>
<feColorMatrix type="matrix" values="0 0 0 0 1 0 0 0 0 1 0 0 0 0 1 0 0 0 0.4 0"/>
<feBlend mode="normal" in2="shape" result="effect2_innerShadow_2051_1258"/>
</filter>
<filter id="filter3_i_2051_1258" x="20.8691" y="16.6958" width="6.26074" height="8.26099" filterUnits="userSpaceOnUse" color-interpolation-filters="sRGB">
<feFlood flood-opacity="0" result="BackgroundImageFix"/>
<feBlend mode="normal" in="SourceGraphic" in2="BackgroundImageFix" result="shape"/>
<feColorMatrix in="SourceAlpha" type="matrix" values="0 0 0 0 0 0 0 0 0 0 0 0 0 0 0 0 0 0 127 0" result="hardAlpha"/>
<feOffset dy="2"/>
<feGaussianBlur stdDeviation="1"/>
<feComposite in2="hardAlpha" operator="arithmetic" k2="-1" k3="1"/>
<feColorMatrix type="matrix" values="0 0 0 0 1 0 0 0 0 1 0 0 0 0 1 0 0 0 0.4 0"/>
<feBlend mode="normal" in2="shape" result="effect1_innerShadow_2051_1258"/>
</filter>
<filter id="filter4_bi_2051_1258" x="-6" y="3.39136" width="20.3477" height="47.4783" filterUnits="userSpaceOnUse" color-interpolation-filters="sRGB">
<feFlood flood-opacity="0" result="BackgroundImageFix"/>
<feGaussianBlur in="BackgroundImageFix" stdDeviation="3"/>
<feComposite in2="SourceAlpha" operator="in" result="effect1_backgroundBlur_2051_1258"/>
<feBlend mode="normal" in="SourceGraphic" in2="effect1_backgroundBlur_2051_1258" result="shape"/>
<feColorMatrix in="SourceAlpha" type="matrix" values="0 0 0 0 0 0 0 0 0 0 0 0 0 0 0 0 0 0 127 0" result="hardAlpha"/>
<feOffset dy="1"/>
<feGaussianBlur stdDeviation="1.5"/>
<feComposite in2="hardAlpha" operator="arithmetic" k2="-1" k3="1"/>
<feColorMatrix type="matrix" values="0 0 0 0 1 0 0 0 0 1 0 0 0 0 1 0 0 0 0.15 0"/>
<feBlend mode="normal" in2="shape" result="effect2_innerShadow_2051_1258"/>
</filter>
<filter id="filter5_bi_2051_1258" x="33.6523" y="3.39136" width="20.3477" height="47.4783" filterUnits="userSpaceOnUse" color-interpolation-filters="sRGB">
<feFlood flood-opacity="0" result="BackgroundImageFix"/>
<feGaussianBlur in="BackgroundImageFix" stdDeviation="3"/>
<feComposite in2="SourceAlpha" operator="in" result="effect1_backgroundBlur_2051_1258"/>
<feBlend mode="normal" in="SourceGraphic" in2="effect1_backgroundBlur_2051_1258" result="shape"/>
<feColorMatrix in="SourceAlpha" type="matrix" values="0 0 0 0 0 0 0 0 0 0 0 0 0 0 0 0 0 0 127 0" result="hardAlpha"/>
<feOffset dy="1"/>
<feGaussianBlur stdDeviation="1.5"/>
<feComposite in2="hardAlpha" operator="arithmetic" k2="-1" k3="1"/>
<feColorMatrix type="matrix" values="0 0 0 0 1 0 0 0 0 1 0 0 0 0 1 0 0 0 0.15 0"/>
<feBlend mode="normal" in2="shape" result="effect2_innerShadow_2051_1258"/>
</filter>
<filter id="filter6_i_2051_1258" x="20.8691" y="16.6958" width="2.08691" height="4.08691" filterUnits="userSpaceOnUse" color-interpolation-filters="sRGB">
<feFlood flood-opacity="0" result="BackgroundImageFix"/>
<feBlend mode="normal" in="SourceGraphic" in2="BackgroundImageFix" result="shape"/>
<feColorMatrix in="SourceAlpha" type="matrix" values="0 0 0 0 0 0 0 0 0 0 0 0 0 0 0 0 0 0 127 0" result="hardAlpha"/>
<feOffset dy="2"/>
<feGaussianBlur stdDeviation="1"/>
<feComposite in2="hardAlpha" operator="arithmetic" k2="-1" k3="1"/>
<feColorMatrix type="matrix" values="0 0 0 0 1 0 0 0 0 1 0 0 0 0 1 0 0 0 0.1 0"/>
<feBlend mode="normal" in2="shape" result="effect1_innerShadow_2051_1258"/>
</filter>
<linearGradient id="paint0_linear_2051_1258" x1="2.45508" y1="6.68604" x2="50.3095" y2="23.8786" gradientUnits="userSpaceOnUse">
<stop stop-color="#75A5FF"/>
<stop offset="0.703125" stop-color="#2339FF"/>
</linearGradient>
<linearGradient id="paint1_linear_2051_1258" x1="0" y1="3.13037" x2="54.4556" y2="20.7986" gradientUnits="userSpaceOnUse">
<stop stop-color="#87AFFF"/>
<stop offset="0.776042" stop-color="#5C6DFF"/>
</linearGradient>
<linearGradient id="paint2_linear_2051_1258" x1="1.5" y1="4.83788" x2="48" y2="4.83788" gradientUnits="userSpaceOnUse">
<stop stop-color="#3CDEB6"/>
<stop offset="0.65625" stop-color="#364AFF"/>
</linearGradient>
<linearGradient id="paint3_linear_2051_1258" x1="20.8691" y1="16.6958" x2="28.2443" y2="18.5685" gradientUnits="userSpaceOnUse">
<stop stop-color="#75A5FF"/>
<stop offset="0.703125" stop-color="#2339FF"/>
</linearGradient>
<linearGradient id="paint4_linear_2051_1258" x1="18.7832" y1="14.6089" x2="31.0751" y2="17.73" gradientUnits="userSpaceOnUse">
<stop stop-color="#87AFFF"/>
<stop offset="0.776042" stop-color="#5C6DFF"/>
</linearGradient>
<linearGradient id="paint5_linear_2051_1258" x1="20.8691" y1="16.6958" x2="28.2443" y2="18.5685" gradientUnits="userSpaceOnUse">
<stop stop-color="#75A5FF"/>
<stop offset="0.703125" stop-color="#2339FF"/>
</linearGradient>
<linearGradient id="paint6_linear_2051_1258" x1="0" y1="9.39136" x2="10.4303" y2="10.0145" gradientUnits="userSpaceOnUse">
<stop stop-color="#87AFFF"/>
<stop offset="0.776042" stop-color="#5C6DFF"/>
</linearGradient>
<linearGradient id="paint7_linear_2051_1258" x1="0.26087" y1="11.004" x2="8.34783" y2="11.004" gradientUnits="userSpaceOnUse">
<stop stop-color="#3CDEB6"/>
<stop offset="0.65625" stop-color="#364AFF"/>
</linearGradient>
<linearGradient id="paint8_linear_2051_1258" x1="39.6523" y1="9.39136" x2="50.0826" y2="10.0145" gradientUnits="userSpaceOnUse">
<stop stop-color="#87AFFF"/>
<stop offset="0.776042" stop-color="#5C6DFF"/>
</linearGradient>
<linearGradient id="paint9_linear_2051_1258" x1="39.9132" y1="11.004" x2="48.0002" y2="11.004" gradientUnits="userSpaceOnUse">
<stop stop-color="#3CDEB6"/>
<stop offset="0.65625" stop-color="#364AFF"/>
</linearGradient>
</defs>
</svg>
