<svg width="48" height="48" viewBox="0 0 48 48" fill="none" xmlns="http://www.w3.org/2000/svg">
<g clip-path="url(#clip0_2049_591)">
<path d="M37.0427 37.5657C36.766 37.5656 36.5006 37.4557 36.305 37.2599L19.6093 20.5643C19.4192 20.3675 19.3141 20.1039 19.3164 19.8303C19.3188 19.5567 19.4286 19.295 19.622 19.1015C19.8155 18.9081 20.0772 18.7983 20.3508 18.7959C20.6244 18.7936 20.888 18.8987 21.0848 19.0888L37.7805 35.7845C37.9263 35.9304 38.0257 36.1163 38.0659 36.3187C38.1062 36.5211 38.0855 36.7309 38.0066 36.9215C37.9276 37.1121 37.7939 37.2751 37.6223 37.3898C37.4508 37.5044 37.2491 37.5656 37.0427 37.5657Z" fill="url(#paint0_linear_2049_591)"/>
<path d="M26.6085 48C28.9137 48 30.7824 46.1313 30.7824 43.8261C30.7824 41.5209 28.9137 39.6522 26.6085 39.6522C24.3033 39.6522 22.4346 41.5209 22.4346 43.8261C22.4346 46.1313 24.3033 48 26.6085 48Z" fill="url(#paint1_linear_2049_591)"/>
<path d="M43.3043 48C45.6095 48 47.4782 46.1313 47.4782 43.8261C47.4782 41.5209 45.6095 39.6522 43.3043 39.6522C40.9991 39.6522 39.1304 41.5209 39.1304 43.8261C39.1304 46.1313 40.9991 48 43.3043 48Z" fill="url(#paint2_linear_2049_591)"/>
<path d="M41.2174 16.6956C43.5226 16.6956 45.3913 14.8269 45.3913 12.5217C45.3913 10.2165 43.5226 8.34778 41.2174 8.34778C38.9122 8.34778 37.0435 10.2165 37.0435 12.5217C37.0435 14.8269 38.9122 16.6956 41.2174 16.6956Z" fill="url(#paint3_linear_2049_591)"/>
<g filter="url(#filter0_i_2049_591)">
<path d="M34.9563 19.8266H25.565C25.2882 19.8266 25.0228 19.7166 24.8271 19.5209C24.6314 19.3252 24.5215 19.0598 24.5215 18.7831C24.5215 18.5063 24.6314 18.2409 24.8271 18.0452C25.0228 17.8495 25.2882 17.7396 25.565 17.7396H34.5243L39.4359 12.828C39.6327 12.6379 39.8963 12.5327 40.1699 12.5351C40.4435 12.5375 40.7052 12.6472 40.8987 12.8407C41.0922 13.0341 41.2019 13.2958 41.2043 13.5694C41.2067 13.843 41.1015 14.1066 40.9114 14.3034L35.694 19.5208C35.4984 19.7165 35.233 19.8265 34.9563 19.8266Z" fill="white" fill-opacity="0.1"/>
</g>
<path d="M34.5243 17.8896H34.5864L34.6303 17.8457L39.541 12.935C39.7094 12.7728 39.9347 12.683 40.1686 12.6851C40.4029 12.6871 40.627 12.7811 40.7926 12.9467C40.9583 13.1124 41.0522 13.3365 41.0543 13.5707C41.0563 13.8046 40.9666 14.0299 40.8044 14.1983C40.8041 14.1986 40.8038 14.1989 40.8035 14.1992L35.5879 19.4148L35.5879 19.4148C35.4204 19.5823 35.1932 19.6765 34.9563 19.6766C34.9563 19.6766 34.9562 19.6766 34.9562 19.6766H25.565C25.328 19.6766 25.1007 19.5824 24.9332 19.4149C24.7656 19.2473 24.6715 19.02 24.6715 18.7831C24.6715 18.5461 24.7656 18.3189 24.9332 18.1513C25.1007 17.9837 25.328 17.8896 25.565 17.8896H34.5243Z" stroke="url(#paint4_linear_2049_591)" stroke-opacity="0.1" stroke-width="0.3"/>
<g filter="url(#filter1_i_2049_591)">
<path d="M43.3039 41.7391C43.0272 41.7391 42.7618 41.6292 42.5661 41.4335C42.3704 41.2378 42.2604 40.9724 42.2604 40.6957V36.9538L36.6111 31.3044H33.9126C33.6359 31.3044 33.3705 31.1944 33.1748 30.9987C32.9791 30.803 32.8691 30.5376 32.8691 30.2609C32.8691 29.9841 32.9791 29.7187 33.1748 29.523C33.3705 29.3273 33.6359 29.2174 33.9126 29.2174H37.0431C37.3198 29.2175 37.5851 29.3274 37.7808 29.5231L44.0417 35.784C44.2374 35.9797 44.3473 36.245 44.3474 36.5218V40.6957C44.3474 40.9724 44.2375 41.2378 44.0418 41.4335C43.8461 41.6292 43.5807 41.7391 43.3039 41.7391Z" fill="white" fill-opacity="0.1"/>
</g>
<path d="M42.4104 36.9538V36.8916L42.3665 36.8477L36.7171 31.1983L36.6732 31.1544H36.6111H33.9126C33.6757 31.1544 33.4484 31.0602 33.2808 30.8927C33.1133 30.7251 33.0191 30.4979 33.0191 30.2609C33.0191 30.0239 33.1133 29.7967 33.2808 29.6291C33.4484 29.4615 33.6757 29.3674 33.9126 29.3674H37.043C37.043 29.3674 37.043 29.3674 37.0431 29.3674C37.28 29.3675 37.5072 29.4616 37.6747 29.6292L37.6747 29.6292L43.9356 35.8901L43.9356 35.8901C44.1032 36.0576 44.1973 36.2848 44.1974 36.5218C44.1974 36.5218 44.1974 36.5218 44.1974 36.5218V40.6957C44.1974 40.9326 44.1033 41.1599 43.9357 41.3275C43.7681 41.495 43.5409 41.5891 43.3039 41.5891C43.067 41.5891 42.8397 41.495 42.6721 41.3275C42.5046 41.1599 42.4104 40.9326 42.4104 40.6957V36.9538Z" stroke="url(#paint5_linear_2049_591)" stroke-opacity="0.1" stroke-width="0.3"/>
<g filter="url(#filter2_i_2049_591)">
<path d="M24.3953 42.6563C24.1186 42.6563 23.8533 42.5463 23.6576 42.3506L18.5665 37.2595C18.3708 37.0638 18.2608 36.7985 18.2607 36.5217V25.0435C18.2607 24.7667 18.3707 24.5013 18.5664 24.3056C18.7621 24.1099 19.0275 24 19.3042 24C19.581 24 19.8464 24.1099 20.0421 24.3056C20.2378 24.5013 20.3477 24.7667 20.3477 25.0435V36.0897L25.1331 40.8751C25.279 41.0211 25.3783 41.207 25.4186 41.4094C25.4588 41.6117 25.4381 41.8215 25.3592 42.0122C25.2802 42.2028 25.1465 42.3658 24.975 42.4804C24.8034 42.5951 24.6017 42.6563 24.3953 42.6563Z" fill="white" fill-opacity="0.1"/>
</g>
<path d="M23.7637 42.2445L23.7637 42.2446C23.9312 42.4121 24.1584 42.5063 24.3953 42.5063L23.7637 42.2445ZM23.7637 42.2445L18.6725 37.1534L18.6725 37.1534M23.7637 42.2445L18.6725 37.1534M18.6725 37.1534C18.505 36.9859 18.4108 36.7587 18.4107 36.5217C18.4107 36.5217 18.4107 36.5217 18.4107 36.5217V25.0435C18.4107 24.8065 18.5049 24.5793 18.6724 24.4117C18.84 24.2441 19.0673 24.15 19.3042 24.15C19.5412 24.15 19.7684 24.2441 19.936 24.4117C20.1036 24.5793 20.1977 24.8065 20.1977 25.0435V36.0897V36.1519M18.6725 37.1534L20.1977 36.1519M20.1977 36.1519L20.2416 36.1958M20.1977 36.1519L20.2416 36.1958M20.2416 36.1958L25.027 40.9812M20.2416 36.1958L25.027 40.9812M25.027 40.9812C25.1519 41.1061 25.237 41.2653 25.2714 41.4386C25.3059 41.6119 25.2882 41.7915 25.2206 41.9548C25.153 42.118 25.0385 42.2575 24.8916 42.3557C24.7447 42.4539 24.572 42.5063 24.3954 42.5063L25.027 40.9812Z" stroke="url(#paint6_linear_2049_591)" stroke-opacity="0.1" stroke-width="0.3"/>
<g filter="url(#filter3_bi_2049_591)">
<path d="M37.781 29.5231L35.694 27.4362C35.4984 27.2405 35.233 27.1305 34.9563 27.1304H32.8693C32.5926 27.1304 32.3272 27.0205 32.1315 26.8248C31.9358 26.6291 31.8258 26.3637 31.8258 26.087V24C31.8258 23.7233 31.7158 23.4579 31.5201 23.2623L22.9959 14.7381C23.3147 13.6808 23.4771 12.5826 23.478 11.4783C23.478 9.20808 22.8048 6.98888 21.5436 5.10129C20.2823 3.2137 18.4897 1.7425 16.3923 0.873736C14.2949 0.00497339 11.987 -0.222335 9.76045 0.220557C7.53389 0.663448 5.48866 1.75665 3.88339 3.36191C2.27813 4.96717 1.18493 7.0124 0.742041 9.23897C0.29915 11.4655 0.526458 13.7734 1.39522 15.8708C2.26398 17.9682 3.73518 19.7608 5.62277 21.0221C7.51036 22.2833 9.72956 22.9565 11.9997 22.9565C13.104 22.9556 14.2023 22.7932 15.2596 22.4744L18.8721 26.087H21.3911C21.6678 26.087 21.9332 26.1969 22.1289 26.3926C22.3246 26.5883 22.4345 26.8537 22.4345 27.1304V29.6494L23.7837 30.9986C23.9794 31.1943 24.2448 31.3043 24.5215 31.3044H26.6084C26.8852 31.3044 27.1506 31.4143 27.3463 31.61C27.542 31.8057 27.6519 32.0711 27.6519 32.3478V34.4348C27.652 34.7115 27.762 34.9769 27.9577 35.1725L30.0446 37.2595C30.2403 37.4552 30.5056 37.5652 30.7824 37.5652H37.0432C37.32 37.5652 37.5854 37.4553 37.7811 37.2596C37.9768 37.0639 38.0867 36.7985 38.0867 36.5217V30.2609C38.0866 29.9841 37.9767 29.7188 37.781 29.5231ZM9.39105 12.5217C8.66872 12.5217 7.96261 12.3075 7.36201 11.9062C6.76142 11.5049 6.29331 10.9345 6.01689 10.2672C5.74046 9.59985 5.66814 8.86552 5.80906 8.15707C5.94998 7.44861 6.29781 6.79786 6.80858 6.28709C7.31934 5.77633 7.9701 5.42849 8.67855 5.28757C9.387 5.14665 10.1213 5.21898 10.7887 5.4954C11.456 5.77183 12.0264 6.23993 12.4277 6.84053C12.829 7.44113 13.0432 8.14724 13.0432 8.86957C13.0432 9.83819 12.6584 10.7671 11.9735 11.452C11.2886 12.137 10.3597 12.5217 9.39105 12.5217Z" fill="#1D1D1D" fill-opacity="0.05"/>
<path d="M37.781 29.5231L35.694 27.4362C35.4984 27.2405 35.233 27.1305 34.9563 27.1304H32.8693C32.5926 27.1304 32.3272 27.0205 32.1315 26.8248C31.9358 26.6291 31.8258 26.3637 31.8258 26.087V24C31.8258 23.7233 31.7158 23.4579 31.5201 23.2623L22.9959 14.7381C23.3147 13.6808 23.4771 12.5826 23.478 11.4783C23.478 9.20808 22.8048 6.98888 21.5436 5.10129C20.2823 3.2137 18.4897 1.7425 16.3923 0.873736C14.2949 0.00497339 11.987 -0.222335 9.76045 0.220557C7.53389 0.663448 5.48866 1.75665 3.88339 3.36191C2.27813 4.96717 1.18493 7.0124 0.742041 9.23897C0.29915 11.4655 0.526458 13.7734 1.39522 15.8708C2.26398 17.9682 3.73518 19.7608 5.62277 21.0221C7.51036 22.2833 9.72956 22.9565 11.9997 22.9565C13.104 22.9556 14.2023 22.7932 15.2596 22.4744L18.8721 26.087H21.3911C21.6678 26.087 21.9332 26.1969 22.1289 26.3926C22.3246 26.5883 22.4345 26.8537 22.4345 27.1304V29.6494L23.7837 30.9986C23.9794 31.1943 24.2448 31.3043 24.5215 31.3044H26.6084C26.8852 31.3044 27.1506 31.4143 27.3463 31.61C27.542 31.8057 27.6519 32.0711 27.6519 32.3478V34.4348C27.652 34.7115 27.762 34.9769 27.9577 35.1725L30.0446 37.2595C30.2403 37.4552 30.5056 37.5652 30.7824 37.5652H37.0432C37.32 37.5652 37.5854 37.4553 37.7811 37.2596C37.9768 37.0639 38.0867 36.7985 38.0867 36.5217V30.2609C38.0866 29.9841 37.9767 29.7188 37.781 29.5231ZM9.39105 12.5217C8.66872 12.5217 7.96261 12.3075 7.36201 11.9062C6.76142 11.5049 6.29331 10.9345 6.01689 10.2672C5.74046 9.59985 5.66814 8.86552 5.80906 8.15707C5.94998 7.44861 6.29781 6.79786 6.80858 6.28709C7.31934 5.77633 7.9701 5.42849 8.67855 5.28757C9.387 5.14665 10.1213 5.21898 10.7887 5.4954C11.456 5.77183 12.0264 6.23993 12.4277 6.84053C12.829 7.44113 13.0432 8.14724 13.0432 8.86957C13.0432 9.83819 12.6584 10.7671 11.9735 11.452C11.2886 12.137 10.3597 12.5217 9.39105 12.5217Z" fill="url(#paint7_linear_2049_591)" fill-opacity="0.2"/>
<path d="M31.414 23.3683L31.414 23.3683C31.5816 23.5359 31.6758 23.7631 31.6758 24C31.6758 24 31.6758 24 31.6758 24V26.087C31.6758 26.4035 31.8016 26.7071 32.0254 26.9309C32.2492 27.1547 32.5528 27.2804 32.8693 27.2804H34.9562C35.1932 27.2805 35.4204 27.3747 35.5879 27.5422L35.694 27.4362L35.5879 27.5422L37.6749 29.6292L37.781 29.5231L37.6749 29.6292C37.8425 29.7967 37.9367 30.024 37.9367 30.2609V36.5217C37.9367 36.7587 37.8426 36.986 37.675 37.1535C37.5075 37.3211 37.2802 37.4152 37.0432 37.4152H30.7824C30.5454 37.4152 30.3182 37.321 30.1507 37.1534L30.0446 37.2595L30.1507 37.1534L28.0637 35.0665L27.9577 35.1725L28.0637 35.0664C27.8961 34.8989 27.802 34.6717 27.8019 34.4348V32.3478C27.8019 32.0313 27.6762 31.7277 27.4524 31.5039C27.2285 31.2801 26.925 31.1544 26.6084 31.1544H24.5215C24.5215 31.1544 24.5215 31.1544 24.5215 31.1544C24.2846 31.1543 24.0573 31.0601 23.8898 30.8926L23.8898 30.8925L22.5845 29.5873V27.1304C22.5845 26.8139 22.4588 26.5103 22.235 26.2865C22.0112 26.0627 21.7076 25.937 21.3911 25.937H18.9342L15.3656 22.3684L15.3022 22.3049L15.2163 22.3308C14.173 22.6454 13.0893 22.8056 11.9996 22.8065C9.75915 22.8065 7.56899 22.1421 5.70611 20.8974C3.84318 19.6526 2.39121 17.8834 1.5338 15.8134C0.676393 13.7434 0.452055 11.4657 0.889159 9.26823C1.32626 7.07076 2.40517 5.05226 3.98946 3.46798C5.57375 1.88369 7.59225 0.804778 9.78971 0.367675C11.9872 -0.0694289 14.2649 0.154908 16.3349 1.01232C18.4049 1.86973 20.1741 3.3217 21.4189 5.18462C22.6636 7.04751 23.328 9.23767 23.328 11.4781C23.3271 12.5678 23.1669 13.6515 22.8523 14.6948L22.8264 14.7807L22.8899 14.8442L31.414 23.3683ZM7.27868 12.031C7.90394 12.4488 8.63906 12.6717 9.39105 12.6717C10.3995 12.6717 11.3665 12.2712 12.0796 11.5581C12.7926 10.8451 13.1932 9.87797 13.1932 8.86957C13.1932 8.11757 12.9702 7.38246 12.5524 6.7572C12.1347 6.13193 11.5408 5.6446 10.8461 5.35682C10.1513 5.06904 9.38684 4.99375 8.64929 5.14045C7.91174 5.28716 7.23425 5.64928 6.70251 6.18103C6.17077 6.71277 5.80865 7.39025 5.66194 8.1278C5.51523 8.86535 5.59053 9.62984 5.8783 10.3246C6.16608 11.0194 6.65341 11.6132 7.27868 12.031Z" stroke="url(#paint8_linear_2049_591)" stroke-opacity="0.1" stroke-width="0.3"/>
</g>
<g filter="url(#filter4_i_2049_591)">
<path d="M37.0427 37.5657C36.766 37.5656 36.5006 37.4556 36.305 37.2599L19.6093 20.5643C19.4192 20.3675 19.3141 20.1039 19.3164 19.8303C19.3188 19.5567 19.4286 19.295 19.622 19.1015C19.8155 18.9081 20.0772 18.7983 20.3508 18.7959C20.6244 18.7936 20.888 18.8987 21.0848 19.0888L37.7805 35.7845C37.9263 35.9304 38.0257 36.1163 38.0659 36.3187C38.1062 36.5211 38.0855 36.7309 38.0066 36.9215C37.9276 37.1121 37.7939 37.2751 37.6223 37.3898C37.4508 37.5044 37.2491 37.5656 37.0427 37.5657Z" fill="white" fill-opacity="0.1"/>
</g>
</g>
<defs>
<filter id="filter0_i_2049_591" x="24.5215" y="12.535" width="16.6826" height="9.2915" filterUnits="userSpaceOnUse" color-interpolation-filters="sRGB">
<feFlood flood-opacity="0" result="BackgroundImageFix"/>
<feBlend mode="normal" in="SourceGraphic" in2="BackgroundImageFix" result="shape"/>
<feColorMatrix in="SourceAlpha" type="matrix" values="0 0 0 0 0 0 0 0 0 0 0 0 0 0 0 0 0 0 127 0" result="hardAlpha"/>
<feOffset dy="2"/>
<feGaussianBlur stdDeviation="1"/>
<feComposite in2="hardAlpha" operator="arithmetic" k2="-1" k3="1"/>
<feColorMatrix type="matrix" values="0 0 0 0 1 0 0 0 0 1 0 0 0 0 1 0 0 0 0.1 0"/>
<feBlend mode="normal" in2="shape" result="effect1_innerShadow_2049_591"/>
</filter>
<filter id="filter1_i_2049_591" x="32.8691" y="29.2174" width="11.478" height="14.5217" filterUnits="userSpaceOnUse" color-interpolation-filters="sRGB">
<feFlood flood-opacity="0" result="BackgroundImageFix"/>
<feBlend mode="normal" in="SourceGraphic" in2="BackgroundImageFix" result="shape"/>
<feColorMatrix in="SourceAlpha" type="matrix" values="0 0 0 0 0 0 0 0 0 0 0 0 0 0 0 0 0 0 127 0" result="hardAlpha"/>
<feOffset dy="2"/>
<feGaussianBlur stdDeviation="1"/>
<feComposite in2="hardAlpha" operator="arithmetic" k2="-1" k3="1"/>
<feColorMatrix type="matrix" values="0 0 0 0 1 0 0 0 0 1 0 0 0 0 1 0 0 0 0.1 0"/>
<feBlend mode="normal" in2="shape" result="effect1_innerShadow_2049_591"/>
</filter>
<filter id="filter2_i_2049_591" x="18.2607" y="24" width="7.17773" height="20.6564" filterUnits="userSpaceOnUse" color-interpolation-filters="sRGB">
<feFlood flood-opacity="0" result="BackgroundImageFix"/>
<feBlend mode="normal" in="SourceGraphic" in2="BackgroundImageFix" result="shape"/>
<feColorMatrix in="SourceAlpha" type="matrix" values="0 0 0 0 0 0 0 0 0 0 0 0 0 0 0 0 0 0 127 0" result="hardAlpha"/>
<feOffset dy="2"/>
<feGaussianBlur stdDeviation="1"/>
<feComposite in2="hardAlpha" operator="arithmetic" k2="-1" k3="1"/>
<feColorMatrix type="matrix" values="0 0 0 0 1 0 0 0 0 1 0 0 0 0 1 0 0 0 0.1 0"/>
<feBlend mode="normal" in2="shape" result="effect1_innerShadow_2049_591"/>
</filter>
<filter id="filter3_bi_2049_591" x="-5.47852" y="-6" width="49.5654" height="49.5652" filterUnits="userSpaceOnUse" color-interpolation-filters="sRGB">
<feFlood flood-opacity="0" result="BackgroundImageFix"/>
<feGaussianBlur in="BackgroundImageFix" stdDeviation="3"/>
<feComposite in2="SourceAlpha" operator="in" result="effect1_backgroundBlur_2049_591"/>
<feBlend mode="normal" in="SourceGraphic" in2="effect1_backgroundBlur_2049_591" result="shape"/>
<feColorMatrix in="SourceAlpha" type="matrix" values="0 0 0 0 0 0 0 0 0 0 0 0 0 0 0 0 0 0 127 0" result="hardAlpha"/>
<feOffset dy="1"/>
<feGaussianBlur stdDeviation="1.5"/>
<feComposite in2="hardAlpha" operator="arithmetic" k2="-1" k3="1"/>
<feColorMatrix type="matrix" values="0 0 0 0 1 0 0 0 0 1 0 0 0 0 1 0 0 0 0.15 0"/>
<feBlend mode="normal" in2="shape" result="effect2_innerShadow_2049_591"/>
</filter>
<filter id="filter4_i_2049_591" x="19.3164" y="18.7959" width="18.7695" height="20.7698" filterUnits="userSpaceOnUse" color-interpolation-filters="sRGB">
<feFlood flood-opacity="0" result="BackgroundImageFix"/>
<feBlend mode="normal" in="SourceGraphic" in2="BackgroundImageFix" result="shape"/>
<feColorMatrix in="SourceAlpha" type="matrix" values="0 0 0 0 0 0 0 0 0 0 0 0 0 0 0 0 0 0 127 0" result="hardAlpha"/>
<feOffset dy="2"/>
<feGaussianBlur stdDeviation="1"/>
<feComposite in2="hardAlpha" operator="arithmetic" k2="-1" k3="1"/>
<feColorMatrix type="matrix" values="0 0 0 0 1 0 0 0 0 1 0 0 0 0 1 0 0 0 0.1 0"/>
<feBlend mode="normal" in2="shape" result="effect1_innerShadow_2049_591"/>
</filter>
<linearGradient id="paint0_linear_2049_591" x1="19.3164" y1="18.7959" x2="41.4264" y2="24.41" gradientUnits="userSpaceOnUse">
<stop stop-color="#75A5FF"/>
<stop offset="0.703125" stop-color="#2339FF"/>
</linearGradient>
<linearGradient id="paint1_linear_2049_591" x1="22.4346" y1="39.6522" x2="32.2681" y2="42.1491" gradientUnits="userSpaceOnUse">
<stop stop-color="#75A5FF"/>
<stop offset="0.703125" stop-color="#2339FF"/>
</linearGradient>
<linearGradient id="paint2_linear_2049_591" x1="39.1304" y1="39.6522" x2="48.9639" y2="42.1491" gradientUnits="userSpaceOnUse">
<stop stop-color="#75A5FF"/>
<stop offset="0.703125" stop-color="#2339FF"/>
</linearGradient>
<linearGradient id="paint3_linear_2049_591" x1="37.0435" y1="8.34778" x2="46.8769" y2="10.8447" gradientUnits="userSpaceOnUse">
<stop stop-color="#75A5FF"/>
<stop offset="0.703125" stop-color="#2339FF"/>
</linearGradient>
<linearGradient id="paint4_linear_2049_591" x1="25.0428" y1="12.8665" x2="41.2043" y2="12.8665" gradientUnits="userSpaceOnUse">
<stop stop-color="#3CDEB6"/>
<stop offset="0.65625" stop-color="#364AFF"/>
</linearGradient>
<linearGradient id="paint5_linear_2049_591" x1="33.2278" y1="29.7866" x2="44.3474" y2="29.7866" gradientUnits="userSpaceOnUse">
<stop stop-color="#3CDEB6"/>
<stop offset="0.65625" stop-color="#364AFF"/>
</linearGradient>
<linearGradient id="paint6_linear_2049_591" x1="18.4851" y1="24.848" x2="25.4386" y2="24.848" gradientUnits="userSpaceOnUse">
<stop stop-color="#3CDEB6"/>
<stop offset="0.65625" stop-color="#364AFF"/>
</linearGradient>
<linearGradient id="paint7_linear_2049_591" x1="0.521484" y1="0" x2="44.7722" y2="11.2361" gradientUnits="userSpaceOnUse">
<stop stop-color="#87AFFF"/>
<stop offset="0.776042" stop-color="#5C6DFF"/>
</linearGradient>
<linearGradient id="paint8_linear_2049_591" x1="1.6954" y1="1.70751" x2="38.0867" y2="1.70751" gradientUnits="userSpaceOnUse">
<stop stop-color="#3CDEB6"/>
<stop offset="0.65625" stop-color="#364AFF"/>
</linearGradient>
<clipPath id="clip0_2049_591">
<rect width="48" height="48" fill="white"/>
</clipPath>
</defs>
</svg>
