<svg width="48" height="48" viewBox="0 0 48 48" fill="none" xmlns="http://www.w3.org/2000/svg">
<g clip-path="url(#clip0_2047_396)">
<g filter="url(#filter0_bi_2047_396)">
<path d="M16.1578 20.5423C16.0906 20.4199 15.9924 20.3173 15.8731 20.2447L9.42113 16.3017C9.29459 16.2245 9.1492 16.1836 9.00094 16.1836C8.85269 16.1836 8.7073 16.2245 8.58076 16.3017L2.12878 20.2447C2.00949 20.3173 1.91133 20.4199 1.84409 20.5423L9.00094 24.9167L16.1578 20.5423Z" fill="url(#paint0_linear_2047_396)"/>
<path d="M1.84409 20.5423C1.77757 20.6619 1.74183 20.7972 1.7417 20.9341V28.0941C1.74178 28.2323 1.77734 28.3681 1.84499 28.4886C1.91263 28.609 2.01009 28.7101 2.12801 28.7821L8.57999 32.725C8.70649 32.8024 8.85188 32.8435 9.00018 32.8436L9.00094 24.9167L1.84409 20.5423Z" fill="url(#paint1_linear_2047_396)"/>
<path d="M16.1578 20.5423C16.2243 20.6619 16.2585 20.7972 16.2587 20.9341V28.0941C16.2586 28.2323 16.223 28.3681 16.1554 28.4886C16.0877 28.609 15.9903 28.7101 15.8723 28.7821L9.42036 32.725C9.29386 32.8024 9.14847 32.8435 9.00018 32.8436L9.00094 24.9167L16.1578 20.5423Z" fill="url(#paint2_linear_2047_396)"/>
</g>
<g filter="url(#filter1_bi_2047_396)">
<path d="M16.1583 20.5423C16.0911 20.4199 15.9929 20.3173 15.8736 20.2447L9.42162 16.3017C9.29507 16.2245 9.14969 16.1836 9.00143 16.1836C8.85318 16.1836 8.70779 16.2245 8.58125 16.3017L2.12927 20.2447C2.00998 20.3173 1.91182 20.4199 1.84457 20.5423L9.00143 24.9167L16.1583 20.5423Z" fill="url(#paint3_linear_2047_396)"/>
<path d="M1.84457 20.5423C1.77805 20.6619 1.74231 20.7972 1.74219 20.9341V28.0941C1.74226 28.2323 1.77783 28.3681 1.84548 28.4886C1.91312 28.609 2.01058 28.7101 2.1285 28.7821L8.58048 32.725C8.70698 32.8024 8.85237 32.8435 9.00066 32.8436L9.00143 24.9167L1.84457 20.5423Z" fill="url(#paint4_linear_2047_396)"/>
<path d="M16.1583 20.5423C16.2248 20.6619 16.259 20.7972 16.2591 20.9341V28.0941C16.2591 28.2323 16.2235 28.3681 16.1559 28.4886C16.0882 28.609 15.9908 28.7101 15.8728 28.7821L9.42085 32.725C9.29435 32.8024 9.14896 32.8435 9.00066 32.8436L9.00143 24.9167L16.1583 20.5423Z" fill="url(#paint5_linear_2047_396)"/>
</g>
<g filter="url(#filter2_bi_2047_396)">
<path d="M31.1583 10.9232C31.0911 10.8008 30.9929 10.6982 30.8736 10.6256L24.4216 6.68268C24.2951 6.60544 24.1497 6.56458 24.0014 6.56458C23.8532 6.56458 23.7078 6.60544 23.5812 6.68268L17.1293 10.6256C17.01 10.6982 16.9118 10.8008 16.8446 10.9232L24.0014 15.2977L31.1583 10.9232Z" fill="url(#paint6_linear_2047_396)"/>
<path d="M16.8446 10.9232C16.7781 11.0429 16.7423 11.1782 16.7422 11.3151V18.4751C16.7423 18.6133 16.7778 18.7491 16.8455 18.8696C16.9131 18.99 17.0106 19.0911 17.1285 19.1631L23.5805 23.106C23.707 23.1834 23.8524 23.2244 24.0007 23.2246L24.0014 15.2977L16.8446 10.9232Z" fill="url(#paint7_linear_2047_396)"/>
<path d="M31.1583 10.9232C31.2248 11.0429 31.259 11.1782 31.2591 11.3151V18.4751C31.2591 18.6133 31.2235 18.7491 31.1559 18.8696C31.0882 18.99 30.9908 19.0911 30.8728 19.1631L24.4208 23.106C24.2944 23.1834 24.149 23.2244 24.0007 23.2246L24.0014 15.2977L31.1583 10.9232Z" fill="url(#paint8_linear_2047_396)"/>
</g>
<g filter="url(#filter3_bi_2047_396)">
<path d="M46.1583 20.5419C46.0911 20.4195 45.9929 20.3169 45.8736 20.2443L39.4216 16.3013C39.2951 16.2241 39.1497 16.1832 39.0014 16.1832C38.8532 16.1832 38.7078 16.2241 38.5812 16.3013L32.1293 20.2443C32.01 20.3169 31.9118 20.4195 31.8446 20.5419L39.0014 24.9163L46.1583 20.5419Z" fill="url(#paint9_linear_2047_396)"/>
<path d="M31.8446 20.5419C31.7781 20.6615 31.7423 20.7968 31.7422 20.9337V28.0938C31.7423 28.2319 31.7778 28.3677 31.8455 28.4882C31.9131 28.6087 32.0106 28.7097 32.1285 28.7817L38.5805 32.7247C38.707 32.8021 38.8524 32.8431 39.0007 32.8432L39.0014 24.9163L31.8446 20.5419Z" fill="url(#paint10_linear_2047_396)"/>
<path d="M46.1583 20.5419C46.2248 20.6615 46.259 20.7968 46.2591 20.9337V28.0938C46.2591 28.2319 46.2235 28.3677 46.1559 28.4882C46.0882 28.6087 45.9908 28.7097 45.8728 28.7817L39.4208 32.7247C39.2944 32.8021 39.149 32.8431 39.0007 32.8432L39.0014 24.9163L46.1583 20.5419Z" fill="url(#paint11_linear_2047_396)"/>
</g>
<g filter="url(#filter4_bi_2047_396)">
<path d="M31.1578 31.574C31.0906 31.4516 30.9924 31.349 30.8731 31.2764L24.4211 27.3334C24.2946 27.2562 24.1492 27.2153 24.0009 27.2153C23.8527 27.2153 23.7073 27.2562 23.5808 27.3334L17.1288 31.2764C17.0095 31.349 16.9113 31.4516 16.8441 31.574L24.0009 35.9484L31.1578 31.574Z" fill="url(#paint12_linear_2047_396)"/>
<path d="M16.8441 31.574C16.7776 31.6936 16.7418 31.8289 16.7417 31.9658V39.1259C16.7418 39.264 16.7773 39.3999 16.845 39.5203C16.9126 39.6408 17.0101 39.7418 17.128 39.8138L23.58 43.7568C23.7065 43.8342 23.8519 43.8752 24.0002 43.8753L24.0009 35.9484L16.8441 31.574Z" fill="url(#paint13_linear_2047_396)"/>
<path d="M31.1578 31.574C31.2243 31.6936 31.2585 31.8289 31.2587 31.9658V39.1259C31.2586 39.264 31.223 39.3999 31.1554 39.5203C31.0877 39.6408 30.9903 39.7418 30.8723 39.8138L24.4204 43.7568C24.2939 43.8342 24.1485 43.8752 24.0002 43.8753L24.0009 35.9484L31.1578 31.574Z" fill="url(#paint14_linear_2047_396)"/>
</g>
<g filter="url(#filter5_bi_2047_396)">
<path d="M32.874 10.4054C32.7906 10.2537 32.6689 10.1264 32.521 10.0364L24.521 5.14742C24.3641 5.05165 24.1838 5.00098 24 5.00098C23.8162 5.00098 23.6359 5.05165 23.479 5.14742L15.479 10.0364C15.3311 10.1264 15.2094 10.2537 15.126 10.4054L24 15.8284L32.874 10.4054Z" fill="#1D1D1D" fill-opacity="0.05"/>
<path d="M32.874 10.4054C32.7906 10.2537 32.6689 10.1264 32.521 10.0364L24.521 5.14742C24.3641 5.05165 24.1838 5.00098 24 5.00098C23.8162 5.00098 23.6359 5.05165 23.479 5.14742L15.479 10.0364C15.3311 10.1264 15.2094 10.2537 15.126 10.4054L24 15.8284L32.874 10.4054Z" fill="url(#paint15_linear_2047_396)" fill-opacity="0.2"/>
<path d="M24 15.6526L15.3368 10.3585C15.398 10.2817 15.4725 10.216 15.557 10.1646L15.5572 10.1644L23.5571 5.27545C23.5571 5.27544 23.5572 5.27543 23.5572 5.27541C23.6905 5.19403 23.8438 5.15098 24 5.15098C24.1562 5.15098 24.3094 5.19403 24.4428 5.27541C24.4428 5.27543 24.4428 5.27544 24.4428 5.27545L32.4428 10.1644L32.443 10.1646C32.5275 10.216 32.6019 10.2817 32.6631 10.3585L24 15.6526Z" stroke="url(#paint16_linear_2047_396)" stroke-opacity="0.1" stroke-width="0.3"/>
</g>
<g filter="url(#filter6_bi_2047_396)">
<path d="M15.126 10.4053C15.0437 10.5533 15.0003 10.7199 15 10.8893V19.7673C15.0001 19.9386 15.0442 20.107 15.1281 20.2563C15.2119 20.4057 15.3328 20.531 15.479 20.6203L23.479 25.5093C23.6358 25.6052 23.8161 25.6561 24 25.6563V15.8283L15.126 10.4053Z" fill="#1D1D1D" fill-opacity="0.05"/>
<path d="M15.126 10.4053C15.0437 10.5533 15.0003 10.7199 15 10.8893V19.7673C15.0001 19.9386 15.0442 20.107 15.1281 20.2563C15.2119 20.4057 15.3328 20.531 15.479 20.6203L23.479 25.5093C23.6358 25.6052 23.8161 25.6561 24 25.6563V15.8283L15.126 10.4053Z" fill="url(#paint17_linear_2047_396)" fill-opacity="0.2"/>
<path d="M15.1936 10.6224C15.165 10.7082 15.1502 10.7983 15.15 10.8894L15.15 19.7672L15.15 19.7673M15.1936 10.6224L15.15 19.7673M15.1936 10.6224L23.85 15.9124V25.4928C23.7468 25.4742 23.6475 25.4365 23.5573 25.3813L23.5572 25.3813L15.5572 20.4923L15.5572 20.4922C15.4329 20.4164 15.3302 20.3099 15.2589 20.1829C15.1876 20.056 15.1501 19.9129 15.15 19.7673M15.1936 10.6224L15.15 19.7673" stroke="url(#paint18_linear_2047_396)" stroke-opacity="0.1" stroke-width="0.3"/>
</g>
<g filter="url(#filter7_bi_2047_396)">
<path d="M32.874 10.4053C32.9563 10.5533 32.9997 10.7199 33 10.8893V19.7673C32.9999 19.9386 32.9558 20.107 32.8719 20.2563C32.7881 20.4057 32.6672 20.531 32.521 20.6203L24.521 25.5093C24.3642 25.6052 24.1839 25.6561 24 25.6563V15.8283L32.874 10.4053Z" fill="#1D1D1D" fill-opacity="0.05"/>
<path d="M32.874 10.4053C32.9563 10.5533 32.9997 10.7199 33 10.8893V19.7673C32.9999 19.9386 32.9558 20.107 32.8719 20.2563C32.7881 20.4057 32.6672 20.531 32.521 20.6203L24.521 25.5093C24.3642 25.6052 24.1839 25.6561 24 25.6563V15.8283L32.874 10.4053Z" fill="url(#paint19_linear_2047_396)" fill-opacity="0.2"/>
<path d="M32.4429 20.4922L32.4428 20.4923L24.4428 25.3813L24.4427 25.3813C24.3525 25.4365 24.2532 25.4742 24.15 25.4928V15.9124L32.8064 10.6224C32.835 10.7082 32.8498 10.7984 32.85 10.8896V19.7672C32.8499 19.9128 32.8124 20.0559 32.7411 20.1829C32.6698 20.3099 32.5671 20.4164 32.4429 20.4922Z" stroke="url(#paint20_linear_2047_396)" stroke-opacity="0.1" stroke-width="0.3"/>
</g>
<g filter="url(#filter8_bi_2047_396)">
<path d="M47.874 19.589C47.7906 19.4373 47.6689 19.31 47.521 19.22L39.521 14.331C39.3641 14.2352 39.1838 14.1846 39 14.1846C38.8162 14.1846 38.6359 14.2352 38.479 14.331L30.479 19.22C30.3311 19.31 30.2094 19.4373 30.126 19.589L39 25.013L47.874 19.589Z" fill="#1D1D1D" fill-opacity="0.05"/>
<path d="M47.874 19.589C47.7906 19.4373 47.6689 19.31 47.521 19.22L39.521 14.331C39.3641 14.2352 39.1838 14.1846 39 14.1846C38.8162 14.1846 38.6359 14.2352 38.479 14.331L30.479 19.22C30.3311 19.31 30.2094 19.4373 30.126 19.589L39 25.013L47.874 19.589Z" fill="url(#paint21_linear_2047_396)" fill-opacity="0.2"/>
<path d="M39 24.8372L30.3368 19.5421C30.398 19.4653 30.4725 19.3996 30.557 19.3481L30.5572 19.348L38.5571 14.459C38.5571 14.459 38.5572 14.459 38.5572 14.459C38.6905 14.3776 38.8438 14.3346 39 14.3346C39.1562 14.3346 39.3094 14.3776 39.4428 14.459C39.4428 14.459 39.4428 14.459 39.4428 14.459L47.4428 19.348L47.443 19.3481C47.5275 19.3996 47.6019 19.4653 47.6631 19.5421L39 24.8372Z" stroke="url(#paint22_linear_2047_396)" stroke-opacity="0.1" stroke-width="0.3"/>
</g>
<g filter="url(#filter9_bi_2047_396)">
<path d="M30.126 19.5898C30.0435 19.7382 30.0002 19.9051 30 20.0748V28.9528C30.0001 29.1241 30.0442 29.2926 30.1281 29.4419C30.2119 29.5913 30.3328 29.7166 30.479 29.8058L38.479 34.6948C38.6358 34.7908 38.8161 34.8417 39 34.8418V25.0138L30.126 19.5898Z" fill="#1D1D1D" fill-opacity="0.05"/>
<path d="M30.126 19.5898C30.0435 19.7382 30.0002 19.9051 30 20.0748V28.9528C30.0001 29.1241 30.0442 29.2926 30.1281 29.4419C30.2119 29.5913 30.3328 29.7166 30.479 29.8058L38.479 34.6948C38.6358 34.7908 38.8161 34.8417 39 34.8418V25.0138L30.126 19.5898Z" fill="url(#paint23_linear_2047_396)" fill-opacity="0.2"/>
<path d="M30.1936 19.807C30.1649 19.8931 30.1501 19.9835 30.15 20.0749C30.15 20.0749 30.15 20.075 30.15 20.075L30.1936 19.807ZM30.1936 19.807L38.85 25.098V34.6783C38.7468 34.6597 38.6475 34.6221 38.5573 34.5669L38.5572 34.5669L30.5572 29.6779L30.5572 29.6778C30.4329 29.6019 30.3302 29.4954 30.2589 29.3685C30.1876 29.2415 30.1501 29.0984 30.15 28.9528L30.1936 19.807Z" stroke="url(#paint24_linear_2047_396)" stroke-opacity="0.1" stroke-width="0.3"/>
</g>
<g filter="url(#filter10_bi_2047_396)">
<path d="M47.874 19.5898C47.9565 19.7382 47.9998 19.9051 48 20.0748V28.9528C47.9999 29.1241 47.9558 29.2926 47.8719 29.4419C47.7881 29.5913 47.6672 29.7166 47.521 29.8058L39.521 34.6948C39.3642 34.7908 39.1839 34.8417 39 34.8418V25.0138L47.874 19.5898Z" fill="#1D1D1D" fill-opacity="0.05"/>
<path d="M47.874 19.5898C47.9565 19.7382 47.9998 19.9051 48 20.0748V28.9528C47.9999 29.1241 47.9558 29.2926 47.8719 29.4419C47.7881 29.5913 47.6672 29.7166 47.521 29.8058L39.521 34.6948C39.3642 34.7908 39.1839 34.8417 39 34.8418V25.0138L47.874 19.5898Z" fill="url(#paint25_linear_2047_396)" fill-opacity="0.2"/>
<path d="M47.4429 29.6778L47.4428 29.6779L39.4428 34.5669L39.4427 34.5669C39.3525 34.6221 39.2532 34.6597 39.15 34.6783V25.098L47.8064 19.807C47.8351 19.8931 47.8499 19.9835 47.85 20.075V28.9528C47.8499 29.0984 47.8124 29.2415 47.7411 29.3685C47.6698 29.4954 47.5671 29.6019 47.4429 29.6778Z" stroke="url(#paint26_linear_2047_396)" stroke-opacity="0.1" stroke-width="0.3"/>
</g>
<g filter="url(#filter11_bi_2047_396)">
<path d="M17.874 19.589C17.7906 19.4373 17.6689 19.31 17.521 19.22L9.52098 14.331C9.36407 14.2352 9.1838 14.1846 8.99998 14.1846C8.81615 14.1846 8.63588 14.2352 8.47898 14.331L0.478977 19.22C0.331066 19.31 0.20935 19.4373 0.125977 19.589L8.99998 25.013L17.874 19.589Z" fill="#1D1D1D" fill-opacity="0.05"/>
<path d="M17.874 19.589C17.7906 19.4373 17.6689 19.31 17.521 19.22L9.52098 14.331C9.36407 14.2352 9.1838 14.1846 8.99998 14.1846C8.81615 14.1846 8.63588 14.2352 8.47898 14.331L0.478977 19.22C0.331066 19.31 0.20935 19.4373 0.125977 19.589L8.99998 25.013L17.874 19.589Z" fill="url(#paint27_linear_2047_396)" fill-opacity="0.2"/>
<path d="M8.99998 24.8372L0.336826 19.5421C0.398029 19.4653 0.472455 19.3996 0.556957 19.3481L0.557195 19.348L8.55713 14.459C8.55715 14.459 8.55717 14.459 8.55719 14.459C8.69055 14.3776 8.84375 14.3346 8.99998 14.3346C9.1562 14.3346 9.3094 14.3776 9.44276 14.459C9.44278 14.459 9.4428 14.459 9.44283 14.459L17.4428 19.348L17.443 19.3481C17.5275 19.3996 17.6019 19.4653 17.6631 19.5421L8.99998 24.8372Z" stroke="url(#paint28_linear_2047_396)" stroke-opacity="0.1" stroke-width="0.3"/>
</g>
<g filter="url(#filter12_bi_2047_396)">
<path d="M0.126 19.5898C0.0435187 19.7382 0.000157297 19.9051 0 20.0748L0 28.9528C9.53765e-05 29.1241 0.0441946 29.2926 0.12807 29.4419C0.211945 29.5913 0.332783 29.7166 0.479 29.8058L8.479 34.6948C8.63585 34.7908 8.81612 34.8417 9 34.8418V25.0138L0.126 19.5898Z" fill="#1D1D1D" fill-opacity="0.05"/>
<path d="M0.126 19.5898C0.0435187 19.7382 0.000157297 19.9051 0 20.0748L0 28.9528C9.53765e-05 29.1241 0.0441946 29.2926 0.12807 29.4419C0.211945 29.5913 0.332783 29.7166 0.479 29.8058L8.479 34.6948C8.63585 34.7908 8.81612 34.8417 9 34.8418V25.0138L0.126 19.5898Z" fill="url(#paint29_linear_2047_396)" fill-opacity="0.2"/>
<path d="M0.193619 19.807C0.164925 19.8931 0.150091 19.9835 0.15 20.0749C0.15 20.0749 0.15 20.075 0.15 20.075L0.193619 19.807ZM0.193619 19.807L8.85 25.098V34.6783C8.74679 34.6597 8.64748 34.6221 8.55729 34.5669L8.55722 34.5669L0.557219 29.6779L0.55715 29.6778C0.432865 29.6019 0.330153 29.4954 0.258859 29.3685C0.187579 29.2415 0.150095 29.0984 0.15 28.9528L0.193619 19.807Z" stroke="url(#paint30_linear_2047_396)" stroke-opacity="0.1" stroke-width="0.3"/>
</g>
<g filter="url(#filter13_bi_2047_396)">
<path d="M17.874 19.5898C17.9565 19.7382 17.9998 19.9051 18 20.0748V28.9528C17.9999 29.1241 17.9558 29.2926 17.8719 29.4419C17.7881 29.5913 17.6672 29.7166 17.521 29.8058L9.521 34.6948C9.36415 34.7908 9.18388 34.8417 9 34.8418V25.0138L17.874 19.5898Z" fill="#1D1D1D" fill-opacity="0.05"/>
<path d="M17.874 19.5898C17.9565 19.7382 17.9998 19.9051 18 20.0748V28.9528C17.9999 29.1241 17.9558 29.2926 17.8719 29.4419C17.7881 29.5913 17.6672 29.7166 17.521 29.8058L9.521 34.6948C9.36415 34.7908 9.18388 34.8417 9 34.8418V25.0138L17.874 19.5898Z" fill="url(#paint31_linear_2047_396)" fill-opacity="0.2"/>
<path d="M17.4429 29.6778L17.4428 29.6779L9.44278 34.5669L9.44271 34.5669C9.35252 34.6221 9.25321 34.6597 9.15 34.6783V25.098L17.8064 19.807C17.8351 19.8931 17.8499 19.9835 17.85 20.075V28.9528C17.8499 29.0984 17.8124 29.2415 17.7411 29.3685C17.6698 29.4954 17.5671 29.6019 17.4429 29.6778Z" stroke="url(#paint32_linear_2047_396)" stroke-opacity="0.1" stroke-width="0.3"/>
</g>
<g filter="url(#filter14_bi_2047_396)">
<path d="M32.874 29.5773C32.7906 29.4255 32.6689 29.2983 32.521 29.2083L24.521 24.3193C24.3641 24.2235 24.1838 24.1729 24 24.1729C23.8162 24.1729 23.6359 24.2235 23.479 24.3193L15.479 29.2083C15.3311 29.2983 15.2094 29.4255 15.126 29.5773L24 35.0003L32.874 29.5773Z" fill="#1D1D1D" fill-opacity="0.05"/>
<path d="M32.874 29.5773C32.7906 29.4255 32.6689 29.2983 32.521 29.2083L24.521 24.3193C24.3641 24.2235 24.1838 24.1729 24 24.1729C23.8162 24.1729 23.6359 24.2235 23.479 24.3193L15.479 29.2083C15.3311 29.2983 15.2094 29.4255 15.126 29.5773L24 35.0003L32.874 29.5773Z" fill="url(#paint33_linear_2047_396)" fill-opacity="0.2"/>
<path d="M24 34.8245L15.3368 29.5304C15.398 29.4536 15.4725 29.3879 15.557 29.3364L15.5572 29.3363L23.5571 24.4473C23.5571 24.4473 23.5572 24.4473 23.5572 24.4473C23.6905 24.3659 23.8438 24.3229 24 24.3229C24.1562 24.3229 24.3094 24.3659 24.4428 24.4473C24.4428 24.4473 24.4428 24.4473 24.4428 24.4473L32.4428 29.3363L32.443 29.3364C32.5275 29.3879 32.6019 29.4536 32.6631 29.5304L24 34.8245Z" stroke="url(#paint34_linear_2047_396)" stroke-opacity="0.1" stroke-width="0.3"/>
</g>
<g filter="url(#filter15_bi_2047_396)">
<path d="M15.126 29.5771C15.0437 29.7252 15.0003 29.8917 15 30.0611V38.9391C15.0001 39.1105 15.0442 39.2789 15.1281 39.4282C15.2119 39.5776 15.3328 39.7029 15.479 39.7921L23.479 44.6811C23.6358 44.7771 23.8161 44.828 24 44.8281V35.0001L15.126 29.5771Z" fill="#1D1D1D" fill-opacity="0.05"/>
<path d="M15.126 29.5771C15.0437 29.7252 15.0003 29.8917 15 30.0611V38.9391C15.0001 39.1105 15.0442 39.2789 15.1281 39.4282C15.2119 39.5776 15.3328 39.7029 15.479 39.7921L23.479 44.6811C23.6358 44.7771 23.8161 44.828 24 44.8281V35.0001L15.126 29.5771Z" fill="url(#paint35_linear_2047_396)" fill-opacity="0.2"/>
<path d="M15.1936 29.7943C15.165 29.8801 15.1502 29.9702 15.15 30.0613L15.15 38.9391L15.15 38.9391M15.1936 29.7943L15.15 38.9391M15.1936 29.7943L23.85 35.0843V44.6646C23.7468 44.646 23.6475 44.6084 23.5573 44.5532L23.5572 44.5532L15.5572 39.6642L15.5572 39.6641C15.4329 39.5883 15.3302 39.4817 15.2589 39.3548C15.1876 39.2278 15.1501 39.0847 15.15 38.9391M15.1936 29.7943L15.15 38.9391" stroke="url(#paint36_linear_2047_396)" stroke-opacity="0.1" stroke-width="0.3"/>
</g>
<g filter="url(#filter16_bi_2047_396)">
<path d="M32.874 29.5771C32.9563 29.7252 32.9997 29.8917 33 30.0611V38.9391C32.9999 39.1105 32.9558 39.2789 32.8719 39.4282C32.7881 39.5776 32.6672 39.7029 32.521 39.7921L24.521 44.6811C24.3642 44.7771 24.1839 44.828 24 44.8281V35.0001L32.874 29.5771Z" fill="#1D1D1D" fill-opacity="0.05"/>
<path d="M32.874 29.5771C32.9563 29.7252 32.9997 29.8917 33 30.0611V38.9391C32.9999 39.1105 32.9558 39.2789 32.8719 39.4282C32.7881 39.5776 32.6672 39.7029 32.521 39.7921L24.521 44.6811C24.3642 44.7771 24.1839 44.828 24 44.8281V35.0001L32.874 29.5771Z" fill="url(#paint37_linear_2047_396)" fill-opacity="0.2"/>
<path d="M32.4429 39.6641L32.4428 39.6642L24.4428 44.5532L24.4427 44.5532C24.3525 44.6084 24.2532 44.646 24.15 44.6646V35.0843L32.8064 29.7943C32.835 29.8801 32.8498 29.9703 32.85 30.0614V38.9391C32.8499 39.0847 32.8124 39.2278 32.7411 39.3548C32.6698 39.4817 32.5671 39.5883 32.4429 39.6641Z" stroke="url(#paint38_linear_2047_396)" stroke-opacity="0.1" stroke-width="0.3"/>
</g>
</g>
<defs>
<filter id="filter0_bi_2047_396" x="-0.67779" y="13.7641" width="19.3561" height="21.499" filterUnits="userSpaceOnUse" color-interpolation-filters="sRGB">
<feFlood flood-opacity="0" result="BackgroundImageFix"/>
<feGaussianBlur in="BackgroundImageFix" stdDeviation="1.20974"/>
<feComposite in2="SourceAlpha" operator="in" result="effect1_backgroundBlur_2047_396"/>
<feBlend mode="normal" in="SourceGraphic" in2="effect1_backgroundBlur_2047_396" result="shape"/>
<feColorMatrix in="SourceAlpha" type="matrix" values="0 0 0 0 0 0 0 0 0 0 0 0 0 0 0 0 0 0 127 0" result="hardAlpha"/>
<feOffset dy="0.403248"/>
<feGaussianBlur stdDeviation="0.806497"/>
<feComposite in2="hardAlpha" operator="arithmetic" k2="-1" k3="1"/>
<feColorMatrix type="matrix" values="0 0 0 0 1 0 0 0 0 1 0 0 0 0 1 0 0 0 0.4 0"/>
<feBlend mode="normal" in2="shape" result="effect2_innerShadow_2047_396"/>
</filter>
<filter id="filter1_bi_2047_396" x="-0.677302" y="13.7641" width="19.3561" height="21.499" filterUnits="userSpaceOnUse" color-interpolation-filters="sRGB">
<feFlood flood-opacity="0" result="BackgroundImageFix"/>
<feGaussianBlur in="BackgroundImageFix" stdDeviation="1.20974"/>
<feComposite in2="SourceAlpha" operator="in" result="effect1_backgroundBlur_2047_396"/>
<feBlend mode="normal" in="SourceGraphic" in2="effect1_backgroundBlur_2047_396" result="shape"/>
<feColorMatrix in="SourceAlpha" type="matrix" values="0 0 0 0 0 0 0 0 0 0 0 0 0 0 0 0 0 0 127 0" result="hardAlpha"/>
<feOffset dy="0.403248"/>
<feGaussianBlur stdDeviation="0.806497"/>
<feComposite in2="hardAlpha" operator="arithmetic" k2="-1" k3="1"/>
<feColorMatrix type="matrix" values="0 0 0 0 1 0 0 0 0 1 0 0 0 0 1 0 0 0 0.4 0"/>
<feBlend mode="normal" in2="shape" result="effect2_innerShadow_2047_396"/>
</filter>
<filter id="filter2_bi_2047_396" x="14.3227" y="4.14509" width="19.3561" height="21.499" filterUnits="userSpaceOnUse" color-interpolation-filters="sRGB">
<feFlood flood-opacity="0" result="BackgroundImageFix"/>
<feGaussianBlur in="BackgroundImageFix" stdDeviation="1.20974"/>
<feComposite in2="SourceAlpha" operator="in" result="effect1_backgroundBlur_2047_396"/>
<feBlend mode="normal" in="SourceGraphic" in2="effect1_backgroundBlur_2047_396" result="shape"/>
<feColorMatrix in="SourceAlpha" type="matrix" values="0 0 0 0 0 0 0 0 0 0 0 0 0 0 0 0 0 0 127 0" result="hardAlpha"/>
<feOffset dy="0.403248"/>
<feGaussianBlur stdDeviation="0.806497"/>
<feComposite in2="hardAlpha" operator="arithmetic" k2="-1" k3="1"/>
<feColorMatrix type="matrix" values="0 0 0 0 1 0 0 0 0 1 0 0 0 0 1 0 0 0 0.4 0"/>
<feBlend mode="normal" in2="shape" result="effect2_innerShadow_2047_396"/>
</filter>
<filter id="filter3_bi_2047_396" x="29.3227" y="13.7637" width="19.3561" height="21.499" filterUnits="userSpaceOnUse" color-interpolation-filters="sRGB">
<feFlood flood-opacity="0" result="BackgroundImageFix"/>
<feGaussianBlur in="BackgroundImageFix" stdDeviation="1.20974"/>
<feComposite in2="SourceAlpha" operator="in" result="effect1_backgroundBlur_2047_396"/>
<feBlend mode="normal" in="SourceGraphic" in2="effect1_backgroundBlur_2047_396" result="shape"/>
<feColorMatrix in="SourceAlpha" type="matrix" values="0 0 0 0 0 0 0 0 0 0 0 0 0 0 0 0 0 0 127 0" result="hardAlpha"/>
<feOffset dy="0.403248"/>
<feGaussianBlur stdDeviation="0.806497"/>
<feComposite in2="hardAlpha" operator="arithmetic" k2="-1" k3="1"/>
<feColorMatrix type="matrix" values="0 0 0 0 1 0 0 0 0 1 0 0 0 0 1 0 0 0 0.4 0"/>
<feBlend mode="normal" in2="shape" result="effect2_innerShadow_2047_396"/>
</filter>
<filter id="filter4_bi_2047_396" x="14.3222" y="24.7958" width="19.3561" height="21.499" filterUnits="userSpaceOnUse" color-interpolation-filters="sRGB">
<feFlood flood-opacity="0" result="BackgroundImageFix"/>
<feGaussianBlur in="BackgroundImageFix" stdDeviation="1.20974"/>
<feComposite in2="SourceAlpha" operator="in" result="effect1_backgroundBlur_2047_396"/>
<feBlend mode="normal" in="SourceGraphic" in2="effect1_backgroundBlur_2047_396" result="shape"/>
<feColorMatrix in="SourceAlpha" type="matrix" values="0 0 0 0 0 0 0 0 0 0 0 0 0 0 0 0 0 0 127 0" result="hardAlpha"/>
<feOffset dy="0.403248"/>
<feGaussianBlur stdDeviation="0.806497"/>
<feComposite in2="hardAlpha" operator="arithmetic" k2="-1" k3="1"/>
<feColorMatrix type="matrix" values="0 0 0 0 1 0 0 0 0 1 0 0 0 0 1 0 0 0 0.4 0"/>
<feBlend mode="normal" in2="shape" result="effect2_innerShadow_2047_396"/>
</filter>
<filter id="filter5_bi_2047_396" x="9.12598" y="-0.999023" width="29.748" height="22.8274" filterUnits="userSpaceOnUse" color-interpolation-filters="sRGB">
<feFlood flood-opacity="0" result="BackgroundImageFix"/>
<feGaussianBlur in="BackgroundImageFix" stdDeviation="3"/>
<feComposite in2="SourceAlpha" operator="in" result="effect1_backgroundBlur_2047_396"/>
<feBlend mode="normal" in="SourceGraphic" in2="effect1_backgroundBlur_2047_396" result="shape"/>
<feColorMatrix in="SourceAlpha" type="matrix" values="0 0 0 0 0 0 0 0 0 0 0 0 0 0 0 0 0 0 127 0" result="hardAlpha"/>
<feOffset dy="2"/>
<feGaussianBlur stdDeviation="1.5"/>
<feComposite in2="hardAlpha" operator="arithmetic" k2="-1" k3="1"/>
<feColorMatrix type="matrix" values="0 0 0 0 1 0 0 0 0 1 0 0 0 0 1 0 0 0 0.15 0"/>
<feBlend mode="normal" in2="shape" result="effect2_innerShadow_2047_396"/>
</filter>
<filter id="filter6_bi_2047_396" x="9" y="4.40527" width="21" height="27.251" filterUnits="userSpaceOnUse" color-interpolation-filters="sRGB">
<feFlood flood-opacity="0" result="BackgroundImageFix"/>
<feGaussianBlur in="BackgroundImageFix" stdDeviation="3"/>
<feComposite in2="SourceAlpha" operator="in" result="effect1_backgroundBlur_2047_396"/>
<feBlend mode="normal" in="SourceGraphic" in2="effect1_backgroundBlur_2047_396" result="shape"/>
<feColorMatrix in="SourceAlpha" type="matrix" values="0 0 0 0 0 0 0 0 0 0 0 0 0 0 0 0 0 0 127 0" result="hardAlpha"/>
<feOffset dy="2"/>
<feGaussianBlur stdDeviation="1.5"/>
<feComposite in2="hardAlpha" operator="arithmetic" k2="-1" k3="1"/>
<feColorMatrix type="matrix" values="0 0 0 0 1 0 0 0 0 1 0 0 0 0 1 0 0 0 0.15 0"/>
<feBlend mode="normal" in2="shape" result="effect2_innerShadow_2047_396"/>
</filter>
<filter id="filter7_bi_2047_396" x="18" y="4.40527" width="21" height="27.251" filterUnits="userSpaceOnUse" color-interpolation-filters="sRGB">
<feFlood flood-opacity="0" result="BackgroundImageFix"/>
<feGaussianBlur in="BackgroundImageFix" stdDeviation="3"/>
<feComposite in2="SourceAlpha" operator="in" result="effect1_backgroundBlur_2047_396"/>
<feBlend mode="normal" in="SourceGraphic" in2="effect1_backgroundBlur_2047_396" result="shape"/>
<feColorMatrix in="SourceAlpha" type="matrix" values="0 0 0 0 0 0 0 0 0 0 0 0 0 0 0 0 0 0 127 0" result="hardAlpha"/>
<feOffset dy="2"/>
<feGaussianBlur stdDeviation="1.5"/>
<feComposite in2="hardAlpha" operator="arithmetic" k2="-1" k3="1"/>
<feColorMatrix type="matrix" values="0 0 0 0 1 0 0 0 0 1 0 0 0 0 1 0 0 0 0.15 0"/>
<feBlend mode="normal" in2="shape" result="effect2_innerShadow_2047_396"/>
</filter>
<filter id="filter8_bi_2047_396" x="24.126" y="8.18457" width="29.748" height="22.8285" filterUnits="userSpaceOnUse" color-interpolation-filters="sRGB">
<feFlood flood-opacity="0" result="BackgroundImageFix"/>
<feGaussianBlur in="BackgroundImageFix" stdDeviation="3"/>
<feComposite in2="SourceAlpha" operator="in" result="effect1_backgroundBlur_2047_396"/>
<feBlend mode="normal" in="SourceGraphic" in2="effect1_backgroundBlur_2047_396" result="shape"/>
<feColorMatrix in="SourceAlpha" type="matrix" values="0 0 0 0 0 0 0 0 0 0 0 0 0 0 0 0 0 0 127 0" result="hardAlpha"/>
<feOffset dy="2"/>
<feGaussianBlur stdDeviation="1.5"/>
<feComposite in2="hardAlpha" operator="arithmetic" k2="-1" k3="1"/>
<feColorMatrix type="matrix" values="0 0 0 0 1 0 0 0 0 1 0 0 0 0 1 0 0 0 0.15 0"/>
<feBlend mode="normal" in2="shape" result="effect2_innerShadow_2047_396"/>
</filter>
<filter id="filter9_bi_2047_396" x="24" y="13.5898" width="21" height="27.252" filterUnits="userSpaceOnUse" color-interpolation-filters="sRGB">
<feFlood flood-opacity="0" result="BackgroundImageFix"/>
<feGaussianBlur in="BackgroundImageFix" stdDeviation="3"/>
<feComposite in2="SourceAlpha" operator="in" result="effect1_backgroundBlur_2047_396"/>
<feBlend mode="normal" in="SourceGraphic" in2="effect1_backgroundBlur_2047_396" result="shape"/>
<feColorMatrix in="SourceAlpha" type="matrix" values="0 0 0 0 0 0 0 0 0 0 0 0 0 0 0 0 0 0 127 0" result="hardAlpha"/>
<feOffset dy="2"/>
<feGaussianBlur stdDeviation="1.5"/>
<feComposite in2="hardAlpha" operator="arithmetic" k2="-1" k3="1"/>
<feColorMatrix type="matrix" values="0 0 0 0 1 0 0 0 0 1 0 0 0 0 1 0 0 0 0.15 0"/>
<feBlend mode="normal" in2="shape" result="effect2_innerShadow_2047_396"/>
</filter>
<filter id="filter10_bi_2047_396" x="33" y="13.5898" width="21" height="27.252" filterUnits="userSpaceOnUse" color-interpolation-filters="sRGB">
<feFlood flood-opacity="0" result="BackgroundImageFix"/>
<feGaussianBlur in="BackgroundImageFix" stdDeviation="3"/>
<feComposite in2="SourceAlpha" operator="in" result="effect1_backgroundBlur_2047_396"/>
<feBlend mode="normal" in="SourceGraphic" in2="effect1_backgroundBlur_2047_396" result="shape"/>
<feColorMatrix in="SourceAlpha" type="matrix" values="0 0 0 0 0 0 0 0 0 0 0 0 0 0 0 0 0 0 127 0" result="hardAlpha"/>
<feOffset dy="2"/>
<feGaussianBlur stdDeviation="1.5"/>
<feComposite in2="hardAlpha" operator="arithmetic" k2="-1" k3="1"/>
<feColorMatrix type="matrix" values="0 0 0 0 1 0 0 0 0 1 0 0 0 0 1 0 0 0 0.15 0"/>
<feBlend mode="normal" in2="shape" result="effect2_innerShadow_2047_396"/>
</filter>
<filter id="filter11_bi_2047_396" x="-5.87402" y="8.18457" width="29.748" height="22.8285" filterUnits="userSpaceOnUse" color-interpolation-filters="sRGB">
<feFlood flood-opacity="0" result="BackgroundImageFix"/>
<feGaussianBlur in="BackgroundImageFix" stdDeviation="3"/>
<feComposite in2="SourceAlpha" operator="in" result="effect1_backgroundBlur_2047_396"/>
<feBlend mode="normal" in="SourceGraphic" in2="effect1_backgroundBlur_2047_396" result="shape"/>
<feColorMatrix in="SourceAlpha" type="matrix" values="0 0 0 0 0 0 0 0 0 0 0 0 0 0 0 0 0 0 127 0" result="hardAlpha"/>
<feOffset dy="2"/>
<feGaussianBlur stdDeviation="1.5"/>
<feComposite in2="hardAlpha" operator="arithmetic" k2="-1" k3="1"/>
<feColorMatrix type="matrix" values="0 0 0 0 1 0 0 0 0 1 0 0 0 0 1 0 0 0 0.15 0"/>
<feBlend mode="normal" in2="shape" result="effect2_innerShadow_2047_396"/>
</filter>
<filter id="filter12_bi_2047_396" x="-6" y="13.5898" width="21" height="27.252" filterUnits="userSpaceOnUse" color-interpolation-filters="sRGB">
<feFlood flood-opacity="0" result="BackgroundImageFix"/>
<feGaussianBlur in="BackgroundImageFix" stdDeviation="3"/>
<feComposite in2="SourceAlpha" operator="in" result="effect1_backgroundBlur_2047_396"/>
<feBlend mode="normal" in="SourceGraphic" in2="effect1_backgroundBlur_2047_396" result="shape"/>
<feColorMatrix in="SourceAlpha" type="matrix" values="0 0 0 0 0 0 0 0 0 0 0 0 0 0 0 0 0 0 127 0" result="hardAlpha"/>
<feOffset dy="2"/>
<feGaussianBlur stdDeviation="1.5"/>
<feComposite in2="hardAlpha" operator="arithmetic" k2="-1" k3="1"/>
<feColorMatrix type="matrix" values="0 0 0 0 1 0 0 0 0 1 0 0 0 0 1 0 0 0 0.15 0"/>
<feBlend mode="normal" in2="shape" result="effect2_innerShadow_2047_396"/>
</filter>
<filter id="filter13_bi_2047_396" x="3" y="13.5898" width="21" height="27.252" filterUnits="userSpaceOnUse" color-interpolation-filters="sRGB">
<feFlood flood-opacity="0" result="BackgroundImageFix"/>
<feGaussianBlur in="BackgroundImageFix" stdDeviation="3"/>
<feComposite in2="SourceAlpha" operator="in" result="effect1_backgroundBlur_2047_396"/>
<feBlend mode="normal" in="SourceGraphic" in2="effect1_backgroundBlur_2047_396" result="shape"/>
<feColorMatrix in="SourceAlpha" type="matrix" values="0 0 0 0 0 0 0 0 0 0 0 0 0 0 0 0 0 0 127 0" result="hardAlpha"/>
<feOffset dy="2"/>
<feGaussianBlur stdDeviation="1.5"/>
<feComposite in2="hardAlpha" operator="arithmetic" k2="-1" k3="1"/>
<feColorMatrix type="matrix" values="0 0 0 0 1 0 0 0 0 1 0 0 0 0 1 0 0 0 0.15 0"/>
<feBlend mode="normal" in2="shape" result="effect2_innerShadow_2047_396"/>
</filter>
<filter id="filter14_bi_2047_396" x="9.12598" y="18.1729" width="29.748" height="22.8274" filterUnits="userSpaceOnUse" color-interpolation-filters="sRGB">
<feFlood flood-opacity="0" result="BackgroundImageFix"/>
<feGaussianBlur in="BackgroundImageFix" stdDeviation="3"/>
<feComposite in2="SourceAlpha" operator="in" result="effect1_backgroundBlur_2047_396"/>
<feBlend mode="normal" in="SourceGraphic" in2="effect1_backgroundBlur_2047_396" result="shape"/>
<feColorMatrix in="SourceAlpha" type="matrix" values="0 0 0 0 0 0 0 0 0 0 0 0 0 0 0 0 0 0 127 0" result="hardAlpha"/>
<feOffset dy="2"/>
<feGaussianBlur stdDeviation="1.5"/>
<feComposite in2="hardAlpha" operator="arithmetic" k2="-1" k3="1"/>
<feColorMatrix type="matrix" values="0 0 0 0 1 0 0 0 0 1 0 0 0 0 1 0 0 0 0.15 0"/>
<feBlend mode="normal" in2="shape" result="effect2_innerShadow_2047_396"/>
</filter>
<filter id="filter15_bi_2047_396" x="9" y="23.5771" width="21" height="27.251" filterUnits="userSpaceOnUse" color-interpolation-filters="sRGB">
<feFlood flood-opacity="0" result="BackgroundImageFix"/>
<feGaussianBlur in="BackgroundImageFix" stdDeviation="3"/>
<feComposite in2="SourceAlpha" operator="in" result="effect1_backgroundBlur_2047_396"/>
<feBlend mode="normal" in="SourceGraphic" in2="effect1_backgroundBlur_2047_396" result="shape"/>
<feColorMatrix in="SourceAlpha" type="matrix" values="0 0 0 0 0 0 0 0 0 0 0 0 0 0 0 0 0 0 127 0" result="hardAlpha"/>
<feOffset dy="2"/>
<feGaussianBlur stdDeviation="1.5"/>
<feComposite in2="hardAlpha" operator="arithmetic" k2="-1" k3="1"/>
<feColorMatrix type="matrix" values="0 0 0 0 1 0 0 0 0 1 0 0 0 0 1 0 0 0 0.15 0"/>
<feBlend mode="normal" in2="shape" result="effect2_innerShadow_2047_396"/>
</filter>
<filter id="filter16_bi_2047_396" x="18" y="23.5771" width="21" height="27.251" filterUnits="userSpaceOnUse" color-interpolation-filters="sRGB">
<feFlood flood-opacity="0" result="BackgroundImageFix"/>
<feGaussianBlur in="BackgroundImageFix" stdDeviation="3"/>
<feComposite in2="SourceAlpha" operator="in" result="effect1_backgroundBlur_2047_396"/>
<feBlend mode="normal" in="SourceGraphic" in2="effect1_backgroundBlur_2047_396" result="shape"/>
<feColorMatrix in="SourceAlpha" type="matrix" values="0 0 0 0 0 0 0 0 0 0 0 0 0 0 0 0 0 0 127 0" result="hardAlpha"/>
<feOffset dy="2"/>
<feGaussianBlur stdDeviation="1.5"/>
<feComposite in2="hardAlpha" operator="arithmetic" k2="-1" k3="1"/>
<feColorMatrix type="matrix" values="0 0 0 0 1 0 0 0 0 1 0 0 0 0 1 0 0 0 0.15 0"/>
<feBlend mode="normal" in2="shape" result="effect2_innerShadow_2047_396"/>
</filter>
<linearGradient id="paint0_linear_2047_396" x1="1.7417" y1="16.1836" x2="19.0952" y2="20.0232" gradientUnits="userSpaceOnUse">
<stop stop-color="#75A5FF"/>
<stop offset="0.703125" stop-color="#2339FF"/>
</linearGradient>
<linearGradient id="paint1_linear_2047_396" x1="1.7417" y1="16.1836" x2="19.0952" y2="20.0232" gradientUnits="userSpaceOnUse">
<stop stop-color="#75A5FF"/>
<stop offset="0.703125" stop-color="#2339FF"/>
</linearGradient>
<linearGradient id="paint2_linear_2047_396" x1="1.7417" y1="16.1836" x2="19.0952" y2="20.0232" gradientUnits="userSpaceOnUse">
<stop stop-color="#75A5FF"/>
<stop offset="0.703125" stop-color="#2339FF"/>
</linearGradient>
<linearGradient id="paint3_linear_2047_396" x1="1.74219" y1="16.1836" x2="19.0957" y2="20.0232" gradientUnits="userSpaceOnUse">
<stop stop-color="#75A5FF"/>
<stop offset="0.703125" stop-color="#2339FF"/>
</linearGradient>
<linearGradient id="paint4_linear_2047_396" x1="1.74219" y1="16.1836" x2="19.0957" y2="20.0232" gradientUnits="userSpaceOnUse">
<stop stop-color="#75A5FF"/>
<stop offset="0.703125" stop-color="#2339FF"/>
</linearGradient>
<linearGradient id="paint5_linear_2047_396" x1="1.74219" y1="16.1836" x2="19.0957" y2="20.0232" gradientUnits="userSpaceOnUse">
<stop stop-color="#75A5FF"/>
<stop offset="0.703125" stop-color="#2339FF"/>
</linearGradient>
<linearGradient id="paint6_linear_2047_396" x1="16.7422" y1="6.56458" x2="34.0957" y2="10.4041" gradientUnits="userSpaceOnUse">
<stop stop-color="#75A5FF"/>
<stop offset="0.703125" stop-color="#2339FF"/>
</linearGradient>
<linearGradient id="paint7_linear_2047_396" x1="16.7422" y1="6.56458" x2="34.0957" y2="10.4041" gradientUnits="userSpaceOnUse">
<stop stop-color="#75A5FF"/>
<stop offset="0.703125" stop-color="#2339FF"/>
</linearGradient>
<linearGradient id="paint8_linear_2047_396" x1="16.7422" y1="6.56458" x2="34.0957" y2="10.4041" gradientUnits="userSpaceOnUse">
<stop stop-color="#75A5FF"/>
<stop offset="0.703125" stop-color="#2339FF"/>
</linearGradient>
<linearGradient id="paint9_linear_2047_396" x1="31.7422" y1="16.1832" x2="49.0957" y2="20.0228" gradientUnits="userSpaceOnUse">
<stop stop-color="#75A5FF"/>
<stop offset="0.703125" stop-color="#2339FF"/>
</linearGradient>
<linearGradient id="paint10_linear_2047_396" x1="31.7422" y1="16.1832" x2="49.0957" y2="20.0228" gradientUnits="userSpaceOnUse">
<stop stop-color="#75A5FF"/>
<stop offset="0.703125" stop-color="#2339FF"/>
</linearGradient>
<linearGradient id="paint11_linear_2047_396" x1="31.7422" y1="16.1832" x2="49.0957" y2="20.0228" gradientUnits="userSpaceOnUse">
<stop stop-color="#75A5FF"/>
<stop offset="0.703125" stop-color="#2339FF"/>
</linearGradient>
<linearGradient id="paint12_linear_2047_396" x1="16.7417" y1="27.2153" x2="34.0952" y2="31.0549" gradientUnits="userSpaceOnUse">
<stop stop-color="#75A5FF"/>
<stop offset="0.703125" stop-color="#2339FF"/>
</linearGradient>
<linearGradient id="paint13_linear_2047_396" x1="16.7417" y1="27.2153" x2="34.0952" y2="31.0549" gradientUnits="userSpaceOnUse">
<stop stop-color="#75A5FF"/>
<stop offset="0.703125" stop-color="#2339FF"/>
</linearGradient>
<linearGradient id="paint14_linear_2047_396" x1="16.7417" y1="27.2153" x2="34.0952" y2="31.0549" gradientUnits="userSpaceOnUse">
<stop stop-color="#75A5FF"/>
<stop offset="0.703125" stop-color="#2339FF"/>
</linearGradient>
<linearGradient id="paint15_linear_2047_396" x1="15.126" y1="5.00098" x2="34.0945" y2="12.896" gradientUnits="userSpaceOnUse">
<stop stop-color="#87AFFF"/>
<stop offset="0.776042" stop-color="#5C6DFF"/>
</linearGradient>
<linearGradient id="paint16_linear_2047_396" x1="15.6806" y1="5.49313" x2="32.874" y2="5.49313" gradientUnits="userSpaceOnUse">
<stop stop-color="#3CDEB6"/>
<stop offset="0.65625" stop-color="#364AFF"/>
</linearGradient>
<linearGradient id="paint17_linear_2047_396" x1="15" y1="10.4053" x2="26.0374" y2="12.0592" gradientUnits="userSpaceOnUse">
<stop stop-color="#87AFFF"/>
<stop offset="0.776042" stop-color="#5C6DFF"/>
</linearGradient>
<linearGradient id="paint18_linear_2047_396" x1="15.2813" y1="11.0985" x2="24" y2="11.0985" gradientUnits="userSpaceOnUse">
<stop stop-color="#3CDEB6"/>
<stop offset="0.65625" stop-color="#364AFF"/>
</linearGradient>
<linearGradient id="paint19_linear_2047_396" x1="24" y1="10.4053" x2="35.0374" y2="12.0592" gradientUnits="userSpaceOnUse">
<stop stop-color="#87AFFF"/>
<stop offset="0.776042" stop-color="#5C6DFF"/>
</linearGradient>
<linearGradient id="paint20_linear_2047_396" x1="24.2813" y1="11.0985" x2="33" y2="11.0985" gradientUnits="userSpaceOnUse">
<stop stop-color="#3CDEB6"/>
<stop offset="0.65625" stop-color="#364AFF"/>
</linearGradient>
<linearGradient id="paint21_linear_2047_396" x1="30.126" y1="14.1846" x2="49.095" y2="22.079" gradientUnits="userSpaceOnUse">
<stop stop-color="#87AFFF"/>
<stop offset="0.776042" stop-color="#5C6DFF"/>
</linearGradient>
<linearGradient id="paint22_linear_2047_396" x1="30.6806" y1="14.6768" x2="47.874" y2="14.6768" gradientUnits="userSpaceOnUse">
<stop stop-color="#3CDEB6"/>
<stop offset="0.65625" stop-color="#364AFF"/>
</linearGradient>
<linearGradient id="paint23_linear_2047_396" x1="30" y1="19.5898" x2="41.0375" y2="21.2436" gradientUnits="userSpaceOnUse">
<stop stop-color="#87AFFF"/>
<stop offset="0.776042" stop-color="#5C6DFF"/>
</linearGradient>
<linearGradient id="paint24_linear_2047_396" x1="30.2813" y1="20.2831" x2="39" y2="20.2831" gradientUnits="userSpaceOnUse">
<stop stop-color="#3CDEB6"/>
<stop offset="0.65625" stop-color="#364AFF"/>
</linearGradient>
<linearGradient id="paint25_linear_2047_396" x1="39" y1="19.5898" x2="50.0375" y2="21.2436" gradientUnits="userSpaceOnUse">
<stop stop-color="#87AFFF"/>
<stop offset="0.776042" stop-color="#5C6DFF"/>
</linearGradient>
<linearGradient id="paint26_linear_2047_396" x1="39.2813" y1="20.2831" x2="48" y2="20.2831" gradientUnits="userSpaceOnUse">
<stop stop-color="#3CDEB6"/>
<stop offset="0.65625" stop-color="#364AFF"/>
</linearGradient>
<linearGradient id="paint27_linear_2047_396" x1="0.125977" y1="14.1846" x2="19.095" y2="22.079" gradientUnits="userSpaceOnUse">
<stop stop-color="#87AFFF"/>
<stop offset="0.776042" stop-color="#5C6DFF"/>
</linearGradient>
<linearGradient id="paint28_linear_2047_396" x1="0.680602" y1="14.6768" x2="17.874" y2="14.6768" gradientUnits="userSpaceOnUse">
<stop stop-color="#3CDEB6"/>
<stop offset="0.65625" stop-color="#364AFF"/>
</linearGradient>
<linearGradient id="paint29_linear_2047_396" x1="0" y1="19.5898" x2="11.0375" y2="21.2436" gradientUnits="userSpaceOnUse">
<stop stop-color="#87AFFF"/>
<stop offset="0.776042" stop-color="#5C6DFF"/>
</linearGradient>
<linearGradient id="paint30_linear_2047_396" x1="0.28125" y1="20.2831" x2="9" y2="20.2831" gradientUnits="userSpaceOnUse">
<stop stop-color="#3CDEB6"/>
<stop offset="0.65625" stop-color="#364AFF"/>
</linearGradient>
<linearGradient id="paint31_linear_2047_396" x1="9" y1="19.5898" x2="20.0375" y2="21.2436" gradientUnits="userSpaceOnUse">
<stop stop-color="#87AFFF"/>
<stop offset="0.776042" stop-color="#5C6DFF"/>
</linearGradient>
<linearGradient id="paint32_linear_2047_396" x1="9.28125" y1="20.2831" x2="18" y2="20.2831" gradientUnits="userSpaceOnUse">
<stop stop-color="#3CDEB6"/>
<stop offset="0.65625" stop-color="#364AFF"/>
</linearGradient>
<linearGradient id="paint33_linear_2047_396" x1="15.126" y1="24.1729" x2="34.0945" y2="32.0678" gradientUnits="userSpaceOnUse">
<stop stop-color="#87AFFF"/>
<stop offset="0.776042" stop-color="#5C6DFF"/>
</linearGradient>
<linearGradient id="paint34_linear_2047_396" x1="15.6806" y1="24.665" x2="32.874" y2="24.665" gradientUnits="userSpaceOnUse">
<stop stop-color="#3CDEB6"/>
<stop offset="0.65625" stop-color="#364AFF"/>
</linearGradient>
<linearGradient id="paint35_linear_2047_396" x1="15" y1="29.5771" x2="26.0374" y2="31.231" gradientUnits="userSpaceOnUse">
<stop stop-color="#87AFFF"/>
<stop offset="0.776042" stop-color="#5C6DFF"/>
</linearGradient>
<linearGradient id="paint36_linear_2047_396" x1="15.2813" y1="30.2704" x2="24" y2="30.2704" gradientUnits="userSpaceOnUse">
<stop stop-color="#3CDEB6"/>
<stop offset="0.65625" stop-color="#364AFF"/>
</linearGradient>
<linearGradient id="paint37_linear_2047_396" x1="24" y1="29.5771" x2="35.0374" y2="31.231" gradientUnits="userSpaceOnUse">
<stop stop-color="#87AFFF"/>
<stop offset="0.776042" stop-color="#5C6DFF"/>
</linearGradient>
<linearGradient id="paint38_linear_2047_396" x1="24.2813" y1="30.2704" x2="33" y2="30.2704" gradientUnits="userSpaceOnUse">
<stop stop-color="#3CDEB6"/>
<stop offset="0.65625" stop-color="#364AFF"/>
</linearGradient>
<clipPath id="clip0_2047_396">
<rect width="48" height="48" fill="white"/>
</clipPath>
</defs>
</svg>
