<svg width="76" height="76" viewBox="0 0 76 76" fill="none" xmlns="http://www.w3.org/2000/svg">
<g clip-path="url(#clip0_2980_2007)">
<path d="M56.7731 28.9143L52.2297 28.5839C51.9556 27.4789 51.5185 26.421 50.9328 25.4448L53.9066 22.0034C54.0433 21.8454 54.115 21.6415 54.1073 21.4327C54.0997 21.2239 54.0132 21.0258 53.8653 20.8783L51.5292 18.5422C51.3817 18.3948 51.184 18.3086 50.9756 18.3009C50.7672 18.2933 50.5637 18.3647 50.4057 18.5008L46.9676 21.4797C45.9916 20.8922 44.9337 20.4529 43.8286 20.1761L43.4982 15.6311C43.4815 15.4236 43.3872 15.2301 43.234 15.0892C43.0809 14.9483 42.8802 14.8704 42.6721 14.8711H39.3678C39.1586 14.8706 38.9571 14.9494 38.8037 15.0917C38.6504 15.2339 38.5568 15.4291 38.5417 15.6377L38.2113 20.1827C37.1066 20.4575 36.0487 20.8945 35.0722 21.4797L31.6292 18.5058C31.4713 18.3696 31.2677 18.2982 31.0593 18.3059C30.851 18.3135 30.6532 18.3997 30.5057 18.5471L28.1696 20.8832C28.0217 21.0308 27.9352 21.2289 27.9276 21.4377C27.9199 21.6464 27.9916 21.8503 28.1283 22.0083L31.1071 25.4448C30.5191 26.4206 30.0798 27.4786 29.8036 28.5839L25.2602 28.9143C25.0524 28.9305 24.8585 29.0247 24.7173 29.1779C24.576 29.3311 24.4979 29.532 24.4985 29.7404V33.0446C24.498 33.2541 24.5771 33.4559 24.7197 33.6092C24.8623 33.7626 25.0579 33.8561 25.2668 33.8707L29.8102 34.2011C30.0848 35.3059 30.5218 36.3638 31.1071 37.3402L28.1332 40.7833C27.9971 40.9412 27.9257 41.1447 27.9333 41.3531C27.941 41.5615 28.0271 41.7592 28.1746 41.9067L30.5107 44.2428C30.6582 44.3903 30.8559 44.4764 31.0643 44.4841C31.2727 44.4918 31.4762 44.4203 31.6341 44.2842L35.0722 41.3053C36.0483 41.8929 37.1062 42.3322 38.2113 42.6089L38.5417 47.1523C38.558 47.36 38.6521 47.5539 38.8053 47.6952C38.9585 47.8364 39.1594 47.9145 39.3678 47.9139H42.6721C42.8815 47.9144 43.0833 47.8354 43.2367 47.6927C43.39 47.5501 43.4835 47.3546 43.4982 47.1457L43.8286 42.6023C44.9333 42.3277 45.9912 41.8906 46.9676 41.3053L50.4107 44.2792C50.5686 44.4154 50.7722 44.4868 50.9805 44.4791C51.1889 44.4715 51.3867 44.3853 51.5342 44.2379L53.8703 41.9018C54.0177 41.7543 54.1039 41.5565 54.1115 41.3481C54.1192 41.1398 54.0478 40.9362 53.9116 40.7783L50.9328 37.3402C51.5204 36.3642 51.9597 35.3063 52.2363 34.2011L56.7797 33.8707C56.9874 33.8545 57.1814 33.7603 57.3226 33.6071C57.4638 33.4539 57.542 33.253 57.5413 33.0446V29.7404C57.5419 29.5309 57.4628 29.3291 57.3202 29.1758C57.1776 29.0224 56.982 28.929 56.7731 28.9143ZM41.0199 36.3489C40.0397 36.3489 39.0814 36.0582 38.2663 35.5136C37.4512 34.969 36.8159 34.1949 36.4408 33.2892C36.0657 32.3836 35.9675 31.387 36.1588 30.4256C36.35 29.4641 36.8221 28.5809 37.5152 27.8878C38.2084 27.1946 39.0915 26.7226 40.053 26.5313C41.0144 26.3401 42.011 26.4382 42.9167 26.8134C43.8223 27.1885 44.5964 27.8238 45.1411 28.6389C45.6857 29.4539 45.9764 30.4122 45.9764 31.3925C45.9764 32.707 45.4542 33.9677 44.5247 34.8972C43.5952 35.8267 42.3345 36.3489 41.0199 36.3489Z" fill="url(#paint0_linear_2980_2007)"/>
<g filter="url(#filter0_i_2980_2007)">
<path d="M56.7731 28.9143L52.2297 28.5839C51.9556 27.4789 51.5185 26.421 50.9328 25.4448L53.9066 22.0034C54.0433 21.8454 54.115 21.6415 54.1073 21.4327C54.0997 21.2239 54.0132 21.0258 53.8653 20.8783L51.5292 18.5422C51.3817 18.3948 51.184 18.3086 50.9756 18.3009C50.7672 18.2933 50.5637 18.3647 50.4058 18.5008L46.9676 21.4797C45.9916 20.8922 44.9337 20.4529 43.8286 20.1761L43.4982 15.6311C43.4815 15.4236 43.3872 15.2301 43.234 15.0892C43.0809 14.9483 42.8802 14.8704 42.6721 14.8711H39.3678C39.1586 14.8706 38.9571 14.9494 38.8037 15.0917C38.6504 15.2339 38.5568 15.4291 38.5417 15.6377L38.2113 20.1827C37.1066 20.4575 36.0487 20.8945 35.0722 21.4797L31.6292 18.5058C31.4713 18.3696 31.2677 18.2982 31.0593 18.3059C30.851 18.3135 30.6532 18.3997 30.5057 18.5471L28.1696 20.8832C28.0217 21.0308 27.9352 21.2289 27.9276 21.4377C27.9199 21.6464 27.9916 21.8503 28.1283 22.0083L31.1071 25.4448C30.5191 26.4206 30.0798 27.4786 29.8036 28.5839L25.2602 28.9143C25.0524 28.9305 24.8585 29.0247 24.7173 29.1779C24.576 29.3311 24.4979 29.532 24.4985 29.7404V33.0446C24.498 33.2541 24.5771 33.4559 24.7197 33.6092C24.8623 33.7626 25.0579 33.8561 25.2668 33.8707L29.8102 34.2011C30.0848 35.3059 30.5218 36.3638 31.1071 37.3402L28.1332 40.7833C27.9971 40.9412 27.9257 41.1447 27.9333 41.3531C27.941 41.5615 28.0271 41.7592 28.1746 41.9067L30.5107 44.2428C30.6582 44.3903 30.8559 44.4764 31.0643 44.4841C31.2727 44.4918 31.4762 44.4203 31.6341 44.2842L35.0722 41.3053C36.0483 41.8929 37.1062 42.3322 38.2113 42.6089L38.5417 47.1523C38.558 47.36 38.6521 47.5539 38.8053 47.6952C38.9585 47.8364 39.1594 47.9145 39.3678 47.9139H42.6721C42.8815 47.9144 43.0833 47.8354 43.2367 47.6927C43.39 47.5501 43.4835 47.3546 43.4982 47.1457L43.8286 42.6023C44.9334 42.3277 45.9912 41.8906 46.9676 41.3053L50.4107 44.2792C50.5686 44.4154 50.7722 44.4868 50.9805 44.4791C51.1889 44.4715 51.3867 44.3853 51.5342 44.2379L53.8703 41.9018C54.0177 41.7543 54.1039 41.5565 54.1115 41.3481C54.1192 41.1398 54.0478 40.9362 53.9116 40.7783L50.9328 37.3402C51.5204 36.3642 51.9597 35.3063 52.2363 34.2011L56.7797 33.8707C56.9874 33.8545 57.1814 33.7603 57.3226 33.6071C57.4638 33.4539 57.542 33.253 57.5413 33.0446V29.7404C57.5419 29.5309 57.4628 29.3291 57.3202 29.1758C57.1776 29.0224 56.982 28.929 56.7731 28.9143ZM41.0199 36.3489C40.0397 36.3489 39.0814 36.0582 38.2663 35.5136C37.4512 34.969 36.8159 34.1949 36.4408 33.2892C36.0657 32.3836 35.9675 31.387 36.1588 30.4256C36.35 29.4641 36.8221 28.5809 37.5152 27.8878C38.2084 27.1946 39.0915 26.7226 40.053 26.5313C41.0144 26.3401 42.011 26.4382 42.9167 26.8134C43.8223 27.1885 44.5964 27.8238 45.1411 28.6389C45.6857 29.4539 45.9764 30.4122 45.9764 31.3925C45.9764 32.707 45.4542 33.9677 44.5247 34.8972C43.5952 35.8267 42.3345 36.3489 41.0199 36.3489Z" fill="white"/>
</g>
<path d="M56.758 28.9143L52.2146 28.5839C51.9405 27.4789 51.5034 26.421 50.9176 25.4448L53.8915 22.0034C54.0282 21.8454 54.0999 21.6415 54.0922 21.4327C54.0845 21.2239 53.9981 21.0258 53.8502 20.8783L51.5141 18.5422C51.3666 18.3948 51.1688 18.3086 50.9605 18.3009C50.7521 18.2933 50.5485 18.3647 50.3906 18.5008L46.9525 21.4797C45.9764 20.8922 44.9185 20.4529 43.8134 20.1761L43.483 15.6311C43.4664 15.4236 43.372 15.2301 43.2189 15.0892C43.0657 14.9483 42.865 14.8704 42.6569 14.8711H39.3527C39.1435 14.8706 38.9419 14.9494 38.7886 15.0917C38.6353 15.2339 38.5417 15.4291 38.5266 15.6377L38.1962 20.1827C37.0914 20.4575 36.0336 20.8945 35.0571 21.4797L31.614 18.5058C31.4561 18.3696 31.2526 18.2982 31.0442 18.3059C30.8358 18.3135 30.6381 18.3997 30.4906 18.5471L28.1545 20.8832C28.0066 21.0308 27.9201 21.2289 27.9124 21.4377C27.9048 21.6464 27.9765 21.8503 28.1132 22.0083L31.092 25.4448C30.504 26.4206 30.0646 27.4786 29.7884 28.5839L25.245 28.9143C25.0373 28.9305 24.8434 29.0247 24.7021 29.1779C24.5609 29.3311 24.4828 29.532 24.4834 29.7404V33.0446C24.4829 33.2541 24.5619 33.4559 24.7046 33.6092C24.8472 33.7626 25.0427 33.8561 25.2516 33.8707L29.795 34.2011C30.0696 35.3059 30.5067 36.3638 31.092 37.3402L28.1181 40.7833C27.9819 40.9412 27.9105 41.1447 27.9182 41.3531C27.9258 41.5615 28.012 41.7592 28.1594 41.9067L30.4955 44.2428C30.643 44.3903 30.8408 44.4764 31.0492 44.4841C31.2575 44.4918 31.4611 44.4203 31.619 44.2842L35.0571 41.3053C36.0331 41.8929 37.091 42.3322 38.1962 42.6089L38.5266 47.1523C38.5428 47.36 38.637 47.5539 38.7902 47.6952C38.9434 47.8364 39.1443 47.9145 39.3527 47.9139H42.6569C42.8664 47.9144 43.0682 47.8354 43.2215 47.6927C43.3749 47.5501 43.4684 47.3546 43.483 47.1457L43.8134 42.6023C44.9182 42.3277 45.9761 41.8906 46.9525 41.3053L50.3956 44.2792C50.5535 44.4154 50.757 44.4868 50.9654 44.4791C51.1738 44.4715 51.3715 44.3853 51.519 44.2379L53.8552 41.9018C54.0026 41.7543 54.0887 41.5565 54.0964 41.3481C54.104 41.1398 54.0326 40.9362 53.8965 40.7783L50.9176 37.3402C51.5052 36.3642 51.9445 35.3063 52.2212 34.2011L56.7646 33.8707C56.9723 33.8545 57.1662 33.7603 57.3075 33.6071C57.4487 33.4539 57.5268 33.253 57.5262 33.0446V29.7404C57.5267 29.5309 57.4477 29.3291 57.305 29.1758C57.1624 29.0224 56.9669 28.929 56.758 28.9143ZM41.0048 36.3489C40.0245 36.3489 39.0662 36.0582 38.2512 35.5136C37.4361 34.969 36.8008 34.1949 36.4257 33.2892C36.0505 32.3836 35.9524 31.387 36.1436 30.4256C36.3349 29.4641 36.8069 28.5809 37.5001 27.8878C38.1933 27.1946 39.0764 26.7226 40.0379 26.5313C40.9993 26.3401 41.9959 26.4382 42.9015 26.8134C43.8072 27.1885 44.5813 27.8238 45.1259 28.6389C45.6705 29.4539 45.9612 30.4122 45.9612 31.3925C45.9612 32.707 45.439 33.9677 44.5095 34.8972C43.58 35.8267 42.3193 36.3489 41.0048 36.3489Z" fill="url(#paint1_linear_2980_2007)"/>
<g filter="url(#filter1_bi_2980_2007)">
<path d="M39.7953 0.0246824C22.808 0.662409 9.61567 15.1649 9.61567 32.1638V34.3116L3.92075 45.6964C3.72648 46.0846 3.61058 46.5072 3.57968 46.9401C3.54877 47.373 3.60346 47.8078 3.74062 48.2196C3.87778 48.6314 4.09473 49.0121 4.37906 49.3401C4.6634 49.668 5.00956 49.9367 5.39776 50.1308L9.61567 52.2389V61.1307C9.61567 63.3216 10.486 65.4228 12.0352 66.9719C13.5844 68.5211 15.6855 69.3914 17.8764 69.3914H29.4414V76H62.4842V54.2397C67.15 49.8666 70.3673 44.1715 71.7048 37.9182C73.0423 31.6648 72.436 25.152 69.9672 19.2529C67.4985 13.3538 63.2853 8.35052 57.8925 4.91376C52.4997 1.47699 46.1851 -0.228943 39.7953 0.0246824Z" fill="#1D1D1D" fill-opacity="0.05"/>
<path d="M39.7953 0.0246824C22.808 0.662409 9.61567 15.1649 9.61567 32.1638V34.3116L3.92075 45.6964C3.72648 46.0846 3.61058 46.5072 3.57968 46.9401C3.54877 47.373 3.60346 47.8078 3.74062 48.2196C3.87778 48.6314 4.09473 49.0121 4.37906 49.3401C4.6634 49.668 5.00956 49.9367 5.39776 50.1308L9.61567 52.2389V61.1307C9.61567 63.3216 10.486 65.4228 12.0352 66.9719C13.5844 68.5211 15.6855 69.3914 17.8764 69.3914H29.4414V76H62.4842V54.2397C67.15 49.8666 70.3673 44.1715 71.7048 37.9182C73.0423 31.6648 72.436 25.152 69.9672 19.2529C67.4985 13.3538 63.2853 8.35052 57.8925 4.91376C52.4997 1.47699 46.1851 -0.228943 39.7953 0.0246824Z" fill="url(#paint2_linear_2980_2007)" fill-opacity="0.2"/>
<path d="M39.8141 0.524332L39.8151 0.524289C46.1031 0.274707 52.317 1.95344 57.6238 5.33541C62.9306 8.71738 67.0766 13.6409 69.506 19.4459C71.9354 25.2509 72.532 31.6599 71.2158 37.8136C69.8997 43.9673 66.7336 49.5715 62.1422 53.8749L61.9842 54.023V54.2397V75.5H29.9414V69.3914V68.8914H29.4414H17.8764C15.8181 68.8914 13.8441 68.0738 12.3887 66.6184C10.9333 65.163 10.1157 63.189 10.1157 61.1307V52.2389V51.9299L9.83921 51.7917L5.62138 49.6836C5.29192 49.5188 4.99814 49.2908 4.75683 49.0125C4.51552 48.7342 4.3314 48.4111 4.215 48.0616C4.09859 47.7121 4.05218 47.3431 4.07841 46.9757C4.10464 46.6083 4.203 46.2496 4.36787 45.9202L4.36792 45.9201L10.0628 34.5352L10.1157 34.4296V34.3116V32.1638C10.1157 15.4174 23.1115 1.15137 39.8141 0.524332Z" stroke="url(#paint3_linear_2980_2007)" stroke-opacity="0.1"/>
</g>
<g filter="url(#filter2_i_2980_2007)">
<path d="M56.758 28.9143L52.2146 28.5839C51.9405 27.4789 51.5033 26.421 50.9176 25.4448L53.8915 22.0034C54.0281 21.8454 54.0999 21.6415 54.0922 21.4327C54.0845 21.2239 53.9981 21.0258 53.8502 20.8783L51.5141 18.5422C51.3666 18.3948 51.1688 18.3086 50.9604 18.3009C50.7521 18.2933 50.5485 18.3647 50.3906 18.5008L46.9525 21.4797C45.9764 20.8922 44.9185 20.4529 43.8134 20.1761L43.483 15.6311C43.4664 15.4236 43.372 15.2301 43.2189 15.0892C43.0657 14.9483 42.865 14.8704 42.6569 14.8711H39.3527C39.1435 14.8706 38.9419 14.9494 38.7886 15.0917C38.6353 15.2339 38.5417 15.4291 38.5266 15.6377L38.1962 20.1827C37.0914 20.4575 36.0336 20.8945 35.0571 21.4797L31.614 18.5058C31.4561 18.3696 31.2526 18.2982 31.0442 18.3059C30.8358 18.3135 30.6381 18.3997 30.4906 18.5471L28.1545 20.8832C28.0066 21.0308 27.9201 21.2289 27.9124 21.4377C27.9048 21.6464 27.9765 21.8503 28.1132 22.0083L31.092 25.4448C30.504 26.4206 30.0646 27.4786 29.7884 28.5839L25.245 28.9143C25.0373 28.9305 24.8434 29.0247 24.7021 29.1779C24.5609 29.3311 24.4828 29.532 24.4834 29.7404V33.0446C24.4829 33.2541 24.5619 33.4559 24.7046 33.6092C24.8472 33.7626 25.0427 33.8561 25.2516 33.8707L29.795 34.2011C30.0696 35.3059 30.5067 36.3638 31.092 37.3402L28.1181 40.7833C27.9819 40.9412 27.9105 41.1447 27.9182 41.3531C27.9258 41.5615 28.012 41.7592 28.1594 41.9067L30.4955 44.2428C30.643 44.3903 30.8408 44.4764 31.0492 44.4841C31.2575 44.4918 31.4611 44.4203 31.619 44.2842L35.0571 41.3053C36.0331 41.8929 37.091 42.3322 38.1962 42.6089L38.5266 47.1523C38.5428 47.36 38.637 47.5539 38.7902 47.6952C38.9434 47.8364 39.1443 47.9145 39.3527 47.9139H42.6569C42.8664 47.9144 43.0682 47.8354 43.2215 47.6927C43.3749 47.5501 43.4684 47.3546 43.483 47.1457L43.8134 42.6023C44.9182 42.3277 45.9761 41.8906 46.9525 41.3053L50.3956 44.2792C50.5535 44.4154 50.757 44.4868 50.9654 44.4791C51.1738 44.4715 51.3715 44.3853 51.519 44.2379L53.8551 41.9018C54.0026 41.7543 54.0887 41.5565 54.0964 41.3481C54.104 41.1398 54.0326 40.9362 53.8965 40.7783L50.9176 37.3402C51.5052 36.3642 51.9445 35.3063 52.2212 34.2011L56.7646 33.8707C56.9723 33.8545 57.1662 33.7603 57.3075 33.6071C57.4487 33.4539 57.5268 33.253 57.5262 33.0446V29.7404C57.5267 29.5309 57.4477 29.3291 57.305 29.1758C57.1624 29.0224 56.9669 28.929 56.758 28.9143ZM41.0048 36.3489C40.0245 36.3489 39.0662 36.0582 38.2512 35.5136C37.4361 34.969 36.8008 34.1949 36.4257 33.2892C36.0505 32.3836 35.9524 31.387 36.1436 30.4256C36.3349 29.4641 36.8069 28.5809 37.5001 27.8878C38.1933 27.1946 39.0764 26.7226 40.0379 26.5313C40.9993 26.3401 41.9959 26.4382 42.9015 26.8134C43.8072 27.1885 44.5813 27.8238 45.1259 28.6389C45.6705 29.4539 45.9612 30.4122 45.9612 31.3925C45.9612 32.707 45.439 33.9677 44.5095 34.8972C43.58 35.8267 42.3193 36.3489 41.0048 36.3489Z" fill="white" fill-opacity="0.1"/>
</g>
</g>
<defs>
<filter id="filter0_i_2980_2007" x="24.4985" y="14.8711" width="33.043" height="35.0428" filterUnits="userSpaceOnUse" color-interpolation-filters="sRGB">
<feFlood flood-opacity="0" result="BackgroundImageFix"/>
<feBlend mode="normal" in="SourceGraphic" in2="BackgroundImageFix" result="shape"/>
<feColorMatrix in="SourceAlpha" type="matrix" values="0 0 0 0 0 0 0 0 0 0 0 0 0 0 0 0 0 0 127 0" result="hardAlpha"/>
<feOffset dy="2"/>
<feGaussianBlur stdDeviation="1"/>
<feComposite in2="hardAlpha" operator="arithmetic" k2="-1" k3="1"/>
<feColorMatrix type="matrix" values="0 0 0 0 1 0 0 0 0 1 0 0 0 0 1 0 0 0 0.1 0"/>
<feBlend mode="normal" in2="shape" result="effect1_innerShadow_2980_2007"/>
</filter>
<filter id="filter1_bi_2980_2007" x="-8.42871" y="-12" width="92.8271" height="100" filterUnits="userSpaceOnUse" color-interpolation-filters="sRGB">
<feFlood flood-opacity="0" result="BackgroundImageFix"/>
<feGaussianBlur in="BackgroundImageFix" stdDeviation="6"/>
<feComposite in2="SourceAlpha" operator="in" result="effect1_backgroundBlur_2980_2007"/>
<feBlend mode="normal" in="SourceGraphic" in2="effect1_backgroundBlur_2980_2007" result="shape"/>
<feColorMatrix in="SourceAlpha" type="matrix" values="0 0 0 0 0 0 0 0 0 0 0 0 0 0 0 0 0 0 127 0" result="hardAlpha"/>
<feOffset dy="2"/>
<feGaussianBlur stdDeviation="4"/>
<feComposite in2="hardAlpha" operator="arithmetic" k2="-1" k3="1"/>
<feColorMatrix type="matrix" values="0 0 0 0 1 0 0 0 0 1 0 0 0 0 1 0 0 0 0.15 0"/>
<feBlend mode="normal" in2="shape" result="effect2_innerShadow_2980_2007"/>
</filter>
<filter id="filter2_i_2980_2007" x="24.4834" y="14.8711" width="33.043" height="35.0428" filterUnits="userSpaceOnUse" color-interpolation-filters="sRGB">
<feFlood flood-opacity="0" result="BackgroundImageFix"/>
<feBlend mode="normal" in="SourceGraphic" in2="BackgroundImageFix" result="shape"/>
<feColorMatrix in="SourceAlpha" type="matrix" values="0 0 0 0 0 0 0 0 0 0 0 0 0 0 0 0 0 0 127 0" result="hardAlpha"/>
<feOffset dy="2"/>
<feGaussianBlur stdDeviation="1"/>
<feComposite in2="hardAlpha" operator="arithmetic" k2="-1" k3="1"/>
<feColorMatrix type="matrix" values="0 0 0 0 1 0 0 0 0 1 0 0 0 0 1 0 0 0 0.1 0"/>
<feBlend mode="normal" in2="shape" result="effect1_innerShadow_2980_2007"/>
</filter>
<linearGradient id="paint0_linear_2980_2007" x1="24.4985" y1="14.8711" x2="63.422" y2="24.7545" gradientUnits="userSpaceOnUse">
<stop stop-color="#75A5FF"/>
<stop offset="0.703125" stop-color="white"/>
</linearGradient>
<linearGradient id="paint1_linear_2980_2007" x1="24.4834" y1="14.8711" x2="63.4068" y2="24.7545" gradientUnits="userSpaceOnUse">
<stop stop-color="#75A5FF"/>
<stop offset="0.703125" stop-color="#2339FF"/>
</linearGradient>
<linearGradient id="paint2_linear_2980_2007" x1="3.57129" y1="0" x2="85.5404" y2="18.8491" gradientUnits="userSpaceOnUse">
<stop stop-color="#87FFE1"/>
<stop offset="0.776042" stop-color="#5C6DFF"/>
</linearGradient>
<linearGradient id="paint3_linear_2980_2007" x1="5.72214" y1="3.45455" x2="72.3984" y2="3.45455" gradientUnits="userSpaceOnUse">
<stop stop-color="#3CDEB6"/>
<stop offset="0.65625" stop-color="#364AFF"/>
</linearGradient>
<clipPath id="clip0_2980_2007">
<rect width="76" height="76" fill="white"/>
</clipPath>
</defs>
</svg>
