<svg width="48" height="48" viewBox="0 0 48 48" fill="none" xmlns="http://www.w3.org/2000/svg">
<g filter="url(#filter0_i_2051_1318)">
<path d="M15 36C18.3137 36 21 33.3137 21 30C21 26.6863 18.3137 24 15 24C11.6863 24 9 26.6863 9 30C9 33.3137 11.6863 36 15 36Z" fill="url(#paint0_linear_2051_1318)"/>
</g>
<g filter="url(#filter1_i_2051_1318)">
<path d="M33 36C36.3137 36 39 33.3137 39 30C39 26.6863 36.3137 24 33 24C29.6863 24 27 26.6863 27 30C27 33.3137 29.6863 36 33 36Z" fill="url(#paint1_linear_2051_1318)"/>
</g>
<g filter="url(#filter2_i_2051_1318)">
<path d="M35.25 13.5C36.0784 13.5 36.75 12.8284 36.75 12C36.75 11.1716 36.0784 10.5 35.25 10.5C34.4216 10.5 33.75 11.1716 33.75 12C33.75 12.8284 34.4216 13.5 35.25 13.5Z" fill="url(#paint2_linear_2051_1318)"/>
</g>
<g filter="url(#filter3_i_2051_1318)">
<path d="M35.25 21C36.0784 21 36.75 20.3284 36.75 19.5C36.75 18.6716 36.0784 18 35.25 18C34.4216 18 33.75 18.6716 33.75 19.5C33.75 20.3284 34.4216 21 35.25 21Z" fill="url(#paint3_linear_2051_1318)"/>
</g>
<g filter="url(#filter4_i_2051_1318)">
<path d="M39 17.25C39.8284 17.25 40.5 16.5784 40.5 15.75C40.5 14.9216 39.8284 14.25 39 14.25C38.1716 14.25 37.5 14.9216 37.5 15.75C37.5 16.5784 38.1716 17.25 39 17.25Z" fill="url(#paint4_linear_2051_1318)"/>
</g>
<g filter="url(#filter5_i_2051_1318)">
<path d="M12.75 19.5C14.8211 19.5 16.5 17.8211 16.5 15.75C16.5 13.6789 14.8211 12 12.75 12C10.6789 12 9 13.6789 9 15.75C9 17.8211 10.6789 19.5 12.75 19.5Z" fill="url(#paint5_linear_2051_1318)"/>
</g>
<g filter="url(#filter6_i_2051_1318)">
<path d="M31.5 17.25C32.3284 17.25 33 16.5784 33 15.75C33 14.9216 32.3284 14.25 31.5 14.25C30.6716 14.25 30 14.9216 30 15.75C30 16.5784 30.6716 17.25 31.5 17.25Z" fill="url(#paint6_linear_2051_1318)"/>
</g>
<g filter="url(#filter7_bi_2051_1318)">
<path d="M34.788 35.7002L39.492 39.3467C40.414 40.0926 41.564 40.4998 42.75 40.5002C44.1424 40.5002 45.4777 39.947 46.4623 38.9625C47.4469 37.9779 48 36.6426 48 35.2502C47.9896 34.9605 47.9635 34.6716 47.922 34.3847L43.2555 13.8257C42.9001 12.3351 42.1359 10.9733 41.0488 9.89339C39.9618 8.81346 38.5949 8.05825 37.1021 7.71271C35.6092 7.36716 34.0496 7.44499 32.5986 7.93743C31.1475 8.42987 29.8627 9.31739 28.8885 10.5002H19.1115C18.1365 9.316 16.8502 8.42773 15.3974 7.93548C13.9447 7.44324 12.3833 7.3666 10.8893 7.71421C9.39534 8.06182 8.02816 8.81984 6.94192 9.90284C5.85568 10.9858 5.09357 12.3507 4.7415 13.8437L0.1155 34.1552L0.0780001 34.3832C0.036802 34.6706 0.0107659 34.96 0 35.2502C0 36.6426 0.553123 37.9779 1.53769 38.9625C2.52226 39.947 3.85761 40.5002 5.25 40.5002C6.42935 40.5007 7.57331 40.0973 8.4915 39.3572L18.63 31.5002H29.3715L34.788 35.7002Z" fill="#1D1D1D" fill-opacity="0.05"/>
<path d="M34.788 35.7002L39.492 39.3467C40.414 40.0926 41.564 40.4998 42.75 40.5002C44.1424 40.5002 45.4777 39.947 46.4623 38.9625C47.4469 37.9779 48 36.6426 48 35.2502C47.9896 34.9605 47.9635 34.6716 47.922 34.3847L43.2555 13.8257C42.9001 12.3351 42.1359 10.9733 41.0488 9.89339C39.9618 8.81346 38.5949 8.05825 37.1021 7.71271C35.6092 7.36716 34.0496 7.44499 32.5986 7.93743C31.1475 8.42987 29.8627 9.31739 28.8885 10.5002H19.1115C18.1365 9.316 16.8502 8.42773 15.3974 7.93548C13.9447 7.44324 12.3833 7.3666 10.8893 7.71421C9.39534 8.06182 8.02816 8.81984 6.94192 9.90284C5.85568 10.9858 5.09357 12.3507 4.7415 13.8437L0.1155 34.1552L0.0780001 34.3832C0.036802 34.6706 0.0107659 34.96 0 35.2502C0 36.6426 0.553123 37.9779 1.53769 38.9625C2.52226 39.947 3.85761 40.5002 5.25 40.5002C6.42935 40.5007 7.57331 40.0973 8.4915 39.3572L18.63 31.5002H29.3715L34.788 35.7002Z" fill="url(#paint7_linear_2051_1318)" fill-opacity="0.2"/>
<path d="M39.5863 39.2301L39.5839 39.2281L34.8799 35.5816L29.4634 31.3816L29.4228 31.3502H29.3715H18.63H18.5787L18.5381 31.3816L8.39962 39.2386L8.3996 39.2386L8.39736 39.2404C7.50586 39.959 6.39514 40.3507 5.25007 40.3502H5.25C3.8974 40.3502 2.60019 39.8129 1.64376 38.8564C0.687974 37.9006 0.150735 36.6045 0.150001 35.2529C0.160615 34.9695 0.186071 34.6868 0.226264 34.406L0.262769 34.184L4.8875 13.8781C4.88754 13.8779 4.88758 13.8777 4.88762 13.8776C5.23334 12.412 5.98151 11.0722 7.04783 10.0091C8.11428 8.9458 9.45655 8.20158 10.9233 7.86031C12.3901 7.51903 13.923 7.59427 15.3493 8.07755C16.7756 8.56083 18.0385 9.43292 18.9957 10.5955L19.0407 10.6502H19.1115H28.8885H28.9593L29.0043 10.5955C29.9607 9.4343 31.2222 8.56294 32.6468 8.07947C34.0714 7.596 35.6026 7.51959 37.0683 7.85885C38.5339 8.1981 39.8758 8.93955 40.9431 9.99981C42.0102 11.0599 42.7604 12.3966 43.1094 13.8596C43.1095 13.8599 43.1095 13.8602 43.1096 13.8605L47.7744 34.412C47.8145 34.6907 47.8398 34.9714 47.85 35.2528C47.8493 36.6045 47.3121 37.9006 46.3562 38.8564C45.3998 39.8129 44.1026 40.3502 42.75 40.3502C41.5984 40.3498 40.4817 39.9544 39.5863 39.2301Z" stroke="url(#paint8_linear_2051_1318)" stroke-opacity="0.1" stroke-width="0.3"/>
</g>
<g filter="url(#filter8_i_2051_1318)">
<path d="M15 36C18.3137 36 21 33.3137 21 30C21 26.6863 18.3137 24 15 24C11.6863 24 9 26.6863 9 30C9 33.3137 11.6863 36 15 36Z" fill="url(#paint9_linear_2051_1318)"/>
</g>
<g filter="url(#filter9_i_2051_1318)">
<path d="M33 36C36.3137 36 39 33.3137 39 30C39 26.6863 36.3137 24 33 24C29.6863 24 27 26.6863 27 30C27 33.3137 29.6863 36 33 36Z" fill="url(#paint10_linear_2051_1318)"/>
</g>
<g filter="url(#filter10_i_2051_1318)">
<path d="M15 33C16.6569 33 18 31.6569 18 30C18 28.3431 16.6569 27 15 27C13.3431 27 12 28.3431 12 30C12 31.6569 13.3431 33 15 33Z" fill="white" fill-opacity="0.1"/>
</g>
<g filter="url(#filter11_i_2051_1318)">
<path d="M33 33C34.6569 33 36 31.6569 36 30C36 28.3431 34.6569 27 33 27C31.3431 27 30 28.3431 30 30C30 31.6569 31.3431 33 33 33Z" fill="white" fill-opacity="0.1"/>
</g>
<g filter="url(#filter12_i_2051_1318)">
<path d="M35.25 13.5C36.0784 13.5 36.75 12.8284 36.75 12C36.75 11.1716 36.0784 10.5 35.25 10.5C34.4216 10.5 33.75 11.1716 33.75 12C33.75 12.8284 34.4216 13.5 35.25 13.5Z" fill="url(#paint11_linear_2051_1318)"/>
</g>
<g filter="url(#filter13_i_2051_1318)">
<path d="M35.25 21C36.0784 21 36.75 20.3284 36.75 19.5C36.75 18.6716 36.0784 18 35.25 18C34.4216 18 33.75 18.6716 33.75 19.5C33.75 20.3284 34.4216 21 35.25 21Z" fill="url(#paint12_linear_2051_1318)"/>
</g>
<g filter="url(#filter14_i_2051_1318)">
<path d="M39 17.25C39.8284 17.25 40.5 16.5784 40.5 15.75C40.5 14.9216 39.8284 14.25 39 14.25C38.1716 14.25 37.5 14.9216 37.5 15.75C37.5 16.5784 38.1716 17.25 39 17.25Z" fill="url(#paint13_linear_2051_1318)"/>
</g>
<g filter="url(#filter15_i_2051_1318)">
<path d="M12.75 19.5C14.8211 19.5 16.5 17.8211 16.5 15.75C16.5 13.6789 14.8211 12 12.75 12C10.6789 12 9 13.6789 9 15.75C9 17.8211 10.6789 19.5 12.75 19.5Z" fill="url(#paint14_linear_2051_1318)"/>
</g>
<g filter="url(#filter16_i_2051_1318)">
<path d="M31.5 17.25C32.3284 17.25 33 16.5784 33 15.75C33 14.9216 32.3284 14.25 31.5 14.25C30.6716 14.25 30 14.9216 30 15.75C30 16.5784 30.6716 17.25 31.5 17.25Z" fill="url(#paint15_linear_2051_1318)"/>
</g>
<defs>
<filter id="filter0_i_2051_1318" x="9" y="24" width="12" height="14" filterUnits="userSpaceOnUse" color-interpolation-filters="sRGB">
<feFlood flood-opacity="0" result="BackgroundImageFix"/>
<feBlend mode="normal" in="SourceGraphic" in2="BackgroundImageFix" result="shape"/>
<feColorMatrix in="SourceAlpha" type="matrix" values="0 0 0 0 0 0 0 0 0 0 0 0 0 0 0 0 0 0 127 0" result="hardAlpha"/>
<feOffset dy="2"/>
<feGaussianBlur stdDeviation="1"/>
<feComposite in2="hardAlpha" operator="arithmetic" k2="-1" k3="1"/>
<feColorMatrix type="matrix" values="0 0 0 0 1 0 0 0 0 1 0 0 0 0 1 0 0 0 0.1 0"/>
<feBlend mode="normal" in2="shape" result="effect1_innerShadow_2051_1318"/>
</filter>
<filter id="filter1_i_2051_1318" x="27" y="24" width="12" height="14" filterUnits="userSpaceOnUse" color-interpolation-filters="sRGB">
<feFlood flood-opacity="0" result="BackgroundImageFix"/>
<feBlend mode="normal" in="SourceGraphic" in2="BackgroundImageFix" result="shape"/>
<feColorMatrix in="SourceAlpha" type="matrix" values="0 0 0 0 0 0 0 0 0 0 0 0 0 0 0 0 0 0 127 0" result="hardAlpha"/>
<feOffset dy="2"/>
<feGaussianBlur stdDeviation="1"/>
<feComposite in2="hardAlpha" operator="arithmetic" k2="-1" k3="1"/>
<feColorMatrix type="matrix" values="0 0 0 0 1 0 0 0 0 1 0 0 0 0 1 0 0 0 0.1 0"/>
<feBlend mode="normal" in2="shape" result="effect1_innerShadow_2051_1318"/>
</filter>
<filter id="filter2_i_2051_1318" x="33.75" y="10.5" width="3" height="5" filterUnits="userSpaceOnUse" color-interpolation-filters="sRGB">
<feFlood flood-opacity="0" result="BackgroundImageFix"/>
<feBlend mode="normal" in="SourceGraphic" in2="BackgroundImageFix" result="shape"/>
<feColorMatrix in="SourceAlpha" type="matrix" values="0 0 0 0 0 0 0 0 0 0 0 0 0 0 0 0 0 0 127 0" result="hardAlpha"/>
<feOffset dy="2"/>
<feGaussianBlur stdDeviation="1"/>
<feComposite in2="hardAlpha" operator="arithmetic" k2="-1" k3="1"/>
<feColorMatrix type="matrix" values="0 0 0 0 1 0 0 0 0 1 0 0 0 0 1 0 0 0 0.1 0"/>
<feBlend mode="normal" in2="shape" result="effect1_innerShadow_2051_1318"/>
</filter>
<filter id="filter3_i_2051_1318" x="33.75" y="18" width="3" height="5" filterUnits="userSpaceOnUse" color-interpolation-filters="sRGB">
<feFlood flood-opacity="0" result="BackgroundImageFix"/>
<feBlend mode="normal" in="SourceGraphic" in2="BackgroundImageFix" result="shape"/>
<feColorMatrix in="SourceAlpha" type="matrix" values="0 0 0 0 0 0 0 0 0 0 0 0 0 0 0 0 0 0 127 0" result="hardAlpha"/>
<feOffset dy="2"/>
<feGaussianBlur stdDeviation="1"/>
<feComposite in2="hardAlpha" operator="arithmetic" k2="-1" k3="1"/>
<feColorMatrix type="matrix" values="0 0 0 0 1 0 0 0 0 1 0 0 0 0 1 0 0 0 0.1 0"/>
<feBlend mode="normal" in2="shape" result="effect1_innerShadow_2051_1318"/>
</filter>
<filter id="filter4_i_2051_1318" x="37.5" y="14.25" width="3" height="5" filterUnits="userSpaceOnUse" color-interpolation-filters="sRGB">
<feFlood flood-opacity="0" result="BackgroundImageFix"/>
<feBlend mode="normal" in="SourceGraphic" in2="BackgroundImageFix" result="shape"/>
<feColorMatrix in="SourceAlpha" type="matrix" values="0 0 0 0 0 0 0 0 0 0 0 0 0 0 0 0 0 0 127 0" result="hardAlpha"/>
<feOffset dy="2"/>
<feGaussianBlur stdDeviation="1"/>
<feComposite in2="hardAlpha" operator="arithmetic" k2="-1" k3="1"/>
<feColorMatrix type="matrix" values="0 0 0 0 1 0 0 0 0 1 0 0 0 0 1 0 0 0 0.1 0"/>
<feBlend mode="normal" in2="shape" result="effect1_innerShadow_2051_1318"/>
</filter>
<filter id="filter5_i_2051_1318" x="9" y="12" width="7.5" height="9.5" filterUnits="userSpaceOnUse" color-interpolation-filters="sRGB">
<feFlood flood-opacity="0" result="BackgroundImageFix"/>
<feBlend mode="normal" in="SourceGraphic" in2="BackgroundImageFix" result="shape"/>
<feColorMatrix in="SourceAlpha" type="matrix" values="0 0 0 0 0 0 0 0 0 0 0 0 0 0 0 0 0 0 127 0" result="hardAlpha"/>
<feOffset dy="2"/>
<feGaussianBlur stdDeviation="1"/>
<feComposite in2="hardAlpha" operator="arithmetic" k2="-1" k3="1"/>
<feColorMatrix type="matrix" values="0 0 0 0 1 0 0 0 0 1 0 0 0 0 1 0 0 0 0.1 0"/>
<feBlend mode="normal" in2="shape" result="effect1_innerShadow_2051_1318"/>
</filter>
<filter id="filter6_i_2051_1318" x="30" y="14.25" width="3" height="5" filterUnits="userSpaceOnUse" color-interpolation-filters="sRGB">
<feFlood flood-opacity="0" result="BackgroundImageFix"/>
<feBlend mode="normal" in="SourceGraphic" in2="BackgroundImageFix" result="shape"/>
<feColorMatrix in="SourceAlpha" type="matrix" values="0 0 0 0 0 0 0 0 0 0 0 0 0 0 0 0 0 0 127 0" result="hardAlpha"/>
<feOffset dy="2"/>
<feGaussianBlur stdDeviation="1"/>
<feComposite in2="hardAlpha" operator="arithmetic" k2="-1" k3="1"/>
<feColorMatrix type="matrix" values="0 0 0 0 1 0 0 0 0 1 0 0 0 0 1 0 0 0 0.1 0"/>
<feBlend mode="normal" in2="shape" result="effect1_innerShadow_2051_1318"/>
</filter>
<filter id="filter7_bi_2051_1318" x="-6" y="1.5" width="60" height="45.0002" filterUnits="userSpaceOnUse" color-interpolation-filters="sRGB">
<feFlood flood-opacity="0" result="BackgroundImageFix"/>
<feGaussianBlur in="BackgroundImageFix" stdDeviation="3"/>
<feComposite in2="SourceAlpha" operator="in" result="effect1_backgroundBlur_2051_1318"/>
<feBlend mode="normal" in="SourceGraphic" in2="effect1_backgroundBlur_2051_1318" result="shape"/>
<feColorMatrix in="SourceAlpha" type="matrix" values="0 0 0 0 0 0 0 0 0 0 0 0 0 0 0 0 0 0 127 0" result="hardAlpha"/>
<feOffset dy="1"/>
<feGaussianBlur stdDeviation="1.5"/>
<feComposite in2="hardAlpha" operator="arithmetic" k2="-1" k3="1"/>
<feColorMatrix type="matrix" values="0 0 0 0 1 0 0 0 0 1 0 0 0 0 1 0 0 0 0.15 0"/>
<feBlend mode="normal" in2="shape" result="effect2_innerShadow_2051_1318"/>
</filter>
<filter id="filter8_i_2051_1318" x="9" y="24" width="12" height="14" filterUnits="userSpaceOnUse" color-interpolation-filters="sRGB">
<feFlood flood-opacity="0" result="BackgroundImageFix"/>
<feBlend mode="normal" in="SourceGraphic" in2="BackgroundImageFix" result="shape"/>
<feColorMatrix in="SourceAlpha" type="matrix" values="0 0 0 0 0 0 0 0 0 0 0 0 0 0 0 0 0 0 127 0" result="hardAlpha"/>
<feOffset dy="2"/>
<feGaussianBlur stdDeviation="1"/>
<feComposite in2="hardAlpha" operator="arithmetic" k2="-1" k3="1"/>
<feColorMatrix type="matrix" values="0 0 0 0 1 0 0 0 0 1 0 0 0 0 1 0 0 0 0.1 0"/>
<feBlend mode="normal" in2="shape" result="effect1_innerShadow_2051_1318"/>
</filter>
<filter id="filter9_i_2051_1318" x="27" y="24" width="12" height="14" filterUnits="userSpaceOnUse" color-interpolation-filters="sRGB">
<feFlood flood-opacity="0" result="BackgroundImageFix"/>
<feBlend mode="normal" in="SourceGraphic" in2="BackgroundImageFix" result="shape"/>
<feColorMatrix in="SourceAlpha" type="matrix" values="0 0 0 0 0 0 0 0 0 0 0 0 0 0 0 0 0 0 127 0" result="hardAlpha"/>
<feOffset dy="2"/>
<feGaussianBlur stdDeviation="1"/>
<feComposite in2="hardAlpha" operator="arithmetic" k2="-1" k3="1"/>
<feColorMatrix type="matrix" values="0 0 0 0 1 0 0 0 0 1 0 0 0 0 1 0 0 0 0.1 0"/>
<feBlend mode="normal" in2="shape" result="effect1_innerShadow_2051_1318"/>
</filter>
<filter id="filter10_i_2051_1318" x="12" y="27" width="6" height="8" filterUnits="userSpaceOnUse" color-interpolation-filters="sRGB">
<feFlood flood-opacity="0" result="BackgroundImageFix"/>
<feBlend mode="normal" in="SourceGraphic" in2="BackgroundImageFix" result="shape"/>
<feColorMatrix in="SourceAlpha" type="matrix" values="0 0 0 0 0 0 0 0 0 0 0 0 0 0 0 0 0 0 127 0" result="hardAlpha"/>
<feOffset dy="2"/>
<feGaussianBlur stdDeviation="1"/>
<feComposite in2="hardAlpha" operator="arithmetic" k2="-1" k3="1"/>
<feColorMatrix type="matrix" values="0 0 0 0 1 0 0 0 0 1 0 0 0 0 1 0 0 0 0.1 0"/>
<feBlend mode="normal" in2="shape" result="effect1_innerShadow_2051_1318"/>
</filter>
<filter id="filter11_i_2051_1318" x="30" y="27" width="6" height="8" filterUnits="userSpaceOnUse" color-interpolation-filters="sRGB">
<feFlood flood-opacity="0" result="BackgroundImageFix"/>
<feBlend mode="normal" in="SourceGraphic" in2="BackgroundImageFix" result="shape"/>
<feColorMatrix in="SourceAlpha" type="matrix" values="0 0 0 0 0 0 0 0 0 0 0 0 0 0 0 0 0 0 127 0" result="hardAlpha"/>
<feOffset dy="2"/>
<feGaussianBlur stdDeviation="1"/>
<feComposite in2="hardAlpha" operator="arithmetic" k2="-1" k3="1"/>
<feColorMatrix type="matrix" values="0 0 0 0 1 0 0 0 0 1 0 0 0 0 1 0 0 0 0.1 0"/>
<feBlend mode="normal" in2="shape" result="effect1_innerShadow_2051_1318"/>
</filter>
<filter id="filter12_i_2051_1318" x="33.75" y="10.5" width="3" height="5" filterUnits="userSpaceOnUse" color-interpolation-filters="sRGB">
<feFlood flood-opacity="0" result="BackgroundImageFix"/>
<feBlend mode="normal" in="SourceGraphic" in2="BackgroundImageFix" result="shape"/>
<feColorMatrix in="SourceAlpha" type="matrix" values="0 0 0 0 0 0 0 0 0 0 0 0 0 0 0 0 0 0 127 0" result="hardAlpha"/>
<feOffset dy="2"/>
<feGaussianBlur stdDeviation="1"/>
<feComposite in2="hardAlpha" operator="arithmetic" k2="-1" k3="1"/>
<feColorMatrix type="matrix" values="0 0 0 0 1 0 0 0 0 1 0 0 0 0 1 0 0 0 0.1 0"/>
<feBlend mode="normal" in2="shape" result="effect1_innerShadow_2051_1318"/>
</filter>
<filter id="filter13_i_2051_1318" x="33.75" y="18" width="3" height="5" filterUnits="userSpaceOnUse" color-interpolation-filters="sRGB">
<feFlood flood-opacity="0" result="BackgroundImageFix"/>
<feBlend mode="normal" in="SourceGraphic" in2="BackgroundImageFix" result="shape"/>
<feColorMatrix in="SourceAlpha" type="matrix" values="0 0 0 0 0 0 0 0 0 0 0 0 0 0 0 0 0 0 127 0" result="hardAlpha"/>
<feOffset dy="2"/>
<feGaussianBlur stdDeviation="1"/>
<feComposite in2="hardAlpha" operator="arithmetic" k2="-1" k3="1"/>
<feColorMatrix type="matrix" values="0 0 0 0 1 0 0 0 0 1 0 0 0 0 1 0 0 0 0.1 0"/>
<feBlend mode="normal" in2="shape" result="effect1_innerShadow_2051_1318"/>
</filter>
<filter id="filter14_i_2051_1318" x="37.5" y="14.25" width="3" height="5" filterUnits="userSpaceOnUse" color-interpolation-filters="sRGB">
<feFlood flood-opacity="0" result="BackgroundImageFix"/>
<feBlend mode="normal" in="SourceGraphic" in2="BackgroundImageFix" result="shape"/>
<feColorMatrix in="SourceAlpha" type="matrix" values="0 0 0 0 0 0 0 0 0 0 0 0 0 0 0 0 0 0 127 0" result="hardAlpha"/>
<feOffset dy="2"/>
<feGaussianBlur stdDeviation="1"/>
<feComposite in2="hardAlpha" operator="arithmetic" k2="-1" k3="1"/>
<feColorMatrix type="matrix" values="0 0 0 0 1 0 0 0 0 1 0 0 0 0 1 0 0 0 0.1 0"/>
<feBlend mode="normal" in2="shape" result="effect1_innerShadow_2051_1318"/>
</filter>
<filter id="filter15_i_2051_1318" x="9" y="12" width="7.5" height="9.5" filterUnits="userSpaceOnUse" color-interpolation-filters="sRGB">
<feFlood flood-opacity="0" result="BackgroundImageFix"/>
<feBlend mode="normal" in="SourceGraphic" in2="BackgroundImageFix" result="shape"/>
<feColorMatrix in="SourceAlpha" type="matrix" values="0 0 0 0 0 0 0 0 0 0 0 0 0 0 0 0 0 0 127 0" result="hardAlpha"/>
<feOffset dy="2"/>
<feGaussianBlur stdDeviation="1"/>
<feComposite in2="hardAlpha" operator="arithmetic" k2="-1" k3="1"/>
<feColorMatrix type="matrix" values="0 0 0 0 1 0 0 0 0 1 0 0 0 0 1 0 0 0 0.1 0"/>
<feBlend mode="normal" in2="shape" result="effect1_innerShadow_2051_1318"/>
</filter>
<filter id="filter16_i_2051_1318" x="30" y="14.25" width="3" height="5" filterUnits="userSpaceOnUse" color-interpolation-filters="sRGB">
<feFlood flood-opacity="0" result="BackgroundImageFix"/>
<feBlend mode="normal" in="SourceGraphic" in2="BackgroundImageFix" result="shape"/>
<feColorMatrix in="SourceAlpha" type="matrix" values="0 0 0 0 0 0 0 0 0 0 0 0 0 0 0 0 0 0 127 0" result="hardAlpha"/>
<feOffset dy="2"/>
<feGaussianBlur stdDeviation="1"/>
<feComposite in2="hardAlpha" operator="arithmetic" k2="-1" k3="1"/>
<feColorMatrix type="matrix" values="0 0 0 0 1 0 0 0 0 1 0 0 0 0 1 0 0 0 0.1 0"/>
<feBlend mode="normal" in2="shape" result="effect1_innerShadow_2051_1318"/>
</filter>
<linearGradient id="paint0_linear_2051_1318" x1="9" y1="24" x2="23.1356" y2="27.5893" gradientUnits="userSpaceOnUse">
<stop stop-color="#75A5FF"/>
<stop offset="0.703125" stop-color="#2339FF"/>
</linearGradient>
<linearGradient id="paint1_linear_2051_1318" x1="27" y1="24" x2="41.1356" y2="27.5893" gradientUnits="userSpaceOnUse">
<stop stop-color="#75A5FF"/>
<stop offset="0.703125" stop-color="#2339FF"/>
</linearGradient>
<linearGradient id="paint2_linear_2051_1318" x1="33.75" y1="10.5" x2="37.2839" y2="11.3973" gradientUnits="userSpaceOnUse">
<stop stop-color="#75A5FF"/>
<stop offset="0.703125" stop-color="#2339FF"/>
</linearGradient>
<linearGradient id="paint3_linear_2051_1318" x1="33.75" y1="18" x2="37.2839" y2="18.8973" gradientUnits="userSpaceOnUse">
<stop stop-color="#75A5FF"/>
<stop offset="0.703125" stop-color="#2339FF"/>
</linearGradient>
<linearGradient id="paint4_linear_2051_1318" x1="37.5" y1="14.25" x2="41.0339" y2="15.1473" gradientUnits="userSpaceOnUse">
<stop stop-color="#75A5FF"/>
<stop offset="0.703125" stop-color="#2339FF"/>
</linearGradient>
<linearGradient id="paint5_linear_2051_1318" x1="9" y1="12" x2="17.8348" y2="14.2433" gradientUnits="userSpaceOnUse">
<stop stop-color="#75A5FF"/>
<stop offset="0.703125" stop-color="#2339FF"/>
</linearGradient>
<linearGradient id="paint6_linear_2051_1318" x1="30" y1="14.25" x2="33.5339" y2="15.1473" gradientUnits="userSpaceOnUse">
<stop stop-color="#75A5FF"/>
<stop offset="0.703125" stop-color="#2339FF"/>
</linearGradient>
<linearGradient id="paint7_linear_2051_1318" x1="0" y1="7.5" x2="52.9635" y2="27.0612" gradientUnits="userSpaceOnUse">
<stop stop-color="#87AFFF"/>
<stop offset="0.776042" stop-color="#5C6DFF"/>
</linearGradient>
<linearGradient id="paint8_linear_2051_1318" x1="1.5" y1="9.00001" x2="48" y2="9.00001" gradientUnits="userSpaceOnUse">
<stop stop-color="#3CA8DE"/>
<stop offset="0.65625" stop-color="#364AFF"/>
</linearGradient>
<linearGradient id="paint9_linear_2051_1318" x1="9" y1="24" x2="23.1356" y2="27.5893" gradientUnits="userSpaceOnUse">
<stop stop-color="#75A5FF"/>
<stop offset="0.703125" stop-color="#2339FF"/>
</linearGradient>
<linearGradient id="paint10_linear_2051_1318" x1="27" y1="24" x2="41.1356" y2="27.5893" gradientUnits="userSpaceOnUse">
<stop stop-color="#75A5FF"/>
<stop offset="0.703125" stop-color="#2339FF"/>
</linearGradient>
<linearGradient id="paint11_linear_2051_1318" x1="33.75" y1="10.5" x2="37.2839" y2="11.3973" gradientUnits="userSpaceOnUse">
<stop stop-color="#75A5FF"/>
<stop offset="0.703125" stop-color="#2339FF"/>
</linearGradient>
<linearGradient id="paint12_linear_2051_1318" x1="33.75" y1="18" x2="37.2839" y2="18.8973" gradientUnits="userSpaceOnUse">
<stop stop-color="#75A5FF"/>
<stop offset="0.703125" stop-color="#2339FF"/>
</linearGradient>
<linearGradient id="paint13_linear_2051_1318" x1="37.5" y1="14.25" x2="41.0339" y2="15.1473" gradientUnits="userSpaceOnUse">
<stop stop-color="#75A5FF"/>
<stop offset="0.703125" stop-color="#2339FF"/>
</linearGradient>
<linearGradient id="paint14_linear_2051_1318" x1="9" y1="12" x2="17.8348" y2="14.2433" gradientUnits="userSpaceOnUse">
<stop stop-color="#75A5FF"/>
<stop offset="0.703125" stop-color="#2339FF"/>
</linearGradient>
<linearGradient id="paint15_linear_2051_1318" x1="30" y1="14.25" x2="33.5339" y2="15.1473" gradientUnits="userSpaceOnUse">
<stop stop-color="#75A5FF"/>
<stop offset="0.703125" stop-color="#2339FF"/>
</linearGradient>
</defs>
</svg>
