<svg width="76" height="76" viewBox="0 0 76 76" fill="none" xmlns="http://www.w3.org/2000/svg">
<g filter="url(#filter0_i_2980_1980)">
<path d="M65.2457 51.4303L41.3701 37.9998L65.2457 24.5693C65.6111 24.3463 65.8756 23.9903 65.9837 23.5761C66.0918 23.1619 66.0349 22.722 65.825 22.3489C65.6151 21.9759 65.2687 21.6988 64.8586 21.5761C64.4485 21.4535 64.0068 21.4947 63.6266 21.6912L39.6535 35.1763V8.26069C39.6535 7.82251 39.4795 7.40227 39.1696 7.09243C38.8598 6.78259 38.4395 6.60852 38.0013 6.60852C37.5632 6.60852 37.1429 6.78259 36.8331 7.09243C36.5232 7.40227 36.3492 7.82251 36.3492 8.26069V35.1763L12.3761 21.6912C11.9959 21.4947 11.5542 21.4535 11.1441 21.5761C10.734 21.6988 10.3876 21.9759 10.1777 22.3489C9.96783 22.722 9.91094 23.1619 10.019 23.5761C10.127 23.9903 10.3916 24.3463 10.757 24.5693L34.6326 37.9998L10.757 51.4303C10.4391 51.6096 10.1896 51.8891 10.0473 52.2252C9.90498 52.5612 9.87795 52.9349 9.97041 53.288C10.0629 53.641 10.2696 53.9535 10.5584 54.1766C10.8471 54.3998 11.2016 54.5211 11.5666 54.5216C11.8498 54.522 12.1283 54.4485 12.3745 54.3084L36.3492 40.8234V67.7389C36.3492 68.1771 36.5232 68.5974 36.8331 68.9072C37.1429 69.2171 37.5632 69.3911 38.0013 69.3911C38.4395 69.3911 38.8598 69.2171 39.1696 68.9072C39.4795 68.5974 39.6535 68.1771 39.6535 67.7389V40.8234L63.6266 54.3084C63.8732 54.4488 64.1523 54.5223 64.4361 54.5216C64.8012 54.5215 65.156 54.4004 65.445 54.1774C65.734 53.9544 65.9411 53.6419 66.0337 53.2888C66.1264 52.9356 66.0995 52.5618 65.9572 52.2255C65.815 51.8893 65.5637 51.6097 65.2457 51.4303Z" fill="url(#paint0_linear_2980_1980)"/>
</g>
<g filter="url(#filter1_bi_2980_1980)">
<path d="M37.9996 46.262C36.3658 46.262 34.7686 45.7775 33.4102 44.8698C32.0517 43.9621 30.9928 42.6719 30.3676 41.1624C29.7423 39.6529 29.5788 37.9919 29.8975 36.3895C30.2163 34.787 31.003 33.3151 32.1583 32.1598C33.3136 31.0045 34.7856 30.2177 36.388 29.899C37.9905 29.5802 39.6515 29.7438 41.1609 30.3691C42.6704 30.9943 43.9606 32.0531 44.8683 33.4116C45.776 34.7701 46.2605 36.3673 46.2605 38.0011C46.2579 40.1912 45.3867 42.2909 43.8381 43.8395C42.2894 45.3882 40.1898 46.2594 37.9996 46.262Z" fill="url(#paint1_linear_2980_1980)" fill-opacity="0.2"/>
<path d="M37.999 45.762C36.4643 45.7619 34.964 45.3067 33.6879 44.454C32.4117 43.6013 31.4169 42.3892 30.8295 40.9711C30.2421 39.553 30.0884 37.9925 30.3879 36.487C30.6874 34.9816 31.4265 33.5987 32.5119 32.5133C33.5973 31.428 34.9801 30.6888 36.4856 30.3894C37.991 30.0899 39.5515 30.2436 40.9696 30.831C42.3877 31.4184 43.5998 32.4131 44.4526 33.6894C45.3052 34.9655 45.7604 36.4658 45.7605 38.0005C45.758 40.0582 44.9395 42.031 43.4845 43.486C42.0295 44.941 40.0568 45.7595 37.999 45.762Z" stroke="url(#paint2_linear_2980_1980)" stroke-opacity="0.1"/>
</g>
<g filter="url(#filter2_bi_2980_1980)">
<path d="M64.4357 31.3899C68.998 31.3899 72.6965 27.6914 72.6965 23.129C72.6965 18.5667 68.998 14.8682 64.4357 14.8682C59.8733 14.8682 56.1748 18.5667 56.1748 23.129C56.1748 27.6914 59.8733 31.3899 64.4357 31.3899Z" fill="url(#paint3_linear_2980_1980)" fill-opacity="0.2"/>
<path d="M72.1965 23.129C72.1965 27.4152 68.7219 30.8899 64.4357 30.8899C60.1495 30.8899 56.6748 27.4152 56.6748 23.129C56.6748 18.8428 60.1495 15.3682 64.4357 15.3682C68.7219 15.3682 72.1965 18.8428 72.1965 23.129Z" stroke="url(#paint4_linear_2980_1980)" stroke-opacity="0.1"/>
</g>
<g filter="url(#filter3_i_2980_1980)">
<path d="M64.4354 54.52C63.9972 54.52 63.577 54.346 63.2671 54.0361C62.9573 53.7263 62.7832 53.3061 62.7832 52.8679V23.1287C62.7832 22.6906 62.9573 22.2703 63.2671 21.9605C63.577 21.6506 63.9972 21.4766 64.4354 21.4766C64.8736 21.4766 65.2938 21.6506 65.6036 21.9605C65.9135 22.2703 66.0876 22.6906 66.0876 23.1287V52.8679C66.0876 53.3061 65.9135 53.7263 65.6036 54.0361C65.2938 54.346 64.8736 54.52 64.4354 54.52Z" fill="url(#paint5_linear_2980_1980)"/>
</g>
<g filter="url(#filter4_bi_2980_1980)">
<path d="M64.4357 61.1303C68.998 61.1303 72.6965 57.4317 72.6965 52.8694C72.6965 48.307 68.998 44.6085 64.4357 44.6085C59.8733 44.6085 56.1748 48.307 56.1748 52.8694C56.1748 57.4317 59.8733 61.1303 64.4357 61.1303Z" fill="url(#paint6_linear_2980_1980)" fill-opacity="0.2"/>
<path d="M72.1965 52.8694C72.1965 57.1556 68.7219 60.6303 64.4357 60.6303C60.1495 60.6303 56.6748 57.1556 56.6748 52.8694C56.6748 48.5832 60.1495 45.1085 64.4357 45.1085C68.7219 45.1085 72.1965 48.5832 72.1965 52.8694Z" stroke="url(#paint7_linear_2980_1980)" stroke-opacity="0.1"/>
</g>
<g filter="url(#filter5_i_2980_1980)">
<path d="M37.9994 69.3902C37.6343 69.3901 37.2795 69.269 36.9905 69.046C36.7015 68.823 36.4944 68.5105 36.4018 68.1574C36.3091 67.8042 36.336 67.4304 36.4783 67.0942C36.6205 66.7579 36.8702 66.4783 37.1881 66.299L63.6229 51.4294C64.0032 51.2329 64.4449 51.1916 64.8549 51.3143C65.265 51.437 65.6115 51.714 65.8213 52.0871C66.0312 52.4601 66.0881 52.9001 65.9801 53.3143C65.872 53.7284 65.6074 54.0845 65.2421 54.3075L38.8073 69.177C38.5611 69.3171 38.2826 69.3906 37.9994 69.3902Z" fill="url(#paint8_linear_2980_1980)"/>
</g>
<g filter="url(#filter6_bi_2980_1980)">
<path d="M37.9996 75.9983C42.562 75.9983 46.2605 72.2998 46.2605 67.7374C46.2605 63.1751 42.562 59.4766 37.9996 59.4766C33.4373 59.4766 29.7388 63.1751 29.7388 67.7374C29.7388 72.2998 33.4373 75.9983 37.9996 75.9983Z" fill="url(#paint9_linear_2980_1980)" fill-opacity="0.2"/>
<path d="M45.7605 67.7374C45.7605 72.0236 42.2858 75.4983 37.9996 75.4983C33.7134 75.4983 30.2388 72.0236 30.2388 67.7374C30.2388 63.4512 33.7134 59.9766 37.9996 59.9766C42.2858 59.9766 45.7605 63.4512 45.7605 67.7374Z" stroke="url(#paint10_linear_2980_1980)" stroke-opacity="0.1"/>
</g>
<g filter="url(#filter7_i_2980_1980)">
<path d="M37.9986 69.3902C37.7153 69.3906 37.4368 69.3171 37.1907 69.177L10.7559 54.3075C10.3905 54.0845 10.1259 53.7284 10.0179 53.3143C9.90982 52.9001 9.96671 52.4601 10.1766 52.0871C10.3865 51.714 10.7329 51.437 11.143 51.3143C11.5531 51.1916 11.9947 51.2329 12.375 51.4294L38.8098 66.299C39.1278 66.4783 39.3774 66.7579 39.5197 67.0942C39.6619 67.4304 39.6888 67.8042 39.5962 68.1574C39.5035 68.5105 39.2965 68.823 39.0074 69.046C38.7184 69.269 38.3636 69.3901 37.9986 69.3902Z" fill="url(#paint11_linear_2980_1980)"/>
</g>
<g filter="url(#filter8_bi_2980_1980)">
<path d="M11.5656 61.1303C16.1279 61.1303 19.8264 57.4317 19.8264 52.8694C19.8264 48.307 16.1279 44.6085 11.5656 44.6085C7.0032 44.6085 3.30469 48.307 3.30469 52.8694C3.30469 57.4317 7.0032 61.1303 11.5656 61.1303Z" fill="url(#paint12_linear_2980_1980)" fill-opacity="0.2"/>
<path d="M19.3264 52.8694C19.3264 57.1556 15.8518 60.6303 11.5656 60.6303C7.27935 60.6303 3.80469 57.1556 3.80469 52.8694C3.80469 48.5832 7.27935 45.1085 11.5656 45.1085C15.8518 45.1085 19.3264 48.5832 19.3264 52.8694Z" stroke="url(#paint13_linear_2980_1980)" stroke-opacity="0.1"/>
</g>
<g filter="url(#filter9_i_2980_1980)">
<path d="M11.5657 54.52C11.1276 54.52 10.7073 54.346 10.3975 54.0361C10.0876 53.7263 9.91357 53.3061 9.91357 52.8679V23.1287C9.91357 22.6906 10.0876 22.2703 10.3975 21.9605C10.7073 21.6506 11.1276 21.4766 11.5657 21.4766C12.0039 21.4766 12.4242 21.6506 12.734 21.9605C13.0439 22.2703 13.2179 22.6906 13.2179 23.1287V52.8679C13.2179 53.3061 13.0439 53.7263 12.734 54.0361C12.4242 54.346 12.0039 54.52 11.5657 54.52Z" fill="url(#paint14_linear_2980_1980)"/>
</g>
<g filter="url(#filter10_bi_2980_1980)">
<path d="M11.5656 31.3899C16.1279 31.3899 19.8264 27.6914 19.8264 23.129C19.8264 18.5667 16.1279 14.8682 11.5656 14.8682C7.0032 14.8682 3.30469 18.5667 3.30469 23.129C3.30469 27.6914 7.0032 31.3899 11.5656 31.3899Z" fill="url(#paint15_linear_2980_1980)" fill-opacity="0.2"/>
<path d="M19.3264 23.129C19.3264 27.4152 15.8518 30.8899 11.5656 30.8899C7.27935 30.8899 3.80469 27.4152 3.80469 23.129C3.80469 18.8428 7.27935 15.3682 11.5656 15.3682C15.8518 15.3682 19.3264 18.8428 19.3264 23.129Z" stroke="url(#paint16_linear_2980_1980)" stroke-opacity="0.1"/>
</g>
<g filter="url(#filter11_i_2980_1980)">
<path d="M11.5653 24.7837C11.2002 24.7836 10.8454 24.6626 10.5564 24.4396C10.2674 24.2165 10.0604 23.904 9.96769 23.5509C9.87502 23.1978 9.90192 22.8239 10.0442 22.4877C10.1865 22.1515 10.4361 21.8719 10.7541 21.6925L37.1889 6.82293C37.3783 6.70733 37.589 6.63108 37.8086 6.59872C38.0281 6.56636 38.2519 6.57855 38.4666 6.63457C38.6813 6.69059 38.8825 6.78928 39.0583 6.92477C39.234 7.06026 39.3807 7.22976 39.4895 7.42315C39.5983 7.61655 39.667 7.82988 39.6915 8.05042C39.7161 8.27096 39.696 8.49419 39.6324 8.70678C39.5688 8.91937 39.463 9.11697 39.3213 9.28779C39.1797 9.45861 39.0051 9.59915 38.808 9.70101L12.3732 24.5706C12.127 24.7107 11.8485 24.7841 11.5653 24.7837Z" fill="url(#paint17_linear_2980_1980)"/>
</g>
<g filter="url(#filter12_bi_2980_1980)">
<path d="M37.9996 16.5217C42.562 16.5217 46.2605 12.8232 46.2605 8.26087C46.2605 3.69852 42.562 0 37.9996 0C33.4373 0 29.7388 3.69852 29.7388 8.26087C29.7388 12.8232 33.4373 16.5217 37.9996 16.5217Z" fill="url(#paint18_linear_2980_1980)" fill-opacity="0.2"/>
<path d="M45.7605 8.26087C45.7605 12.5471 42.2858 16.0217 37.9996 16.0217C33.7134 16.0217 30.2388 12.5471 30.2388 8.26087C30.2388 3.97466 33.7134 0.5 37.9996 0.5C42.2858 0.5 45.7605 3.97466 45.7605 8.26087Z" stroke="url(#paint19_linear_2980_1980)" stroke-opacity="0.1"/>
</g>
<g filter="url(#filter13_i_2980_1980)">
<path d="M58.2219 17.7403L38.8106 6.82111C38.4303 6.62461 37.9886 6.58336 37.5785 6.70604C37.1685 6.82872 36.822 7.10577 36.6121 7.47882C36.4023 7.85187 36.3454 8.29181 36.4534 8.70598C36.5615 9.12015 36.8261 9.47622 37.1914 9.69919L56.6045 20.6201C56.9424 19.5602 57.4927 18.5804 58.2219 17.7403Z" fill="url(#paint20_linear_2980_1980)"/>
</g>
<defs>
<filter id="filter0_i_2980_1980" x="9.9165" y="6.60852" width="56.1714" height="64.7826" filterUnits="userSpaceOnUse" color-interpolation-filters="sRGB">
<feFlood flood-opacity="0" result="BackgroundImageFix"/>
<feBlend mode="normal" in="SourceGraphic" in2="BackgroundImageFix" result="shape"/>
<feColorMatrix in="SourceAlpha" type="matrix" values="0 0 0 0 0 0 0 0 0 0 0 0 0 0 0 0 0 0 127 0" result="hardAlpha"/>
<feOffset dy="2"/>
<feGaussianBlur stdDeviation="1"/>
<feComposite in2="hardAlpha" operator="arithmetic" k2="-1" k3="1"/>
<feColorMatrix type="matrix" values="0 0 0 0 1 0 0 0 0 1 0 0 0 0 1 0 0 0 0.4 0"/>
<feBlend mode="normal" in2="shape" result="effect1_innerShadow_2980_1980"/>
</filter>
<filter id="filter1_bi_2980_1980" x="17.7388" y="17.7402" width="40.5217" height="40.5217" filterUnits="userSpaceOnUse" color-interpolation-filters="sRGB">
<feFlood flood-opacity="0" result="BackgroundImageFix"/>
<feGaussianBlur in="BackgroundImageFix" stdDeviation="6"/>
<feComposite in2="SourceAlpha" operator="in" result="effect1_backgroundBlur_2980_1980"/>
<feBlend mode="normal" in="SourceGraphic" in2="effect1_backgroundBlur_2980_1980" result="shape"/>
<feColorMatrix in="SourceAlpha" type="matrix" values="0 0 0 0 0 0 0 0 0 0 0 0 0 0 0 0 0 0 127 0" result="hardAlpha"/>
<feOffset dy="2"/>
<feGaussianBlur stdDeviation="4"/>
<feComposite in2="hardAlpha" operator="arithmetic" k2="-1" k3="1"/>
<feColorMatrix type="matrix" values="0 0 0 0 1 0 0 0 0 1 0 0 0 0 1 0 0 0 0.4 0"/>
<feBlend mode="normal" in2="shape" result="effect2_innerShadow_2980_1980"/>
</filter>
<filter id="filter2_bi_2980_1980" x="44.1748" y="2.86816" width="40.5217" height="40.5217" filterUnits="userSpaceOnUse" color-interpolation-filters="sRGB">
<feFlood flood-opacity="0" result="BackgroundImageFix"/>
<feGaussianBlur in="BackgroundImageFix" stdDeviation="6"/>
<feComposite in2="SourceAlpha" operator="in" result="effect1_backgroundBlur_2980_1980"/>
<feBlend mode="normal" in="SourceGraphic" in2="effect1_backgroundBlur_2980_1980" result="shape"/>
<feColorMatrix in="SourceAlpha" type="matrix" values="0 0 0 0 0 0 0 0 0 0 0 0 0 0 0 0 0 0 127 0" result="hardAlpha"/>
<feOffset dy="2"/>
<feGaussianBlur stdDeviation="4"/>
<feComposite in2="hardAlpha" operator="arithmetic" k2="-1" k3="1"/>
<feColorMatrix type="matrix" values="0 0 0 0 1 0 0 0 0 1 0 0 0 0 1 0 0 0 0.4 0"/>
<feBlend mode="normal" in2="shape" result="effect2_innerShadow_2980_1980"/>
</filter>
<filter id="filter3_i_2980_1980" x="62.7832" y="21.4766" width="3.30444" height="35.0435" filterUnits="userSpaceOnUse" color-interpolation-filters="sRGB">
<feFlood flood-opacity="0" result="BackgroundImageFix"/>
<feBlend mode="normal" in="SourceGraphic" in2="BackgroundImageFix" result="shape"/>
<feColorMatrix in="SourceAlpha" type="matrix" values="0 0 0 0 0 0 0 0 0 0 0 0 0 0 0 0 0 0 127 0" result="hardAlpha"/>
<feOffset dy="2"/>
<feGaussianBlur stdDeviation="1"/>
<feComposite in2="hardAlpha" operator="arithmetic" k2="-1" k3="1"/>
<feColorMatrix type="matrix" values="0 0 0 0 1 0 0 0 0 1 0 0 0 0 1 0 0 0 0.4 0"/>
<feBlend mode="normal" in2="shape" result="effect1_innerShadow_2980_1980"/>
</filter>
<filter id="filter4_bi_2980_1980" x="44.1748" y="32.6085" width="40.5217" height="40.5217" filterUnits="userSpaceOnUse" color-interpolation-filters="sRGB">
<feFlood flood-opacity="0" result="BackgroundImageFix"/>
<feGaussianBlur in="BackgroundImageFix" stdDeviation="6"/>
<feComposite in2="SourceAlpha" operator="in" result="effect1_backgroundBlur_2980_1980"/>
<feBlend mode="normal" in="SourceGraphic" in2="effect1_backgroundBlur_2980_1980" result="shape"/>
<feColorMatrix in="SourceAlpha" type="matrix" values="0 0 0 0 0 0 0 0 0 0 0 0 0 0 0 0 0 0 127 0" result="hardAlpha"/>
<feOffset dy="2"/>
<feGaussianBlur stdDeviation="4"/>
<feComposite in2="hardAlpha" operator="arithmetic" k2="-1" k3="1"/>
<feColorMatrix type="matrix" values="0 0 0 0 1 0 0 0 0 1 0 0 0 0 1 0 0 0 0.4 0"/>
<feBlend mode="normal" in2="shape" result="effect2_innerShadow_2980_1980"/>
</filter>
<filter id="filter5_i_2980_1980" x="36.3477" y="51.245" width="29.686" height="20.1451" filterUnits="userSpaceOnUse" color-interpolation-filters="sRGB">
<feFlood flood-opacity="0" result="BackgroundImageFix"/>
<feBlend mode="normal" in="SourceGraphic" in2="BackgroundImageFix" result="shape"/>
<feColorMatrix in="SourceAlpha" type="matrix" values="0 0 0 0 0 0 0 0 0 0 0 0 0 0 0 0 0 0 127 0" result="hardAlpha"/>
<feOffset dy="2"/>
<feGaussianBlur stdDeviation="1"/>
<feComposite in2="hardAlpha" operator="arithmetic" k2="-1" k3="1"/>
<feColorMatrix type="matrix" values="0 0 0 0 1 0 0 0 0 1 0 0 0 0 1 0 0 0 0.4 0"/>
<feBlend mode="normal" in2="shape" result="effect1_innerShadow_2980_1980"/>
</filter>
<filter id="filter6_bi_2980_1980" x="17.7388" y="47.4766" width="40.5217" height="40.5217" filterUnits="userSpaceOnUse" color-interpolation-filters="sRGB">
<feFlood flood-opacity="0" result="BackgroundImageFix"/>
<feGaussianBlur in="BackgroundImageFix" stdDeviation="6"/>
<feComposite in2="SourceAlpha" operator="in" result="effect1_backgroundBlur_2980_1980"/>
<feBlend mode="normal" in="SourceGraphic" in2="effect1_backgroundBlur_2980_1980" result="shape"/>
<feColorMatrix in="SourceAlpha" type="matrix" values="0 0 0 0 0 0 0 0 0 0 0 0 0 0 0 0 0 0 127 0" result="hardAlpha"/>
<feOffset dy="2"/>
<feGaussianBlur stdDeviation="4"/>
<feComposite in2="hardAlpha" operator="arithmetic" k2="-1" k3="1"/>
<feColorMatrix type="matrix" values="0 0 0 0 1 0 0 0 0 1 0 0 0 0 1 0 0 0 0.4 0"/>
<feBlend mode="normal" in2="shape" result="effect2_innerShadow_2980_1980"/>
</filter>
<filter id="filter7_i_2980_1980" x="9.96436" y="51.245" width="29.686" height="20.1451" filterUnits="userSpaceOnUse" color-interpolation-filters="sRGB">
<feFlood flood-opacity="0" result="BackgroundImageFix"/>
<feBlend mode="normal" in="SourceGraphic" in2="BackgroundImageFix" result="shape"/>
<feColorMatrix in="SourceAlpha" type="matrix" values="0 0 0 0 0 0 0 0 0 0 0 0 0 0 0 0 0 0 127 0" result="hardAlpha"/>
<feOffset dy="2"/>
<feGaussianBlur stdDeviation="1"/>
<feComposite in2="hardAlpha" operator="arithmetic" k2="-1" k3="1"/>
<feColorMatrix type="matrix" values="0 0 0 0 1 0 0 0 0 1 0 0 0 0 1 0 0 0 0.4 0"/>
<feBlend mode="normal" in2="shape" result="effect1_innerShadow_2980_1980"/>
</filter>
<filter id="filter8_bi_2980_1980" x="-8.69531" y="32.6085" width="40.5217" height="40.5217" filterUnits="userSpaceOnUse" color-interpolation-filters="sRGB">
<feFlood flood-opacity="0" result="BackgroundImageFix"/>
<feGaussianBlur in="BackgroundImageFix" stdDeviation="6"/>
<feComposite in2="SourceAlpha" operator="in" result="effect1_backgroundBlur_2980_1980"/>
<feBlend mode="normal" in="SourceGraphic" in2="effect1_backgroundBlur_2980_1980" result="shape"/>
<feColorMatrix in="SourceAlpha" type="matrix" values="0 0 0 0 0 0 0 0 0 0 0 0 0 0 0 0 0 0 127 0" result="hardAlpha"/>
<feOffset dy="2"/>
<feGaussianBlur stdDeviation="4"/>
<feComposite in2="hardAlpha" operator="arithmetic" k2="-1" k3="1"/>
<feColorMatrix type="matrix" values="0 0 0 0 1 0 0 0 0 1 0 0 0 0 1 0 0 0 0.4 0"/>
<feBlend mode="normal" in2="shape" result="effect2_innerShadow_2980_1980"/>
</filter>
<filter id="filter9_i_2980_1980" x="9.91357" y="21.4766" width="3.30444" height="35.0435" filterUnits="userSpaceOnUse" color-interpolation-filters="sRGB">
<feFlood flood-opacity="0" result="BackgroundImageFix"/>
<feBlend mode="normal" in="SourceGraphic" in2="BackgroundImageFix" result="shape"/>
<feColorMatrix in="SourceAlpha" type="matrix" values="0 0 0 0 0 0 0 0 0 0 0 0 0 0 0 0 0 0 127 0" result="hardAlpha"/>
<feOffset dy="2"/>
<feGaussianBlur stdDeviation="1"/>
<feComposite in2="hardAlpha" operator="arithmetic" k2="-1" k3="1"/>
<feColorMatrix type="matrix" values="0 0 0 0 1 0 0 0 0 1 0 0 0 0 1 0 0 0 0.4 0"/>
<feBlend mode="normal" in2="shape" result="effect1_innerShadow_2980_1980"/>
</filter>
<filter id="filter10_bi_2980_1980" x="-8.69531" y="2.86816" width="40.5217" height="40.5217" filterUnits="userSpaceOnUse" color-interpolation-filters="sRGB">
<feFlood flood-opacity="0" result="BackgroundImageFix"/>
<feGaussianBlur in="BackgroundImageFix" stdDeviation="6"/>
<feComposite in2="SourceAlpha" operator="in" result="effect1_backgroundBlur_2980_1980"/>
<feBlend mode="normal" in="SourceGraphic" in2="effect1_backgroundBlur_2980_1980" result="shape"/>
<feColorMatrix in="SourceAlpha" type="matrix" values="0 0 0 0 0 0 0 0 0 0 0 0 0 0 0 0 0 0 127 0" result="hardAlpha"/>
<feOffset dy="2"/>
<feGaussianBlur stdDeviation="4"/>
<feComposite in2="hardAlpha" operator="arithmetic" k2="-1" k3="1"/>
<feColorMatrix type="matrix" values="0 0 0 0 1 0 0 0 0 1 0 0 0 0 1 0 0 0 0.4 0"/>
<feBlend mode="normal" in2="shape" result="effect2_innerShadow_2980_1980"/>
</filter>
<filter id="filter11_i_2980_1980" x="9.91357" y="6.58105" width="29.7881" height="20.2026" filterUnits="userSpaceOnUse" color-interpolation-filters="sRGB">
<feFlood flood-opacity="0" result="BackgroundImageFix"/>
<feBlend mode="normal" in="SourceGraphic" in2="BackgroundImageFix" result="shape"/>
<feColorMatrix in="SourceAlpha" type="matrix" values="0 0 0 0 0 0 0 0 0 0 0 0 0 0 0 0 0 0 127 0" result="hardAlpha"/>
<feOffset dy="2"/>
<feGaussianBlur stdDeviation="1"/>
<feComposite in2="hardAlpha" operator="arithmetic" k2="-1" k3="1"/>
<feColorMatrix type="matrix" values="0 0 0 0 1 0 0 0 0 1 0 0 0 0 1 0 0 0 0.4 0"/>
<feBlend mode="normal" in2="shape" result="effect1_innerShadow_2980_1980"/>
</filter>
<filter id="filter12_bi_2980_1980" x="17.7388" y="-12" width="40.5217" height="40.5217" filterUnits="userSpaceOnUse" color-interpolation-filters="sRGB">
<feFlood flood-opacity="0" result="BackgroundImageFix"/>
<feGaussianBlur in="BackgroundImageFix" stdDeviation="6"/>
<feComposite in2="SourceAlpha" operator="in" result="effect1_backgroundBlur_2980_1980"/>
<feBlend mode="normal" in="SourceGraphic" in2="effect1_backgroundBlur_2980_1980" result="shape"/>
<feColorMatrix in="SourceAlpha" type="matrix" values="0 0 0 0 0 0 0 0 0 0 0 0 0 0 0 0 0 0 127 0" result="hardAlpha"/>
<feOffset dy="2"/>
<feGaussianBlur stdDeviation="4"/>
<feComposite in2="hardAlpha" operator="arithmetic" k2="-1" k3="1"/>
<feColorMatrix type="matrix" values="0 0 0 0 1 0 0 0 0 1 0 0 0 0 1 0 0 0 0.4 0"/>
<feBlend mode="normal" in2="shape" result="effect2_innerShadow_2980_1980"/>
</filter>
<filter id="filter13_i_2980_1980" x="36.3999" y="6.63672" width="21.822" height="15.9834" filterUnits="userSpaceOnUse" color-interpolation-filters="sRGB">
<feFlood flood-opacity="0" result="BackgroundImageFix"/>
<feBlend mode="normal" in="SourceGraphic" in2="BackgroundImageFix" result="shape"/>
<feColorMatrix in="SourceAlpha" type="matrix" values="0 0 0 0 0 0 0 0 0 0 0 0 0 0 0 0 0 0 127 0" result="hardAlpha"/>
<feOffset dy="2"/>
<feGaussianBlur stdDeviation="1"/>
<feComposite in2="hardAlpha" operator="arithmetic" k2="-1" k3="1"/>
<feColorMatrix type="matrix" values="0 0 0 0 1 0 0 0 0 1 0 0 0 0 1 0 0 0 0.4 0"/>
<feBlend mode="normal" in2="shape" result="effect1_innerShadow_2980_1980"/>
</filter>
<linearGradient id="paint0_linear_2980_1980" x1="9.9165" y1="6.60852" x2="76.894" y2="21.8245" gradientUnits="userSpaceOnUse">
<stop stop-color="#75A5FF"/>
<stop offset="0.703125" stop-color="#2339FF"/>
</linearGradient>
<linearGradient id="paint1_linear_2980_1980" x1="29.7388" y1="29.7402" x2="49.2009" y2="34.682" gradientUnits="userSpaceOnUse">
<stop stop-color="#83E9FF"/>
<stop offset="0.453125" stop-color="#85A0FF"/>
</linearGradient>
<linearGradient id="paint2_linear_2980_1980" x1="30.2551" y1="30.4912" x2="46.2605" y2="30.4912" gradientUnits="userSpaceOnUse">
<stop stop-color="#3CDEB6"/>
<stop offset="0.65625" stop-color="#364AFF"/>
</linearGradient>
<linearGradient id="paint3_linear_2980_1980" x1="56.1748" y1="14.8682" x2="75.6369" y2="19.81" gradientUnits="userSpaceOnUse">
<stop stop-color="#83E9FF"/>
<stop offset="0.453125" stop-color="#85A0FF"/>
</linearGradient>
<linearGradient id="paint4_linear_2980_1980" x1="56.6911" y1="15.6192" x2="72.6965" y2="15.6192" gradientUnits="userSpaceOnUse">
<stop stop-color="#3CDEB6"/>
<stop offset="0.65625" stop-color="#364AFF"/>
</linearGradient>
<linearGradient id="paint5_linear_2980_1980" x1="62.7832" y1="21.4766" x2="66.9239" y2="21.5817" gradientUnits="userSpaceOnUse">
<stop stop-color="#75A5FF"/>
<stop offset="0.703125" stop-color="#2339FF"/>
</linearGradient>
<linearGradient id="paint6_linear_2980_1980" x1="56.1748" y1="44.6085" x2="75.6369" y2="49.5503" gradientUnits="userSpaceOnUse">
<stop stop-color="#83E9FF"/>
<stop offset="0.453125" stop-color="#85A0FF"/>
</linearGradient>
<linearGradient id="paint7_linear_2980_1980" x1="56.6911" y1="45.3595" x2="72.6965" y2="45.3595" gradientUnits="userSpaceOnUse">
<stop stop-color="#3CDEB6"/>
<stop offset="0.65625" stop-color="#364AFF"/>
</linearGradient>
<linearGradient id="paint8_linear_2980_1980" x1="36.3477" y1="51.245" x2="68.093" y2="64.4326" gradientUnits="userSpaceOnUse">
<stop stop-color="#75A5FF"/>
<stop offset="0.703125" stop-color="#2339FF"/>
</linearGradient>
<linearGradient id="paint9_linear_2980_1980" x1="29.7388" y1="59.4766" x2="49.2009" y2="64.4184" gradientUnits="userSpaceOnUse">
<stop stop-color="#83E9FF"/>
<stop offset="0.453125" stop-color="#85A0FF"/>
</linearGradient>
<linearGradient id="paint10_linear_2980_1980" x1="30.2551" y1="60.2276" x2="46.2605" y2="60.2276" gradientUnits="userSpaceOnUse">
<stop stop-color="#3CDEB6"/>
<stop offset="0.65625" stop-color="#364AFF"/>
</linearGradient>
<linearGradient id="paint11_linear_2980_1980" x1="9.96436" y1="51.245" x2="41.7097" y2="64.4326" gradientUnits="userSpaceOnUse">
<stop stop-color="#75A5FF"/>
<stop offset="0.703125" stop-color="#2339FF"/>
</linearGradient>
<linearGradient id="paint12_linear_2980_1980" x1="3.30469" y1="44.6085" x2="22.7668" y2="49.5503" gradientUnits="userSpaceOnUse">
<stop stop-color="#83E9FF"/>
<stop offset="0.453125" stop-color="#85A0FF"/>
</linearGradient>
<linearGradient id="paint13_linear_2980_1980" x1="3.82099" y1="45.3595" x2="19.8264" y2="45.3595" gradientUnits="userSpaceOnUse">
<stop stop-color="#3CDEB6"/>
<stop offset="0.65625" stop-color="#364AFF"/>
</linearGradient>
<linearGradient id="paint14_linear_2980_1980" x1="9.91357" y1="21.4766" x2="14.0543" y2="21.5817" gradientUnits="userSpaceOnUse">
<stop stop-color="#75A5FF"/>
<stop offset="0.703125" stop-color="#2339FF"/>
</linearGradient>
<linearGradient id="paint15_linear_2980_1980" x1="3.30469" y1="14.8682" x2="22.7668" y2="19.81" gradientUnits="userSpaceOnUse">
<stop stop-color="#83E9FF"/>
<stop offset="0.453125" stop-color="#85A0FF"/>
</linearGradient>
<linearGradient id="paint16_linear_2980_1980" x1="3.82099" y1="15.6192" x2="19.8264" y2="15.6192" gradientUnits="userSpaceOnUse">
<stop stop-color="#3CDEB6"/>
<stop offset="0.65625" stop-color="#364AFF"/>
</linearGradient>
<linearGradient id="paint17_linear_2980_1980" x1="9.91357" y1="6.58105" x2="41.7657" y2="19.8166" gradientUnits="userSpaceOnUse">
<stop stop-color="#75A5FF"/>
<stop offset="0.703125" stop-color="#2339FF"/>
</linearGradient>
<linearGradient id="paint18_linear_2980_1980" x1="29.7388" y1="0" x2="49.2009" y2="4.94179" gradientUnits="userSpaceOnUse">
<stop stop-color="#83E9FF"/>
<stop offset="0.453125" stop-color="#85A0FF"/>
</linearGradient>
<linearGradient id="paint19_linear_2980_1980" x1="30.2551" y1="0.750988" x2="46.2605" y2="0.750989" gradientUnits="userSpaceOnUse">
<stop stop-color="#3CDEB6"/>
<stop offset="0.65625" stop-color="#364AFF"/>
</linearGradient>
<linearGradient id="paint20_linear_2980_1980" x1="36.3999" y1="6.63672" x2="60.0495" y2="16.0081" gradientUnits="userSpaceOnUse">
<stop stop-color="#75A5FF"/>
<stop offset="0.703125" stop-color="#2339FF"/>
</linearGradient>
</defs>
</svg>
