<svg width="40" height="40" viewBox="0 0 40 40" fill="none" xmlns="http://www.w3.org/2000/svg">
<path d="M20.0003 19.1295C23.3622 19.1295 26.0875 16.4041 26.0875 13.0423C26.0875 9.68041 23.3622 6.95508 20.0003 6.95508C16.6384 6.95508 13.9131 9.68041 13.9131 13.0423C13.9131 16.4041 16.6384 19.1295 20.0003 19.1295Z" fill="url(#paint0_linear_3621_8128)"/>
<path d="M20.0009 27.8259C21.9219 27.8259 23.4793 26.2686 23.4793 24.3475C23.4793 22.4265 21.9219 20.8691 20.0009 20.8691C18.0798 20.8691 16.5225 22.4265 16.5225 24.3475C16.5225 26.2686 18.0798 27.8259 20.0009 27.8259Z" fill="url(#paint1_linear_3621_8128)"/>
<path d="M20.0009 39.9998C21.9219 39.9998 23.4793 38.4424 23.4793 36.5214C23.4793 34.6003 21.9219 33.043 20.0009 33.043C18.0798 33.043 16.5225 34.6003 16.5225 36.5214C16.5225 38.4424 18.0798 39.9998 20.0009 39.9998Z" fill="url(#paint2_linear_3621_8128)"/>
<path d="M10.4345 37.3904C12.3555 37.3904 13.9129 35.8331 13.9129 33.912C13.9129 31.9909 12.3555 30.4336 10.4345 30.4336C8.51339 30.4336 6.95605 31.9909 6.95605 33.912C6.95605 35.8331 8.51339 37.3904 10.4345 37.3904Z" fill="url(#paint3_linear_3621_8128)"/>
<path d="M29.5663 37.3904C31.4874 37.3904 33.0447 35.8331 33.0447 33.912C33.0447 31.9909 31.4874 30.4336 29.5663 30.4336C27.6452 30.4336 26.0879 31.9909 26.0879 33.912C26.0879 35.8331 27.6452 37.3904 29.5663 37.3904Z" fill="url(#paint4_linear_3621_8128)"/>
<g filter="url(#filter0_bi_3621_8128)">
<path d="M28.5221 22.608C28.3494 22.608 28.1807 22.5565 28.0373 22.4602C27.8939 22.3639 27.7825 22.2271 27.7172 22.0672C27.6519 21.9073 27.6357 21.7316 27.6707 21.5625C27.7056 21.3933 27.7901 21.2384 27.9134 21.1175C29.517 19.5456 30.6162 17.5318 31.0708 15.3328C31.5254 13.1338 31.3148 10.8492 30.4658 8.77037C29.6169 6.69152 28.1681 4.91259 26.3042 3.66038C24.4402 2.40818 22.2456 1.73945 20.0001 1.73945C17.7546 1.73945 15.5599 2.40818 13.696 3.66038C11.832 4.91259 10.3832 6.69152 9.53429 8.77037C8.68535 10.8492 8.47475 13.1338 8.92933 15.3328C9.38392 17.5318 10.4831 19.5456 12.0867 21.1175C12.1701 21.197 12.2369 21.2923 12.2832 21.3978C12.3295 21.5034 12.3544 21.617 12.3563 21.7323C12.3583 21.8475 12.3373 21.962 12.2947 22.069C12.252 22.1761 12.1885 22.2736 12.1078 22.3559C12.0271 22.4382 11.9309 22.5036 11.8247 22.5484C11.7185 22.5931 11.6045 22.6164 11.4893 22.6167C11.374 22.617 11.2599 22.5944 11.1534 22.5502C11.047 22.506 10.9504 22.4411 10.8693 22.3593C9.01894 20.5456 7.75066 18.222 7.22614 15.6846C6.70162 13.1473 6.94463 10.5113 7.92417 8.1126C8.90371 5.71393 10.5754 3.66131 12.7261 2.21646C14.8768 0.771615 17.4091 0 20.0001 0C22.591 0 25.1233 0.771615 27.274 2.21646C29.4247 3.66131 31.0964 5.71393 32.076 8.1126C33.0555 10.5113 33.2985 13.1473 32.774 15.6846C32.2495 18.222 30.9812 20.5456 29.1309 22.3593C28.9683 22.5187 28.7498 22.608 28.5221 22.608Z" fill="url(#paint5_linear_3621_8128)"/>
<path d="M11.7367 21.4746L11.7367 21.4746C10.0622 19.8332 8.91438 17.7303 8.43969 15.434C7.965 13.1378 8.18491 10.7521 9.0714 8.58134C9.95788 6.41055 11.4708 4.55293 13.4171 3.24535C15.3635 1.93776 17.6552 1.23945 20.0001 1.23945C22.3449 1.23945 24.6366 1.93776 26.583 3.24535C28.5294 4.55293 30.0423 6.41055 30.9287 8.58134C31.8152 10.7521 32.0351 13.1378 31.5604 15.434C31.0858 17.7303 29.938 19.8331 28.2635 21.4745C28.2111 21.5259 28.1752 21.5917 28.1603 21.6636C28.1455 21.7355 28.1524 21.8102 28.1801 21.8781C28.2079 21.9461 28.2552 22.0042 28.3162 22.0452C28.377 22.0861 28.4487 22.108 28.5221 22.108L11.7367 21.4746ZM11.7367 21.4746L11.7418 21.4795M11.7367 21.4746L11.7418 21.4795M11.7418 21.4795C11.7773 21.5133 11.8057 21.5538 11.8253 21.5986C11.845 21.6435 11.8556 21.6918 11.8564 21.7408C11.8572 21.7898 11.8483 21.8384 11.8302 21.8839C11.8121 21.9294 11.7851 21.9709 11.7508 22.0058L12.1078 22.3559M11.7418 21.4795L12.1078 22.3559M12.1078 22.3559L11.7508 22.0058C11.7165 22.0408 11.6756 22.0686 11.6304 22.0877C11.5853 22.1067 11.5369 22.1166 11.4879 22.1167C11.4389 22.1168 11.3904 22.1072 11.3451 22.0884C11.2999 22.0697 11.2588 22.0421 11.2244 22.0073L11.2244 22.0073M12.1078 22.3559L11.2244 22.0073M11.2244 22.0073L11.2193 22.0022M11.2244 22.0073L11.2193 22.0022M11.2193 22.0022C9.43986 20.2581 8.2202 18.0235 7.71579 15.5834C7.21138 13.1434 7.44506 10.6084 8.38706 8.30163C9.32905 5.9949 10.9367 4.02097 13.0049 2.6315C15.0732 1.24204 17.5084 0.5 20.0001 0.5C22.4917 0.5 24.9269 1.24204 26.9952 2.6315C29.0635 4.02097 30.6711 5.9949 31.6131 8.30163C32.5551 10.6084 32.7888 13.1434 32.2843 15.5834C31.7799 18.0235 30.5603 20.2581 28.7809 22.0022L28.7808 22.0023M11.2193 22.0022L28.7808 22.0023M28.7808 22.0023C28.7118 22.07 28.6189 22.1079 28.5222 22.108L28.7808 22.0023Z" stroke="url(#paint6_linear_3621_8128)"/>
</g>
<g filter="url(#filter1_bi_3621_8128)">
<path d="M20.0005 34.7819C19.7698 34.7819 19.5486 34.6903 19.3856 34.5272C19.2225 34.3642 19.1309 34.143 19.1309 33.9123V26.9555C19.1309 26.7249 19.2225 26.5037 19.3856 26.3406C19.5486 26.1776 19.7698 26.0859 20.0005 26.0859C20.2311 26.0859 20.4523 26.1776 20.6154 26.3406C20.7784 26.5037 20.8701 26.7249 20.8701 26.9555V33.9123C20.8701 34.143 20.7784 34.3642 20.6154 34.5272C20.4523 34.6903 20.2311 34.7819 20.0005 34.7819Z" fill="url(#paint7_linear_3621_8128)"/>
<path d="M20.0005 34.2819C19.9024 34.2819 19.8084 34.243 19.7391 34.1737C19.6698 34.1044 19.6309 34.0104 19.6309 33.9123V26.9555C19.6309 26.8575 19.6698 26.7635 19.7391 26.6942C19.8084 26.6249 19.9024 26.5859 20.0005 26.5859C20.0985 26.5859 20.1925 26.6249 20.2618 26.6942C20.3311 26.7635 20.3701 26.8575 20.3701 26.9555V33.9123C20.3701 34.0104 20.3311 34.1044 20.2618 34.1737C20.1925 34.243 20.0985 34.2819 20.0005 34.2819Z" stroke="url(#paint8_linear_3621_8128)"/>
</g>
<g filter="url(#filter2_bi_3621_8128)">
<path d="M10.435 32.1734C10.2044 32.1734 9.98322 32.0818 9.82014 31.9187C9.65706 31.7556 9.56544 31.5344 9.56544 31.3038V27.8254C9.56456 27.663 9.60913 27.5037 9.69412 27.3654C9.7791 27.2271 9.90111 27.1153 10.0463 27.0427L17.0031 23.5643C17.2096 23.4612 17.4485 23.4444 17.6673 23.5174C17.8862 23.5905 18.067 23.7475 18.1701 23.9539C18.2732 24.1603 18.2901 24.3992 18.217 24.6181C18.144 24.837 17.987 25.0178 17.7806 25.1209L11.3046 28.3628V31.3038C11.3046 31.5344 11.213 31.7556 11.0499 31.9187C10.8869 32.0818 10.6657 32.1734 10.435 32.1734Z" fill="url(#paint9_linear_3621_8128)"/>
<path d="M10.0654 27.8254H10.0655L10.0654 27.8226C10.0651 27.7536 10.084 27.6859 10.1201 27.6271C10.1562 27.5683 10.2081 27.5208 10.2698 27.49L10.2699 27.4899L17.2265 24.0116C17.3143 23.9678 17.4159 23.9606 17.509 23.9917C17.6021 24.0228 17.679 24.0895 17.7228 24.1773L18.1638 23.9571L17.7228 24.1773C17.7667 24.2651 17.7738 24.3667 17.7428 24.4598C17.7117 24.5528 17.6449 24.6298 17.5572 24.6736L17.5567 24.6738L11.0808 27.9157L10.8046 28.0539V28.3628V31.3038C10.8046 31.4018 10.7657 31.4958 10.6964 31.5651C10.6271 31.6344 10.5331 31.6734 10.435 31.6734C10.337 31.6734 10.243 31.6344 10.1737 31.5651C10.1044 31.4958 10.0654 31.4018 10.0654 31.3038V27.8254Z" stroke="url(#paint10_linear_3621_8128)"/>
</g>
<g filter="url(#filter3_bi_3621_8128)">
<path d="M29.566 32.1744C29.3354 32.1744 29.1142 32.0828 28.9511 31.9197C28.788 31.7567 28.6964 31.5355 28.6964 31.3048V28.3639L22.2205 25.1307C22.0141 25.0276 21.8571 24.8467 21.784 24.6279C21.711 24.409 21.7278 24.1701 21.8309 23.9637C21.934 23.7573 22.1149 23.6002 22.3337 23.5272C22.5526 23.4541 22.7915 23.471 22.9979 23.5741L29.9547 27.0525C30.0986 27.1244 30.2198 27.2348 30.3047 27.3714C30.3896 27.5081 30.4349 27.6656 30.4356 27.8264V31.3048C30.4356 31.5355 30.344 31.7567 30.1809 31.9197C30.0178 32.0828 29.7967 32.1744 29.566 32.1744Z" fill="url(#paint11_linear_3621_8128)"/>
<path d="M29.1964 28.3639V28.0546L28.9198 27.9165L22.4439 24.6834C22.4439 24.6834 22.4439 24.6833 22.4439 24.6833C22.3561 24.6395 22.2894 24.5626 22.2583 24.4695C22.2272 24.3765 22.2344 24.2749 22.2782 24.1871C22.3221 24.0993 22.399 24.0325 22.4921 24.0015C22.5851 23.9704 22.6867 23.9776 22.7745 24.0214L29.7311 27.4997L29.7312 27.4998C29.7924 27.5303 29.8439 27.5773 29.88 27.6353C29.9159 27.6932 29.9352 27.7598 29.9356 27.8279V31.3048C29.9356 31.4029 29.8967 31.4969 29.8274 31.5662C29.7581 31.6355 29.664 31.6744 29.566 31.6744C29.468 31.6744 29.374 31.6355 29.3047 31.5662C29.2354 31.4969 29.1964 31.4029 29.1964 31.3048V28.3639Z" stroke="url(#paint12_linear_3621_8128)"/>
</g>
<defs>
<filter id="filter0_bi_3621_8128" x="3.95605" y="-3" width="32.0879" height="28.6167" filterUnits="userSpaceOnUse" color-interpolation-filters="sRGB">
<feFlood flood-opacity="0" result="BackgroundImageFix"/>
<feGaussianBlur in="BackgroundImageFix" stdDeviation="1.5"/>
<feComposite in2="SourceAlpha" operator="in" result="effect1_backgroundBlur_3621_8128"/>
<feBlend mode="normal" in="SourceGraphic" in2="effect1_backgroundBlur_3621_8128" result="shape"/>
<feColorMatrix in="SourceAlpha" type="matrix" values="0 0 0 0 0 0 0 0 0 0 0 0 0 0 0 0 0 0 127 0" result="hardAlpha"/>
<feOffset dy="0.5"/>
<feGaussianBlur stdDeviation="1"/>
<feComposite in2="hardAlpha" operator="arithmetic" k2="-1" k3="1"/>
<feColorMatrix type="matrix" values="0 0 0 0 1 0 0 0 0 1 0 0 0 0 1 0 0 0 0.15 0"/>
<feBlend mode="normal" in2="shape" result="effect2_innerShadow_3621_8128"/>
</filter>
<filter id="filter1_bi_3621_8128" x="16.1309" y="23.0859" width="7.73926" height="14.6958" filterUnits="userSpaceOnUse" color-interpolation-filters="sRGB">
<feFlood flood-opacity="0" result="BackgroundImageFix"/>
<feGaussianBlur in="BackgroundImageFix" stdDeviation="1.5"/>
<feComposite in2="SourceAlpha" operator="in" result="effect1_backgroundBlur_3621_8128"/>
<feBlend mode="normal" in="SourceGraphic" in2="effect1_backgroundBlur_3621_8128" result="shape"/>
<feColorMatrix in="SourceAlpha" type="matrix" values="0 0 0 0 0 0 0 0 0 0 0 0 0 0 0 0 0 0 127 0" result="hardAlpha"/>
<feOffset dy="0.5"/>
<feGaussianBlur stdDeviation="1"/>
<feComposite in2="hardAlpha" operator="arithmetic" k2="-1" k3="1"/>
<feColorMatrix type="matrix" values="0 0 0 0 1 0 0 0 0 1 0 0 0 0 1 0 0 0 0.15 0"/>
<feBlend mode="normal" in2="shape" result="effect2_innerShadow_3621_8128"/>
</filter>
<filter id="filter2_bi_3621_8128" x="6.56543" y="20.4727" width="14.6963" height="14.7007" filterUnits="userSpaceOnUse" color-interpolation-filters="sRGB">
<feFlood flood-opacity="0" result="BackgroundImageFix"/>
<feGaussianBlur in="BackgroundImageFix" stdDeviation="1.5"/>
<feComposite in2="SourceAlpha" operator="in" result="effect1_backgroundBlur_3621_8128"/>
<feBlend mode="normal" in="SourceGraphic" in2="effect1_backgroundBlur_3621_8128" result="shape"/>
<feColorMatrix in="SourceAlpha" type="matrix" values="0 0 0 0 0 0 0 0 0 0 0 0 0 0 0 0 0 0 127 0" result="hardAlpha"/>
<feOffset dy="0.5"/>
<feGaussianBlur stdDeviation="1"/>
<feComposite in2="hardAlpha" operator="arithmetic" k2="-1" k3="1"/>
<feColorMatrix type="matrix" values="0 0 0 0 1 0 0 0 0 1 0 0 0 0 1 0 0 0 0.15 0"/>
<feBlend mode="normal" in2="shape" result="effect2_innerShadow_3621_8128"/>
</filter>
<filter id="filter3_bi_3621_8128" x="18.7393" y="20.4824" width="14.6963" height="14.6919" filterUnits="userSpaceOnUse" color-interpolation-filters="sRGB">
<feFlood flood-opacity="0" result="BackgroundImageFix"/>
<feGaussianBlur in="BackgroundImageFix" stdDeviation="1.5"/>
<feComposite in2="SourceAlpha" operator="in" result="effect1_backgroundBlur_3621_8128"/>
<feBlend mode="normal" in="SourceGraphic" in2="effect1_backgroundBlur_3621_8128" result="shape"/>
<feColorMatrix in="SourceAlpha" type="matrix" values="0 0 0 0 0 0 0 0 0 0 0 0 0 0 0 0 0 0 127 0" result="hardAlpha"/>
<feOffset dy="0.5"/>
<feGaussianBlur stdDeviation="1"/>
<feComposite in2="hardAlpha" operator="arithmetic" k2="-1" k3="1"/>
<feColorMatrix type="matrix" values="0 0 0 0 1 0 0 0 0 1 0 0 0 0 1 0 0 0 0.15 0"/>
<feBlend mode="normal" in2="shape" result="effect2_innerShadow_3621_8128"/>
</filter>
<linearGradient id="paint0_linear_3621_8128" x1="10.8695" y1="5.94396" x2="27.7246" y2="17.1266" gradientUnits="userSpaceOnUse">
<stop stop-color="#6169E5" stop-opacity="0.9"/>
<stop offset="1" stop-color="#6169E5" stop-opacity="0.4"/>
</linearGradient>
<linearGradient id="paint1_linear_3621_8128" x1="14.7833" y1="20.2914" x2="24.4147" y2="26.6814" gradientUnits="userSpaceOnUse">
<stop stop-color="#6169E5" stop-opacity="0.9"/>
<stop offset="1" stop-color="#6169E5" stop-opacity="0.4"/>
</linearGradient>
<linearGradient id="paint2_linear_3621_8128" x1="14.7833" y1="32.4652" x2="24.4147" y2="38.8553" gradientUnits="userSpaceOnUse">
<stop stop-color="#6169E5" stop-opacity="0.9"/>
<stop offset="1" stop-color="#6169E5" stop-opacity="0.4"/>
</linearGradient>
<linearGradient id="paint3_linear_3621_8128" x1="5.21685" y1="29.8558" x2="14.8483" y2="36.2459" gradientUnits="userSpaceOnUse">
<stop stop-color="#6169E5" stop-opacity="0.9"/>
<stop offset="1" stop-color="#6169E5" stop-opacity="0.4"/>
</linearGradient>
<linearGradient id="paint4_linear_3621_8128" x1="24.3487" y1="29.8558" x2="33.9802" y2="36.2459" gradientUnits="userSpaceOnUse">
<stop stop-color="#6169E5" stop-opacity="0.9"/>
<stop offset="1" stop-color="#6169E5" stop-opacity="0.4"/>
</linearGradient>
<linearGradient id="paint5_linear_3621_8128" x1="0.43405" y1="-1.87839" x2="33.2382" y2="23.2262" gradientUnits="userSpaceOnUse">
<stop stop-color="#6169E5" stop-opacity="0.9"/>
<stop offset="1" stop-color="#6169E5" stop-opacity="0.4"/>
</linearGradient>
<linearGradient id="paint6_linear_3621_8128" x1="35.8392" y1="1.4567e-06" x2="6.80181" y2="20.4431" gradientUnits="userSpaceOnUse">
<stop stop-color="#C6B0FF"/>
<stop offset="1" stop-color="white" stop-opacity="0.1"/>
</linearGradient>
<linearGradient id="paint7_linear_3621_8128" x1="18.6961" y1="25.3637" x2="22.1038" y2="25.8159" gradientUnits="userSpaceOnUse">
<stop stop-color="#6169E5" stop-opacity="0.9"/>
<stop offset="1" stop-color="#6169E5" stop-opacity="0.4"/>
</linearGradient>
<linearGradient id="paint8_linear_3621_8128" x1="21.0564" y1="26.0859" x2="18.2036" y2="26.4342" gradientUnits="userSpaceOnUse">
<stop stop-color="#C6B0FF"/>
<stop offset="1" stop-color="white" stop-opacity="0.1"/>
</linearGradient>
<linearGradient id="paint9_linear_3621_8128" x1="7.39133" y1="22.75" x2="19.4349" y2="30.7364" gradientUnits="userSpaceOnUse">
<stop stop-color="#6169E5" stop-opacity="0.9"/>
<stop offset="1" stop-color="#6169E5" stop-opacity="0.4"/>
</linearGradient>
<linearGradient id="paint10_linear_3621_8128" x1="19.1936" y1="23.4727" x2="8.6428" y2="29.9091" gradientUnits="userSpaceOnUse">
<stop stop-color="#C6B0FF"/>
<stop offset="1" stop-color="white" stop-opacity="0.1"/>
</linearGradient>
<linearGradient id="paint11_linear_3621_8128" x1="19.5652" y1="22.7605" x2="31.6013" y2="30.75" gradientUnits="userSpaceOnUse">
<stop stop-color="#6169E5" stop-opacity="0.9"/>
<stop offset="1" stop-color="#6169E5" stop-opacity="0.4"/>
</linearGradient>
<linearGradient id="paint12_linear_3621_8128" x1="31.3674" y1="23.4824" x2="20.8223" y2="29.9218" gradientUnits="userSpaceOnUse">
<stop stop-color="#C6B0FF"/>
<stop offset="1" stop-color="white" stop-opacity="0.1"/>
</linearGradient>
</defs>
</svg>
