<svg width="40" height="40" viewBox="0 0 40 40" fill="none" xmlns="http://www.w3.org/2000/svg">
<path d="M20 5.57129C10.0862 5.57129 2.0459 7.46482 2.0459 9.80108V30.2451C2.0459 30.432 2.12814 30.6113 2.27453 30.7435C2.42093 30.8758 2.61948 30.95 2.82651 30.95C3.03354 30.95 3.2321 30.8758 3.37849 30.7435C3.52488 30.6113 3.60712 30.432 3.60712 30.2451C3.60712 28.8076 9.99332 26.7202 20 26.7202C30.0067 26.7202 36.3929 28.8076 36.3929 30.2451C36.3929 30.432 36.4751 30.6113 36.6215 30.7435C36.7679 30.8758 36.9665 30.95 37.1735 30.95C37.3805 30.95 37.5791 30.8758 37.7255 30.7435C37.8719 30.6113 37.9541 30.432 37.9541 30.2451V9.80108C37.9541 7.46482 29.9138 5.57129 20 5.57129Z" fill="url(#paint0_linear_3621_8115)"/>
<g filter="url(#filter0_bi_3621_8115)">
<path d="M20 2.6084C8.95652 2.6084 0 4.94405 0 7.82579V33.0432C0 33.2738 0.0916146 33.495 0.25469 33.6581C0.417765 33.8211 0.638942 33.9127 0.869565 33.9127C1.10019 33.9127 1.32137 33.8211 1.48444 33.6581C1.64752 33.495 1.73913 33.2738 1.73913 33.0432C1.73913 31.2701 8.85304 28.6954 20 28.6954C31.147 28.6954 38.2609 31.2701 38.2609 33.0432C38.2609 33.2738 38.3525 33.495 38.5156 33.6581C38.6786 33.8211 38.8998 33.9127 39.1304 33.9127C39.3611 33.9127 39.5822 33.8211 39.7453 33.6581C39.9084 33.495 40 33.2738 40 33.0432V7.82579C40 4.94405 31.0435 2.6084 20 2.6084Z" fill="url(#paint1_linear_3621_8115)"/>
<path d="M0.15 7.82579C0.15 7.18802 0.648245 6.54073 1.65074 5.92251C2.64492 5.30944 4.09344 4.75191 5.89655 4.28159C9.50055 3.34152 14.4872 2.7584 20 2.7584C25.5128 2.7584 30.4995 3.34152 34.1034 4.28159C35.9066 4.75191 37.3551 5.30944 38.3493 5.92251C39.3518 6.54073 39.85 7.18802 39.85 7.82579V33.0432C39.85 33.234 39.7742 33.417 39.6392 33.552C39.5043 33.6869 39.3213 33.7627 39.1304 33.7627C38.9396 33.7627 38.7566 33.6869 38.6216 33.552C38.4867 33.417 38.4109 33.234 38.4109 33.0432C38.4109 32.7702 38.2744 32.5016 38.0449 32.2469C37.8145 31.9912 37.4788 31.736 37.0507 31.4863C36.194 30.9864 34.9427 30.4942 33.35 30.0597C30.1628 29.1902 25.584 28.5454 20 28.5454C14.416 28.5454 9.83715 29.1902 6.64998 30.0597C5.05733 30.4942 3.80598 30.9864 2.94926 31.4863C2.52118 31.736 2.18553 31.9912 1.95513 32.2469C1.72565 32.5016 1.58913 32.7702 1.58913 33.0432C1.58913 33.234 1.51332 33.417 1.37837 33.552C1.24343 33.6869 1.06041 33.7627 0.869565 33.7627C0.678724 33.7627 0.4957 33.6869 0.360756 33.552C0.225811 33.417 0.15 33.234 0.15 33.0432V7.82579Z" stroke="url(#paint2_linear_3621_8115)" stroke-width="0.3"/>
</g>
<g filter="url(#filter1_i_3621_8115)">
<path d="M29.419 16.0389C29.266 15.8111 25.6182 10.4346 19.9999 10.4346C14.3817 10.4346 10.7338 15.8111 10.5808 16.0389C10.4854 16.1818 10.4346 16.3497 10.4346 16.5215C10.4346 16.6933 10.4854 16.8612 10.5808 17.0041C10.7338 17.232 14.3817 22.6085 19.9999 22.6085C25.6182 22.6085 29.266 17.232 29.419 17.0041C29.5144 16.8612 29.5653 16.6933 29.5653 16.5215C29.5653 16.3497 29.5144 16.1818 29.419 16.0389Z" fill="white" fill-opacity="0.1"/>
</g>
<path d="M19.9998 19.1305C21.4406 19.1305 22.6085 17.9625 22.6085 16.5218C22.6085 15.081 21.4406 13.9131 19.9998 13.9131C18.5591 13.9131 17.3911 15.081 17.3911 16.5218C17.3911 17.9625 18.5591 19.1305 19.9998 19.1305Z" fill="url(#paint3_linear_3621_8115)"/>
<g filter="url(#filter2_bi_3621_8115)">
<path d="M20.0007 20.8695C22.4019 20.8695 24.3485 18.9229 24.3485 16.5217C24.3485 14.1204 22.4019 12.1738 20.0007 12.1738C17.5994 12.1738 15.6528 14.1204 15.6528 16.5217C15.6528 18.9229 17.5994 20.8695 20.0007 20.8695Z" fill="url(#paint4_linear_3621_8115)"/>
</g>
<g filter="url(#filter3_i_3621_8115)">
<path d="M19.9998 19.1305C21.4406 19.1305 22.6085 17.9625 22.6085 16.5218C22.6085 15.081 21.4406 13.9131 19.9998 13.9131C18.5591 13.9131 17.3911 15.081 17.3911 16.5218C17.3911 17.9625 18.5591 19.1305 19.9998 19.1305Z" fill="url(#paint5_linear_3621_8115)"/>
</g>
<g filter="url(#filter4_bi_3621_8115)">
<path d="M6.29478 11.6257L6.21391 11.6039C2.3887 10.6535 0 9.31264 0 7.82568V32.9431C0 34.7509 1.96696 36.2361 5.84609 37.357C5.97559 37.3943 6.112 37.401 6.24454 37.3766C6.37708 37.3522 6.50214 37.2973 6.60983 37.2163C6.71751 37.1352 6.80489 37.0302 6.86506 36.9096C6.92523 36.789 6.95654 36.6561 6.95652 36.5213V12.47C6.95652 12.2756 6.89133 12.0867 6.77137 11.9337C6.65141 11.7806 6.48361 11.6722 6.29478 11.6257Z" fill="url(#paint6_linear_3621_8115)"/>
<path d="M6.25584 11.7705L6.25583 11.7706L6.25893 11.7713C6.41519 11.8098 6.55404 11.8995 6.65331 12.0262C6.75257 12.1528 6.80652 12.3091 6.80652 12.47V36.5213C6.80654 36.6329 6.78063 36.7429 6.73084 36.8427C6.68105 36.9425 6.60874 37.0293 6.51963 37.0964C6.43052 37.1635 6.32704 37.2089 6.21736 37.2291C6.10768 37.2493 5.9948 37.2438 5.88764 37.2129C3.95587 36.6547 2.51434 36.0094 1.55875 35.2879C0.605187 34.568 0.15 33.7844 0.15 32.9431V8.77533C0.444412 9.23243 0.943808 9.65694 1.59579 10.0449C2.68883 10.6953 4.25779 11.2724 6.17635 11.7492L6.25584 11.7705Z" stroke="url(#paint7_linear_3621_8115)" stroke-width="0.3"/>
</g>
<g filter="url(#filter5_bi_3621_8115)">
<path d="M33.7052 11.6257L33.7861 11.6039C37.6113 10.6535 40 9.31264 40 7.82568V32.9431C40 34.7509 38.033 36.2361 34.1539 37.357C34.0244 37.3943 33.888 37.401 33.7554 37.3766C33.6229 37.3522 33.4978 37.2973 33.3902 37.2163C33.2825 37.1352 33.1951 37.0302 33.1349 36.9096C33.0747 36.789 33.0434 36.6561 33.0435 36.5213V12.47C33.0435 12.2756 33.1086 12.0867 33.2286 11.9337C33.3486 11.7806 33.5164 11.6722 33.7052 11.6257Z" fill="url(#paint8_linear_3621_8115)"/>
<path d="M33.741 11.7713L33.7411 11.7714L33.7441 11.7705L33.8236 11.7492C35.7422 11.2724 37.3111 10.6953 38.4042 10.0449C39.0562 9.65694 39.5556 9.23243 39.85 8.77533V32.9431C39.85 33.7844 39.3948 34.568 38.4412 35.2879C37.4856 36.0094 36.0441 36.6547 34.1123 37.2129C34.0052 37.2438 33.8923 37.2493 33.7826 37.2291C33.6729 37.2089 33.5695 37.1635 33.4803 37.0964C33.3912 37.0293 33.3189 36.9425 33.2691 36.8427C33.2194 36.7429 33.1934 36.6329 33.1935 36.5214V12.47C33.1935 12.3091 33.2474 12.1528 33.3467 12.0262C33.4459 11.8995 33.5848 11.8098 33.741 11.7713Z" stroke="url(#paint9_linear_3621_8115)" stroke-width="0.3"/>
</g>
<g filter="url(#filter6_i_3621_8115)">
<path d="M18.2607 15.6522C18.7409 15.6522 19.1302 15.2629 19.1302 14.7827C19.1302 14.3024 18.7409 13.9131 18.2607 13.9131C17.7804 13.9131 17.3911 14.3024 17.3911 14.7827C17.3911 15.2629 17.7804 15.6522 18.2607 15.6522Z" fill="white" fill-opacity="0.1"/>
</g>
<defs>
<filter id="filter0_bi_3621_8115" x="-6" y="-3.3916" width="52" height="43.3042" filterUnits="userSpaceOnUse" color-interpolation-filters="sRGB">
<feFlood flood-opacity="0" result="BackgroundImageFix"/>
<feGaussianBlur in="BackgroundImageFix" stdDeviation="3"/>
<feComposite in2="SourceAlpha" operator="in" result="effect1_backgroundBlur_3621_8115"/>
<feBlend mode="normal" in="SourceGraphic" in2="effect1_backgroundBlur_3621_8115" result="shape"/>
<feColorMatrix in="SourceAlpha" type="matrix" values="0 0 0 0 0 0 0 0 0 0 0 0 0 0 0 0 0 0 127 0" result="hardAlpha"/>
<feOffset dy="1"/>
<feGaussianBlur stdDeviation="1.5"/>
<feComposite in2="hardAlpha" operator="arithmetic" k2="-1" k3="1"/>
<feColorMatrix type="matrix" values="0 0 0 0 1 0 0 0 0 1 0 0 0 0 1 0 0 0 0.15 0"/>
<feBlend mode="normal" in2="shape" result="effect2_innerShadow_3621_8115"/>
</filter>
<filter id="filter1_i_3621_8115" x="10.4346" y="10.4346" width="19.1309" height="14.1738" filterUnits="userSpaceOnUse" color-interpolation-filters="sRGB">
<feFlood flood-opacity="0" result="BackgroundImageFix"/>
<feBlend mode="normal" in="SourceGraphic" in2="BackgroundImageFix" result="shape"/>
<feColorMatrix in="SourceAlpha" type="matrix" values="0 0 0 0 0 0 0 0 0 0 0 0 0 0 0 0 0 0 127 0" result="hardAlpha"/>
<feOffset dy="2"/>
<feGaussianBlur stdDeviation="1"/>
<feComposite in2="hardAlpha" operator="arithmetic" k2="-1" k3="1"/>
<feColorMatrix type="matrix" values="0 0 0 0 1 0 0 0 0 1 0 0 0 0 1 0 0 0 0.1 0"/>
<feBlend mode="normal" in2="shape" result="effect1_innerShadow_3621_8115"/>
</filter>
<filter id="filter2_bi_3621_8115" x="9.65283" y="6.17383" width="20.6958" height="20.6958" filterUnits="userSpaceOnUse" color-interpolation-filters="sRGB">
<feFlood flood-opacity="0" result="BackgroundImageFix"/>
<feGaussianBlur in="BackgroundImageFix" stdDeviation="3"/>
<feComposite in2="SourceAlpha" operator="in" result="effect1_backgroundBlur_3621_8115"/>
<feBlend mode="normal" in="SourceGraphic" in2="effect1_backgroundBlur_3621_8115" result="shape"/>
<feColorMatrix in="SourceAlpha" type="matrix" values="0 0 0 0 0 0 0 0 0 0 0 0 0 0 0 0 0 0 127 0" result="hardAlpha"/>
<feOffset dy="1"/>
<feGaussianBlur stdDeviation="1.5"/>
<feComposite in2="hardAlpha" operator="arithmetic" k2="-1" k3="1"/>
<feColorMatrix type="matrix" values="0 0 0 0 1 0 0 0 0 1 0 0 0 0 1 0 0 0 0.4 0"/>
<feBlend mode="normal" in2="shape" result="effect2_innerShadow_3621_8115"/>
</filter>
<filter id="filter3_i_3621_8115" x="17.3911" y="13.9131" width="5.21729" height="7.21729" filterUnits="userSpaceOnUse" color-interpolation-filters="sRGB">
<feFlood flood-opacity="0" result="BackgroundImageFix"/>
<feBlend mode="normal" in="SourceGraphic" in2="BackgroundImageFix" result="shape"/>
<feColorMatrix in="SourceAlpha" type="matrix" values="0 0 0 0 0 0 0 0 0 0 0 0 0 0 0 0 0 0 127 0" result="hardAlpha"/>
<feOffset dy="2"/>
<feGaussianBlur stdDeviation="1"/>
<feComposite in2="hardAlpha" operator="arithmetic" k2="-1" k3="1"/>
<feColorMatrix type="matrix" values="0 0 0 0 1 0 0 0 0 1 0 0 0 0 1 0 0 0 0.4 0"/>
<feBlend mode="normal" in2="shape" result="effect1_innerShadow_3621_8115"/>
</filter>
<filter id="filter4_bi_3621_8115" x="-6" y="1.82568" width="18.9565" height="41.5654" filterUnits="userSpaceOnUse" color-interpolation-filters="sRGB">
<feFlood flood-opacity="0" result="BackgroundImageFix"/>
<feGaussianBlur in="BackgroundImageFix" stdDeviation="3"/>
<feComposite in2="SourceAlpha" operator="in" result="effect1_backgroundBlur_3621_8115"/>
<feBlend mode="normal" in="SourceGraphic" in2="effect1_backgroundBlur_3621_8115" result="shape"/>
<feColorMatrix in="SourceAlpha" type="matrix" values="0 0 0 0 0 0 0 0 0 0 0 0 0 0 0 0 0 0 127 0" result="hardAlpha"/>
<feOffset dy="1"/>
<feGaussianBlur stdDeviation="1.5"/>
<feComposite in2="hardAlpha" operator="arithmetic" k2="-1" k3="1"/>
<feColorMatrix type="matrix" values="0 0 0 0 1 0 0 0 0 1 0 0 0 0 1 0 0 0 0.15 0"/>
<feBlend mode="normal" in2="shape" result="effect2_innerShadow_3621_8115"/>
</filter>
<filter id="filter5_bi_3621_8115" x="27.0435" y="1.82568" width="18.9565" height="41.5654" filterUnits="userSpaceOnUse" color-interpolation-filters="sRGB">
<feFlood flood-opacity="0" result="BackgroundImageFix"/>
<feGaussianBlur in="BackgroundImageFix" stdDeviation="3"/>
<feComposite in2="SourceAlpha" operator="in" result="effect1_backgroundBlur_3621_8115"/>
<feBlend mode="normal" in="SourceGraphic" in2="effect1_backgroundBlur_3621_8115" result="shape"/>
<feColorMatrix in="SourceAlpha" type="matrix" values="0 0 0 0 0 0 0 0 0 0 0 0 0 0 0 0 0 0 127 0" result="hardAlpha"/>
<feOffset dy="1"/>
<feGaussianBlur stdDeviation="1.5"/>
<feComposite in2="hardAlpha" operator="arithmetic" k2="-1" k3="1"/>
<feColorMatrix type="matrix" values="0 0 0 0 1 0 0 0 0 1 0 0 0 0 1 0 0 0 0.15 0"/>
<feBlend mode="normal" in2="shape" result="effect2_innerShadow_3621_8115"/>
</filter>
<filter id="filter6_i_3621_8115" x="17.3911" y="13.9131" width="1.73926" height="3.73926" filterUnits="userSpaceOnUse" color-interpolation-filters="sRGB">
<feFlood flood-opacity="0" result="BackgroundImageFix"/>
<feBlend mode="normal" in="SourceGraphic" in2="BackgroundImageFix" result="shape"/>
<feColorMatrix in="SourceAlpha" type="matrix" values="0 0 0 0 0 0 0 0 0 0 0 0 0 0 0 0 0 0 127 0" result="hardAlpha"/>
<feOffset dy="2"/>
<feGaussianBlur stdDeviation="1"/>
<feComposite in2="hardAlpha" operator="arithmetic" k2="-1" k3="1"/>
<feColorMatrix type="matrix" values="0 0 0 0 1 0 0 0 0 1 0 0 0 0 1 0 0 0 0.1 0"/>
<feBlend mode="normal" in2="shape" result="effect1_innerShadow_3621_8115"/>
</filter>
<linearGradient id="paint0_linear_3621_8115" x1="-6.93115" y1="3.46351" x2="31.1279" y2="39.1903" gradientUnits="userSpaceOnUse">
<stop stop-color="#6169E5" stop-opacity="0.9"/>
<stop offset="1" stop-color="#6169E5" stop-opacity="0.4"/>
</linearGradient>
<linearGradient id="paint1_linear_3621_8115" x1="-10" y1="0.0084769" x2="36.4049" y2="39.3482" gradientUnits="userSpaceOnUse">
<stop stop-color="#6169E5" stop-opacity="0.9"/>
<stop offset="1" stop-color="#6169E5" stop-opacity="0.4"/>
</linearGradient>
<linearGradient id="paint2_linear_3621_8115" x1="44.2857" y1="2.6084" x2="2.87995" y2="34.9003" gradientUnits="userSpaceOnUse">
<stop stop-color="#C6B0FF"/>
<stop offset="1" stop-color="white" stop-opacity="0.1"/>
</linearGradient>
<linearGradient id="paint3_linear_3621_8115" x1="16.0868" y1="13.4798" x2="23.3101" y2="18.2721" gradientUnits="userSpaceOnUse">
<stop stop-color="#6169E5" stop-opacity="0.9"/>
<stop offset="1" stop-color="#6169E5" stop-opacity="0.4"/>
</linearGradient>
<linearGradient id="paint4_linear_3621_8115" x1="13.4789" y1="11.4516" x2="25.5178" y2="19.4389" gradientUnits="userSpaceOnUse">
<stop stop-color="#6169E5" stop-opacity="0.9"/>
<stop offset="1" stop-color="#6169E5" stop-opacity="0.4"/>
</linearGradient>
<linearGradient id="paint5_linear_3621_8115" x1="16.0868" y1="13.4798" x2="23.3101" y2="18.2721" gradientUnits="userSpaceOnUse">
<stop stop-color="#6169E5" stop-opacity="0.9"/>
<stop offset="1" stop-color="#6169E5" stop-opacity="0.4"/>
</linearGradient>
<linearGradient id="paint6_linear_3621_8115" x1="-1.73913" y1="5.37019" x2="11.8014" y2="7.48395" gradientUnits="userSpaceOnUse">
<stop stop-color="#6169E5" stop-opacity="0.9"/>
<stop offset="1" stop-color="#6169E5" stop-opacity="0.4"/>
</linearGradient>
<linearGradient id="paint7_linear_3621_8115" x1="7.70186" y1="7.82569" x2="-3.64496" y2="9.45521" gradientUnits="userSpaceOnUse">
<stop stop-color="#C6B0FF"/>
<stop offset="1" stop-color="white" stop-opacity="0.1"/>
</linearGradient>
<linearGradient id="paint8_linear_3621_8115" x1="31.3043" y1="5.37019" x2="44.8448" y2="7.48395" gradientUnits="userSpaceOnUse">
<stop stop-color="#6169E5" stop-opacity="0.9"/>
<stop offset="1" stop-color="#6169E5" stop-opacity="0.4"/>
</linearGradient>
<linearGradient id="paint9_linear_3621_8115" x1="40.7453" y1="7.82569" x2="29.3985" y2="9.45521" gradientUnits="userSpaceOnUse">
<stop stop-color="#C6B0FF"/>
<stop offset="1" stop-color="white" stop-opacity="0.1"/>
</linearGradient>
</defs>
</svg>
