<svg width="24" height="24" viewBox="0 0 24 24" fill="none" xmlns="http://www.w3.org/2000/svg">
<path d="M6 7.5C6 4.18629 8.68629 1.5 12 1.5C15.3137 1.5 18 4.18629 18 7.5C18 8.2805 17.851 9.02618 17.5798 9.71016C20.1271 10.4036 22 12.7331 22 15.5C22 18.8137 19.3137 21.5 16 21.5C14.4633 21.5 13.0615 20.9223 12 19.9722C10.9385 20.9223 9.53671 21.5 8 21.5C4.68629 21.5 2 18.8137 2 15.5C2 12.7331 3.87294 10.4036 6.42018 9.71016C6.14903 9.02618 6 8.2805 6 7.5Z" fill="url(#paint0_linear_9187_2766)"/>
<path d="M17.5798 9.71016C17.0765 9.57314 16.5468 9.5 16 9.5C13.4668 9.5 11.3002 11.0699 10.4202 13.2898M17.5798 9.71016C20.1271 10.4036 22 12.7331 22 15.5C22 18.8137 19.3137 21.5 16 21.5C14.4633 21.5 13.0615 20.9223 12 19.9722M17.5798 9.71016C17.851 9.02618 18 8.2805 18 7.5C18 4.18629 15.3137 1.5 12 1.5C8.68629 1.5 6 4.18629 6 7.5C6 8.2805 6.14903 9.02618 6.42018 9.71016M10.4202 13.2898C10.149 13.9738 10 14.7195 10 15.5C10 17.277 10.7725 18.8736 12 19.9722M10.4202 13.2898C8.59146 12.792 7.11029 11.451 6.42018 9.71016M6.42018 9.71016C3.87294 10.4036 2 12.7331 2 15.5C2 18.8137 4.68629 21.5 8 21.5C9.53671 21.5 10.9385 20.9223 12 19.9722" stroke="url(#paint1_linear_9187_2766)" stroke-linecap="round"/>
<defs>
<linearGradient id="paint0_linear_9187_2766" x1="-3" y1="-0.161061" x2="24.6894" y2="18.2096" gradientUnits="userSpaceOnUse">
<stop stop-color="#6169E5" stop-opacity="0.9"/>
<stop offset="1" stop-color="#6169E5" stop-opacity="0.4"/>
</linearGradient>
<linearGradient id="paint1_linear_9187_2766" x1="24.1429" y1="1.5" x2="-0.11531" y2="16.3059" gradientUnits="userSpaceOnUse">
<stop stop-color="#C6B0FF"/>
<stop offset="1" stop-color="white" stop-opacity="0.1"/>
</linearGradient>
</defs>
</svg>
