<svg width="48" height="49" viewBox="0 0 48 49" fill="none" xmlns="http://www.w3.org/2000/svg">
<path fill-rule="evenodd" clip-rule="evenodd" d="M12 42.333H8C6.896 42.333 6 41.437 6 40.333V28.333C6 27.229 6.896 26.333 8 26.333H12C13.104 26.333 14 27.229 14 28.333V40.333C14 41.437 13.104 42.333 12 42.333Z" stroke="#2DB04C" stroke-width="3" stroke-linecap="round" stroke-linejoin="round"/>
<path d="M26 34.3331H30.666C31.532 34.3331 32.374 34.0531 33.066 33.5331L37.898 29.9091C39.104 29.0051 40.792 29.1251 41.858 30.1911V30.1911C43.042 31.3751 43.042 33.2931 41.858 34.4751L37.712 38.6211C36.596 39.7371 35.172 40.4991 33.624 40.8091L27.764 41.9811C26.602 42.2131 25.404 42.1851 24.254 41.8971L18.954 40.5731C18.32 40.4131 17.67 40.3331 17.016 40.3331H14" stroke="#2DB04C" stroke-width="3" stroke-linecap="round" stroke-linejoin="round"/>
<path d="M26 34.333H28.97C30.644 34.333 32 32.977 32 31.303V30.697C32 29.307 31.054 28.095 29.706 27.759L25.122 26.613C24.376 26.427 23.612 26.333 22.844 26.333V26.333C20.99 26.333 19.176 26.881 17.634 27.911L14 30.333" stroke="#2DB04C" stroke-width="3" stroke-linecap="round" stroke-linejoin="round"/>
<path d="M34.3375 10.6434C36.5541 12.86 36.5541 16.4539 34.3375 18.6705C32.1209 20.8871 28.527 20.8871 26.3104 18.6705C24.0938 16.4539 24.0938 12.86 26.3104 10.6434C28.527 8.4268 32.1209 8.4268 34.3375 10.6434" stroke="#2DB04C" stroke-width="3" stroke-linecap="round" stroke-linejoin="round"/>
<path d="M29.262 9.08301C29.076 7.95301 28.56 6.86701 27.688 5.99501C25.472 3.77901 21.878 3.77901 19.662 5.99501C17.446 8.21101 17.446 11.805 19.662 14.021C21.042 15.401 22.954 15.919 24.736 15.581" stroke="#2DB04C" stroke-width="3" stroke-linecap="round" stroke-linejoin="round"/>
</svg>
