<svg width="56" height="56" viewBox="0 0 56 56" fill="none" xmlns="http://www.w3.org/2000/svg">
<path d="M53.0883 32.088C52.3602 27.216 48.2163 23.744 43.5123 23.52C44.6882 19.1519 47.5442 17.416 51.0163 16.408C51.3522 16.2961 51.2963 15.9599 51.2963 15.9599L50.7363 12.488C50.7363 12.488 50.6803 12.208 50.2322 12.264C38.2482 13.608 30.1282 22.736 31.6402 33.824C33.0401 41.496 39.0318 44.464 44.5762 43.68C50.1202 42.784 53.9282 37.632 53.0882 32.088L53.0883 32.088ZM14.8403 23.52C15.9603 19.1519 18.9284 17.416 22.3443 16.408C22.6802 16.2961 22.6243 15.9599 22.6243 15.9599L22.1202 12.488C22.1202 12.488 22.0643 12.208 21.6162 12.264C9.63219 13.5519 1.56819 22.68 2.96819 33.768C4.42415 41.496 10.4722 44.464 15.9602 43.68C21.5042 42.784 25.3122 37.632 24.4162 32.088C23.6883 27.16 19.6002 23.688 14.8402 23.52L14.8403 23.52Z" fill="url(#paint0_linear_3579_5603)"/>
<defs>
<linearGradient id="paint0_linear_3579_5603" x1="36.1124" y1="-5.23363" x2="15.9629" y2="59.4019" gradientUnits="userSpaceOnUse">
<stop stop-color="#BBD1FE"/>
<stop offset="0.0001" stop-color="#BBD1FE"/>
<stop offset="1" stop-color="#0558FF"/>
</linearGradient>
</defs>
</svg>
