<svg width="40" height="40" viewBox="0 0 40 40" fill="none" xmlns="http://www.w3.org/2000/svg">
<path d="M29.8802 15.2173L27.4889 15.0434C27.3446 14.4619 27.1146 13.9051 26.8063 13.3913L28.3715 11.58C28.4434 11.4968 28.4812 11.3895 28.4771 11.2797C28.4731 11.1698 28.4276 11.0655 28.3498 10.9878L27.1202 9.75831C27.0426 9.68073 26.9385 9.63537 26.8288 9.63134C26.7192 9.62731 26.612 9.6649 26.5289 9.73657L24.7194 11.3044C24.2057 10.9952 23.6489 10.764 23.0673 10.6183L22.8934 8.22617C22.8846 8.11699 22.8349 8.01514 22.7543 7.94098C22.6737 7.86683 22.5681 7.82582 22.4586 7.82617H20.7195C20.6094 7.82589 20.5033 7.86737 20.4226 7.94226C20.3419 8.01714 20.2926 8.11984 20.2847 8.22964L20.1108 10.6218C19.5294 10.7664 18.9726 10.9964 18.4587 11.3044L16.6465 9.73918C16.5634 9.66751 16.4563 9.62992 16.3466 9.63395C16.2369 9.63798 16.1329 9.68334 16.0552 9.76092L14.8257 10.9905C14.7479 11.0681 14.7024 11.1724 14.6983 11.2823C14.6943 11.3921 14.732 11.4995 14.804 11.5826L16.3717 13.3913C16.0623 13.9049 15.831 14.4617 15.6857 15.0434L13.2944 15.2173C13.1851 15.2259 13.083 15.2754 13.0087 15.3561C12.9343 15.4367 12.8932 15.5424 12.8936 15.6521V17.3912C12.8933 17.5014 12.9349 17.6076 13.01 17.6883C13.085 17.7691 13.1879 17.8183 13.2979 17.826L15.6892 17.9999C15.8337 18.5813 16.0637 19.1381 16.3717 19.652L14.8066 21.4642C14.7349 21.5473 14.6973 21.6544 14.7013 21.7641C14.7054 21.8737 14.7507 21.9778 14.8283 22.0554L16.0578 23.285C16.1355 23.3626 16.2395 23.4079 16.3492 23.412C16.4589 23.416 16.566 23.3784 16.6491 23.3067L18.4587 21.7389C18.9724 22.0482 19.5291 22.2794 20.1108 22.425L20.2847 24.8163C20.2933 24.9256 20.3428 25.0277 20.4234 25.102C20.5041 25.1763 20.6098 25.2175 20.7195 25.2171H22.4586C22.5688 25.2174 22.675 25.1758 22.7557 25.1007C22.8364 25.0257 22.8856 24.9227 22.8934 24.8128L23.0673 22.4215C23.6487 22.277 24.2055 22.047 24.7194 21.7389L26.5315 23.3041C26.6146 23.3758 26.7218 23.4134 26.8315 23.4093C26.9411 23.4053 27.0452 23.36 27.1228 23.2824L28.3524 22.0528C28.43 21.9752 28.4753 21.8711 28.4793 21.7615C28.4834 21.6518 28.4458 21.5447 28.3741 21.4615L26.8063 19.652C27.1156 19.1383 27.3468 18.5815 27.4924 17.9999L29.8836 17.826C29.993 17.8174 30.095 17.7679 30.1694 17.6872C30.2437 17.6066 30.2848 17.5009 30.2845 17.3912V15.6521C30.2848 15.5419 30.2432 15.4357 30.1681 15.3549C30.093 15.2742 29.9901 15.225 29.8802 15.2173ZM21.589 19.1303C21.0731 19.1303 20.5687 18.9773 20.1397 18.6907C19.7108 18.404 19.3764 17.9966 19.179 17.5199C18.9815 17.0433 18.9299 16.5188 19.0305 16.0127C19.1312 15.5067 19.3796 15.0419 19.7444 14.6771C20.1093 14.3122 20.5741 14.0638 21.0801 13.9631C21.5861 13.8625 22.1106 13.9141 22.5873 14.1116C23.064 14.309 23.4714 14.6434 23.758 15.0724C24.0447 15.5014 24.1977 16.0057 24.1977 16.5216C24.1977 17.2135 23.9228 17.877 23.4336 18.3662C22.9444 18.8555 22.2809 19.1303 21.589 19.1303Z" fill="url(#paint0_linear_3621_8062)"/>
<g filter="url(#filter0_bi_3621_8062)">
<path d="M20.952 0.0129908C12.0113 0.348636 5.06797 7.98152 5.06797 16.9283V18.0587L2.07064 24.0508C1.9684 24.255 1.9074 24.4775 1.89113 24.7053C1.87487 24.9332 1.90365 25.162 1.97584 25.3787C2.04803 25.5955 2.16221 25.7959 2.31186 25.9684C2.46151 26.141 2.6437 26.2825 2.84802 26.3846L5.06797 27.4942V32.1741C5.06797 33.3272 5.52604 34.433 6.3414 35.2484C7.15676 36.0637 8.26262 36.5218 9.41571 36.5218H15.5025V40H32.8935V28.5472C35.3492 26.2456 37.0425 23.2482 37.7464 19.9569C38.4504 16.6657 38.1313 13.2379 36.832 10.1331C35.5326 7.02834 33.3151 4.39501 30.4768 2.58619C27.6385 0.777362 24.315 -0.120496 20.952 0.0129908Z" fill="url(#paint1_linear_3621_8062)"/>
<path d="M20.9708 0.51264L20.9718 0.512597C24.233 0.383154 27.4558 1.25381 30.2081 3.00784C32.9604 4.76187 35.1107 7.31542 36.3707 10.3261C37.6307 13.3369 37.9401 16.6608 37.2575 19.8524C36.5749 23.0439 34.9329 25.9505 32.5516 28.1824L32.3935 28.3305V28.5472V39.5H16.0025V36.5218V36.0218H15.5025H9.41571C8.39523 36.0218 7.41654 35.6164 6.69495 34.8948C5.97336 34.1732 5.56797 33.1946 5.56797 32.1741V27.4942V27.1851L5.29151 27.0469L3.07164 25.9374C2.92606 25.8646 2.79626 25.7639 2.68963 25.6409C2.58301 25.5179 2.50165 25.3751 2.45022 25.2207C2.39878 25.0663 2.37827 24.9033 2.38986 24.7409C2.40145 24.5786 2.44491 24.4201 2.51776 24.2746L2.51782 24.2744L5.51515 18.2824L5.56797 18.1768V18.0587V16.9283C5.56797 8.23398 12.3148 0.837595 20.9708 0.51264Z" stroke="url(#paint2_linear_3621_8062)"/>
</g>
<g filter="url(#filter1_i_3621_8062)">
<path d="M29.8802 15.2193L27.4889 15.0454C27.3446 14.4638 27.1146 13.907 26.8063 13.3932L28.3715 11.582C28.4434 11.4988 28.4812 11.3915 28.4771 11.2816C28.4731 11.1717 28.4276 11.0675 28.3498 10.9898L27.1202 9.76026C27.0426 9.68268 26.9385 9.63733 26.8288 9.63329C26.7192 9.62926 26.612 9.66685 26.5289 9.73852L24.7194 11.3063C24.2057 10.9971 23.6489 10.7659 23.0673 10.6202L22.8934 8.22812C22.8846 8.11894 22.8349 8.01709 22.7543 7.94294C22.6737 7.86878 22.5681 7.82778 22.4586 7.82813H20.7195C20.6094 7.82784 20.5033 7.86933 20.4226 7.94421C20.3419 8.01909 20.2926 8.1218 20.2847 8.2316L20.1108 10.6237C19.5294 10.7683 18.9726 10.9984 18.4587 11.3063L16.6465 9.74113C16.5634 9.66946 16.4563 9.63187 16.3466 9.6359C16.2369 9.63993 16.1329 9.68529 16.0552 9.76287L14.8257 10.9924C14.7479 11.0701 14.7024 11.1743 14.6983 11.2842C14.6943 11.3941 14.732 11.5014 14.804 11.5846L16.3717 13.3932C16.0623 13.9068 15.831 14.4636 15.6857 15.0454L13.2944 15.2193C13.1851 15.2278 13.083 15.2774 13.0087 15.358C12.9343 15.4386 12.8932 15.5444 12.8936 15.6541V17.3931C12.8933 17.5034 12.9349 17.6096 13.01 17.6903C13.085 17.771 13.1879 17.8202 13.2979 17.8279L15.6892 18.0018C15.8337 18.5833 16.0637 19.1401 16.3717 19.654L14.8066 21.4661C14.7349 21.5492 14.6973 21.6564 14.7013 21.766C14.7054 21.8757 14.7507 21.9798 14.8283 22.0574L16.0578 23.2869C16.1355 23.3645 16.2395 23.4099 16.3492 23.4139C16.4589 23.4179 16.566 23.3804 16.6491 23.3087L18.4587 21.7409C18.9724 22.0501 19.5291 22.2813 20.1108 22.427L20.2847 24.8182C20.2933 24.9275 20.3428 25.0296 20.4234 25.1039C20.5041 25.1783 20.6098 25.2194 20.7195 25.2191H22.4586C22.5688 25.2193 22.675 25.1777 22.7557 25.1027C22.8364 25.0276 22.8856 24.9247 22.8934 24.8147L23.0673 22.4235C23.6487 22.279 24.2055 22.0489 24.7194 21.7409L26.5315 23.3061C26.6146 23.3777 26.7218 23.4153 26.8315 23.4113C26.9411 23.4073 27.0452 23.3619 27.1228 23.2843L28.3524 22.0548C28.43 21.9772 28.4753 21.8731 28.4793 21.7634C28.4834 21.6537 28.4458 21.5466 28.3741 21.4635L26.8063 19.654C27.1156 19.1403 27.3468 18.5835 27.4924 18.0018L29.8836 17.8279C29.993 17.8194 30.095 17.7698 30.1694 17.6892C30.2437 17.6086 30.2848 17.5028 30.2845 17.3931V15.6541C30.2848 15.5438 30.2432 15.4376 30.1681 15.3569C30.093 15.2762 29.9901 15.227 29.8802 15.2193ZM21.589 19.1322C21.0731 19.1322 20.5687 18.9793 20.1397 18.6926C19.7108 18.406 19.3764 17.9986 19.179 17.5219C18.9815 17.0452 18.9299 16.5207 19.0305 16.0147C19.1312 15.5087 19.3796 15.0438 19.7444 14.679C20.1093 14.3142 20.5741 14.0657 21.0801 13.9651C21.5861 13.8644 22.1106 13.9161 22.5873 14.1135C23.064 14.311 23.4714 14.6453 23.758 15.0743C24.0447 15.5033 24.1977 16.0077 24.1977 16.5236C24.1977 17.2155 23.9228 17.879 23.4336 18.3682C22.9444 18.8574 22.2809 19.1322 21.589 19.1322Z" fill="white" fill-opacity="0.1"/>
</g>
<defs>
<filter id="filter0_bi_3621_8062" x="-1.11328" y="-3" width="42.2246" height="46" filterUnits="userSpaceOnUse" color-interpolation-filters="sRGB">
<feFlood flood-opacity="0" result="BackgroundImageFix"/>
<feGaussianBlur in="BackgroundImageFix" stdDeviation="1.5"/>
<feComposite in2="SourceAlpha" operator="in" result="effect1_backgroundBlur_3621_8062"/>
<feBlend mode="normal" in="SourceGraphic" in2="effect1_backgroundBlur_3621_8062" result="shape"/>
<feColorMatrix in="SourceAlpha" type="matrix" values="0 0 0 0 0 0 0 0 0 0 0 0 0 0 0 0 0 0 127 0" result="hardAlpha"/>
<feOffset dy="0.5"/>
<feGaussianBlur stdDeviation="1"/>
<feComposite in2="hardAlpha" operator="arithmetic" k2="-1" k3="1"/>
<feColorMatrix type="matrix" values="0 0 0 0 1 0 0 0 0 1 0 0 0 0 1 0 0 0 0.15 0"/>
<feBlend mode="normal" in2="shape" result="effect2_innerShadow_3621_8062"/>
</filter>
<filter id="filter1_i_3621_8062" x="12.8936" y="7.82812" width="17.3911" height="17.8911" filterUnits="userSpaceOnUse" color-interpolation-filters="sRGB">
<feFlood flood-opacity="0" result="BackgroundImageFix"/>
<feBlend mode="normal" in="SourceGraphic" in2="BackgroundImageFix" result="shape"/>
<feColorMatrix in="SourceAlpha" type="matrix" values="0 0 0 0 0 0 0 0 0 0 0 0 0 0 0 0 0 0 127 0" result="hardAlpha"/>
<feOffset dy="0.5"/>
<feGaussianBlur stdDeviation="0.25"/>
<feComposite in2="hardAlpha" operator="arithmetic" k2="-1" k3="1"/>
<feColorMatrix type="matrix" values="0 0 0 0 1 0 0 0 0 1 0 0 0 0 1 0 0 0 0.1 0"/>
<feBlend mode="normal" in2="shape" result="effect1_innerShadow_3621_8062"/>
</filter>
<linearGradient id="paint0_linear_3621_8062" x1="8.54582" y1="6.3818" x2="32.6231" y2="22.356" gradientUnits="userSpaceOnUse">
<stop stop-color="#6169E5" stop-opacity="0.9"/>
<stop offset="1" stop-color="#6169E5" stop-opacity="0.4"/>
</linearGradient>
<linearGradient id="paint1_linear_3621_8062" x1="-7.16947" y1="-3.32212" x2="45.8999" y2="28.564" gradientUnits="userSpaceOnUse">
<stop stop-color="#6169E5" stop-opacity="0.9"/>
<stop offset="1" stop-color="#6169E5" stop-opacity="0.4"/>
</linearGradient>
<linearGradient id="paint2_linear_3621_8062" x1="41.9927" y1="2.57633e-06" x2="-4.19949" y2="25.5324" gradientUnits="userSpaceOnUse">
<stop stop-color="#C6B0FF"/>
<stop offset="1" stop-color="white" stop-opacity="0.1"/>
</linearGradient>
</defs>
</svg>
