<svg width="40" height="40" viewBox="0 0 40 40" fill="none" xmlns="http://www.w3.org/2000/svg">
<g clip-path="url(#clip0_3621_8075)">
<path d="M30.8691 31.3046C30.6385 31.3045 30.4173 31.2129 30.2543 31.0498L16.3413 17.1367C16.1829 16.9727 16.0952 16.7531 16.0972 16.5251C16.0992 16.2971 16.1906 16.079 16.3519 15.9178C16.5131 15.7566 16.7312 15.6651 16.9592 15.6631C17.1872 15.6611 17.4068 15.7488 17.5708 15.9072L31.4839 29.8202C31.6054 29.9418 31.6882 30.0968 31.7218 30.2654C31.7553 30.4341 31.7381 30.6089 31.6723 30.7678C31.6065 30.9266 31.4951 31.0624 31.3521 31.158C31.2091 31.2535 31.041 31.3045 30.8691 31.3046Z" fill="url(#paint0_linear_3621_8075)"/>
<path d="M22.1736 40C24.0946 40 25.6518 38.4427 25.6518 36.5217C25.6518 34.6007 24.0946 33.0435 22.1736 33.0435C20.2526 33.0435 18.6953 34.6007 18.6953 36.5217C18.6953 38.4427 20.2526 40 22.1736 40Z" fill="url(#paint1_linear_3621_8075)"/>
<path d="M36.0867 40C38.0076 40 39.5649 38.4427 39.5649 36.5217C39.5649 34.6007 38.0076 33.0435 36.0867 33.0435C34.1657 33.0435 32.6084 34.6007 32.6084 36.5217C32.6084 38.4427 34.1657 40 36.0867 40Z" fill="url(#paint2_linear_3621_8075)"/>
<path d="M34.3474 13.9131C36.2684 13.9131 37.8257 12.3558 37.8257 10.4348C37.8257 8.51381 36.2684 6.95654 34.3474 6.95654C32.4264 6.95654 30.8691 8.51381 30.8691 10.4348C30.8691 12.3558 32.4264 13.9131 34.3474 13.9131Z" fill="url(#paint3_linear_3621_8075)"/>
<g filter="url(#filter0_i_3621_8075)">
<path d="M29.1302 16.5221H21.3041C21.0735 16.5221 20.8523 16.4305 20.6893 16.2674C20.5262 16.1043 20.4346 15.8831 20.4346 15.6525C20.4346 15.4219 20.5262 15.2007 20.6893 15.0376C20.8523 14.8746 21.0735 14.7829 21.3041 14.7829H28.7702L32.8633 10.6899C33.0273 10.5315 33.2469 10.4439 33.4749 10.4458C33.7029 10.4478 33.921 10.5393 34.0822 10.7005C34.2435 10.8617 34.3349 11.0798 34.3369 11.3078C34.3389 11.5358 34.2512 11.7555 34.0928 11.9195L29.745 16.2673C29.582 16.4304 29.3608 16.522 29.1302 16.5221Z" fill="white" fill-opacity="0.1"/>
</g>
<path d="M28.7702 14.9329H28.8324L28.8763 14.889L32.9684 10.7969C33.104 10.6664 33.2854 10.5942 33.4736 10.5958C33.6623 10.5975 33.8428 10.6731 33.9762 10.8066C34.1096 10.94 34.1853 11.1204 34.1869 11.3091C34.1885 11.4974 34.1163 11.6787 33.9858 11.8144L29.6389 16.1612L29.6389 16.1612C29.504 16.2962 29.321 16.372 29.1302 16.3721C29.1302 16.3721 29.1302 16.3721 29.1302 16.3721H21.3041C21.1133 16.3721 20.9303 16.2963 20.7953 16.1613C20.6604 16.0264 20.5846 15.8433 20.5846 15.6525C20.5846 15.4617 20.6604 15.2786 20.7953 15.1437C20.9303 15.0088 21.1133 14.9329 21.3041 14.9329H28.7702Z" stroke="url(#paint4_linear_3621_8075)" stroke-width="0.3"/>
<g filter="url(#filter1_i_3621_8075)">
<path d="M36.0868 34.7824C35.8561 34.7824 35.635 34.6908 35.4719 34.5277C35.3088 34.3647 35.2172 34.1435 35.2172 33.9129V30.7946L30.5094 26.0868H28.2607C28.0301 26.0868 27.8089 25.9952 27.6458 25.8321C27.4827 25.669 27.3911 25.4478 27.3911 25.2172C27.3911 24.9866 27.4827 24.7654 27.6458 24.6023C27.8089 24.4393 28.0301 24.3477 28.2607 24.3477H30.8694C31.1 24.3477 31.3211 24.4394 31.4842 24.6024L36.7015 29.8198C36.8646 29.9829 36.9563 30.204 36.9563 30.4346V33.9129C36.9563 34.1435 36.8647 34.3647 36.7016 34.5277C36.5386 34.6908 36.3174 34.7824 36.0868 34.7824Z" fill="white" fill-opacity="0.1"/>
</g>
<path d="M35.3672 30.7946V30.7325L35.3233 30.6885L30.6154 25.9807L30.5715 25.9368H30.5094H28.2607C28.0698 25.9368 27.8868 25.861 27.7519 25.726C27.6169 25.5911 27.5411 25.4081 27.5411 25.2172C27.5411 25.0264 27.6169 24.8434 27.7519 24.7084C27.8868 24.5735 28.0698 24.4977 28.2607 24.4977H30.8693C30.8694 24.4977 30.8694 24.4977 30.8694 24.4977C31.0602 24.4977 31.2432 24.5735 31.3781 24.7085L31.3781 24.7085L36.5955 29.9259L36.5955 29.9259C36.7304 30.0608 36.8063 30.2438 36.8063 30.4346C36.8063 30.4346 36.8063 30.4346 36.8063 30.4346V33.9129C36.8063 34.1037 36.7305 34.2867 36.5956 34.4217C36.4606 34.5566 36.2776 34.6324 36.0868 34.6324C35.8959 34.6324 35.7129 34.5566 35.578 34.4217C35.443 34.2867 35.3672 34.1037 35.3672 33.9129V30.7946Z" stroke="url(#paint5_linear_3621_8075)" stroke-width="0.3"/>
<g filter="url(#filter2_i_3621_8075)">
<path d="M20.3295 35.547C20.0989 35.5469 19.8777 35.4553 19.7147 35.2922L15.4721 31.0496C15.309 30.8865 15.2173 30.6654 15.2173 30.4348V20.8696C15.2173 20.6389 15.3089 20.4178 15.472 20.2547C15.635 20.0916 15.8562 20 16.0869 20C16.3175 20 16.5387 20.0916 16.7017 20.2547C16.8648 20.4178 16.9564 20.6389 16.9564 20.8696V30.0748L20.9442 34.0626C21.0658 34.1842 21.1486 34.3391 21.1821 34.5078C21.2157 34.6765 21.1985 34.8513 21.1327 35.0101C21.0669 35.169 20.9554 35.3048 20.8125 35.4004C20.6695 35.4959 20.5014 35.5469 20.3295 35.547Z" fill="white" fill-opacity="0.1"/>
</g>
<path d="M19.8207 35.1861L19.8208 35.1861C19.9557 35.3211 20.1386 35.3969 20.3294 35.397L19.8207 35.1861ZM19.8207 35.1861L15.5781 30.9435L15.5781 30.9435M19.8207 35.1861L15.5781 30.9435M15.5781 30.9435C15.4432 30.8086 15.3673 30.6256 15.3673 30.4348C15.3673 30.4348 15.3673 30.4348 15.3673 30.4347V20.8696C15.3673 20.6787 15.4431 20.4957 15.578 20.3608C15.713 20.2258 15.896 20.15 16.0869 20.15C16.2777 20.15 16.4607 20.2258 16.5957 20.3608C16.7306 20.4957 16.8064 20.6787 16.8064 20.8696V30.0748V30.1369M15.5781 30.9435L16.8064 30.1369M16.8064 30.1369L16.8503 30.1808M16.8064 30.1369L16.8503 30.1808M16.8503 30.1808L20.8382 34.1687M16.8503 30.1808L20.8382 34.1687M20.8382 34.1687C20.8382 34.1687 20.8382 34.1687 20.8382 34.1687M20.8382 34.1687L20.8382 34.1687M20.8382 34.1687C20.9388 34.2693 21.0073 34.3975 21.035 34.5371M20.8382 34.1687L21.035 34.5371M21.035 34.5371C21.0628 34.6766 21.0485 34.8213 20.9941 34.9527M21.035 34.5371L20.9941 34.9527M20.9941 34.9527C20.9396 35.0842 20.8474 35.1966 20.7291 35.2756M20.9941 34.9527L20.7291 35.2756M20.7291 35.2756C20.6108 35.3547 20.4718 35.3969 20.3295 35.397L20.7291 35.2756Z" stroke="url(#paint6_linear_3621_8075)" stroke-width="0.3"/>
<g filter="url(#filter3_bi_3621_8075)">
<path d="M31.4841 24.6026L29.745 22.8635C29.582 22.7004 29.3608 22.6087 29.1302 22.6087H27.3911C27.1605 22.6087 26.9393 22.5171 26.7762 22.354C26.6131 22.1909 26.5215 21.9698 26.5215 21.7391V20C26.5215 19.7694 26.4298 19.5483 26.2667 19.3852L19.1633 12.2817C19.4289 11.4007 19.5643 10.4855 19.565 9.56522C19.565 7.6734 19.004 5.82406 17.953 4.25107C16.9019 2.67808 15.4081 1.45208 13.6602 0.728113C11.9124 0.00414449 9.98918 -0.185279 8.13371 0.183797C6.27824 0.552873 4.57388 1.46387 3.23616 2.80159C1.89844 4.13931 0.987444 5.84367 0.618368 7.69914C0.249292 9.55461 0.438715 11.4779 1.16268 13.2257C1.88665 14.9735 3.11265 16.4674 4.68564 17.5184C6.25863 18.5694 8.10797 19.1304 9.99979 19.1304C10.92 19.1297 11.8352 18.9943 12.7163 18.7287L15.7267 21.7391H17.8259C18.0565 21.7391 18.2777 21.8307 18.4408 21.9938C18.6038 22.1569 18.6954 22.3781 18.6954 22.6087V24.7078L19.8198 25.8322C19.9828 25.9953 20.204 26.0869 20.4346 26.087H22.1737C22.4043 26.087 22.6255 26.1786 22.7886 26.3417C22.9517 26.5047 23.0433 26.7259 23.0433 26.9565V28.6957C23.0433 28.9263 23.135 29.1474 23.298 29.3104L25.0372 31.0496C25.2002 31.2127 25.4214 31.3043 25.652 31.3043H30.8694C31.1 31.3043 31.3212 31.2127 31.4842 31.0497C31.6473 30.8866 31.7389 30.6654 31.7389 30.4348V25.2174C31.7389 24.9868 31.6472 24.7656 31.4841 24.6026ZM7.82588 10.4348C7.22393 10.4348 6.63551 10.2563 6.13501 9.92187C5.63451 9.58745 5.24442 9.11212 5.01407 8.556C4.78372 7.99987 4.72345 7.38793 4.84088 6.79755C4.95831 6.20718 5.24818 5.66488 5.67381 5.23924C6.09945 4.81361 6.64175 4.52374 7.23212 4.40631C7.8225 4.28888 8.43444 4.34915 8.99057 4.5795C9.54669 4.80985 10.022 5.19994 10.3564 5.70044C10.6909 6.20094 10.8694 6.78937 10.8694 7.39131C10.8694 8.19849 10.5487 8.97261 9.97794 9.54337C9.40718 10.1141 8.63306 10.4348 7.82588 10.4348Z" fill="url(#paint7_linear_3621_8075)"/>
<path d="M31.3781 24.7087L31.3781 24.7087C31.513 24.8436 31.5889 25.0266 31.5889 25.2174C31.5889 25.2174 31.5889 25.2174 31.5889 25.2174V30.4348C31.5889 30.6256 31.5131 30.8086 31.3782 30.9436C31.2432 31.0785 31.0602 31.1544 30.8694 31.1544H25.652C25.652 31.1544 25.652 31.1544 25.652 31.1544C25.4611 31.1543 25.2782 31.0785 25.1433 30.9435L25.1432 30.9435L23.4041 29.2044L23.4041 29.2044C23.2692 29.0695 23.1933 28.8865 23.1933 28.6957C23.1933 28.6956 23.1933 28.6956 23.1933 28.6956V26.9565C23.1933 26.6861 23.0858 26.4268 22.8946 26.2356C22.7034 26.0444 22.4441 25.937 22.1737 25.937H20.4346C20.4346 25.937 20.4346 25.937 20.4346 25.937C20.2438 25.9369 20.0608 25.8611 19.9259 25.7261L19.9259 25.7261L18.8454 24.6457V22.6087C18.8454 22.3383 18.738 22.079 18.5468 21.8878C18.3556 21.6966 18.0963 21.5891 17.8259 21.5891H15.7889L12.8224 18.6226L12.7589 18.5592L12.673 18.5851C11.8059 18.8465 10.9053 18.9797 9.99967 18.9804C8.13756 18.9804 6.31727 18.4282 4.76898 17.3937C3.22065 16.3591 2.01388 14.8887 1.30127 13.1683C0.58865 11.4479 0.402197 9.55478 0.765485 7.7284C1.12877 5.90203 2.02549 4.2244 3.34223 2.90766C4.65897 1.59092 6.3366 0.694203 8.16297 0.330915C9.98935 -0.0323732 11.8824 0.15408 13.6028 0.866695C15.3232 1.57931 16.7937 2.78608 17.8283 4.33441C18.8628 5.8827 19.415 7.70299 19.415 9.5651C19.4143 10.4707 19.2811 11.3714 19.0197 12.2384L18.9937 12.3244L19.0572 12.3878L26.1607 19.4913L26.1607 19.4913C26.2956 19.6262 26.3715 19.8092 26.3715 20C26.3715 20 26.3715 20 26.3715 20V21.7391C26.3715 22.0095 26.4789 22.2689 26.6702 22.4601C26.8614 22.6513 27.1207 22.7587 27.3911 22.7587H29.1302C29.1302 22.7587 29.1302 22.7587 29.1302 22.7587C29.321 22.7587 29.504 22.8346 29.6389 22.9695L29.6389 22.9695L31.3781 24.7087ZM6.05168 10.0466C6.57684 10.3975 7.19427 10.5848 7.82588 10.5848C8.67284 10.5848 9.48511 10.2483 10.084 9.64944C10.6829 9.05054 11.0194 8.23827 11.0194 7.39131C11.0194 6.7597 10.8321 6.14227 10.4812 5.61711C10.1303 5.09194 9.6315 4.68263 9.04797 4.44092C8.46444 4.19921 7.82233 4.13597 7.20286 4.25919C6.58339 4.38241 6.01436 4.68656 5.56775 5.13318C5.12113 5.57979 4.81698 6.14882 4.69376 6.76829C4.57054 7.38777 4.63378 8.02987 4.87549 8.6134C5.1172 9.19693 5.52651 9.69568 6.05168 10.0466Z" stroke="url(#paint8_linear_3621_8075)" stroke-width="0.3"/>
</g>
<g filter="url(#filter4_i_3621_8075)">
<path d="M30.8691 31.3046C30.6385 31.3045 30.4173 31.2129 30.2543 31.0498L16.3413 17.1367C16.1829 16.9727 16.0952 16.7531 16.0972 16.5251C16.0992 16.2971 16.1906 16.079 16.3519 15.9178C16.5131 15.7566 16.7312 15.6651 16.9592 15.6631C17.1872 15.6611 17.4068 15.7488 17.5708 15.9072L31.4839 29.8202C31.6054 29.9418 31.6882 30.0968 31.7218 30.2654C31.7553 30.4341 31.7381 30.6089 31.6723 30.7678C31.6065 30.9266 31.4951 31.0624 31.3521 31.158C31.2091 31.2535 31.041 31.3045 30.8691 31.3046Z" fill="white" fill-opacity="0.1"/>
</g>
</g>
<defs>
<filter id="filter0_i_3621_8075" x="20.4346" y="10.4458" width="13.9023" height="8.07617" filterUnits="userSpaceOnUse" color-interpolation-filters="sRGB">
<feFlood flood-opacity="0" result="BackgroundImageFix"/>
<feBlend mode="normal" in="SourceGraphic" in2="BackgroundImageFix" result="shape"/>
<feColorMatrix in="SourceAlpha" type="matrix" values="0 0 0 0 0 0 0 0 0 0 0 0 0 0 0 0 0 0 127 0" result="hardAlpha"/>
<feOffset dy="2"/>
<feGaussianBlur stdDeviation="1"/>
<feComposite in2="hardAlpha" operator="arithmetic" k2="-1" k3="1"/>
<feColorMatrix type="matrix" values="0 0 0 0 1 0 0 0 0 1 0 0 0 0 1 0 0 0 0.1 0"/>
<feBlend mode="normal" in2="shape" result="effect1_innerShadow_3621_8075"/>
</filter>
<filter id="filter1_i_3621_8075" x="27.3911" y="24.3477" width="9.56543" height="12.4346" filterUnits="userSpaceOnUse" color-interpolation-filters="sRGB">
<feFlood flood-opacity="0" result="BackgroundImageFix"/>
<feBlend mode="normal" in="SourceGraphic" in2="BackgroundImageFix" result="shape"/>
<feColorMatrix in="SourceAlpha" type="matrix" values="0 0 0 0 0 0 0 0 0 0 0 0 0 0 0 0 0 0 127 0" result="hardAlpha"/>
<feOffset dy="2"/>
<feGaussianBlur stdDeviation="1"/>
<feComposite in2="hardAlpha" operator="arithmetic" k2="-1" k3="1"/>
<feColorMatrix type="matrix" values="0 0 0 0 1 0 0 0 0 1 0 0 0 0 1 0 0 0 0.1 0"/>
<feBlend mode="normal" in2="shape" result="effect1_innerShadow_3621_8075"/>
</filter>
<filter id="filter2_i_3621_8075" x="15.2173" y="20" width="5.98145" height="17.5469" filterUnits="userSpaceOnUse" color-interpolation-filters="sRGB">
<feFlood flood-opacity="0" result="BackgroundImageFix"/>
<feBlend mode="normal" in="SourceGraphic" in2="BackgroundImageFix" result="shape"/>
<feColorMatrix in="SourceAlpha" type="matrix" values="0 0 0 0 0 0 0 0 0 0 0 0 0 0 0 0 0 0 127 0" result="hardAlpha"/>
<feOffset dy="2"/>
<feGaussianBlur stdDeviation="1"/>
<feComposite in2="hardAlpha" operator="arithmetic" k2="-1" k3="1"/>
<feColorMatrix type="matrix" values="0 0 0 0 1 0 0 0 0 1 0 0 0 0 1 0 0 0 0.1 0"/>
<feBlend mode="normal" in2="shape" result="effect1_innerShadow_3621_8075"/>
</filter>
<filter id="filter3_bi_3621_8075" x="-5.56543" y="-6" width="43.3042" height="43.3042" filterUnits="userSpaceOnUse" color-interpolation-filters="sRGB">
<feFlood flood-opacity="0" result="BackgroundImageFix"/>
<feGaussianBlur in="BackgroundImageFix" stdDeviation="3"/>
<feComposite in2="SourceAlpha" operator="in" result="effect1_backgroundBlur_3621_8075"/>
<feBlend mode="normal" in="SourceGraphic" in2="effect1_backgroundBlur_3621_8075" result="shape"/>
<feColorMatrix in="SourceAlpha" type="matrix" values="0 0 0 0 0 0 0 0 0 0 0 0 0 0 0 0 0 0 127 0" result="hardAlpha"/>
<feOffset dy="1"/>
<feGaussianBlur stdDeviation="1.5"/>
<feComposite in2="hardAlpha" operator="arithmetic" k2="-1" k3="1"/>
<feColorMatrix type="matrix" values="0 0 0 0 1 0 0 0 0 1 0 0 0 0 1 0 0 0 0.15 0"/>
<feBlend mode="normal" in2="shape" result="effect2_innerShadow_3621_8075"/>
</filter>
<filter id="filter4_i_3621_8075" x="16.0972" y="15.6631" width="15.6411" height="17.6416" filterUnits="userSpaceOnUse" color-interpolation-filters="sRGB">
<feFlood flood-opacity="0" result="BackgroundImageFix"/>
<feBlend mode="normal" in="SourceGraphic" in2="BackgroundImageFix" result="shape"/>
<feColorMatrix in="SourceAlpha" type="matrix" values="0 0 0 0 0 0 0 0 0 0 0 0 0 0 0 0 0 0 127 0" result="hardAlpha"/>
<feOffset dy="2"/>
<feGaussianBlur stdDeviation="1"/>
<feComposite in2="hardAlpha" operator="arithmetic" k2="-1" k3="1"/>
<feColorMatrix type="matrix" values="0 0 0 0 1 0 0 0 0 1 0 0 0 0 1 0 0 0 0.1 0"/>
<feBlend mode="normal" in2="shape" result="effect1_innerShadow_3621_8075"/>
</filter>
<linearGradient id="paint0_linear_3621_8075" x1="12.1868" y1="14.364" x2="33.8419" y2="28.731" gradientUnits="userSpaceOnUse">
<stop stop-color="#6169E5" stop-opacity="0.9"/>
<stop offset="1" stop-color="#6169E5" stop-opacity="0.4"/>
</linearGradient>
<linearGradient id="paint1_linear_3621_8075" x1="16.9562" y1="32.4657" x2="26.5873" y2="38.8555" gradientUnits="userSpaceOnUse">
<stop stop-color="#6169E5" stop-opacity="0.9"/>
<stop offset="1" stop-color="#6169E5" stop-opacity="0.4"/>
</linearGradient>
<linearGradient id="paint2_linear_3621_8075" x1="30.8693" y1="32.4657" x2="40.5004" y2="38.8555" gradientUnits="userSpaceOnUse">
<stop stop-color="#6169E5" stop-opacity="0.9"/>
<stop offset="1" stop-color="#6169E5" stop-opacity="0.4"/>
</linearGradient>
<linearGradient id="paint3_linear_3621_8075" x1="29.13" y1="6.37878" x2="38.7611" y2="12.7686" gradientUnits="userSpaceOnUse">
<stop stop-color="#6169E5" stop-opacity="0.9"/>
<stop offset="1" stop-color="#6169E5" stop-opacity="0.4"/>
</linearGradient>
<linearGradient id="paint4_linear_3621_8075" x1="35.8265" y1="10.4458" x2="27.9814" y2="21.4012" gradientUnits="userSpaceOnUse">
<stop stop-color="#C6B0FF"/>
<stop offset="1" stop-color="white" stop-opacity="0.1"/>
</linearGradient>
<linearGradient id="paint5_linear_3621_8075" x1="37.9812" y1="24.3477" x2="25.8537" y2="31.1328" gradientUnits="userSpaceOnUse">
<stop stop-color="#C6B0FF"/>
<stop offset="1" stop-color="white" stop-opacity="0.1"/>
</linearGradient>
<linearGradient id="paint6_linear_3621_8075" x1="21.8397" y1="20" x2="12.4024" y2="22.2161" gradientUnits="userSpaceOnUse">
<stop stop-color="#C6B0FF"/>
<stop offset="1" stop-color="white" stop-opacity="0.1"/>
</linearGradient>
<linearGradient id="paint7_linear_3621_8075" x1="-7.39152" y1="-2.59992" x2="35.9484" y2="26.1542" gradientUnits="userSpaceOnUse">
<stop stop-color="#6169E5" stop-opacity="0.9"/>
<stop offset="1" stop-color="#6169E5" stop-opacity="0.4"/>
</linearGradient>
<linearGradient id="paint8_linear_3621_8075" x1="35.093" y1="2.01626e-06" x2="-2.87635" y2="23.1745" gradientUnits="userSpaceOnUse">
<stop stop-color="#C6B0FF"/>
<stop offset="1" stop-color="white" stop-opacity="0.1"/>
</linearGradient>
<clipPath id="clip0_3621_8075">
<rect width="40" height="40" fill="white"/>
</clipPath>
</defs>
</svg>
