<svg width="108" height="41" viewBox="0 0 108 41" fill="none" xmlns="http://www.w3.org/2000/svg">
<path d="M35.4 17.1065H30.288C29.88 17.1065 29.556 16.7828 29.556 16.375V11.2788C29.556 10.9431 29.292 10.6792 28.956 10.6792H23.844C23.436 10.6792 23.112 10.3555 23.112 9.94779L23.088 6.2665C23.088 5.93075 22.884 5.63097 22.584 5.49907C20.592 4.67167 18.468 4.24 16.272 4.24C7.296 4.24 0 11.5306 0 20.5C0 29.4694 7.296 36.76 16.272 36.76C18.468 36.76 20.58 36.3284 22.584 35.489C22.896 35.3571 23.088 35.0572 23.088 34.7216L23.112 30.7884C23.112 30.3807 23.436 30.0569 23.844 30.0569H28.956C29.292 30.0569 29.556 29.7932 29.556 29.4574V24.3491C29.556 23.9415 29.88 23.6177 30.288 23.6177H35.4C35.736 23.6177 36 23.3538 36 23.0182V17.682C36 17.3703 35.736 17.1065 35.4 17.1065ZM15.852 23.5457H10.98C10.572 23.5457 10.248 23.222 10.248 22.8143V17.9339C10.248 17.5262 10.572 17.2024 10.98 17.2024H15.864C16.272 17.2024 16.596 17.5262 16.596 17.9339V22.8143C16.584 23.21 16.26 23.5457 15.852 23.5457ZM22.296 17.1065H17.412C17.004 17.1065 16.68 16.7828 16.68 16.375V11.5066C16.68 11.0989 17.004 10.7752 17.412 10.7752H22.296C22.704 10.7752 23.028 11.0989 23.028 11.5066V16.387C23.016 16.7828 22.692 17.1065 22.296 17.1065ZM17.412 23.6417H22.296C22.704 23.6417 23.028 23.9655 23.028 24.3731V29.2535C23.028 29.6613 22.704 29.985 22.296 29.985H17.412C17.004 29.985 16.68 29.6613 16.68 29.2535V24.3731C16.68 23.9655 17.016 23.6417 17.412 23.6417ZM23.856 17.2144H28.74C29.148 17.2144 29.472 17.5382 29.472 17.9459V22.8263C29.472 23.234 29.148 23.5577 28.74 23.5577H23.856C23.448 23.5577 23.124 23.234 23.124 22.8263V17.9459C23.124 17.5382 23.448 17.2144 23.856 17.2144Z" fill="#2DB04C"/>
<path d="M51.312 29V14.432H45.408V12.2H59.736V14.432H53.832V29H51.312ZM64.1436 29.216C62.9436 29.216 61.8556 28.936 60.8796 28.376C59.9196 27.816 59.1516 27.056 58.5756 26.096C58.0156 25.136 57.7356 24.064 57.7356 22.88C57.7356 21.712 58.0076 20.656 58.5516 19.712C59.0956 18.752 59.8316 17.992 60.7596 17.432C61.6876 16.856 62.7196 16.568 63.8556 16.568C64.9916 16.568 65.9996 16.856 66.8796 17.432C67.7596 17.992 68.4556 18.76 68.9676 19.736C69.4956 20.696 69.7596 21.784 69.7596 23V23.672H60.1356C60.2636 24.344 60.5116 24.944 60.8796 25.472C61.2636 26 61.7436 26.416 62.3196 26.72C62.9116 27.024 63.5516 27.176 64.2396 27.176C64.8316 27.176 65.3996 27.088 65.9436 26.912C66.5036 26.72 66.9676 26.448 67.3356 26.096L68.8716 27.608C68.1516 28.152 67.4076 28.56 66.6396 28.832C65.8876 29.088 65.0556 29.216 64.1436 29.216ZM60.1596 21.872H67.3836C67.2876 21.232 67.0636 20.672 66.7116 20.192C66.3756 19.696 65.9516 19.312 65.4396 19.04C64.9436 18.752 64.3996 18.608 63.8076 18.608C63.1996 18.608 62.6396 18.744 62.1276 19.016C61.6156 19.288 61.1836 19.672 60.8316 20.168C60.4956 20.648 60.2716 21.216 60.1596 21.872ZM77.3483 29.216C76.1803 29.216 75.1163 28.936 74.1563 28.376C73.1963 27.816 72.4363 27.056 71.8763 26.096C71.3323 25.136 71.0603 24.064 71.0603 22.88C71.0603 21.696 71.3403 20.632 71.9003 19.688C72.4603 18.728 73.2123 17.968 74.1563 17.408C75.1163 16.832 76.1803 16.544 77.3483 16.544C78.2763 16.544 79.1643 16.72 80.0123 17.072C80.8763 17.424 81.6203 17.92 82.2443 18.56L80.7563 20.216C80.2923 19.704 79.7723 19.32 79.1963 19.064C78.6203 18.808 78.0203 18.68 77.3963 18.68C76.6603 18.68 75.9883 18.864 75.3803 19.232C74.7883 19.6 74.3163 20.104 73.9643 20.744C73.6123 21.384 73.4363 22.096 73.4363 22.88C73.4363 23.664 73.6123 24.376 73.9643 25.016C74.3163 25.656 74.7963 26.168 75.4043 26.552C76.0123 26.92 76.6923 27.104 77.4443 27.104C78.0683 27.104 78.6523 26.984 79.1963 26.744C79.7403 26.488 80.2523 26.12 80.7323 25.64L82.1963 27.176C81.5563 27.832 80.8123 28.336 79.9643 28.688C79.1323 29.04 78.2603 29.216 77.3483 29.216ZM83.6479 29V12.2L86.0479 11.744V22.136L91.9759 16.784H94.7839L88.4719 22.496L95.1199 29H91.9519L86.0479 23.264V29H83.6479ZM100.484 29.24C99.2997 29.24 98.2197 28.96 97.2437 28.4C96.2837 27.84 95.5237 27.08 94.9637 26.12C94.4037 25.16 94.1237 24.088 94.1237 22.904C94.1237 21.72 94.4037 20.648 94.9637 19.688C95.5237 18.728 96.2837 17.968 97.2437 17.408C98.2197 16.832 99.2997 16.544 100.484 16.544C101.684 16.544 102.764 16.832 103.724 17.408C104.684 17.968 105.444 18.728 106.004 19.688C106.564 20.648 106.844 21.72 106.844 22.904C106.844 24.088 106.564 25.16 106.004 26.12C105.444 27.08 104.684 27.84 103.724 28.4C102.764 28.96 101.684 29.24 100.484 29.24ZM100.484 27.128C101.236 27.128 101.916 26.944 102.524 26.576C103.132 26.192 103.612 25.68 103.964 25.04C104.316 24.4 104.492 23.68 104.492 22.88C104.492 22.096 104.308 21.392 103.94 20.768C103.588 20.128 103.108 19.616 102.5 19.232C101.908 18.848 101.236 18.656 100.484 18.656C99.7317 18.656 99.0517 18.848 98.4437 19.232C97.8517 19.616 97.3717 20.128 97.0037 20.768C96.6517 21.392 96.4757 22.096 96.4757 22.88C96.4757 23.68 96.6517 24.4 97.0037 25.04C97.3557 25.68 97.8357 26.192 98.4437 26.576C99.0517 26.944 99.7317 27.128 100.484 27.128Z" fill="black"/>
</svg>
