<svg width="132" height="48" viewBox="0 0 132 48" fill="none" xmlns="http://www.w3.org/2000/svg">
<rect width="48" height="48" rx="24" fill="white"/>
<path d="M29.821 26.5558V31.8312C29.821 32.282 29.5812 32.699 29.191 32.9241L24.6301 35.562C24.2399 35.7872 23.7598 35.7872 23.3701 35.562L18.8087 32.9241C18.419 32.699 18.1792 32.282 18.1792 31.8312V26.5558C18.1792 26.1106 18.413 25.6986 18.7946 25.4715C18.7992 25.4685 18.8042 25.4654 18.8087 25.4629L23.3701 22.8255C23.7598 22.5998 24.2399 22.5998 24.6301 22.8255L29.191 25.4629C29.1955 25.4654 29.2 25.4685 29.2046 25.471C29.5867 25.6981 29.821 26.1101 29.821 26.5558Z" fill="#0C5AF5"/>
<path d="M23.6418 15.8999V21.1746C23.6418 21.6259 23.4015 22.0423 23.0118 22.2674L18.4139 24.926C18.0308 25.1309 17.5688 25.1239 17.1912 24.9053L12.63 22.2674C12.2403 22.0423 12 21.6259 12 21.1746V15.8999C12 15.4487 12.2403 15.0322 12.63 14.8066L17.1912 12.1692C17.5808 11.9436 18.061 11.9436 18.4506 12.1692L23.0118 14.8066C23.4015 15.0322 23.6418 15.4487 23.6418 15.8999Z" fill="#0C5AF5"/>
<path d="M35.9999 15.8999V21.1746C35.9999 21.6259 35.7577 22.0423 35.3651 22.2674L30.7688 24.9053C30.3883 25.1239 29.9227 25.1309 29.5361 24.926L24.9034 22.2674C24.5107 22.0423 24.2686 21.6259 24.2686 21.1746V15.8999C24.2686 15.4487 24.5107 15.0322 24.9034 14.8066L29.4991 12.1692C29.8923 11.9436 30.3762 11.9436 30.7688 12.1692L35.3651 14.8066C35.7577 15.0322 35.9999 15.4487 35.9999 15.8999Z" fill="#0C5AF5"/>
<path d="M70.096 33V19.272H64.432V16.2H79.216V19.272H73.576V33H70.096ZM84.2363 33.24C82.9883 33.24 81.8523 32.952 80.8283 32.376C79.8203 31.8 79.0203 31.024 78.4283 30.048C77.8363 29.072 77.5403 27.976 77.5403 26.76C77.5403 25.544 77.8203 24.448 78.3803 23.472C78.9563 22.496 79.7323 21.72 80.7083 21.144C81.6843 20.568 82.7723 20.28 83.9723 20.28C85.1723 20.28 86.2363 20.576 87.1643 21.168C88.0923 21.76 88.8203 22.56 89.3483 23.568C89.8923 24.576 90.1643 25.72 90.1643 27V27.864H80.9003C81.0443 28.36 81.2763 28.808 81.5963 29.208C81.9323 29.608 82.3403 29.92 82.8203 30.144C83.3163 30.368 83.8443 30.48 84.4043 30.48C84.9643 30.48 85.4763 30.392 85.9403 30.216C86.4203 30.04 86.8283 29.792 87.1643 29.472L89.3243 31.44C88.5563 32.064 87.7643 32.52 86.9483 32.808C86.1483 33.096 85.2443 33.24 84.2363 33.24ZM80.8523 25.512H86.9243C86.8123 25.016 86.6043 24.584 86.3003 24.216C86.0123 23.832 85.6603 23.536 85.2443 23.328C84.8443 23.104 84.3963 22.992 83.9003 22.992C83.3883 22.992 82.9243 23.096 82.5083 23.304C82.0923 23.512 81.7403 23.808 81.4523 24.192C81.1803 24.56 80.9803 25 80.8523 25.512ZM98.2486 33.24C97.0166 33.24 95.9046 32.96 94.9126 32.4C93.9206 31.824 93.1366 31.048 92.5606 30.072C91.9846 29.08 91.6966 27.976 91.6966 26.76C91.6966 25.528 91.9846 24.424 92.5606 23.448C93.1366 22.472 93.9206 21.696 94.9126 21.12C95.9046 20.544 97.0166 20.256 98.2486 20.256C99.2406 20.256 100.185 20.448 101.081 20.832C101.993 21.216 102.777 21.768 103.433 22.488L101.417 24.624C100.953 24.112 100.465 23.736 99.9526 23.496C99.4566 23.24 98.9126 23.112 98.3206 23.112C97.6806 23.112 97.1046 23.272 96.5926 23.592C96.0966 23.912 95.6966 24.344 95.3926 24.888C95.1046 25.432 94.9606 26.056 94.9606 26.76C94.9606 27.432 95.1046 28.048 95.3926 28.608C95.6966 29.152 96.1126 29.584 96.6406 29.904C97.1686 30.208 97.7526 30.36 98.3926 30.36C98.9526 30.36 99.4726 30.248 99.9526 30.024C100.449 29.784 100.921 29.432 101.369 28.968L103.337 31.032C102.697 31.72 101.929 32.264 101.033 32.664C100.137 33.048 99.2086 33.24 98.2486 33.24ZM105.046 33V16.2L108.334 15.648V25.752L113.734 20.496H117.454L111.55 26.232L117.814 33H113.614L108.334 27.288V33H105.046ZM123.705 33.24C122.457 33.24 121.329 32.952 120.321 32.376C119.313 31.8 118.513 31.024 117.921 30.048C117.329 29.072 117.033 27.976 117.033 26.76C117.033 25.544 117.321 24.448 117.896 23.472C118.489 22.48 119.289 21.696 120.297 21.12C121.321 20.544 122.457 20.256 123.705 20.256C124.953 20.256 126.081 20.544 127.089 21.12C128.113 21.696 128.913 22.48 129.489 23.472C130.081 24.448 130.377 25.544 130.377 26.76C130.377 27.976 130.081 29.072 129.489 30.048C128.913 31.024 128.121 31.8 127.113 32.376C126.105 32.952 124.969 33.24 123.705 33.24ZM123.705 30.384C124.361 30.384 124.945 30.224 125.457 29.904C125.985 29.584 126.401 29.152 126.705 28.608C127.025 28.048 127.185 27.432 127.185 26.76C127.185 26.072 127.025 25.456 126.705 24.912C126.401 24.368 125.985 23.936 125.457 23.616C124.945 23.28 124.361 23.112 123.705 23.112C123.065 23.112 122.481 23.28 121.953 23.616C121.425 23.936 121.009 24.368 120.705 24.912C120.401 25.456 120.249 26.072 120.249 26.76C120.249 27.432 120.401 28.048 120.705 28.608C121.009 29.152 121.425 29.584 121.953 29.904C122.481 30.224 123.065 30.384 123.705 30.384Z" fill="white"/>
</svg>
