<svg width="95" height="25" viewBox="0 0 95 25" fill="none" xmlns="http://www.w3.org/2000/svg">
<path d="M83.8133 8.10437H87.3653C91.8453 8.10437 94.6933 10.8564 94.6933 16.5524C94.6933 22.2484 91.8453 25.0004 87.3653 25.0004H83.8133C79.3013 25.0004 76.4854 22.2484 76.4854 16.5524C76.4854 10.8564 79.3013 8.10437 83.8133 8.10437ZM87.0453 11.3684H84.1333C81.1893 11.3684 79.9093 12.9044 79.9093 16.5524C79.9093 20.2004 81.1893 21.7044 84.1333 21.7044H87.0453C89.9573 21.7044 91.2693 20.2004 91.2693 16.5524C91.2693 12.9044 89.9573 11.3684 87.0453 11.3684Z" fill="#0C5AF5"/>
<path d="M58.9727 0.776367H62.3647V15.1124H63.9327C66.6207 15.1124 67.1647 14.9844 68.1567 13.1924L70.9727 8.10437H74.6527L71.7087 13.4164C70.8767 14.9204 70.0767 15.8484 68.7007 16.4244C70.3007 16.8724 71.1327 17.9284 72.1567 19.6884L75.1967 25.0004H71.3887L68.5727 20.0084C67.5807 18.2484 66.9087 17.9604 63.9327 17.9604H62.3647V25.0004H58.9727V0.776367Z" fill="#0C5AF5"/>
<path d="M46.2509 8.10437H54.9549V11.3684H46.5709C43.6269 11.3684 42.3469 12.9044 42.3469 16.5524C42.3469 20.2004 43.6269 21.7044 46.5709 21.7044H54.9549V25.0004H46.2509C41.7389 25.0004 38.9229 22.2484 38.9229 16.5524C38.9229 10.8564 41.7389 8.10437 46.2509 8.10437Z" fill="#0C5AF5"/>
<path d="M24.3836 8.10437H29.8556C33.8556 8.10437 35.5516 10.0244 35.5516 13.2884C35.5516 16.3924 33.9836 18.1524 29.8236 18.1524H21.7916V19.3684C21.7916 20.7124 22.5276 21.7044 24.3836 21.7044H34.7196V25.0004H24.3836C20.1596 25.0004 18.4956 22.6324 18.4956 19.4324V13.6724C18.4956 10.4724 20.1596 8.10437 24.3836 8.10437ZM21.7916 13.7044V15.4964H29.7276C31.5516 15.4964 32.2236 14.7284 32.2236 13.4804C32.2236 12.2004 31.4876 11.3684 29.8236 11.3684H24.3836C22.5276 11.3684 21.7916 12.3924 21.7916 13.7044Z" fill="#0C5AF5"/>
<path d="M0 3.40037H16.416V7.17637H10.112V25.0004H6.304V7.17637H0V3.40037Z" fill="#0C5AF5"/>
</svg>
