<svg width="70" height="21" viewBox="0 0 70 21" fill="none" xmlns="http://www.w3.org/2000/svg">
<path d="M13.5173 12.6682V16.9197C13.5173 17.283 13.3354 17.619 13.0394 17.8005L9.58001 19.9264C9.28406 20.1078 8.91985 20.1078 8.62429 19.9264L5.16449 17.8005C4.86893 17.619 4.68701 17.283 4.68701 16.9197V12.6682C4.68701 12.3094 4.86435 11.9774 5.15381 11.7944C5.15724 11.792 5.16106 11.7895 5.16449 11.7875L8.62429 9.66195C8.91985 9.48012 9.28406 9.48012 9.58001 9.66195L13.0394 11.7875C13.0429 11.7895 13.0463 11.792 13.0497 11.794C13.3396 11.977 13.5173 12.309 13.5173 12.6682Z" fill="#111317"/>
<path d="M8.83027 4.08048V8.3314C8.83027 8.69505 8.64799 9.03069 8.35244 9.21211L4.86495 11.3546C4.57435 11.5198 4.22389 11.5141 3.93749 11.338L0.477837 9.21211C0.182286 9.03069 0 8.69505 0 8.3314V4.08048C0 3.71683 0.182286 3.38119 0.477837 3.19937L3.93749 1.07391C4.23304 0.892082 4.59723 0.892082 4.89278 1.07391L8.35244 3.19937C8.64799 3.38119 8.83027 3.71683 8.83027 4.08048Z" fill="#111317"/>
<path d="M18.2044 4.08048V8.3314C18.2044 8.69505 18.0207 9.03069 17.7228 9.21211L14.2366 11.338C13.948 11.5141 13.5948 11.5198 13.3016 11.3546L9.78767 9.21211C9.48984 9.03069 9.30615 8.69505 9.30615 8.3314V4.08048C9.30615 3.71683 9.48984 3.38119 9.78767 3.19937L13.2735 1.07391C13.5718 0.892082 13.9387 0.892082 14.2366 1.07391L17.7228 3.19937C18.0207 3.38119 18.2044 3.71683 18.2044 4.08048Z" fill="#111317"/>
<path d="M31.0201 16.128C30.0921 16.128 29.3881 15.92 28.9081 15.504C28.4388 15.0773 28.2041 14.4587 28.2041 13.648V9.488H26.4921V7.664H28.2041V5.536L30.3961 5.04V7.664H32.7801V9.488H30.3961V13.2C30.3961 13.584 30.4814 13.8613 30.6521 14.032C30.8228 14.192 31.1214 14.272 31.5481 14.272C31.7614 14.272 31.9534 14.2613 32.1241 14.24C32.3054 14.208 32.5028 14.1547 32.7161 14.08V15.888C32.4921 15.9627 32.2094 16.0213 31.8681 16.064C31.5374 16.1067 31.2548 16.128 31.0201 16.128ZM37.8356 16.16C37.0036 16.16 36.2463 15.968 35.5636 15.584C34.8916 15.2 34.3583 14.6827 33.9636 14.032C33.5689 13.3813 33.3716 12.6507 33.3716 11.84C33.3716 11.0293 33.5583 10.2987 33.9316 9.648C34.3156 8.99733 34.8329 8.48 35.4836 8.096C36.1343 7.712 36.8596 7.52 37.6596 7.52C38.4596 7.52 39.1689 7.71733 39.7876 8.112C40.4063 8.50667 40.8916 9.04 41.2436 9.712C41.6063 10.384 41.7876 11.1467 41.7876 12V12.576H35.6116C35.7076 12.9067 35.8623 13.2053 36.0756 13.472C36.2996 13.7387 36.5716 13.9467 36.8916 14.096C37.2223 14.2453 37.5743 14.32 37.9476 14.32C38.3209 14.32 38.6623 14.2613 38.9716 14.144C39.2916 14.0267 39.5636 13.8613 39.7876 13.648L41.2276 14.96C40.7156 15.376 40.1876 15.68 39.6436 15.872C39.1103 16.064 38.5076 16.16 37.8356 16.16ZM35.5796 11.008H39.6276C39.5529 10.6773 39.4143 10.3893 39.2116 10.144C39.0196 9.888 38.7849 9.69067 38.5076 9.552C38.2409 9.40267 37.9423 9.328 37.6116 9.328C37.2703 9.328 36.9609 9.39733 36.6836 9.536C36.4063 9.67467 36.1716 9.872 35.9796 10.128C35.7983 10.3733 35.6649 10.6667 35.5796 11.008ZM47.1771 16.16C46.3558 16.16 45.6144 15.9733 44.9531 15.6C44.2918 15.216 43.7691 14.6987 43.3851 14.048C43.0011 13.3867 42.8091 12.6507 42.8091 11.84C42.8091 11.0187 43.0011 10.2827 43.3851 9.632C43.7691 8.98133 44.2918 8.464 44.9531 8.08C45.6144 7.696 46.3558 7.504 47.1771 7.504C47.8384 7.504 48.4678 7.632 49.0651 7.888C49.6731 8.144 50.1958 8.512 50.6331 8.992L49.2891 10.416C48.9798 10.0747 48.6544 9.824 48.3131 9.664C47.9824 9.49333 47.6198 9.408 47.2251 9.408C46.7984 9.408 46.4144 9.51467 46.0731 9.728C45.7424 9.94133 45.4758 10.2293 45.2731 10.592C45.0811 10.9547 44.9851 11.3707 44.9851 11.84C44.9851 12.288 45.0811 12.6987 45.2731 13.072C45.4758 13.4347 45.7531 13.7227 46.1051 13.936C46.4571 14.1387 46.8464 14.24 47.2731 14.24C47.6464 14.24 47.9931 14.1653 48.3131 14.016C48.6438 13.856 48.9584 13.6213 49.2571 13.312L50.5691 14.688C50.1424 15.1467 49.6304 15.5093 49.0331 15.776C48.4358 16.032 47.8171 16.16 47.1771 16.16ZM51.7087 16V4.8L53.9007 4.432V11.168L57.5007 7.664H59.9807L56.0447 11.488L60.2207 16H57.4207L53.9007 12.192V16H51.7087ZM64.1477 16.16C63.3157 16.16 62.5637 15.968 61.8917 15.584C61.2197 15.2 60.6864 14.6827 60.2917 14.032C59.8971 13.3813 59.6997 12.6507 59.6997 11.84C59.6997 11.0293 59.8917 10.2987 60.2757 9.648C60.6704 8.98667 61.2037 8.464 61.8757 8.08C62.5584 7.696 63.3157 7.504 64.1477 7.504C64.9797 7.504 65.7317 7.696 66.4037 8.08C67.0864 8.464 67.6197 8.98667 68.0037 9.648C68.3984 10.2987 68.5957 11.0293 68.5957 11.84C68.5957 12.6507 68.3984 13.3813 68.0037 14.032C67.6197 14.6827 67.0917 15.2 66.4197 15.584C65.7477 15.968 64.9904 16.16 64.1477 16.16ZM64.1477 14.256C64.5851 14.256 64.9744 14.1493 65.3157 13.936C65.6677 13.7227 65.9451 13.4347 66.1477 13.072C66.3611 12.6987 66.4677 12.288 66.4677 11.84C66.4677 11.3813 66.3611 10.9707 66.1477 10.608C65.9451 10.2453 65.6677 9.95733 65.3157 9.744C64.9744 9.52 64.5851 9.408 64.1477 9.408C63.7211 9.408 63.3317 9.52 62.9797 9.744C62.6277 9.95733 62.3504 10.2453 62.1477 10.608C61.9451 10.9707 61.8437 11.3813 61.8437 11.84C61.8437 12.288 61.9451 12.6987 62.1477 13.072C62.3504 13.4347 62.6277 13.7227 62.9797 13.936C63.3317 14.1493 63.7211 14.256 64.1477 14.256Z" fill="#16171B"/>
</svg>
