<svg width="20" height="20" viewBox="0 0 20 20" fill="none" xmlns="http://www.w3.org/2000/svg">
<path fill-rule="evenodd" clip-rule="evenodd" d="M12.9623 5C13.1173 5.75154 13.6809 6.33862 14.4025 6.5C13.6809 6.66138 13.1173 7.24846 12.9623 8C12.8073 7.24846 12.2437 6.66138 11.5221 6.5C12.2437 6.33862 12.8073 5.75154 12.9623 5ZM8.19612 5.1C8.63371 7.22236 10.2255 8.88025 12.2633 9.336C10.2255 9.79175 8.63371 11.4496 8.19612 13.572C7.75853 11.4496 6.1667 9.79175 4.12891 9.336C6.1667 8.88025 7.75853 7.22236 8.19612 5.1ZM14.4025 13C13.4404 12.7848 12.6888 12.0021 12.4822 11C12.2756 12.0021 11.524 12.7848 10.5619 13C11.524 13.2152 12.2756 13.9979 12.4822 15C12.6888 13.9979 13.4404 13.2152 14.4025 13Z" fill="url(#paint0_linear_3621_7875)"/>
<defs>
<linearGradient id="paint0_linear_3621_7875" x1="1.5605" y1="4.16947" x2="15.5469" y2="13.7027" gradientUnits="userSpaceOnUse">
<stop stop-color="#6169E5" stop-opacity="0.9"/>
<stop offset="1" stop-color="#6169E5" stop-opacity="0.4"/>
</linearGradient>
</defs>
</svg>
